<svg xmlns="http://www.w3.org/2000/svg" viewBox="0 0 34.93 34.92"><defs><style>.cls-1{fill:#bdccd4;opacity:0.4;}.cls-2{fill:#fff;}</style></defs><title>Asset 4</title><g id="Layer_2" data-name="Layer 2"><g id="Layer_1-2" data-name="Layer 1"><circle class="cls-1" cx="17.46" cy="17.46" r="17.46"/><path class="cls-2" d="M19.42,13.61l.22-1H22l-1.37,6.44a5.11,5.11,0,0,0-.12.81.46.46,0,0,0,.1.32.3.3,0,0,0,.24.12,2.24,2.24,0,0,0,1.25-.63,5.48,5.48,0,0,0,1.34-1.73,5.26,5.26,0,0,0,.16-4.41,4.74,4.74,0,0,0-1.18-1.65,5.4,5.4,0,0,0-1.91-1.1,7.8,7.8,0,0,0-2.57-.4,9,9,0,0,0-2.69.38,6.77,6.77,0,0,0-2.15,1.1,6.11,6.11,0,0,0-1.55,1.76,7.64,7.64,0,0,0-.84,2,9,9,0,0,0-.29,2.27,6.45,6.45,0,0,0,.61,2.83,5.75,5.75,0,0,0,1.79,2.15,7.31,7.31,0,0,0,2.83,1.23,11.86,11.86,0,0,0,3.76.15,9,9,0,0,0,2.82-.76,5.55,5.55,0,0,0,2-1.56h1.92a6.46,6.46,0,0,1-1.22,1.71A6.81,6.81,0,0,1,23.17,25a9.09,9.09,0,0,1-2.25.79,13,13,0,0,1-2.72.27,12.71,12.71,0,0,1-4-.58,8.13,8.13,0,0,1-3-1.67,7.1,7.1,0,0,1-1.83-2.6,8.77,8.77,0,0,1-.62-3.35,9.88,9.88,0,0,1,.64-3.57,8.21,8.21,0,0,1,4.77-4.81A10.2,10.2,0,0,1,18,8.74a9.44,9.44,0,0,1,3.13.5,6.94,6.94,0,0,1,2.44,1.43,6.23,6.23,0,0,1,1.55,2.21,7.3,7.3,0,0,1,.53,2.83,6.7,6.7,0,0,1-.43,2.36A6.63,6.63,0,0,1,24,20.14,6,6,0,0,1,22.1,21.6a5.26,5.26,0,0,1-2.34.53,2.16,2.16,0,0,1-1.13-.25,1.21,1.21,0,0,1-.54-.79,3.49,3.49,0,0,1-1.8,1,3.35,3.35,0,0,1-2-.19,3.27,3.27,0,0,1-1.54-1.32,4.17,4.17,0,0,1-.59-2.28,6.78,6.78,0,0,1,.61-2.78,5.68,5.68,0,0,1,1.72-2.24A4,4,0,0,1,17,12.4,2.59,2.59,0,0,1,19.42,13.61Zm-4.91,4.65A2.64,2.64,0,0,0,15,19.92a1.42,1.42,0,0,0,1.18.57,2,2,0,0,0,1.49-.67,4.39,4.39,0,0,0,1-1.7,6.5,6.5,0,0,0,.33-2,3.08,3.08,0,0,0-.11-.86,2.06,2.06,0,0,0-.33-.67,1.5,1.5,0,0,0-.53-.44,1.58,1.58,0,0,0-.7-.15,2,2,0,0,0-1.42.61,4.06,4.06,0,0,0-1,1.6A6.18,6.18,0,0,0,14.51,18.27Z"/></g></g></svg>