<svg id="Layer_1" data-name="Layer 1" xmlns="http://www.w3.org/2000/svg" xmlns:xlink="http://www.w3.org/1999/xlink" viewBox="0 0 135.61 173.09"><defs><style>.cls-1{fill:url(#linear-gradient);}.cls-2{fill:#fff;}.cls-3{fill:#9a8479;}.cls-4{fill:#d62612;}.cls-5{fill:#00966e;}</style><linearGradient id="linear-gradient" x1="220.92" y1="317.31" x2="306.13" y2="274.7" gradientTransform="translate(184.51 -149.04) rotate(17.48)" gradientUnits="userSpaceOnUse"><stop offset="0" stop-color="#6d6e70"/><stop offset="0.03" stop-color="#757678" stop-opacity="0.94"/><stop offset="0.23" stop-color="#a2a2a4" stop-opacity="0.6"/><stop offset="0.43" stop-color="#c4c5c6" stop-opacity="0.34"/><stop offset="0.63" stop-color="#ddddde" stop-opacity="0.15"/><stop offset="0.82" stop-color="#ececed" stop-opacity="0.04"/><stop offset="1" stop-color="#f1f1f2" stop-opacity="0"/></linearGradient></defs><title>bu-flag</title><path class="cls-1" d="M300.39,221.8l-.33-1.92,92.5-19.71a14.08,14.08,0,0,0,.24,4.93,18.33,18.33,0,0,0,1.41,4.74Z" transform="translate(-300.06 -49.08)"/><polygon class="cls-2" points="33.16 2.34 33.01 2.31 28.98 23.7 26.47 37.04 29.03 23.71 37.56 25.6 116.89 43.26 135.61 24.49 42.64 4.39 33.16 2.34"/><polygon class="cls-3" points="26.47 37.04 23.89 50.73 19.49 74.1 25.62 75.43 2.21 173.09 0.3 172.68 23.82 50.72 26.47 37.04"/><polygon class="cls-4" points="25.62 75.43 19.49 74.1 23.89 50.73 31.15 52.35 110.49 70.01 120.18 95.87 25.62 75.43"/><polygon class="cls-3" points="43.2 2.07 42.64 4.39 33.16 2.34 33.61 0 43.2 2.07"/><polygon class="cls-5" points="23.89 50.73 31.15 52.35 110.49 70.01 104.95 55.22 116.89 43.26 37.56 25.6 29.03 23.71 26.47 37.04 23.89 50.73"/></svg>