<svg xmlns="http://www.w3.org/2000/svg" viewBox="0 0 39.3 37.54"><defs><style>.cls-1{fill:#149698;}</style></defs><title>bolb</title><g id="Layer_2" data-name="Layer 2"><g id="Layer_1-2" data-name="Layer 1"><path class="cls-1" d="M19.65,6.44a1.55,1.55,0,0,0,1.29-1.7v-3A1.55,1.55,0,0,0,19.65,0a1.55,1.55,0,0,0-1.29,1.7v3A1.54,1.54,0,0,0,19.65,6.44Z"/><path class="cls-1" d="M13,8.21a1.54,1.54,0,0,0,.26-2.12L11.79,3.46a1.55,1.55,0,0,0-2-.83,1.55,1.55,0,0,0-.26,2.12l1.52,2.63A1.54,1.54,0,0,0,13,8.21Z"/><path class="cls-1" d="M7.38,11.08,4.75,9.56a1.55,1.55,0,0,0-2.12.26,1.54,1.54,0,0,0,.83,2l2.63,1.52A1.54,1.54,0,0,0,8.21,13,1.55,1.55,0,0,0,7.38,11.08Z"/><path class="cls-1" d="M35.83,27.5,33.21,26a1.54,1.54,0,0,0-2.12.26,1.54,1.54,0,0,0,.83,2l2.63,1.52a1.55,1.55,0,0,0,2.12-.26A1.55,1.55,0,0,0,35.83,27.5Z"/><path class="cls-1" d="M6.44,19.65a1.54,1.54,0,0,0-1.7-1.29h-3A1.55,1.55,0,0,0,0,19.65a1.54,1.54,0,0,0,1.7,1.29h3A1.54,1.54,0,0,0,6.44,19.65Z"/><path class="cls-1" d="M37.59,18.36h-3c-.94,0-1.7.58-1.7,1.29a1.55,1.55,0,0,0,1.7,1.29h3a1.55,1.55,0,0,0,1.7-1.29C39.3,18.94,38.53,18.36,37.59,18.36Z"/><path class="cls-1" d="M6.09,26,3.46,27.5a1.54,1.54,0,0,0-.83,2,1.55,1.55,0,0,0,2.12.26l2.63-1.52a1.54,1.54,0,0,0,.83-2A1.54,1.54,0,0,0,6.09,26Z"/><path class="cls-1" d="M33.21,13.31l2.63-1.52a1.54,1.54,0,0,0,.83-2,1.55,1.55,0,0,0-2.12-.26l-2.63,1.52a1.54,1.54,0,0,0-.83,2A1.54,1.54,0,0,0,33.21,13.31Z"/><path class="cls-1" d="M29.47,2.63a1.55,1.55,0,0,0-2,.83L26,6.09a1.54,1.54,0,0,0,.26,2.12,1.54,1.54,0,0,0,2-.83l1.52-2.63A1.54,1.54,0,0,0,29.47,2.63Z"/><path class="cls-1" d="M20.11,10.17c-5.71,0-9.39,3.94-9.39,10,0,4.9,4.12,8.24,5.46,9.2v5.22c0,1.89,2.11,2.91,4.1,2.91h0a4.73,4.73,0,0,0,2.46-.62A2.62,2.62,0,0,0,24,34.63v-5.2l.07-.06c1.4-1,5.4-4.32,5.4-9.15C29.5,14.11,25.81,10.17,20.11,10.17Zm1.7,25.27a3,3,0,0,1-1.54.36A2.75,2.75,0,0,1,18,34.92a11.11,11.11,0,0,0,2.45.3A6.8,6.8,0,0,0,22.22,35,1,1,0,0,1,21.81,35.43Zm.48-2.22a7.12,7.12,0,0,1-4.37,0v-.68a11.21,11.21,0,0,0,2.51.31,6.73,6.73,0,0,0,1.86-.25Zm0-2.41a7,7,0,0,1-4.37,0v-.71a11.79,11.79,0,0,0,2.68.34,7.33,7.33,0,0,0,1.69-.19Zm.41-2.58,0,0c-1.61.85-4.3.2-5.26-.14l-.06,0c-.89-.62-4.87-3.63-4.87-7.88,0-5.12,2.93-8.3,7.65-8.3s7.65,3.18,7.65,8.3C27.75,25,22.75,28.18,22.7,28.21Z"/></g></g></svg>