<svg id="Layer_1" data-name="Layer 1" xmlns="http://www.w3.org/2000/svg" viewBox="0 0 52 23.25"><defs><style>.cls-1{fill:#ee771a;}.cls-2{fill:#e91c24;}.cls-3{fill:#f8f07e;}.cls-4{fill:#a8cede;}.cls-5{fill:#c86416;}.cls-6{fill:#333;}.cls-7{fill:#afafaf;}</style></defs><title>car_orange</title><path class="cls-1" d="M267.19,238.63H242.28c-3.84,0-6.57,8-8.69,8h-5.39c-2.82,0-4.69,3-4.69,5.82v3.32c0,1,.39-.14,1.37-.14H274c1,0,1.52,1.13,1.52.14v-7.66C275.5,243.88,270.21,238.63,267.19,238.63Z" transform="translate(-223.5 -238.63)"/><path class="cls-2" d="M275.5,251.07s-1-.1-1,1.11v.68c0,.78,0,.92,1,.92h0v-2.72Z" transform="translate(-223.5 -238.63)"/><path class="cls-3" d="M226.5,250.83v-2c0-.13-.49-.25-.52-.37-1.22.93-2.48,2.4-2.48,4v.18l.68,0C225.2,252.66,226.5,251.84,226.5,250.83Z" transform="translate(-223.5 -238.63)"/><path class="cls-4" d="M27.22,3h9.55A1.23,1.23,0,0,1,38,4.23V8.78A1.22,1.22,0,0,1,36.78,10H27.23A1.23,1.23,0,0,1,26,8.77V4.22A1.22,1.22,0,0,1,27.22,3Z"/><path class="cls-4" d="M274.13,246.88c.15.66-.55.75-1.23.75h-8.17c-.68,0-2.24-.42-2.24-1.1V242c0-.67,1.56-.41,2.24-.41H268C270.56,241.63,273.69,245,274.13,246.88Z" transform="translate(-223.5 -238.63)"/><path class="cls-4" d="M247.5,246.54c0,.68,1.17,1.1.5,1.1H238.6c-.68,0-1.23,0-1.23-.75,0-2.07,3.13-5.25,5.31-5.25H248c.68,0-.5-.26-.5.41Z" transform="translate(-223.5 -238.63)"/><path class="cls-5" d="M224.87,255.63H274c1,0,1.52,1.13,1.52.14v-2.14h-52v2.14C223.5,256.76,223.89,255.63,224.87,255.63Z" transform="translate(-223.5 -238.63)"/><path class="cls-5" d="M226.49,255.63c0-2,2.32-5.18,5.18-5.18s5.18,3.18,5.18,5.18Z" transform="translate(-223.5 -238.63)"/><circle class="cls-6" cx="8.15" cy="19.19" r="4.06"/><circle class="cls-7" cx="8.15" cy="19.19" r="2.73"/><path class="cls-5" d="M260.39,255.63c0-2,2.32-5.18,5.18-5.18s5.18,3.18,5.18,5.18Z" transform="translate(-223.5 -238.63)"/><circle class="cls-6" cx="42.04" cy="19.19" r="4.06"/><circle class="cls-7" cx="42.04" cy="19.19" r="2.73"/><path class="cls-6" d="M249.17,249.13a.48.48,0,0,1-.41.5h-2.87a.48.48,0,0,1-.41-.5h0a.48.48,0,0,1,.41-.5h2.87a.48.48,0,0,1,.41.5Z" transform="translate(-223.5 -238.63)"/><rect class="cls-6" x="33" y="10" width="4" height="1" rx="0.41" ry="0.41"/><path class="cls-5" d="M236.5,246.56c0-.47.67-.84,1.14-.84l3.22,0c.47,0,.64.37.64.84v1.17c0,.47,0,.75-.5.75l-3.48,0c-.47,0-1-.28-1-.75Z" transform="translate(-223.5 -238.63)"/></svg>