<svg id="Layer_1" data-name="Layer 1" xmlns="http://www.w3.org/2000/svg" viewBox="0 0 56 20.49"><defs><style>.cls-1{fill:#f8f07e;}.cls-2{fill:#e91c24;}.cls-3{fill:#007298;}.cls-4{fill:#afafaf;}.cls-5{fill:#333;}.cls-6{fill:#c8c8c8;}.cls-7{fill:#a8cede;}.cls-8{fill:#005e85;}</style></defs><title>car_blue</title><path class="cls-1" d="M.76,11.07h.47a.76.76,0,0,1,.76.76V14.3a.77.77,0,0,1-.77.77H.77A.77.77,0,0,1,0,14.3V11.83a.76.76,0,0,1,.76-.76Z"/><path class="cls-2" d="M276.25,252.55a1.05,1.05,0,0,1-.77,1.27l-1,.25a1.05,1.05,0,0,1-1.27-.77h0A1.05,1.05,0,0,1,274,252l1-.25a1.05,1.05,0,0,1,1.27.77Z" transform="translate(-221.5 -240.57)"/><path class="cls-3" d="M261.56,240.63H247.93c-4.81,0-8.62,5-10,7H227.17c-2.32,0-5.67,1.56-5.67,3.89v5.11h54.67C272.61,238.63,262.71,240.63,261.56,240.63Z" transform="translate(-221.5 -240.57)"/><rect class="cls-4" x="1" y="13.07" width="55" height="2" rx="0.91" ry="0.91"/><circle class="cls-5" cx="11.45" cy="15.91" r="4.58"/><circle class="cls-4" cx="11.45" cy="15.91" r="3.08"/><circle class="cls-6" cx="11.45" cy="15.91" r="2.35"/><circle class="cls-5" cx="45.13" cy="15.91" r="4.58"/><circle class="cls-4" cx="45.13" cy="15.91" r="3.08"/><circle class="cls-6" cx="45.13" cy="15.91" r="2.35"/><path class="cls-7" d="M239.8,247.63h30.53s-3.16-5.43-8.71-5.43c0,0-10.11,0-13.81,0C246.14,242.16,243.08,243.63,239.8,247.63Z" transform="translate(-221.5 -240.57)"/><rect class="cls-3" x="31" y="1.07" width="2" height="6"/><rect class="cls-8" x="27" y="8.07" width="4" height="2" rx="0.98" ry="0.98"/><path class="cls-8" d="M254.5,250.27c0-.39.15-1.64.54-1.64h2.41c.39,0,0,1.25,0,1.64v.51c0,.39.34-.14,0-.14H255c-.39,0-.54.53-.54.14Z" transform="translate(-221.5 -240.57)"/><path class="cls-8" d="M243.5,246.35c0-.45,0-.8-.4-.8l-4.12.35c-.45,0-1.48.35-1.48.8V248c0,.45,1.25.72,1.7.72l3.42-.35a.8.8,0,0,0,.89-.71Z" transform="translate(-221.5 -240.57)"/></svg>