<svg id="Layer_1" data-name="Layer 1" xmlns="http://www.w3.org/2000/svg" viewBox="0 0 45.26 21.06"><defs><style>.cls-1{fill:#bd272d;}.cls-2{fill:#801819;}.cls-3{fill:#333;}.cls-4{fill:#c8c8c8;}.cls-5{fill:#f8f07e;}</style></defs><title>car_red</title><path class="cls-1" d="M269.89,242.67s-.42-3-2.75-3H247c-.87,0-1.54-.19-2.77,1.41-1.7,2.18-3.89,4.64-3.89,4.64s-8.57,1.1-11.07,2.23c-1.72.77-2,3-2,5,0,2.87,2.05,2.7,2.05,2.7h39c.86,0,2.75.16,2.75-1.64S269.89,242.67,269.89,242.67Z" transform="translate(-227.24 -239.63)"/><path class="cls-2" d="M271.06,253.08c0,1.8-1.89,2.55-2.75,2.55h-39s-2,0-2.05-4H271C271,252.63,271.06,252.87,271.06,253.08Z" transform="translate(-227.24 -239.63)"/><path class="cls-3" d="M240.34,245.6l4-5h13c.18,0,.18.14.18.33v4.33c0,.18-.07.33-.25.33Z" transform="translate(-227.24 -239.63)"/><path class="cls-3" d="M259.29,240.63h7.35a1.56,1.56,0,0,1,1.62,1.58l.31,3c0,.19-.1.42-.28.42h-9c-.18,0-.79-.16-.79-.34V241C258.5,240.78,259.11,240.63,259.29,240.63Z" transform="translate(-227.24 -239.63)"/><rect class="cls-3" x="26.26" y="6.01" width="4" height="1" rx="0.37" ry="0.37"/><path class="cls-3" d="M269.5,249.93c0,.93.93.71,1.89.71h.28c1,0,.82.22.82-.71v-4.55c0-.93.14-1.74-.82-1.74h-.28a1.9,1.9,0,0,0-1.89,1.74Z" transform="translate(-227.24 -239.63)"/><path class="cls-3" d="M267.48,255.63c0-4-2.65-5.91-5.91-5.91s-5.91,1.91-5.91,5.91Z" transform="translate(-227.24 -239.63)"/><path class="cls-3" d="M243.17,255.63c0-4-2.65-5.91-5.91-5.91s-5.91,1.91-5.91,5.91Z" transform="translate(-227.24 -239.63)"/><circle class="cls-3" cx="34.33" cy="16.65" r="4.41"/><circle class="cls-4" cx="34.33" cy="16.65" r="3.37"/><circle class="cls-3" cx="10.02" cy="16.65" r="4.41"/><circle class="cls-4" cx="10.02" cy="16.65" r="3.37"/><path class="cls-5" d="M228.41,247.63c.71,0,1.09,2,1.09,2.84v.13c0,.84-.39,1-1.09,1h-1.14c.07-1,.29-1,.83-4Z" transform="translate(-227.24 -239.63)"/><rect class="cls-1" x="17.26" y="1.01" width="1" height="5"/><rect class="cls-2" x="17.26" y="5.01" width="4" height="1" rx="0.25" ry="0.25"/></svg>