<svg id="Layer_1" data-name="Layer 1" xmlns="http://www.w3.org/2000/svg" viewBox="0 0 57 21.18"><defs><style>.cls-1{fill:#f8f07e;}.cls-2{fill:#e91c24;}.cls-3{fill:#008e45;}.cls-4{fill:#afafaf;}.cls-5{fill:#333;}.cls-6{fill:#c8c8c8;}.cls-7{fill:#a8cede;}.cls-8{fill:#006837;}</style></defs><title>car_green</title><path class="cls-1" d="M221.5,251.4c0-.42.69-.77,1.11-.77h.47c.42,0,.42.34.42.77v2.47c0,.42,0,.77-.42.77h-.47c-.42,0-1.11-.34-1.11-.77Z" transform="translate(-221.5 -239.63)"/><path class="cls-2" d="M277.88,252.3a1.05,1.05,0,0,1-.77,1.27l-1,.25a1.05,1.05,0,0,1-1.27-.77h0a1.05,1.05,0,0,1,.77-1.27l1-.25a1.05,1.05,0,0,1,1.27.77Z" transform="translate(-221.5 -239.63)"/><path class="cls-3" d="M263.19,239.63H249.56c-4.81,0-8.62,6-10,8H228.8c-2.32,0-6.3,1.32-6.3,3.64v4.36h55.3C274.24,239.63,264.34,239.63,263.19,239.63Z" transform="translate(-221.5 -239.63)"/><path class="cls-4" d="M223.5,254.54c0-.5.75-.91,1.25-.91h53.19c.5,0,.56.41.56.91v.18c0,.5-.06.91-.56.91H224.75c-.5,0-1.25-.41-1.25-.91Z" transform="translate(-221.5 -239.63)"/><circle class="cls-5" cx="13.08" cy="16.6" r="4.58"/><circle class="cls-4" cx="13.08" cy="16.6" r="3.08"/><circle class="cls-6" cx="13.08" cy="16.6" r="2.35"/><circle class="cls-5" cx="46.77" cy="16.6" r="4.58"/><circle class="cls-4" cx="46.77" cy="16.6" r="3.08"/><circle class="cls-6" cx="46.77" cy="16.6" r="2.35"/><path class="cls-7" d="M241.43,247.63H272s-3.16-5.55-8.72-5.55H249.44C247.77,242.1,244.71,243.63,241.43,247.63Z" transform="translate(-221.5 -239.63)"/><rect class="cls-3" x="32" y="1" width="3" height="7"/><path class="cls-8" d="M249.5,249.91c0-.39,1.31-1.28,1.7-1.28h2.49c.39,0-.19.89-.19,1.28v.55c0,.39.57.18.19.18H251.2c-.39,0-1.7.21-1.7-.18Z" transform="translate(-221.5 -239.63)"/><path class="cls-8" d="M255.5,249.91c0-.39,1.15-1.28,1.54-1.28h2.49c.39,0,0,.89,0,1.28v.55c0,.39.42.18,0,.18H257c-.39,0-1.54.21-1.54-.18Z" transform="translate(-221.5 -239.63)"/><path class="cls-8" d="M246.5,246.11c0-.45-.64-.8-1.08-.8l-3.78.35c-.45,0-1.14.35-1.14.8v1.29c0,.45.56.72,1,.72l3.76-.35c.45,0,1.23-.27,1.23-.71Z" transform="translate(-221.5 -239.63)"/></svg>