<svg id="Layer_1" data-name="Layer 1" xmlns="http://www.w3.org/2000/svg" viewBox="0 0 43.38 22.45"><defs><style>.cls-1{fill:#ffc700;}.cls-2{fill:#afafaf;}.cls-3{fill:#eba214;}.cls-4{fill:#333;}.cls-5{fill:#e91c24;}.cls-6{fill:#f8f07e;}.cls-7{fill:#a8cede;}</style></defs><title>car_yellow</title><path class="cls-1" d="M258.15,238.63h-5.22c-9.23,0-11,4.68-14.5,7a15.4,15.4,0,0,1-6,2.08,5.43,5.43,0,0,0-3.6,2.74,12.82,12.82,0,0,0-.75,4.41,1.63,1.63,0,0,0,1.68,1.79h38.8c.82,0,1.23-1,1.31-1.83a21.19,21.19,0,0,0,0-5C269,245.51,265.56,238.63,258.15,238.63Z" transform="translate(-228.12 -238.63)"/><path class="cls-2" d="M228.12,254.83c0-.15,0-.33,0-.52l41.85-.57c0,.4-.06.77-.08,1.07-.07.82-.48,1.83-1.31,1.83H229.8A1.64,1.64,0,0,1,228.12,254.83Z" transform="translate(-228.12 -238.63)"/><path class="cls-3" d="M266.62,256.63c0-4-2.5-5.58-5.58-5.58s-5.58,1.58-5.58,5.58Z" transform="translate(-228.12 -238.63)"/><circle class="cls-4" cx="32.96" cy="18.08" r="4.37"/><circle class="cls-2" cx="32.96" cy="18.08" r="2.94"/><path class="cls-3" d="M243.1,256.63c0-4-2.5-5.58-5.58-5.58s-5.58,1.58-5.58,5.58Z" transform="translate(-228.12 -238.63)"/><circle class="cls-4" cx="9.43" cy="18.08" r="4.37"/><circle class="cls-2" cx="9.43" cy="18.08" r="2.94"/><path class="cls-5" d="M270.39,250.79c.41.14,1.11.53,1.11,1v.12c0,.46-.5.85-.92,1C270.62,252.19,270.42,251.46,270.39,250.79Z" transform="translate(-228.12 -238.63)"/><path class="cls-6" d="M230.61,249.12a1.08,1.08,0,0,1,.43,1.46l-.43.77a1.08,1.08,0,0,1-1.46.42l-.11-.06a1.06,1.06,0,0,1-.47-.52,4.29,4.29,0,0,1,.29-.78,5.27,5.27,0,0,1,1.16-1.48,1.09,1.09,0,0,1,.49.13Z" transform="translate(-228.12 -238.63)"/><path class="cls-7" d="M248.5,239.7a13.1,13.1,0,0,0-8.5,6.93h8.5Z" transform="translate(-228.12 -238.63)"/><rect class="cls-7" x="21.38" y="2" width="9" height="6"/><path class="cls-7" d="M259.5,239.7v6.93h6.81C268.89,246.63,264.5,239.91,259.5,239.7Z" transform="translate(-228.12 -238.63)"/><rect class="cls-4" x="19.67" y="8.64" width="1.88" height="0.94" rx="0.35" ry="0.35"/><rect class="cls-4" x="29.06" y="8.64" width="1.88" height="0.94" rx="0.35" ry="0.35"/><path class="cls-3" d="M238.5,246.12c0-.2,1.06-.48,1.31-.48h3.08c.24,0-1.38.28-1.38.48v1.25c0,.2,1.63.26,1.38.26h-3.08c-.24,0-1.31-.06-1.31-.26Z" transform="translate(-228.12 -238.63)"/></svg>