<svg xmlns="http://www.w3.org/2000/svg" viewBox="0 0 57.56 57.56"><defs><style>.cls-1,.cls-4{fill:#bdccd4;}.cls-1,.cls-3{opacity:0.4;}.cls-2{fill:#fff;}</style></defs><title>Asset 7</title><g id="Layer_2" data-name="Layer 2"><g id="Layer_1-2" data-name="Layer 1"><circle class="cls-1" cx="28.78" cy="28.78" r="28.78"/><path class="cls-2" d="M29.09,14.79c-7.94,0-14.38,5.34-14.38,12a10.07,10.07,0,0,0,2.71,7h0C18,34.85,15,38,15,38a10.73,10.73,0,0,0,5.84-.64,1.87,1.87,0,0,1,1.08-.16h0a16.55,16.55,0,0,0,7.22,1.62c7.94,0,14.37-5.36,14.37-12S37,14.79,29.09,14.79Z"/><g class="cls-3"><circle class="cls-4" cx="23.34" cy="26.52" r="1.95"/><circle class="cls-4" cx="29.51" cy="26.52" r="1.95"/><circle class="cls-4" cx="35.12" cy="26.52" r="1.95"/></g></g></g></svg>