<svg xmlns="http://www.w3.org/2000/svg" viewBox="0 0 29.14 29.14"><defs><style>.cls-1{fill:#bdccd4;opacity:0.4;}.cls-2{fill:#fff;}</style></defs><title>Asset 9</title><g id="Layer_2" data-name="Layer 2"><g id="Layer_1-2" data-name="Layer 1"><circle class="cls-1" cx="14.57" cy="14.57" r="14.57"/><path class="cls-2" d="M13.49,11.09a1,1,0,0,0,.88.86,1,1,0,0,0,.89-.87.3.3,0,0,0,.1-.21c0-.12,0-.23-.09-.24h0a.92.92,0,0,0-.82-.73.41.41,0,0,1,.16-.07.87.87,0,0,0-.26.06l-.21,0a.42.42,0,0,1,.14,0h0a.8.8,0,0,0-.32,0,.53.53,0,0,1,.16,0,.94.94,0,0,0-.6.7h0c-.06,0-.1.12-.09.24S13.43,11.09,13.49,11.09Z"/><path class="cls-2" d="M17.11,13.12a.34.34,0,0,0-.48,0l-.44.49-.26-.7-.15-.37a.35.35,0,0,0-.17-.19h0a.91.91,0,0,0-.47-.12H14.9a1.46,1.46,0,0,1,0,.29,1.34,1.34,0,0,1-.25.83l-.12-.68a.08.08,0,0,0,0,0l0,0,.12-.35s0,0,0,0h-.61s0,0,0,0l.12.35,0,0a.05.05,0,0,0,0,0l-.12.68a1.36,1.36,0,0,1-.24-.83,1.66,1.66,0,0,1,0-.29h-.25a.9.9,0,0,0-.48.13h0a.39.39,0,0,0-.17.19l-.14.37-.86,2.29a.36.36,0,0,0,.27.46.44.44,0,0,0,.53-.23l.52-1.39v.84h0v4.16a.49.49,0,1,0,1,0V15.75h.25v3.34a.49.49,0,1,0,1,0V14.93h0V14l.18.47a.59.59,0,0,0,.12.19.32.32,0,0,0,.48,0l.24-.27.67-.76A.34.34,0,0,0,17.11,13.12Z"/><path class="cls-2" d="M18.82,11.09a.89.89,0,0,0,1.77,0,.29.29,0,0,0,.1-.21c0-.12,0-.23-.09-.24h0a.92.92,0,0,0-.82-.73.42.42,0,0,1,.16-.07.87.87,0,0,0-.26.06l-.2,0a.41.41,0,0,1,.13,0h0a.8.8,0,0,0-.32,0,.51.51,0,0,1,.16,0,1,1,0,0,0-.6.7h0c-.06,0-.11.12-.1.24S18.76,11.09,18.82,11.09Z"/><path class="cls-2" d="M22.43,13.12a.34.34,0,0,0-.48,0l-.43.49-.26-.7-.14-.37a.37.37,0,0,0-.17-.19h0a.9.9,0,0,0-.47-.12h-.25a1.47,1.47,0,0,1,0,.29,1.34,1.34,0,0,1-.25.83l-.12-.68s0,0,0,0l0,0,.12-.35s0,0,0,0h-.61s0,0,0,0l.12.35a0,0,0,0,0,0,0,.06.06,0,0,0,0,0l-.12.68a1.34,1.34,0,0,1-.25-.83,2.53,2.53,0,0,1,0-.29H18.9a.9.9,0,0,0-.47.13h0a.38.38,0,0,0-.17.19l-.14.37-.87,2.29a.36.36,0,0,0,.27.46.45.45,0,0,0,.53-.23l.52-1.39v.84h0v4.16a.49.49,0,1,0,1,0V15.75h.24v3.34a.49.49,0,1,0,1,0V14.93h0V14l.18.47a.68.68,0,0,0,.12.19.33.33,0,0,0,.48,0l.24-.27.67-.76A.34.34,0,0,0,22.43,13.12Z"/><path class="cls-2" d="M8.17,11.09a1,1,0,0,0,.88.86,1,1,0,0,0,.89-.87.28.28,0,0,0,.1-.21c0-.12,0-.23-.09-.24h0a.92.92,0,0,0-.82-.73.42.42,0,0,1,.16-.07A.87.87,0,0,0,9,9.89l-.2,0A.43.43,0,0,1,9,9.9h0a.79.79,0,0,0-.32,0,.53.53,0,0,1,.16,0,.94.94,0,0,0-.6.7h0c-.06,0-.1.12-.09.24S8.11,11.09,8.17,11.09Z"/><path class="cls-2" d="M11.79,13.12a.34.34,0,0,0-.48,0l-.44.49-.26-.7-.14-.37a.37.37,0,0,0-.17-.19h0a.92.92,0,0,0-.47-.12H9.58a1.47,1.47,0,0,1,0,.29,1.36,1.36,0,0,1-.25.83l-.12-.68a.07.07,0,0,0,0,0l0,0,.12-.35s0,0,0,0h-.6s0,0,0,0l.12.35,0,0a.06.06,0,0,0,0,0l-.12.68a1.36,1.36,0,0,1-.24-.83,1.94,1.94,0,0,1,0-.29H8.26a.9.9,0,0,0-.47.13h0a.4.4,0,0,0-.17.19l-.14.37-.86,2.29a.36.36,0,0,0,.27.46.44.44,0,0,0,.53-.23l.53-1.39v.84h0v4.16a.49.49,0,1,0,1,0V15.75h.25v3.34a.49.49,0,1,0,1,0V14.93h0V14l.18.47a.56.56,0,0,0,.12.19.33.33,0,0,0,.48,0l.24-.27.67-.76A.34.34,0,0,0,11.79,13.12Z"/></g></g></svg>