<svg id="Layer_1" data-name="Layer 1" xmlns="http://www.w3.org/2000/svg" viewBox="0 0 30 25.8"><defs><style>.cls-1{fill:#ffc380;}.cls-2{fill:#ffcf99;}.cls-3{fill:#73c3ff;}.cls-4{fill:#44a4ec;}</style></defs><title>dislike</title><path class="cls-1" d="M255.35,251.81h-7.88a.91.91,0,0,0-.88.66.89.89,0,0,0,.42,1c3.43,2,5.21,4.32,5.45,7.11a1.94,1.94,0,0,0,2,1.73,3.86,3.86,0,0,0,2.68-1.13,3.73,3.73,0,0,0,1.11-2.65h0v-.3a9.78,9.78,0,0,0-2.09-6A.91.91,0,0,0,255.35,251.81Z" transform="translate(-235 -236.51)"/><path class="cls-2" d="M265,250.79a2.83,2.83,0,0,1-2.85,2.8H247.47a.92.92,0,0,1-.46-.12c-1-.6-2.07-1.09-2.91-1.49l-.82-.39a.89.89,0,0,1-.5-.8V239.34a.89.89,0,0,1,.5-.8,21.29,21.29,0,0,1,10.3-2h6.58a2.83,2.83,0,0,1,2.85,2.8,2.75,2.75,0,0,1-.4,1.42,2.8,2.8,0,0,1,1.37,2.39,2.75,2.75,0,0,1-.4,1.42A2.8,2.8,0,0,1,265,247a2.77,2.77,0,0,1-.75,1.89A2.76,2.76,0,0,1,265,250.79Z" transform="translate(-235 -236.51)"/><path id="SVGCleanerId_0" data-name="SVGCleanerId 0" class="cls-3" d="M240.71,241.24v-4.71h-1.82v4.71a.91.91,0,0,0,1.82,0Z" transform="translate(-235 -236.51)"/><path id="SVGCleanerId_0-2" data-name="SVGCleanerId 0" class="cls-3" d="M240.71,241.24v-4.71h-1.82v4.71a.91.91,0,0,0,1.82,0Z" transform="translate(-235 -236.51)"/><path class="cls-4" d="M243.68,253.6h-7.77a.9.9,0,0,1-.91-.89V237.43a.92.92,0,0,1,.91-.91h5.83a2.89,2.89,0,0,1,2.55,1.56,2.74,2.74,0,0,1,.3,1.25V252.7A.9.9,0,0,1,243.68,253.6Z" transform="translate(-235 -236.51)"/><path class="cls-3" d="M240.71,241.3v-4.77h-1.82v4.77a.91.91,0,0,0,1.82,0Z" transform="translate(-235 -236.51)"/></svg>