<svg xmlns="http://www.w3.org/2000/svg" viewBox="0 0 40.07 40.07"><defs><style>.cls-1{fill:#bdccd4;opacity:0.4;}.cls-2{fill:#fff;}</style></defs><title>Asset 5</title><g id="Layer_2" data-name="Layer 2"><g id="Layer_1-2" data-name="Layer 1"><circle class="cls-1" cx="20.03" cy="20.04" r="20.04"/><path id="_30" data-name="30" class="cls-2" d="M31.26,13.25a13.15,13.15,0,0,1-11,19.9A13.09,13.09,0,0,1,8.16,25.76a13.35,13.35,0,0,1-.08-11.24,13.16,13.16,0,0,1,23.18-1.28ZM11.38,11.18a10.66,10.66,0,0,0,2.93,2.1,16,16,0,0,1,4.77-5.57A12.31,12.31,0,0,0,11.38,11.18Zm9.84-3.46A15.36,15.36,0,0,1,26,13.14a11.16,11.16,0,0,0,2.67-2A12.37,12.37,0,0,0,21.22,7.72Zm-1.39.39A15,15,0,0,0,15,13.63a12.54,12.54,0,0,0,4.81,1.06Zm.76.13v6.42a11.38,11.38,0,0,0,4.72-1.18A14.55,14.55,0,0,0,20.59,8.24Zm8.59,3.49a12.6,12.6,0,0,1-2.84,2.08,16.08,16.08,0,0,1,1.35,6h4.69A12.11,12.11,0,0,0,29.18,11.73Zm-18.35,0a12.25,12.25,0,0,0-3.13,6.92c0,.05,0,.13,0,.17l0,.93,0,0H12.7A15.63,15.63,0,0,1,14,14,13.11,13.11,0,0,1,10.83,11.73Zm14.8,2.44a12.83,12.83,0,0,1-5.05,1.26v4.33h6.33A13.9,13.9,0,0,0,25.63,14.17Zm-11,.15a14.38,14.38,0,0,0-1.19,5.45H19.8l0-4.31A13.73,13.73,0,0,1,14.65,14.33Zm17.53,6.18h-4.5a15.13,15.13,0,0,1-1.32,5.73,15,15,0,0,1,2.78,2,12.21,12.21,0,0,0,3.23-7.77C32.31,20.52,32.24,20.54,32.18,20.51Zm-5.45,0-6.15,0,0,4.09a13.82,13.82,0,0,1,5.13,1.26,14,14,0,0,0,1.22-5.35Zm-6.93,0H13.49v.3a14.86,14.86,0,0,0,1.12,4.92,14,14,0,0,1,5-1.13l.23,0Zm-7.52,0H7.62a12.09,12.09,0,0,0,3.17,7.78,14.5,14.5,0,0,1,3.12-2.23,14.85,14.85,0,0,1-1.2-5.55Zm7.5,4.85a12.13,12.13,0,0,0-4.87,1.08A14.47,14.47,0,0,0,19.77,32Zm.78,0,0,6.65a14.77,14.77,0,0,0,4.81-5.42l-.09-.05A12.63,12.63,0,0,0,20.56,25.37Zm-6.35,1.41a11.55,11.55,0,0,0-2.87,2.11,12.32,12.32,0,0,0,7.53,3.47A15.91,15.91,0,0,1,14.21,26.78ZM26,27c-.2.37-.39.71-.61,1.07a15.92,15.92,0,0,1-3.95,4.28,12.42,12.42,0,0,0,7.15-3.44A11.23,11.23,0,0,0,26,27Z"/></g></g></svg>