<svg xmlns="http://www.w3.org/2000/svg" viewBox="0 0 57.56 57.56"><defs><style>.cls-1{fill:#bdccd4;opacity:0.4;}.cls-2{fill:#fff;}</style></defs><title>Asset 10</title><g id="Layer_2" data-name="Layer 2"><g id="Layer_1-2" data-name="Layer 1"><circle class="cls-1" cx="28.78" cy="28.78" r="28.78"/><path class="cls-2" d="M29.7,29.83l-.33.2c1.55.33,5.58,1.8,11.34,7.35L40.62,24,29.7,29.83ZM37.33,22v2.63l2.38-1.24S38.73,22.78,37.33,22ZM28,30,16.85,24.43,17,37.21S23.62,31.05,28.07,30C28,30,28,30,28,30Zm-9.89,7.4H39.5C32.73,31.38,29,30.81,29,30.81,25,31.29,18.13,37.4,18.13,37.4Zm3.44-20.82H35.43v9.08l1-.55,0-9.85h-16l0,9.92,1.1.55Zm-2,6c-.62.39-1.26.8-1.92,1.23l1.92.9Z"/><path class="cls-2" d="M29.39,21l.11-.49h1.16L30,23.62a2.49,2.49,0,0,0-.06.39.23.23,0,0,0,0,.16.15.15,0,0,0,.12.06,1.07,1.07,0,0,0,.61-.31,2.65,2.65,0,0,0,.66-.84,2.56,2.56,0,0,0,.08-2.16,2.32,2.32,0,0,0-.58-.81,2.66,2.66,0,0,0-.93-.54,3.85,3.85,0,0,0-1.26-.19,4.36,4.36,0,0,0-1.31.19,3.34,3.34,0,0,0-1,.53,3,3,0,0,0-.75.86,3.66,3.66,0,0,0-.41,1A4.34,4.34,0,0,0,25,23.07a3.17,3.17,0,0,0,.3,1.38,2.81,2.81,0,0,0,.88,1,3.55,3.55,0,0,0,1.38.6,5.77,5.77,0,0,0,1.83.07,4.33,4.33,0,0,0,1.38-.37,2.72,2.72,0,0,0,1-.77h.93a3,3,0,0,1-.59.84,3.35,3.35,0,0,1-.86.62,4.52,4.52,0,0,1-1.1.39,6.45,6.45,0,0,1-1.33.13,6.2,6.2,0,0,1-1.94-.28,4,4,0,0,1-1.46-.82,3.41,3.41,0,0,1-.89-1.27,4.28,4.28,0,0,1-.3-1.64,4.87,4.87,0,0,1,.31-1.75,4,4,0,0,1,2.33-2.35,5,5,0,0,1,1.86-.34,4.63,4.63,0,0,1,1.53.24,3.33,3.33,0,0,1,1.19.7,3.06,3.06,0,0,1,.76,1.08A3.58,3.58,0,0,1,32.44,22a3.33,3.33,0,0,1-.21,1.15,3.25,3.25,0,0,1-.6,1,3,3,0,0,1-.92.71,2.57,2.57,0,0,1-1.15.26A1,1,0,0,1,29,25a.6.6,0,0,1-.26-.38,1.7,1.7,0,0,1-.88.48,1.64,1.64,0,0,1-1-.09,1.6,1.6,0,0,1-.75-.64,2,2,0,0,1-.29-1.12,3.29,3.29,0,0,1,.3-1.36A2.76,2.76,0,0,1,27,20.8a1.94,1.94,0,0,1,1.24-.43A1.27,1.27,0,0,1,29.39,21ZM27,23.23a1.3,1.3,0,0,0,.22.81.7.7,0,0,0,.57.28,1,1,0,0,0,.73-.33,2.13,2.13,0,0,0,.48-.83,3.12,3.12,0,0,0,.16-1,1.34,1.34,0,0,0-.06-.42.91.91,0,0,0-.16-.33.7.7,0,0,0-.26-.21.79.79,0,0,0-.34-.07,1,1,0,0,0-.7.3,1.91,1.91,0,0,0-.48.78A3.06,3.06,0,0,0,27,23.23Z"/></g></g></svg>