<svg id="Layer_1" data-name="Layer 1" xmlns="http://www.w3.org/2000/svg" xmlns:xlink="http://www.w3.org/1999/xlink" viewBox="0 0 116.88 183.81"><defs><style>.cls-1{fill:url(#linear-gradient);}.cls-2{fill:#9a8479;}.cls-3{fill:#009246;}.cls-4{fill:#fff;}.cls-5{fill:#ce2b37;}</style><linearGradient id="linear-gradient" x1="183.67" y1="324.94" x2="268.89" y2="282.33" gradientTransform="translate(184.51 -149.04) rotate(17.48)" gradientUnits="userSpaceOnUse"><stop offset="0" stop-color="#6d6e70"/><stop offset="0.03" stop-color="#757678" stop-opacity="0.94"/><stop offset="0.23" stop-color="#a2a2a4" stop-opacity="0.6"/><stop offset="0.43" stop-color="#c4c5c6" stop-opacity="0.34"/><stop offset="0.63" stop-color="#ddddde" stop-opacity="0.15"/><stop offset="0.82" stop-color="#ececed" stop-opacity="0.04"/><stop offset="1" stop-color="#f1f1f2" stop-opacity="0"/></linearGradient></defs><title>it-flag</title><path class="cls-1" d="M262.57,217.89l-.33-1.92,92.5-19.71a14.08,14.08,0,0,0,.24,4.93,18.33,18.33,0,0,0,1.41,4.74Z" transform="translate(-239.51 -34.08)"/><polygon class="cls-2" points="24.8 183.09 22.86 183.3 0 8.94 9.75 7.88 24.8 183.09"/><polygon class="cls-3" points="29.98 8.09 37.85 80.68 9.98 83.71 0.16 11.32 29.98 8.09"/><rect class="cls-4" x="273.32" y="39.92" width="37.82" height="73.03" transform="translate(-246.05 -2.13) rotate(-6.19)"/><polygon class="cls-5" points="104.53 0 85.13 38.83 112.4 72.6 75.45 76.61 67.58 4.01 104.53 0"/></svg>