<svg xmlns="http://www.w3.org/2000/svg" viewBox="0 0 20.32 29.14"><defs><style>.cls-1{fill:#149698;}</style></defs><title>left-dll</title><g id="Layer_2" data-name="Layer 2"><g id="Layer_1-2" data-name="Layer 1"><path class="cls-1" d="M15.09,6.83,9.17,9.15l-.38-1a6.89,6.89,0,0,0-1-2,.91.91,0,0,0-1.07-.14,1,1,0,0,0-.65.74,2.51,2.51,0,0,0,.22,1.36A2.92,2.92,0,0,0,7.6,9.88a23.38,23.38,0,0,0,4,.92,25.62,25.62,0,0,1,3.89.88,6.05,6.05,0,0,1,2.19,1.51,9.1,9.1,0,0,1,1.86,3.08A8,8,0,0,1,20,21.83a7.5,7.5,0,0,1-3.7,4l.87,2.23-2.72,1.07-.9-2.3a7.62,7.62,0,0,1-4.86-.2q-2.4-.9-3.94-4.85L4.3,20.63l5.92-2.32.57,1.45a14.65,14.65,0,0,0,1.34,2.89.88.88,0,0,0,1.11.23,1.11,1.11,0,0,0,.74-.75,2.17,2.17,0,0,0-.17-1.31,11,11,0,0,0-1.39-2.74A4.51,4.51,0,0,0,9.77,17a44.07,44.07,0,0,1-4.66-1.06,7.09,7.09,0,0,1-2.56-1.59,7.9,7.9,0,0,1-2-3A6.05,6.05,0,0,1,.43,6.58,7.92,7.92,0,0,1,4.2,3L3.46,1.07,6.19,0l.74,1.89a7,7,0,0,1,4.82.23,6.28,6.28,0,0,1,3,3.57Q14.86,6.06,15.09,6.83Z" transform="translate(0)"/></g></g></svg>