<svg xmlns="http://www.w3.org/2000/svg" viewBox="0 0 21.01 31.55"><defs><style>.cls-1{fill:#149698;}</style></defs><title>left-doll</title><g id="Layer_2" data-name="Layer 2"><g id="Layer_1-2" data-name="Layer 1"><path class="cls-1" d="M8.93,11.83l2.11-.3.46,3.19L9.38,15,9.6,16.5l2.11-.3.46,3.18-2.11.3.48,3.37A13.51,13.51,0,0,0,11,25.18a1.73,1.73,0,0,0,.69.89,1.62,1.62,0,0,0,1.17.24,1.8,1.8,0,0,0,1-.47,1.44,1.44,0,0,0,.46-1A16.72,16.72,0,0,0,14,22.29l-.41-2.85,6.91-1,.17,1.17a18.23,18.23,0,0,1,.11,6.27,6.37,6.37,0,0,1-2.41,3.61,10.12,10.12,0,0,1-4.9,1.93,10.63,10.63,0,0,1-4.42-.23,7.05,7.05,0,0,1-3.25-1.83,7.47,7.47,0,0,1-1.76-2.88,31.51,31.51,0,0,1-1-5l-.11-.8L1.13,21,.67,17.78l1.8-.26L2.25,16l-1.8.26L0,13.11l1.8-.26-.08-.54a33.77,33.77,0,0,1-.41-4.63,6.79,6.79,0,0,1,.93-3.36A7.61,7.61,0,0,1,5,1.59,11,11,0,0,1,9.21.13,10.72,10.72,0,0,1,13.7.37a6.52,6.52,0,0,1,3.45,2.37q1.37,1.78,2,6.11l.14,1-6.91,1L12,8.4Q11.7,6.5,11.55,6A1.14,1.14,0,0,0,11,5.33,1.66,1.66,0,0,0,10,5.22a2.06,2.06,0,0,0-1.24.57,1.53,1.53,0,0,0-.43,1.08,18.16,18.16,0,0,0,.23,2.26Z" transform="translate(0 0)"/></g></g></svg>