<svg xmlns="http://www.w3.org/2000/svg" viewBox="0 0 24.72 27.94"><defs><style>.cls-1{fill:#149698;}</style></defs><title>left-persent</title><g id="Layer_2" data-name="Layer 2"><g id="Layer_1-2" data-name="Layer 1"><path class="cls-1" d="M9.48,6.25,10.37,10a7.8,7.8,0,0,1,.2,2.6,3.09,3.09,0,0,1-1.06,1.75A5.45,5.45,0,0,1,6.87,15.5c-1.32.27-2.37.88-3.14.62A3.22,3.22,0,0,1,2,15a6.35,6.35,0,0,1-.86-2.33L.25,8.14A7.62,7.62,0,0,1,.07,5.31,3,3,0,0,1,1.23,3.57,5.93,5.93,0,0,1,3.8,2.46a6,6,0,0,1,3,0A3.26,3.26,0,0,1,8.56,3.66,7.27,7.27,0,0,1,9.48,6.25ZM5.29,6a4.35,4.35,0,0,0-.35-1.2c-.1-.14-.3-.18-.6-.12s-.44.18-.49.36A3.54,3.54,0,0,0,4,6.23l1.29,6.32a4.3,4.3,0,0,0,.38,1.28c.1.13.31-.43.62-.5s.42-.17.47-.35a3.54,3.54,0,0,0-.12-1.18ZM15.8,0,11.33,27.45l-2.39.49L13.45.48ZM23.6,15.38l.89,4.32a7.79,7.79,0,0,1,.2,2.59,3.08,3.08,0,0,1-1.06,1.76A5.44,5.44,0,0,1,21,25.24a6.23,6.23,0,0,1-3.13,0,3.25,3.25,0,0,1-1.7-1.15,6.3,6.3,0,0,1-.85-2.31l-.93-4.52a7.54,7.54,0,0,1-.18-2.81,3.07,3.07,0,0,1,1.17-1.76,5.86,5.86,0,0,1,2.56-1.11,6,6,0,0,1,3,0,3.26,3.26,0,0,1,1.77,1.19A7.41,7.41,0,0,1,23.6,15.38Zm-4.19-.27a4.42,4.42,0,0,0-.35-1.21c-.1-.15-.3-.19-.6-.13s-.44.18-.48.36a3.84,3.84,0,0,0,.13,1.25l1.3,6.32A4.27,4.27,0,0,0,19.77,23q.15.19.6.1t.48-.35a3.81,3.81,0,0,0-.13-1.19Z" transform="translate(0)"/></g></g></svg>