<svg xmlns="http://www.w3.org/2000/svg" viewBox="0 0 51.52 51.52"><defs><style>.cls-1{fill:#bdccd4;opacity:0.4;}.cls-2{fill:#fff;}</style></defs><title>Asset 3</title><g id="Layer_2" data-name="Layer 2"><g id="Layer_1-2" data-name="Layer 1"><circle class="cls-1" cx="25.76" cy="25.76" r="25.76"/><g id="idea"><path class="cls-2" d="M31.58,24.37a.41.41,0,0,1-.41-.42,4.64,4.64,0,0,0-4.63-4.65.41.41,0,0,1,0-.83A5.47,5.47,0,0,1,32,24,.41.41,0,0,1,31.58,24.37Z"/><polygon class="cls-2" points="28.08 34.78 27.45 34.68 28.7 27.21 29.33 27.32 28.08 34.78 28.08 34.78"/><polygon class="cls-2" points="24.92 34.77 23.7 27.3 24.33 27.2 25.55 34.67 24.92 34.77 24.92 34.77"/><path class="cls-2" d="M29,28.26c-.26,0-.37-.25-.46-.44s-.1-.24-.14-.24-.11.16-.15.24-.2.44-.46.44-.37-.25-.45-.44-.11-.24-.14-.24-.11.16-.15.24-.2.44-.46.44-.37-.25-.45-.44-.11-.24-.14-.24-.11.16-.15.24-.2.44-.46.43-.37-.25-.45-.43-.11-.24-.15-.24-.11.16-.14.23-.2.44-.46.44v-.34s.11-.16.15-.23.2-.44.45-.44.37.25.46.44.11.24.14.24.11-.16.15-.24.2-.44.46-.44.37.25.45.44.11.24.15.24.11-.16.15-.23.19-.44.45-.44.37.25.45.44.1.24.14.24.11-.16.15-.24.19-.44.45-.44.37.26.45.44.11.24.15.24v.34Z"/><path class="cls-2" d="M26.54,14.78a.42.42,0,0,1-.42-.42V10A.41.41,0,1,1,27,10v4.34A.41.41,0,0,1,26.54,14.78Z"/><path class="cls-2" d="M31.5,16.12a.42.42,0,0,1-.21-.05.41.41,0,0,1-.15-.57l2.18-3.76a.41.41,0,1,1,.72.42l-2.18,3.76A.41.41,0,0,1,31.5,16.12Z"/><path class="cls-2" d="M35.13,19.76a.42.42,0,0,1-.36-.21.41.41,0,0,1,.15-.56l3.77-2.17a.42.42,0,1,1,.41.72l-3.77,2.16A.4.4,0,0,1,35.13,19.76Z"/><path class="cls-2" d="M40.94,24.74H36.45a.41.41,0,0,1,0-.83h4.49a.42.42,0,1,1,0,.83Z"/><path class="cls-2" d="M38.87,31.87a.43.43,0,0,1-.21-.06l-3.76-2.18a.41.41,0,1,1,.41-.72l3.76,2.18a.42.42,0,0,1-.21.77Z"/><path class="cls-2" d="M21.57,16.1a.43.43,0,0,1-.36-.21L19,12.12a.41.41,0,0,1,.16-.56.42.42,0,0,1,.56.15l2.17,3.77a.41.41,0,0,1-.15.56A.4.4,0,0,1,21.57,16.1Z"/><path class="cls-2" d="M17.93,19.73a.42.42,0,0,1-.21-.06L14,17.49a.41.41,0,1,1,.42-.72L18.14,19a.41.41,0,0,1-.21.77Z"/><path class="cls-2" d="M16.59,24.69H12.24a.41.41,0,0,1,0-.83h4.35a.41.41,0,1,1,0,.83Z"/><path class="cls-2" d="M14.14,31.83a.42.42,0,0,1-.21-.78l3.77-2.16a.41.41,0,0,1,.41.72l-3.77,2.17A.46.46,0,0,1,14.14,31.83Z"/><path class="cls-2" d="M30.17,34.91h0l-7.36,0a.69.69,0,0,1-.69-.69.92.92,0,0,1,0-.1,5,5,0,0,0-.51-2.67,13.86,13.86,0,0,1-3-7.5,7.92,7.92,0,0,1,15.83,0,13.86,13.86,0,0,1-3.06,7.5,5,5,0,0,0-.53,2.64.48.48,0,0,1,0,.12A.69.69,0,0,1,30.17,34.91Zm-7.36-1.4a.69.69,0,0,0-.68.58A.69.69,0,0,1,22.81,33.51Zm7.48,0a.7.7,0,0,1,.27.11A.7.7,0,0,0,30.29,33.54Zm-6.78,0h6c0-.31,0-.57,0-.58a4.63,4.63,0,0,1,.77-2.33A12.45,12.45,0,0,0,33.06,24a6.53,6.53,0,0,0-13.07,0,12.49,12.49,0,0,0,2.73,6.67,4.57,4.57,0,0,1,.76,2.34S23.5,33.2,23.51,33.51Z"/><path class="cls-2" d="M29.93,36.39l-6.88,0a.69.69,0,1,1,0-1.38l6.87,0a.69.69,0,1,1,0,1.38Z"/><path class="cls-2" d="M29.42,37.87H23.56a.69.69,0,1,1,0-1.38h5.86a.69.69,0,0,1,0,1.38Z"/><path class="cls-2" d="M28.56,39.3H24.42a.69.69,0,0,1-.69-.69.69.69,0,0,1,.69-.69h4.14a.69.69,0,1,1,0,1.38Z"/></g></g></g></svg>