<svg xmlns="http://www.w3.org/2000/svg" viewBox="0 0 17.36 8.51"><defs><style>.cls-1{fill:#29ccb1;}</style></defs><title>like-blink</title><g id="Layer_2" data-name="Layer 2"><g id="Layer_1-2" data-name="Layer 1"><path class="cls-1" d="M16.45,8.51H14.51a.91.91,0,1,1,0-1.82h1.94a.91.91,0,0,1,0,1.82Z"/><path class="cls-1" d="M2.85,8.51H.91a.91.91,0,1,1,0-1.82H2.85a.91.91,0,0,1,0,1.82Z"/><path class="cls-1" d="M5.76,3.51A.91.91,0,0,1,5,3L4,1.37A.91.91,0,1,1,5.55.46l1,1.68a.91.91,0,0,1-.79,1.37Z"/><path class="cls-1" d="M11.59,3.51a.91.91,0,0,1-.79-1.37l1-1.68a.91.91,0,1,1,1.58.91L12.38,3A.91.91,0,0,1,11.59,3.51Z"/></g></g></svg>