<svg id="Layer_1" data-name="Layer 1" xmlns="http://www.w3.org/2000/svg" viewBox="0 0 30 31.02"><defs><style>.cls-1{fill:#ffc380;}.cls-2{fill:#ffcf99;}.cls-3{fill:#29ccb1;}.cls-4{fill:#73c3ff;}.cls-5{fill:#44a4ec;}</style></defs><title>like</title><path class="cls-1" d="M255.35,249.95h-7.88a.91.91,0,0,1-.46-1.69c3.43-2,5.21-4.39,5.45-7.23a2,2,0,0,1,2-1.76,3.85,3.85,0,0,1,3.79,3.85h0v.31a10.07,10.07,0,0,1-2.09,6.12A.91.91,0,0,1,255.35,249.95Z" transform="translate(-235 -234.49)"/><path class="cls-2" d="M265,251a2.86,2.86,0,0,0-2.85-2.85H247.47a.91.91,0,0,0-.46.13c-1,.61-2.07,1.11-2.91,1.51l-.82.4a.91.91,0,0,0-.5.81v11.66a.91.91,0,0,0,.5.81c3.68,1.84,6.74,2.06,10.3,2.06h6.58a2.85,2.85,0,0,0,2.46-4.3,2.85,2.85,0,0,0,1-3.89,2.85,2.85,0,0,0,.62-4.36A2.83,2.83,0,0,0,265,251Z" transform="translate(-235 -234.49)"/><path class="cls-3" d="M263.11,243h-1.94a.91.91,0,1,1,0-1.82h1.94a.91.91,0,1,1,0,1.82Z" transform="translate(-235 -234.49)"/><path class="cls-3" d="M249.51,243h-1.94a.91.91,0,1,1,0-1.82h1.94a.91.91,0,0,1,0,1.82Z" transform="translate(-235 -234.49)"/><path class="cls-3" d="M252.42,238a.91.91,0,0,1-.79-.46l-1-1.68a.91.91,0,1,1,1.58-.91l1,1.68a.91.91,0,0,1-.79,1.37Z" transform="translate(-235 -234.49)"/><path class="cls-3" d="M258.25,238a.91.91,0,0,1-.79-1.37l1-1.68a.91.91,0,0,1,1.58.91l-1,1.68A.91.91,0,0,1,258.25,238Z" transform="translate(-235 -234.49)"/><path id="SVGCleanerId_0" data-name="SVGCleanerId 0" class="cls-4" d="M240.71,260.7v4.8h-1.82v-4.8a.91.91,0,0,1,1.82,0Z" transform="translate(-235 -234.49)"/><path class="cls-3" d="M263.11,243h-1.94a.91.91,0,1,1,0-1.82h1.94a.91.91,0,1,1,0,1.82Z" transform="translate(-235 -234.49)"/><path class="cls-3" d="M249.51,243h-1.94a.91.91,0,1,1,0-1.82h1.94a.91.91,0,0,1,0,1.82Z" transform="translate(-235 -234.49)"/><path class="cls-3" d="M252.42,238a.91.91,0,0,1-.79-.46l-1-1.68a.91.91,0,1,1,1.58-.91l1,1.68a.91.91,0,0,1-.79,1.37Z" transform="translate(-235 -234.49)"/><path class="cls-3" d="M258.25,238a.91.91,0,0,1-.79-1.37l1-1.68a.91.91,0,0,1,1.58.91l-1,1.68A.91.91,0,0,1,258.25,238Z" transform="translate(-235 -234.49)"/><path id="SVGCleanerId_0-2" data-name="SVGCleanerId 0" class="cls-4" d="M240.71,260.7v4.8h-1.82v-4.8a.91.91,0,0,1,1.82,0Z" transform="translate(-235 -234.49)"/><path class="cls-5" d="M243.68,248.13h-7.77a.91.91,0,0,0-.91.91v15.54a.93.93,0,0,0,.91.92h5.83a2.89,2.89,0,0,0,2.55-1.59,2.83,2.83,0,0,0,.3-1.27V249A.91.91,0,0,0,243.68,248.13Z" transform="translate(-235 -234.49)"/><path class="cls-4" d="M240.71,260.64v4.86h-1.82v-4.86a.91.91,0,0,1,1.82,0Z" transform="translate(-235 -234.49)"/></svg>