<svg xmlns="http://www.w3.org/2000/svg" viewBox="0 0 33.48 33.48"><defs><style>.cls-1{fill:#bdccd4;opacity:0.4;}.cls-2{fill:#fff;}</style></defs><title>Asset 8</title><g id="Layer_2" data-name="Layer 2"><g id="Layer_1-2" data-name="Layer 1"><circle class="cls-1" cx="16.74" cy="16.74" r="16.74"/><rect class="cls-2" x="23.44" y="14.83" width="2.03" height="2.72" rx="0.4" ry="0.4" transform="translate(5.85 38.86) rotate(-84.11)"/><path class="cls-2" d="M25.76,15.45a.05.05,0,0,1,.06,0h0a.05.05,0,0,1,0,.06l-.18,1.73a0,0,0,0,1-.05,0h0a.05.05,0,0,1,0-.06Z"/><path class="cls-2" d="M19.54,13l5.05.52a1.16,1.16,0,0,1,.67.37l-.77-.08-.07.69,1.1.11c0,.05,0,.07,0,.09l-.33,3.24a1,1,0,0,1-1.16.9L19,18.29a1,1,0,0,1-.94-1.11l.34-3.24A1.08,1.08,0,0,1,19.54,13Z"/><path class="cls-2" d="M24.49,13.78l.77.08a1.18,1.18,0,0,1,.26.72l-1.1-.11Z"/><path class="cls-2" d="M20,24.14h0l.52-5.06a1.07,1.07,0,0,1,1.22-.89l.44,0a1.1,1.1,0,0,1,1,1.13l-.53,5.06c-.06.57-.63,1.46-1.25,1.39l-.42.49h0l-1-.64c-.29,0-.47-.49-.44-.76v-.18C19.56,24.47,19.74,24.15,20,24.14Z"/><path class="cls-2" d="M19.33,18.39a1,1,0,0,0,.92,1.13l2.54.26a1,1,0,0,0,1.13-.92l.56-5.39a1,1,0,0,0-.92-1.13L21,12.07a1,1,0,0,0-1.13.92Z"/><path class="cls-2" d="M10.73,6.54s1.05,5.72,9,6.55l-.54,5.26s-9.76.4-10.17,4.37Z"/><path class="cls-2" d="M19.75,13.31l-.07.68c-8-.83-9-6.55-9-6.55l.07-.68S11.76,12.48,19.75,13.31Z"/></g></g></svg>