<svg id="Layer_1" data-name="Layer 1" xmlns="http://www.w3.org/2000/svg" xmlns:xlink="http://www.w3.org/1999/xlink" viewBox="0 0 962.35 433.93"><defs><style>.cls-1{fill:#eb7e7e;}.cls-2{fill:#b3d887;}.cls-3{fill:#6dc0ec;}.cls-4{fill:#fedb77;}.cls-5{fill:#eaad5c;}.cls-6{fill:#40d3b7;}.cls-7{fill:url(#linear-gradient);}.cls-8{fill:#9a8479;}.cls-9{fill:#da251d;}.cls-10{fill:#ff0;}.cls-11{fill:url(#linear-gradient-2);}.cls-12{fill:#ce2b37;}.cls-13{fill:#009246;}.cls-14{fill:#fff;}.cls-15{fill:url(#linear-gradient-3);}.cls-16{fill:#ed1c24;}.cls-17{fill:#241d4f;}.cls-18{fill:url(#linear-gradient-4);}.cls-19{fill:#d62612;}.cls-20{fill:#00966e;}</style><linearGradient id="linear-gradient" x1="467.92" y1="320.21" x2="553.14" y2="277.6" gradientTransform="translate(184.51 -149.04) rotate(17.48)" gradientUnits="userSpaceOnUse"><stop offset="0" stop-color="#6d6e70"/><stop offset="0.03" stop-color="#757678" stop-opacity="0.94"/><stop offset="0.23" stop-color="#a2a2a4" stop-opacity="0.6"/><stop offset="0.43" stop-color="#c4c5c6" stop-opacity="0.34"/><stop offset="0.63" stop-color="#ddddde" stop-opacity="0.15"/><stop offset="0.82" stop-color="#ececed" stop-opacity="0.04"/><stop offset="1" stop-color="#f1f1f2" stop-opacity="0"/></linearGradient><linearGradient id="linear-gradient-2" x1="183.67" y1="324.94" x2="268.89" y2="282.33" xlink:href="#linear-gradient"/><linearGradient id="linear-gradient-3" x1="437.49" y1="314.75" x2="522.71" y2="272.14" xlink:href="#linear-gradient"/><linearGradient id="linear-gradient-4" x1="220.92" y1="317.31" x2="306.13" y2="274.7" xlink:href="#linear-gradient"/></defs><title>map</title><path class="cls-1" d="M144.83,125.69c2.45,0,1.54-2.43,5-1.8,4.57,1.17,7.22,3.78,13.6,3.61,4.2-2.15-5.93-4-2.46-5.38,1.85.46,3.14,1.33,4.94,1.78,1-3.1-1.38-3.79-2.48-5.39,10.22-.39,6.87-9.43,5-14.36a36.6,36.6,0,0,1,11.09-.89c-.32-4-6.65-3.55-9.87-5.41,3.85.44,2.76-2.73,7.39-1.8.89-2.73-2.12-2.62-1.23-5.39,4.43.49,3.05-3.18,7.45-2.69,3.1-.74,10.65,1.77,9.91-1.78,1.14-3.27-5.38-.91-6.2-2.71-2.92-.26-2.33-3.11-6.2-2.69-5.36-.54-11.13,3.24-13.62,1.82.76-4.54,10.91-2.29,12.36-6.29-2.57-2.61-8-3.14-14.89-2.7-4-1-8.92-2.37-11.13,0-1-1.32-3.95-1.3-6.17-1.82-5,2.39-17.14-.43-22.24,1.82-5.73.09-12.6-.72-14.92,1.81-.11,2,3.39,5.81,1.21,6.25-8.94-1-14,.62-22.22-.89-12.42,1.24-18.2,7.14-31,8.1-1.18,3.24,5.56.72,4.92,3.61C59.5,94.66,52.86,94.61,49.51,97c-3.06-1.17-7.07-1-8.7,2.68,4-.78,3.83,1.41,6.18,1.77,0-2.38,6.2-2.38,6.2,0,3-.53,8.42-4,8.65.93-5.29.36-12.72-.88-16.11.9,1.13,3.36,5.82,4.14,9.93,5.36,3.82.66,2.34-2.46,6.17-1.78,3.78,1.77,7.59,3.48,14.87,2.7-1,4,.85,6,2.49,8.08-.42,2.1-2,3.39-1.24,6.28,4.94,1.76,5.72-4.13,8.69-.87.68,3.2-3.74,2.73-7.45,2.67,1,4,9.41,2.78,11.12,6.29-2.81,1.55-6.24,2.63-8.67,4.5,3.49,1.17-3.85,1.85-2.45,4.48,8.83,4.34,2,14.6,8.63,20.66h8.7c3.59.11,2.16,3.82,6.17,3.58,1.25-1.8,2.15-3.84,5-4.51-1.5-6.77,6.17-6.85,5-13.46,3.16-.07,1.73-3.49,4.91-3.59,4.73,1.82,4.73-2.13,9.94,0a48.78,48.78,0,0,1,6.21-3.57c6-1.08,8.62-4.54,14.83-5.39.5-3.24,10.94-4,7.43-7.2C153.49,129.55,148.28,126,144.83,125.69Zm12.41-3.58c-3.31-1.6,0-5.93,3.71-5.37C160.32,118.95,157.63,119.71,157.24,122.12ZM165.89,79c-.09,2.66-2.79,3.34-4.94,4.48-3.79-1.74-9.39-2.14-16.11-1.8C149,78,160.63,79.56,165.89,79Z" transform="translate(231.68 -34.08)"/><path class="cls-1" d="M-8.72,92.49v5.35c3.77-.62,4.49.93,7.38.91.57-4.09,8-7.92,12.41-6.26,1.88,3.76-6.42.12-6.17,2.67,3.74,1.35-4.29,1.61-3.73,3.59,3.23-.55,4.41.36,3.73,2.67-2.91,0-3.66-1.55-7.45-.86.18,2.54-4.16,1.75-2.46,5.38,7.39-.7,12.73-1.25,16.09,2.67-9.83,1.54-16.18-3.55-22.3-1.78-1,4.32,7.5,1.76,7.46,5.42,9.34-1,21.88,4,24.74-2.71,3.23.27,5.31-.34,5-2.7.92-2.44-5.78.66-5-1.79h8.69c0-4.79,7.55-4.12,6.19-9.88,6.4-.14,7-4.48,14.92-3.62,1.51-2.16,3.94-3.62,8.61-3.59,1.59-2.22-2.75-4.35,0-4.49,5.19-1.72,12.79.9,14.87-4.48,0-1.47-3.46-.48-3.68-1.79-20.29,2-47.93-2.61-69.42,3.59C-.5,86.21,6.5,85.3,7.35,88.89c-8.05.46-5.6-6.73-14.82-5.41-.4,1.24-1.82,1.73-1.25,3.62-2,.06-4.31-.15-3.73,1.79C-13.53,91.76-9.22,90.75-8.72,92.49Zm26,16.12c.64.47-.91,1.19-1.26.92C15.37,109.07,16.91,108.37,17.27,108.62Z" transform="translate(231.68 -34.08)"/><path class="cls-2" d="M295.92,90.66c.65-2.52,6.5-1.29,5-5.37-11.32-1.32-22.17-1.61-32.22-1.81a4.2,4.2,0,0,0,1.21,3.62C277.73,88.91,284.15,91.74,295.92,90.66Z" transform="translate(231.68 -34.08)"/><path class="cls-2" d="M247.67,95.17c-.16,2.22-2.33,2.78,0,4.49,5.09-.19,5.27-4,11.11-3.61-.29,4-6.07,4-6.16,8.1a11.94,11.94,0,0,0,8.69,1.81c-.6,2.81,2.61,2.87,6.17,2.67a67.42,67.42,0,0,1,3.71-9.86c3.27,2.39,5.16,5.85,13.64,4.5,1.09-6.85-6.55-7.26-9.91-10.76-.37,2.09-3.33-1.05-5-.94-3,.16-5.08-.45-6.09-1.77,2.88-2.39-1.05-5.27-6.24-4.49-3.63,1.45,2,4.66-1.25,5.37-2.63-4.26-14.46-8.47-14.89,0C242,93.27,246.76,92.79,247.67,95.17Z" transform="translate(231.68 -34.08)"/><path class="cls-3" d="M372.71,88.89c-.11-5.68-11.51-3.74-11.11.89C365.82,92.58,368.11,88.53,372.71,88.89Z" transform="translate(231.68 -34.08)"/><path class="cls-3" d="M442.15,94.26c9.73-1.2,19.95,3.13,22.25-2.71-2.91-3.47-14.24-4.93-21-2.66C440.6,89,442.79,92.67,442.15,94.26Z" transform="translate(231.68 -34.08)"/><path class="cls-3" d="M367.84,127.5c-1.81-4.13-7.63-5.28-6.24-11.68,8.75-.55,12-5.06,18.56-7.2,7.83.58,11.78-1.6,12.46-6.26h-6.24c-.3.7,0,1.78-1.27,1.78-9.28.74-16.21,3.23-23.51,5.39.62,4.61-6,4.07-5,9-1.53,1.91-4.62,2.64-4.92,5.39A101.42,101.42,0,0,0,364,129.3C364.59,128.17,365.68,127.45,367.84,127.5Z" transform="translate(231.68 -34.08)"/><path class="cls-3" d="M574.62,111.34c3-1.45,4.44-4,7.47-5.4-4.71-.44-5.71-4.13-9.95-3.59-.54.05-1.15,2.11-2.47,1.78h-7.39C560.63,110.69,571.12,108.47,574.62,111.34Z" transform="translate(231.68 -34.08)"/><path class="cls-2" d="M179.51,151.74c.14-2.29,4.63-1.41,6.2-2.68,1.31-4.56-2.82-5.15-2.47-9-5.37,1.19-7.29-.57-12.39.88-3.37-.55-3.1-3.76-7.45-3.57,1.52,4.34-4.92,3-4.92,6.25,3.46.75,3.21-1.25,6.14-.88-.64,2.17-4.76,1.92-3.68,5.38,6.2-1.18,4.86,3.1,8.7,3.59C170.66,149.89,178.25,150.82,179.51,151.74Z" transform="translate(231.68 -34.08)"/><path class="cls-1" d="M9.81,151.74c-4.91-1-1.68-2.27-4.91-4.49-3.76.66-3.66-1.53-7.45-.88-1.75,1.72-.64,5.48-6.16,4.52.08,3.13,4.06,3.58,8.63,3.55C-.5,147.42,8.36,157.38,9.81,151.74Z" transform="translate(231.68 -34.08)"/><path class="cls-2" d="M227.89,184.1c-1.72-.94-3.82-1.5-5-2.7,1.55-5.32-8.21-6.17-3.69-10.79-1.68-.91-3.76-1.48-5-2.71,1.8-.76,3.93-1.32,3.74-3.58-4.53-.28-6.91,1-9.88,1.78.92,4.9-2,7-1.25,11.69a27,27,0,0,0,6.15,1.79c.52,3.18-4.16,4.94-6.15,3.58-1,4,.86,6,2.48,8.11-2.17.83-6.64-.05-6.24,2.69a128.51,128.51,0,0,1,19.84-.91C223.89,189.2,223.2,186.67,227.89,184.1Z" transform="translate(231.68 -34.08)"/><path class="cls-2" d="M194.34,187.69c2.86-1,7.52-.6,9.94-1.81-1.3-3.75-.29-4,0-8.09h-6.16c-.08,4-2.81,1.14-5,2.7C193.32,183.08,192.48,186.35,194.34,187.69Z" transform="translate(231.68 -34.08)"/><path class="cls-3" d="M619.19,213.72c2.39.11.89,3,3.74,2.69,2.74-2.21,2.32-6.69,7.42-7.17-6.48-.67-10.55-3.13-17.32-3.6.9,4.27-1.39,6.17-1.25,9.9C615.18,217.95,614.85,213.22,619.19,213.72Z" transform="translate(231.68 -34.08)"/><path class="cls-3" d="M590.74,241.57c-.22,3.16,2.92,3.86,5,5.36.86-3.25,3.86-5,7.45-6.28a7.61,7.61,0,0,1,3.68.92c3.91-3.46,12.12-3.79,16.11-7.2-.21-6.4-2.74-11.21-2.45-18h-5c1.52,4.21-.64,6.26,1.28,10.77a1.45,1.45,0,0,0-1.28,1.84,36.9,36.9,0,0,0-11.14,5.36c-4.36,1.65-12.23.69-12.38,5.4-.56,2.48,6.75-.7,6.22,1.79Z" transform="translate(231.68 -34.08)"/><path class="cls-3" d="M288.52,234.37c.36,2.51,4.11.72,7.4,2.72.9-3.36-1.89-4-6.15-3.62C290,234.22,289.26,234.32,288.52,234.37Z" transform="translate(231.68 -34.08)"/><path class="cls-3" d="M564.69,264.93a8.1,8.1,0,0,1,3.72,5.38c5.16-.21,4.74-4.4,5-8.08C570.32,260.24,566,262.87,564.69,264.93Z" transform="translate(231.68 -34.08)"/><path class="cls-1" d="M-8.72,262.24v3.58h5C-3.92,263.56-5.56,262.33-8.72,262.24Z" transform="translate(231.68 -34.08)"/><path class="cls-1" d="M4.89,266.69a4.57,4.57,0,0,0-1.25-4.45H-.09C-.56,265.29.29,267.35,4.89,266.69Z" transform="translate(231.68 -34.08)"/><path class="cls-1" d="M6.11,265.81v4.5c2.6.36,3.31-.62,5-.92C10.92,267.12,9.28,265.91,6.11,265.81Z" transform="translate(231.68 -34.08)"/><path class="cls-1" d="M3.64,280.19c4.45-.53,6,1,8.72,1.81.09-2.59,5.12-1.64,8.61-1.81-1.78-6-8.61-5.14-16.08-5.39.91-2.45-2.53-1.82-2.53-3.59-2.68-1-6.8-1.06-7.39-3.59H-23.57c-.55,1.71-2.69,2.25-2.51,4.5,5,.35,5-3,11.16-1.81,5.21.74,5.79,4.8,11.15,5.38,2.95.56,9-1.13,9.87.9C1.58,276.69,3,277.89,3.64,280.19Z" transform="translate(231.68 -34.08)"/><path class="cls-1" d="M16,270.31c-.39-1.23-3.08-.76-4.94-.92C8.45,272.71,17.37,273.45,16,270.31Z" transform="translate(231.68 -34.08)"/><path class="cls-3" d="M569.68,280.19a22.27,22.27,0,0,0,7.43,5.39c1.55-2.79,5.76-3.59,5-8.09C578.72,274.24,569.51,275.71,569.68,280.19Z" transform="translate(231.68 -34.08)"/><path class="cls-3" d="M539.92,282.89c3.49-.52,3.49-3.5,5-5.4a9.16,9.16,0,0,0-5-.89C537.63,280.1,538.32,277.33,539.92,282.89Z" transform="translate(231.68 -34.08)"/><path class="cls-1" d="M-10,278.37V282c4.17-1,4.27.29,8.66-.9C-.5,277.49-6,278.52-10,278.37Z" transform="translate(231.68 -34.08)"/><path class="cls-1" d="M23.43,282c4.48.22,8.6.19,7.45-3.63H23.43Z" transform="translate(231.68 -34.08)"/><path class="cls-4" d="M153.49,282c0,1.76-3.36,1.14-2.43,3.58H156C156.35,283.51,155.64,282.19,153.49,282Z" transform="translate(231.68 -34.08)"/><path class="cls-3" d="M579.61,296.36c2.57,1.93,3.5-.46,7.4,0-.4,2.09-2.64,3.88,1.26,4.48,1.75-2.63,5.21-4,11.13-3.59,1.17-4.13-4-3.71-6.19-5.38.31-2.95-1.46-4.34-4.94-4.5-1.74,1.16-1.23,3.9-1.26,6.29C582.87,292.12,581.65,294.2,579.61,296.36Z" transform="translate(231.68 -34.08)"/><path class="cls-3" d="M456.95,299c1.77,5.32-4.71,6.41,0,9,3.91.44,3.3-2.41,6.22-2.69C462.14,302.48,459.57,300.74,456.95,299Z" transform="translate(231.68 -34.08)"/><path class="cls-3" d="M538.71,323.31c1.21,3.61,6.6,4.18,6.2,9,8-1.35,6.8,4,14.84,2.68-.35-2.06,3.56-1,3.74-2.68-.95-.21-2.45,0-2.46-.92,4.06-1.23,2-6.84,6.22-8-2.85-2.92,1-6-1.28-8.11,2.16-.8,4.27-1.65,3.71-4.46-3-1.72-5.41-3.86-11.15-3.62C557.38,316.5,540.91,314.69,538.71,323.31Z" transform="translate(231.68 -34.08)"/><path class="cls-3" d="M515.15,317c-1.87-2.09-5.78-3.54-4.9-6.25-3.39.62-2.51-1.81-5-1.81.16,4-3-.11-6.22.88,0,10.49,17.41,8.36,14.91,20.65,6.1.49,7.81,6.41,13.57,4.49,2.85-3.43-2.55-7.36-2.4-11.65C521.35,321.47,516.89,318.9,515.15,317Z" transform="translate(231.68 -34.08)"/><path class="cls-3" d="M584.59,324.19c-.26-4-7.83-2.73-10-5.39-6.35,3.7-10.76,13.69-1.21,17-.27-2.59.29-4.57,2.46-5.38,2.72,1.73,2.89,4.57,7.43,2.72-.63-3.76-4.78-5-4.94-9A6,6,0,0,0,584.59,324.19Z" transform="translate(231.68 -34.08)"/><path class="cls-5" d="M611.77,320.59c-4-1.83-13.92-1.48-13.59,2.72C602.42,325.22,611.46,324.33,611.77,320.59Z" transform="translate(231.68 -34.08)"/><path class="cls-5" d="M625.43,324.19h-8.66c-1.11,1.31-1.86,2.86-5,2.7-3.83.68-2.31-2.5-6.13-1.81.36,2.35-4.88.73-3.73,3.58.16,2,3.08-1.12,6.12,0,5.53,3.24,12.77,5.17,17.4,9V343c6.62-2.9,8.61,1.84,13.62,2.69,4.35-.13,3-4.43,8.66-3.59,2.9,1.23,6.19,6.84,11.14,3.59-2.58-.79-3.77-2.66-3.72-5.36-3.24-2.16-7.79-3.32-9.89-6.31v-2.72C635.69,331.11,633.1,325.83,625.43,324.19Z" transform="translate(231.68 -34.08)"/><path class="cls-3" d="M559.75,344.85c.69-3.18-4.32-2.22-3.69-5.4-10.1.19-17.29-1.87-24.79-3.61-1.09,1.6-3.46,2.31-2.44,5.39C540.64,341.35,546.26,346,559.75,344.85Z" transform="translate(231.68 -34.08)"/><path class="cls-5" d="M651.39,379.88c.5-4.24-2.16-6.18-1.23-10.79-2.42-.6-2.82-2.7-4.92-3.58-.44-6.88-8.87-8-7.44-16.17-2.31.2-2.71-1-4.94-.91-3.19,3.69,1.33,13-3.76,15.28-4.87,1.18-2.5-3-7.43-1.81-.19-2.51-5.85-1.09-4.91-4.47-.64-2.85,6.11-.34,4.91-3.57-4.3-3.49-17-.91-23.5-2.72-2.16.54.06,4.25-2.48,4.47a61,61,0,0,0-12.39,2.72c-1.55,2.71-.44,7.47-4.94,8.09-2.95-2.13-6.12.13-10,0-2.41.62.3,5-2.44,5.36-2.56-.5-2.41-2.7-4.94-.88-3.09,2.25-1.64,7.78-6.19,9-2.78,1.29-8.29.59-9.93,2.69,1.31,4,4.34,9,1.24,13.47,2.42.64,3.26,2.41,3.71,4.49.68,4.1-2.21,5.59-1.29,9.88,3.7-.24,3.88,2,7.49,1.81,5.17-1.64,8.21-4.81,17.35-3.61,4.36-4,13.05-4.9,23.53-4.48a16.9,16.9,0,0,1,7.39,8.09c4.85-1.68,3.34,2.07,8.69,0,0,2.36.44,5.1-1.25,6.28,7.92,3.34,12.61,3.53,24.8,3.61,3.12-1.62,5.43-3.88,9.91-4.55-.61-4.59,5.9-4,4.91-8.95,4.33-.21,3.24-4.28,7.46-4.48-1.42-3.19,2.13-5.09,2.47-8.09.68-5.48-2.4-11.09-3.71-16.16C654.51,378.69,652.49,382.52,651.39,379.88Z" transform="translate(231.68 -34.08)"/><path class="cls-4" d="M362.84,351.14a22.7,22.7,0,0,0-5,9c-5.37.9-8.1,3.63-11.11,6.29-1,3.1,1.79,3.47,1.22,6.28-1.12,1.88-2,4-3.76,5.39,2.7,4.05-.85,7.64,3.76,10.78,4,.17,5.23-1.6,9.89-.91,2.69-4,1.65-5.8,5-9.87v-4.5c.3-1,1.36-1.4,2.47-1.81-2.25-3.93,2.28-7.66,2.54-14.36C363.2,357.47,368,350.75,362.84,351.14Z" transform="translate(231.68 -34.08)"/><path class="cls-5" d="M719.54,412.22c.24-2.57.16-4.92-3.7-4.48v7.15c-1,2.64-5.89,2.35-5,6.33,8.32-.89,2.83,2.67,2.47,5.37,7.83-.27,8.11-6.13,11.17-9.88,1.85-1.35,5.17-1.61,6.15-3.62C727.69,410.31,725.42,412.55,719.54,412.22Z" transform="translate(231.68 -34.08)"/><path class="cls-5" d="M705.9,423c-1.05,1.89-3.71,2.66-3.67,5.37a9.3,9.3,0,0,0-5,.9c-2.09,1.8-2.88,4.51-6.16,5.37-5.11,1.41-6.62,5.38-8.72,9,4-1.45,6.73-.44,11.15,0,1.17-2.14,5-2.38,3.73-6.3h5c.34-5.12,9.73-3.68,9.86-9C711.66,425.39,708.43,424.5,705.9,423Z" transform="translate(231.68 -34.08)"/><path class="cls-5" d="M621.68,425.66c-1.38,1.38,4.14,5.43,5,8.11,6-.43,9.9-2.38,8.67-8.11C629.93,426.39,623.87,424.56,621.68,425.66Z" transform="translate(231.68 -34.08)"/><path class="cls-6" d="M60.59,453.5h5C66.41,450,60.4,450.58,60.59,453.5Z" transform="translate(231.68 -34.08)"/><path class="cls-4" d="M369,293.66c-5.3-.54-5,2.94-9.85,2.7H348c-.59-6.15-6.76-8.28-11.18-11.67,1.1-5.9-7.35-4.84-4.94-11.7-2.1-2-6-2.86-7.42-5.37,1.1-2.53-1.4-6.42-.29-7.09-.31-.64-.69-1.35-1.12-2.12-.35.23-.86.37-1,.24-.45-.33.15-.76.66-.91-2.25-4-5.42-8.95-6.65-10.86a2.34,2.34,0,0,1-.26,0c-9-2.39-20.24-3.23-32.21-3.57-3.57.68-3,4.43-6.17,5.41-5.69-4.27-17-4.51-22.25-9,.95-3.11-1.42-3.81-2.49-5.4,2.89-.25,2.83-2.41,1.2-3.59a57.24,57.24,0,0,0-18.59,2.69c-10-.43-18.75.13-23.55,3.62-1.05-1.89-3.58-2.77-7.4-2.72-1,3.17-5.48,3.8-8.65,5.4-3.37,4.22-2.1,9.72-4.93,13.46-1.86,2.37-8.51,4.8-11.19,7.2-.2,5.25-3.05,8.57-6.21,11.68v23.34c4.28,3.49,8,7.39,9.95,12.56,5.7,2.45,9.53,6.28,17.32,7.18a87.31,87.31,0,0,1,17.35-.89c2.56-1.46,2.39-4.84,7.48-4.5,2.21.15.7,3,2.5,3.58,5.7-.57,7.89,1.44,12.34,1.8,2.12-.79,3.15-2.5,7.44-1.8,1.24,6.94-2.64,10.12-2.5,16.2,3.53,4.6,9.58,8.09,7.45,14.36,3.27,3,3.5,8.23,5,12.57-3.06,4.08-2.36,10.82-5,15.26a28.19,28.19,0,0,1,11.2,14.38v8.09c5.48,4.66,5.35,13.42,11.11,18,11.91-.63,17.88-5.55,28.5-7.18,1.88-4.94,5.65-8.46,11.11-10.78-.62-3.48,2.23-4.39,1.21-8.09,2.23-.82,3.18-2.51,7.47-1.81.13-10.36,5.19-17.14,14.9-20.65a59,59,0,0,0,0-25.13,39.25,39.25,0,0,0,6.13-11.68c3-1.46,5.46-3.22,8.7-4.5,5.89-6.2,11.24-12.82,17.36-18.83C371.23,300.19,372.87,295.6,369,293.66Z" transform="translate(231.68 -34.08)"/><path class="cls-3" d="M713.35,142.77c-3.3-1.09-8.11-5.9-11.12-1.81a4.75,4.75,0,0,0-1.23-4.48c-6.75-1.76-10.33-5.75-21.07-4.5-1.43-1.67-4.79-1.91-6.2-3.6-8.11.78-9.83-3.07-18.61-1.81-1.71,2.64,3.41,4.6,0,5.41-3.59-.39-2.93-3.88-6.17-4.49-3.64,2.78-10.33.26-17.44,1.8-4.42-2.1-4.1-7.76-13.53-6.28-1.79.2-.42,2.67-2.51,2.67-5.16-1.62-10.2-3.39-14.84-5.35a3.41,3.41,0,0,1-2.46,1.77c1.55-3.53-3-2.68-6.22-2.68,3.05-2.13-1.34-2-2.43-3.62-6,1.58-5.54-.52-11.16-.88-.43,1.2-3.14.74-4.95.88-1.25,1.68,3.69,3,0,3.62-10.65-1.23-24.17,1.59-33.5,0-3.12-.57-4.32-3.32-7.38-2.69-5.74.95-9.56-.94-13.67-1.81-1.45-.36-3.41.2-4.9,0-3.11-.43-5.46-2.86-12.38-1.83.47-2.3,3.65-2.7,3.69-5.36-1.75-2.64-5.72-3.63-7.42-6.31-3.74,1.21-9.48.95-14.88.93-3.1-.76-2.6-4.07-7.43-3.6-2.91.9-4,3.1-3.71,6.29-6.14-1.45-3.94,3.15-8.67,2.69-2.38-.37-1-3.49-5-2.69-3.21,2.47-7.69,4-14.82,3.57-2.21,1.16-3.29,3-7.44,2.73-1.74,1.14-.57,4.38-3.78,4.48-2.55.57-8.56-1.46-7.34,1.79,0,3.3,7.2,1.32,6.15,5.41-4.56-1-5.78-4.2-12.42-3.58,0,2.34.69,5.27-2.48,5.38-1.43-1.07-1.43-3.21-1.24-5.38-4.83-.79-2,3.9-7.4,2.68-1.94-1.6-1.7-4.8-7.43-3.61-3.5,3.78-8.23,6.64-12.43,9.88-8,.43-7.42-1.68-16.07-1.81-2,4.44,6.41,1.37,4.94,5.41-5.17-.87-10.72.45-18.58,0-5.58,1.64-8.62,5.12-14.85,6.28v-5.39c-3.08.15-6,.16-7.42-.89.3,5,.05,9.6-7.44,9,.41,3.32-4.53,2.69-7.43,3.6-3.07,1.2,2.2,2.69-1.26,3.58-7.25,1.06-7.67-6.5-7.4-8.06,5.75,0,12.08-.4,16.09.88,3.31-5.63-7-8.53-14.89-9-1.93-2.18-5.27-3.35-9.86-3.6a18.91,18.91,0,0,0-6.23-5.37H286c-3.35,1.7-6.52,3.64-9.84,5.37-.57-1.31-1.62.38-3.78,0-4.42,3.4-10,5.93-14.82,9a19.28,19.28,0,0,1-7.43,9.84c-.24-1-2.28-.74-3.72-.88v3.57c-7.87.35-8.68,5.69-11.19,9.9,2.5,2.12,2.86,5.74,2.5,9.87,1.2,2.43,7.83,1,9.93,2.71-2.71,2.64-5,3.63-5,6.3,2.64-.43,2.33,1.25,2.46,2.69-4.41.06-7.18,1.39-11.12,1.76-1.14,1.62-3.51,2.31-2.52,5.41-7-1.52-2.76,5.17-8.66,4.48.19,1.07-.26,1.6-1.29,1.79-5.43-.39-6.52,2.44-9.91,3.62-3,.48-6.31.76-6.11,3.58,1.6,1.22,5.36.88,8.61.9-.59,4.05,5.74,3,5,7.19-1.28,1.19-1.24,3.34-3.76,3.58-5.76-2.14-10.89.81-18.54,0-1.25,3,2.76,9.78-2.53,9.9.92,2.64,3.77,3.88,2.53,8.07,5.75-.89,7.48,1.17,11.16,1.78,4.62-1.72,5.24-1.72,9.88,0,2.81-3.63,7.08-6.26,6.17-12.57,5.44-1.15,4.52-6.89,11.14-7.18,5.26,2.25,7.38-.63,12.44-.9-3.51,3.49-1.74,9.1,0,13.47,7.84-.51,3-5.09,3.69-9.89-1.25,0-1.55-1.58,0-1.79v1.79c2.56.27,2.46,2.41,3.75,3.61,6,.09,9.73,1.83,11.1,5.4-.2,1.94-3.09,1.9-6.22,1.77-.16,3.15,4.39,2.83,6.22,4.51-.59-4,3.33-4.77,6.19-6.28.69-2-2.34-1.29-2.49-2.73,2.29-2.81,4.2,3,6.27,0-3.4-4.75-18.8-5.55-14.86-12.55,3.68,4.11,10.67,6,14.86,9.88.69.68,1.75,2.79,2.42,3.6,1,1.12,3,2.15,2.51,3.56v5.38c1.6,1.23,5.39.89,8.68.91,2.07-3.09-2.23-7.51,1.2-10.78h3.71c-1.38,3.54-.21,3.35-1.19,7.16,2.77-.31,1.65,2.6,3.7,3.62,4.51,2.29,12.77,1.59,16.08,0,3.71,1.31-3.22,4.67,2.46,4.51,5.11.66.27-5.81,6.26-4.51v5.38c-3.08,1.34-1.79,5.83-4.39,7.48,2.16,4,7.31,13.41,8,14.88h0c2.57,2,4.9,5.71,3.73,7.3,5.2,3.76,8.64,8.7,13.65,12.58,3,3.74,2.49,9.35,8.7,12.56,8.63-2.09,14.69-6.08,24.74-7.21,1.74-.52.22-3.44,2.45-3.56,5.38-.63,7.63-3.49,12.41-4.52-.88-3.92,3.63-4,3.73-7.16-2.14-3.24-8.52-3.43-7.47-9-4.68-.45-7.88.25-9.88,1.75-1-3.39-5.59-4.3-5-9-4,.24-3.58-2.76-6.14-3.59,1.84-.48,3.11-1.3,4.94-1.8,6.84,3.1,4.79,12.67,17.35,11.69.5,1.73,3.51,1.65,2.45,4.49,6,.45,6.88-2.78,12.41-2.68,1.26.56,1.28,2,3.71,1.8,8.61-.93,10.76,3,16,4.46-2-.31-2.31.71-2.39,1.82,1.28,1.72,5.67,1.21,7.45,2.69-.66,2.83,2.21,3.16,1.15,6.29,3.77,3,5.37,7.51,7.46,11.68,2.62,1.72,5.17,3.44,6.26,6.27v5.42c1.54,1.24,5.35.86,8.62.88,1.65-5.73,6.08-9.37,4.94-17.07h5v-3.61c4.68,1.34,2.4-2.43,6.17-1.76-.35-4.13,4.53-4.53,6.21-7.2a28.59,28.59,0,0,1,11.14-3.59c2.81,2.47,2.83,6.95,7.47,8.11.43,2.11-2.29,1.91-1.32,4.44,1.39,2.94,9.85.68,12.46,2.69-1.67,1.91.62,2.67-1.28,5.42,3.24.93,5.52,2.57,6.19,5.38-.45,1.7-3.53,1.62-2.46,4.5.38,2.71,3.82,3.19,2.46,7.18,6,3.74,11.59,7.76,18.57,10.78.33-5.93-5.83-7.12-6.16-12.59-3.45-1.72-6.74-3.5-8.69-6.29.57-2.91-1.63-7.74,2.46-8.08,2.71,2.55,4.66,5.65,10,6.28a4,4,0,0,1,1.16,3.58c12-1.14,15-8.92,13.62-19.73-1.58-.91-4.55-.9-6.17-1.8,1.58-4-5.94-3.69-2.47-6.3,3.63-2.51,3.23,3,8.65,1.8.9-3.85,7.19-3.81,13.64-3.61,3.93-4.33,9.2-7.66,11.13-13.48,2,.26,2.13-.84,3.72-.86,2.08-3.65-.28-10.38,3.74-12.56-2.64-.83-3.74-2.67-3.74-5.44-2.09-1.12-4.82-1.84-4.92-4.47-.55-2.16,2.28-2,1.2-4.48,2.56.28,3.91-.18,3.72-1.84,3.55-1.14-5.58-5.36,2.51-5.36,1.41,2.87,5.69,3.62,7.45,6.29-1.21,4.74,2.33,6.1,6.22,7.19,7.42-3.91-.26-13.79,3.69-20.65,2.6-1.71,6.33-2.59,9.91-3.61,2.86-4.2,5.39-8.63,9.85-11.68,1.72-7.24-2.81-14.69,0-19.76-1.69,5.13,2.86,5.73,3.74,9,.24,5.57.62,10.95,6.22,12.56,2.31-1.59-1-2.27,0-5.36,3.38-.11,2.49,1.49,4.94,0,.22-2.86-3.29-3.05-2.45-6.32-4.48-.61-5.64-3.66-7.46-6.27-.46-3.23.44-7.51-3.68-8.09-2.59.23-.34,4-3.7,3.61-2.1-6.61-10.51,4.13-13.69-2.69.86-2.1,3.14-3.09,5-4.49,1.42-2.86.92-7.08,5-8.12,2.84,2.22,2.26-1.32,6.12-.89,5.84.6,11.24,2.36,18.64,1.81-.43,1.53,1,1.71,2.44,1.78,1.63-1.24,5.41-.86,8.7-.91.63-2.83-2.2-3.15-1.23-6.26,2.51-.26,2.41-2.42,4.95-2.7,2.54.28,2.44,2.44,5,2.7-.58-2,3.68-5,4.91-2.7-4,5.76-9.77,10.24-11.12,18,.81,2.43,3.54,3.43,5,5.4.54,3.44,1.46,6.73,4.92,8.07,3.09-2.26,4.92-5.42,8.69-7.2-1.13-4.44,4-3.78,1.3-7.16.32-1.82,3.27-1.78,3.67-3.59-1.82-1.07-5.55-.8-5-3.6,1.22-7.88,9.34-6.18,18.6-5.39,1.79-1.38,1.62-4.18,3.72-5.37,7.22-.39,12.66-2.85,17.29-2.71,0-3.84-6.13-3.28-6.13-7.18,2.9-.29,2.3-3.1,6.13-2.67,6.48.08,5.61,5.53,13.63,4.45C713.71,148.34,711,145.42,713.35,142.77ZM276.17,158q3.49,2.81,9.84,3.59v9c-2.78-.37.7-5.28-4.92-3.58-2.74,3.1-1,9.42-4.93,11.68-4.13.28-7.18-.43-10,0-3.44.51-4.17,2.6-7.43,2.69.39-1.1-3.54-3.1-3.67-.91-2.91-.26-2.91-2.45,0-2.7a11.5,11.5,0,0,1-5-9c6.18.38,3.8,12.65,14.85,9,2.78-3.65,4.7-8,7.41-11.69a17.4,17.4,0,0,0-2.49-5.4c.74-8.44,9.56-11,13.62-17,1.5-.12,2.26.2,2.49.91C285,150.73,275,150.33,276.17,158Zm13.6,6.28c-.08-2.71,4.37-2.21,7.42-2.68C297.29,164.41,293.47,164.31,289.77,164.31Zm9.91-35c-.65-.48.9-1.16,1.23-.91C301.53,128.87,300,129.55,299.68,129.3Zm23.52,17.94c-.65-.46.88-1.13,1.24-.88C325.05,146.83,323.53,147.5,323.2,147.24Zm91.64-14.37c-2.35-.37-5.32-.29-4.95-2.68-3.7-.18,1.17-3.74,0,0C410.78,131.63,415.94,130,414.84,132.87Zm76.75-16.13c-.6-.46.95-1.19,1.32-.92C493.57,116.3,492,117,491.59,116.74Zm3.76-.92c-.63-.46.91-1.13,1.23-.88C497.22,115.36,495.72,116.07,495.35,115.82Zm3.71-1.8c-.64-.45.9-1.16,1.26-.91C500.95,113.61,499.41,114.25,499.06,114Zm55.78,113.17c1.74-1.71,2.74-4,7.45-3.56.05,1.39-.6,3.41,1.2,3.56C561.62,229.88,558.07,226.44,554.84,227.18Z" transform="translate(231.68 -34.08)"/><path class="cls-2" d="M335.6,189s-8.33-.61-12.5-2.42a11,11,0,0,0-11.61-3c.6-4.44-2.38-8.69-8.92-8.69s-5.06-10.3-.6-12.93,3.57-3.84,0-6.46S296.91,143,296.91,143l6.65-14.57h-.14a18.91,18.91,0,0,0-6.23-5.37H286c-3.35,1.7-6.52,3.64-9.84,5.37-.57-1.31-1.62.38-3.78,0-4.42,3.4-10,5.93-14.82,9a19.28,19.28,0,0,1-7.43,9.84c-.24-1-2.28-.74-3.72-.88v3.57c-7.87.35-8.68,5.69-11.19,9.9,2.5,2.12,2.86,5.74,2.5,9.87,1.2,2.43,7.83,1,9.93,2.71-2.71,2.64-5,3.63-5,6.3,2.64-.43,2.33,1.25,2.46,2.69-4.41.06-7.18,1.39-11.12,1.76-1.14,1.62-3.51,2.31-2.52,5.41-7-1.52-2.76,5.17-8.66,4.48.19,1.07-.26,1.6-1.29,1.79-5.43-.39-6.52,2.44-9.91,3.62-3,.48-6.31.76-6.11,3.58,1.6,1.22,5.36.88,8.61.9-.59,4.05,5.74,3,5,7.19-1.28,1.19-1.24,3.34-3.76,3.58-5.76-2.14-10.89.81-18.54,0-1.25,3,2.76,9.78-2.53,9.9.92,2.64,3.77,3.88,2.53,8.07,5.75-.89,7.48,1.17,11.16,1.78,4.62-1.72,5.24-1.72,9.88,0,2.81-3.63,7.08-6.26,6.17-12.57,5.44-1.15,4.52-6.89,11.14-7.18,5.26,2.25,7.38-.63,12.44-.9-3.51,3.49-1.74,9.1,0,13.47,7.84-.51,3-5.09,3.69-9.89-1.25,0-1.55-1.58,0-1.79v1.79c2.56.27,2.46,2.41,3.75,3.61,6,.09,9.73,1.83,11.1,5.4-.2,1.94-3.09,1.9-6.22,1.77-.16,3.15,4.39,2.83,6.22,4.51-.59-4,3.33-4.77,6.19-6.28.69-2-2.34-1.29-2.49-2.73,2.29-2.81,4.2,3,6.27,0-3.4-4.75-18.8-5.55-14.86-12.55,3.68,4.11,10.67,6,14.86,9.88.69.68,1.75,2.79,2.42,3.6,1,1.12,3,2.15,2.51,3.56v5.38c1.6,1.23,5.39.89,8.68.91,2.07-3.09-2.23-7.51,1.2-10.78h3.71c-1.38,3.54-.21,3.35-1.19,7.16,2.77-.31,1.65,2.6,3.7,3.62a12.42,12.42,0,0,0,3.06,1L302,212s11.16-3.64,28.86-12.83C335.89,193.27,335.6,189,335.6,189Zm-34.69-60.64c.63.48-.88,1.16-1.23.91C299,128.82,300.57,128.15,300.91,128.39ZM276.17,158q3.49,2.81,9.84,3.59v9c-2.78-.37.7-5.28-4.92-3.58-2.74,3.1-1,9.42-4.93,11.68-4.13.28-7.18-.43-10,0-3.44.51-4.17,2.6-7.43,2.69.39-1.1-3.54-3.1-3.67-.91-2.91-.26-2.91-2.45,0-2.7a11.5,11.5,0,0,1-5-9c6.18.38,3.8,12.65,14.85,9,2.78-3.65,4.7-8,7.41-11.69a17.4,17.4,0,0,0-2.49-5.4c.74-8.44,9.56-11,13.62-17,1.5-.12,2.26.2,2.49.91C285,150.73,275,150.33,276.17,158Zm13.6,6.28c-.08-2.71,4.37-2.21,7.42-2.68C297.29,164.41,293.47,164.31,289.77,164.31Z" transform="translate(231.68 -34.08)"/><path class="cls-6" d="M117.57,341.25c.06-3.34-1.25-5.69-2.46-8.05-2.18-1.69-3.64.37-6.18.88-2-3.07-6.76-4.1-11.11-5.41H89.14c-2.22-2.6-10.52-.77-11.17-4.46-3.3,0-7.32.5-7.4-1.8,3.56-4.19-3.67-15.66-14.9-11.65-3.91-1.68-6.76-4.08-7.41-8.12-6.47-1.31-11.09-3.93-17.38-5.37-1.61.33-1.93,1.57-3.7,1.79-1.68-3.24-7.71-3.39-8.71-7.17-4-.8-2.56,2.3-4.93,2.7-2.88-.63-3.28-3-6.2-3.6-1.12,1.56-2.25,3.1-6.19,2.69-1.9,3.71-6.8,5.18-9.84,8.06a38.73,38.73,0,0,1-4,5c.83,1.66,1.92,3.14,2.66,4.83,0,1.81-3.36,1.19-2.45,3.61.57,4.63-4,5.53-5,9-2.4,6.26,5,9.69,0,12.57,2.16,1.72,6.11,2.13,8.68,3.62-1,1.29-4,1.27-6.19,1.77-.9,7.23,4.54,9.87,11.15,11.71.49,2.14-2.29,1.93-1.26,4.48,4.63,2.62,6.28,7.4,13.65,8.09,2.26,4,6.17,6.86,6.15,12.57-1.26,1.18-1.16,3.31-2.41,4.48a3.77,3.77,0,0,1,2.41,3.6c-3.32,4,1.49,8.76,0,14.37-6.69,2.9-3.61,13-6.15,18.86,1.82,2.49,5.06-1.56,6.15.92,1.13,4.4-4.23,4.11-6.15,6.26-1.58,2.92,3.94.71,2.44,3.62-2.36,2.17,1.36,4.35-1.26,7.16,1.21,6.11,5.38,9.25,2.56,14.39,3.65,2.1,3.26,7.16,7.4,9-.18,1.6,1.46,1.88,1.21,3.58,3.13.47,5.13,1.7,7.43,2.68,4.65-.54,12.77,1.48,13.59-1.8a12.08,12.08,0,0,1-7.4-3.6c.93-3-5-1.13-3.71-4.48-.43-3.93,3.58-4.61,3.71-8.09,3.21-.11,4.81-1.3,5-3.57.63-3.19-4.37-2.19-3.72-5.4,3.32-2.77,8.42-11.64,0-12.58,8.29,1.52,8-3.13,9.89-6.26,6.67.32,8.95-2.54,13.65-3.61.82-4.19-2-5.77-2.5-9h9.92c.07-.9,1.52-.72,2.49-.93.69-2.19,1.06-4.6,5-4.48-.44-5.09,4.67-6.17,7.4-9v-6.26c2.36-1.6,3.86-3.81,6.18-5.41,5.91-1.26,5.91-1.26,11.15-2.69.56-5.76,6.57-10.76,2.48-17.07,1.88-.75,2.69-2.26,2.48-4.5,2,.29,2.16-.83,3.74-.87.46-3,3.64-4,5-6.27,3.29-2.34-.18-4.34,3.66-5.4C115.47,343.9,117.57,343.36,117.57,341.25Z" transform="translate(231.68 -34.08)"/><path class="cls-1" d="M-17.41,307.12c1.26-1.19,1.18-3.33,3.69-3.57a9.19,9.19,0,0,0,.24,1.15A37,37,0,0,1-8.87,300c-.5-1.72-2.17-2.57-4.85-2.7-3.18.95-4.59,3.23-8.72,3.59-2.89-4.38,1.31-8.54,0-14.39-2.24-3.11-10.44-1.93-14.81-3.56,1.23-3.92,4.82-6.08,3.72-11.68a47.09,47.09,0,0,1-12.37,0c-2.28,1.93-1.19,6.31-5,7.16-16.57.65-6.21-15.4-9.91-22.44,4.38-.75,7-2.69,11.16-3.58,6.77-.42,8.36,2.88,14.83,2.67-.1-1.26-.26-2.51,1.26-2.67,6,.21,13.93-1.14,14.85,2.67-.54,5.2,2.73,7.64,8.66,8.11-1.48-4.63-.82-6,0-9-1.4-1.35-3.53-2.2-3.71-4.5,2.08-5.95,7.55-9.49,16.08-10.78,1.14-2.61,1.14-2.74,0-5.38a11,11,0,0,0,6.26-.91c-3.09-4.92,4-3.83,2.44-9.88,4.12-1.21,8-2.5,12.36-3.58.65-2.82-3.75-2-2.45-5.38,4.53-2.72,11.41-3.73,17.4-5.4.86,2.44-2.52,1.82-2.52,3.59,5-1.5,10.21-2.76,13.65-5.38-3.06-1.41-9.23-.56-8.7-4.5.69-2.49,4.75-2.5,7.45-3.58.5-2.18-2.28-1.95-1.27-4.51,6,3,13-4.35,17.34-2.69-2.86,4.81-8.76,7.4-11.14,12.56,4.59.65,5.33-1.53,9.87-.88.12,1.39-.54,3.42,1.27,3.59,1.23-2.22,4.74,1.23,8.67,0-.6-2.07-2.43-4.59,0-6.3-4.52-.31-5.67-3.07-7.44-5.4a53.52,53.52,0,0,0,0-11.69c-2.38-1.66-3.08-.06-6.17,0,.14-4.25-5.73-4.23-6.19-8.06a4.11,4.11,0,0,0,1.23-3.59c-4.77-2-3-8.62-9.94-9-.63,1.32,1.49,4.65-1.23,4.51-2.55-.53-8.14,1.12-8.67-.93v-9c-6.63,2.16-5.42-2.09-11.17-2.7-3.26,2.47-2.67-1-6.15-.88-3-.36-2.68,1.63-6.21.88,1.85,9-3.36,14-1.26,20.65-2.11.26-6.17-2.54-7.44,0,1.24,2.56,4.13.58,5,1.79-4.33,2-4.42,7-6.19,10.8-2.84-2.75-3.39-7.16-4.93-10.8-2.53-1.79-2.46.42-5,.9-1.07-2.6-1.85-1-5-.9a34.59,34.59,0,0,0-13.57-6.28c2-4.47-4.36-2.86-3.82-6.29,2.7.43,2.41-1.28,2.54-2.68,4.09-1.54,5.83-4.73,9.9-6.3,2.73-3.15,4.63-6.84,11.19-7.18.08-1.6-1.53-1.89-1.25-3.58,8.36-1.19,13-1.94,18.53-3.6-.27-3.48,0-6.63,1.26-9-1.46-1.31-4.69-1.4-6.17-2.68,4.91-.3,9.15,0,11.11,1.78,2.32-2.73,5.95,1,9.92,0-1.73,4.57,5.66,2.49,5,6.32-1.21,6.58-14.7,4.28-16.1,10.75,2.05,2.13,7.22,2,12.41,1.78,7.69,2.52,10.74,8.41,21.08,9-2.77-4.65,2.07-4.53,1.24-9.87-.55-2.34-3.75-2.71-3.76-5.4,4.72.2,6,2.85,9.93,3.59-.35-2.33-.45-4.47,3.72-3.59-.87-2.76,1.26-3.27,1.2-5.39-3.34.63-2.34-1.84-3.7-2.68-4.23-.51-7.45-1.75-11.15-2.71.35-1.83,3.38-1.73,3.76-3.57-1.6-2.15-5.46-2.67-5-6.28H33.38c.59-2.84-3.33-2.37-3.71-4.51-5.28-.52-8.19.65-12.4.93.74-5.57-9.79-3.8-11.17-.93.46-3.35-1-5.26-4.94-5.4-6.39,2.86-13.83,12-6.19,17.09,1.82.5,6.36-1,6.19.89-1.33,2.64-3.92,4.33-6.19,6.32-3.17-2.22,2.6-1.95,1.26-5.41-4.23-2-8.25-4.21-9.95-8.09-4.71.43-3.93-3.1-9.85-1.78.43,2.14-2.34,1.93-1.3,4.46,4.25,1.22,2.68,8.36,0,9.9a3.92,3.92,0,0,1-2.42-4.5c-6.24-.64-6.24,3.32-11.23,3.6-4.61-1.43-9.66-2.55-12.35-5.39,5.53-.68,7.46,1.2,12.35.89,2.73-1.86-.57-2.57,0-5.39,6.87-1,9.6-5,16.08-6.26-2.25-2.82-1.79-4.94-2.43-7.18H-43.4c-2.74,2.51-8.91,2.51-10,6.26-.63-1.33-1.81-2.22-2.46-3.57-3.28,0-7.72.83-6.17-2.68,9.17,1.38,20.1-3.27,28.47-5.42,0,4.14,10.6,3.1,12.39.91-.86-2.05-1.12-4.56-2.44-6.31-7.3.7-10.89,4.15-18.62,4.52v-5.38c-6.77-1.66-8,4.23-3.7,5.38-7.1.63-11.11-1-17.31-.9,1.84,4.65-5.72,2.49-6.2,5.39,3.09,1.14,3.81-.46,4.91.9-.79,1.19-2.66,1.67-4.91,1.76-2-5.13-11.82-4.63-21.09-4.49-.65,4.35-3.81,6.82-7.45,9-.22,2.82,3.24,3,2.51,6.28,6.12.27,9.17-1.7,13.55-2.69-2.53,4.87,6.81,1.08,7.48,3.61.89,2.43-5.83-.65-5,1.77,0,4.86,13.55-.22,11.19,6.29,4.62-2,6.06-1.42,11.11,0h1.26c-.39-1.08,3.57-3.08,3.72-.89-.22,1.06-2,1-3.72.89.33,2.27,5.31,5.11,0,6.31-1.46-.18-1-1.66-1.26-2.7-11-.71-16.56-5.34-29.71-4.5-3.79-.84-3.88-4.36-8.64-4.49-.59,2.55-3.87,3.17-7.46,3.58a4.71,4.71,0,0,0-1.2-4.5c-4.78.21-4.78,3.82-9.91,3.61-4.71.69-5.92-1.1-9.93-.89-1.38.22-.81,1.78-2.48,1.78-1.2,0-1-1.1-1.2-1.78-3,.29-4.7,1.41-8.73.89-9.87-4.48-28.94-2.34-39.58-6.3-9.26,2.94-21.28,3.77-27.26,4.5-2.83,3.49,2.24,3.55,3.67,6.31,4.73-.43,7.74.36,8.7,2.71-5-1.25-4.45,1.59-6.22,2.69-2.26-.79-3.36-2.33-6.16-2.69-4.71,3.46-16,2.17-19.85,6.25,6.83-.15,9.25,2.88,9.92,7.23,6.57-1.73,11.5.24,17.35-1-6.07,7.92-31.83,1.53-29.77,15.28,4.13,2.17,5.1,2.46,3.74,7.2,2.23.11,2.58-1.11,4.91-.9.11,1.43-.58,3.42,1.25,3.59,1.75-2.86.57,3.68,3.74,2.69,1.53-3.5,7-4.3,11.12-1.79-5.34,3-7.28,8.47-13.58,10.77-5.68,1.29-7.62,5.25-14.85,5.37,1,2.88-2,2.78-2.5,4.5,5.67.51,7.72-1.6,13.61-.89,1.39-2.59,5.27-3.34,9.94-3.61,4.66-6.17,12.71-9.91,19.82-14.36h2.5c1.29-.84.36-3.28,3.67-2.69.09-.54.22-1.06,1.22-.87-.07.53-.14,1.06-1.22.87.53,4-3.32,4.75-4.95,7.19,10.18.82,12.65-4,21.07-4.5.56-4-.65-6.75-1.24-9.89,5.69.85,6-2.23,11.09-1.8a31,31,0,0,1,8.72,6.31c7.87,1.81,14.61,4.41,13.61,12.57,6-.58.28-5,5-5.39.28,7.6-.4,15.8,3.65,20.66-3.73,2.33-1.27,3.33,0,6.3,0,1.77-3.37,1.11-2.41,3.6-.6,9.84-1.42,16.45,0,26,3.28,1.49,5.46,3.81,8.63,5.4,3.41,3.47,3.16,9.63,7.42,12.56-1.43.16-1,1.64-1.25,2.7,5.19,1.35,6.36,5.56,8.73,9,3.77-.68,3.57,1.57,7.34.87.18-3.82-2.39-3-2.42-8-.71,0-1.4-.76,0-.92v.92c2.62-.46,2.3,1.27,2.42,2.67a38.63,38.63,0,0,1,10,7.19c-.9,6.33,2.39,9.65,4.91,13.48,10.24,1.84,16.26,6.44,28.51,4.46a34.06,34.06,0,0,0,5,6.31c4.67-.7,5.94,1.09,9.86.9,1.17,2.16,3.63,3.36,6.2,4.48v2.7C-25.15,301.38-23.7,306-17.41,307.12Zm75.56-123c.61.46-.9,1.12-1.26.88C56.26,184.51,57.78,183.81,58.15,184.1ZM-37.24,114c3.81.88-1.36,2.42-1.27,3.6C-42.25,116.75-37.92,114.58-37.24,114Zm-4.95,4.49c3.92-.41,4.38,1.66,8.67.93,0,3.56-4.85,3.67-8.67,4.46Zm-38.36,1.84c-.67-.49.81-1.19,1.18-.91C-78.72,119.89-80.22,120.56-80.55,120.35Zm-26,129.29a.6.6,0,0,1,1.19,0C-105.58,250.68-106.58,250.15-106.58,249.63Zm1.19,1.8c2.95.3,2.81,2.79,5,3.59C-102,257.29-106.44,254.06-105.38,251.44Z" transform="translate(231.68 -34.08)"/><path class="cls-1" d="M144.83,125.69c2.45,0,1.54-2.43,5-1.8,4.57,1.17,7.22,3.78,13.6,3.61,4.2-2.15-5.93-4-2.46-5.38,1.85.46,3.14,1.33,4.94,1.78,1-3.1-1.38-3.79-2.48-5.39,10.22-.39,6.87-9.43,5-14.36a36.6,36.6,0,0,1,11.09-.89c-.32-4-6.65-3.55-9.87-5.41,3.85.44,2.76-2.73,7.39-1.8.89-2.73-2.12-2.62-1.23-5.39,4.43.49,3.05-3.18,7.45-2.69,3.1-.74,10.65,1.77,9.91-1.78,1.14-3.27-5.38-.91-6.2-2.71-2.92-.26-2.33-3.11-6.2-2.69-5.36-.54-11.13,3.24-13.62,1.82.76-4.54,10.91-2.29,12.36-6.29-2.57-2.61-8-3.14-14.89-2.7-4-1-8.92-2.37-11.13,0-1-1.32-3.95-1.3-6.17-1.82-5,2.39-17.14-.43-22.24,1.82-5.73.09-12.6-.72-14.92,1.81-.11,2,3.39,5.81,1.21,6.25-8.94-1-14,.62-22.22-.89-12.42,1.24-18.2,7.14-31,8.1-1.18,3.24,5.56.72,4.92,3.61C59.5,94.66,52.86,94.61,49.51,97c-3.06-1.17-7.07-1-8.7,2.68,4-.78,3.83,1.41,6.18,1.77,0-2.38,6.2-2.38,6.2,0,3-.53,8.42-4,8.65.93-5.29.36-12.72-.88-16.11.9,1.13,3.36,5.82,4.14,9.93,5.36,3.82.66,2.34-2.46,6.17-1.78,3.78,1.77,7.59,3.48,14.87,2.7-1,4,.85,6,2.49,8.08-.42,2.1-2,3.39-1.24,6.28,4.94,1.76,5.72-4.13,8.69-.87.68,3.2-3.74,2.73-7.45,2.67,1,4,9.41,2.78,11.12,6.29-2.81,1.55-6.24,2.63-8.67,4.5,3.49,1.17-3.85,1.85-2.45,4.48,8.83,4.34,2,14.6,8.63,20.66h8.7c3.59.11,2.16,3.82,6.17,3.58,1.25-1.8,2.15-3.84,5-4.51-1.5-6.77,6.17-6.85,5-13.46,3.16-.07,1.73-3.49,4.91-3.59,4.73,1.82,4.73-2.13,9.94,0a48.78,48.78,0,0,1,6.21-3.57c6-1.08,8.62-4.54,14.83-5.39.5-3.24,10.94-4,7.43-7.2C153.49,129.55,148.28,126,144.83,125.69Zm12.41-3.58c-3.31-1.6,0-5.93,3.71-5.37C160.32,118.95,157.63,119.71,157.24,122.12ZM165.89,79c-.09,2.66-2.79,3.34-4.94,4.48-3.79-1.74-9.39-2.14-16.11-1.8C149,78,160.63,79.56,165.89,79Z" transform="translate(231.68 -34.08)"/><path class="cls-1" d="M-8.72,92.49v5.35c3.77-.62,4.49.93,7.38.91.57-4.09,8-7.92,12.41-6.26,1.88,3.76-6.42.12-6.17,2.67,3.74,1.35-4.29,1.61-3.73,3.59,3.23-.55,4.41.36,3.73,2.67-2.91,0-3.66-1.55-7.45-.86.18,2.54-4.16,1.75-2.46,5.38,7.39-.7,12.73-1.25,16.09,2.67-9.83,1.54-16.18-3.55-22.3-1.78-1,4.32,7.5,1.76,7.46,5.42,9.34-1,21.88,4,24.74-2.71,3.23.27,5.31-.34,5-2.7.92-2.44-5.78.66-5-1.79h8.69c0-4.79,7.55-4.12,6.19-9.88,6.4-.14,7-4.48,14.92-3.62,1.51-2.16,3.94-3.62,8.61-3.59,1.59-2.22-2.75-4.35,0-4.49,5.19-1.72,12.79.9,14.87-4.48,0-1.47-3.46-.48-3.68-1.79-20.29,2-47.93-2.61-69.42,3.59C-.5,86.21,6.5,85.3,7.35,88.89c-8.05.46-5.6-6.73-14.82-5.41-.4,1.24-1.82,1.73-1.25,3.62-2,.06-4.31-.15-3.73,1.79C-13.53,91.76-9.22,90.75-8.72,92.49Zm26,16.12c.64.47-.91,1.19-1.26.92C15.37,109.07,16.91,108.37,17.27,108.62Z" transform="translate(231.68 -34.08)"/><path class="cls-2" d="M295.92,90.66c.65-2.52,6.5-1.29,5-5.37-11.32-1.32-22.17-1.61-32.22-1.81a4.2,4.2,0,0,0,1.21,3.62C277.73,88.91,284.15,91.74,295.92,90.66Z" transform="translate(231.68 -34.08)"/><path class="cls-2" d="M247.67,95.17c-.16,2.22-2.33,2.78,0,4.49,5.09-.19,5.27-4,11.11-3.61-.29,4-6.07,4-6.16,8.1a11.94,11.94,0,0,0,8.69,1.81c-.6,2.81,2.61,2.87,6.17,2.67a67.42,67.42,0,0,1,3.71-9.86c3.27,2.39,5.16,5.85,13.64,4.5,1.09-6.85-6.55-7.26-9.91-10.76-.37,2.09-3.33-1.05-5-.94-3,.16-5.08-.45-6.09-1.77,2.88-2.39-1.05-5.27-6.24-4.49-3.63,1.45,2,4.66-1.25,5.37-2.63-4.26-14.46-8.47-14.89,0C242,93.27,246.76,92.79,247.67,95.17Z" transform="translate(231.68 -34.08)"/><path class="cls-3" d="M372.71,88.89c-.11-5.68-11.51-3.74-11.11.89C365.82,92.58,368.11,88.53,372.71,88.89Z" transform="translate(231.68 -34.08)"/><path class="cls-3" d="M442.15,94.26c9.73-1.2,19.95,3.13,22.25-2.71-2.91-3.47-14.24-4.93-21-2.66C440.6,89,442.79,92.67,442.15,94.26Z" transform="translate(231.68 -34.08)"/><path class="cls-3" d="M367.84,127.5c-1.81-4.13-7.63-5.28-6.24-11.68,8.75-.55,12-5.06,18.56-7.2,7.83.58,11.78-1.6,12.46-6.26h-6.24c-.3.7,0,1.78-1.27,1.78-9.28.74-16.21,3.23-23.51,5.39.62,4.61-6,4.07-5,9-1.53,1.91-4.62,2.64-4.92,5.39A101.42,101.42,0,0,0,364,129.3C364.59,128.17,365.68,127.45,367.84,127.5Z" transform="translate(231.68 -34.08)"/><path class="cls-3" d="M574.62,111.34c3-1.45,4.44-4,7.47-5.4-4.71-.44-5.71-4.13-9.95-3.59-.54.05-1.15,2.11-2.47,1.78h-7.39C560.63,110.69,571.12,108.47,574.62,111.34Z" transform="translate(231.68 -34.08)"/><path class="cls-2" d="M179.51,151.74c.14-2.29,4.63-1.41,6.2-2.68,1.31-4.56-2.82-5.15-2.47-9-5.37,1.19-7.29-.57-12.39.88-3.37-.55-3.1-3.76-7.45-3.57,1.52,4.34-4.92,3-4.92,6.25,3.46.75,3.21-1.25,6.14-.88-.64,2.17-4.76,1.92-3.68,5.38,6.2-1.18,4.86,3.1,8.7,3.59C170.66,149.89,178.25,150.82,179.51,151.74Z" transform="translate(231.68 -34.08)"/><path class="cls-1" d="M9.81,151.74c-4.91-1-1.68-2.27-4.91-4.49-3.76.66-3.66-1.53-7.45-.88-1.75,1.72-.64,5.48-6.16,4.52.08,3.13,4.06,3.58,8.63,3.55C-.5,147.42,8.36,157.38,9.81,151.74Z" transform="translate(231.68 -34.08)"/><path class="cls-2" d="M227.89,184.1c-1.72-.94-3.82-1.5-5-2.7,1.55-5.32-8.21-6.17-3.69-10.79-1.68-.91-3.76-1.48-5-2.71,1.8-.76,3.93-1.32,3.74-3.58-4.53-.28-6.91,1-9.88,1.78.92,4.9-2,7-1.25,11.69a27,27,0,0,0,6.15,1.79c.52,3.18-4.16,4.94-6.15,3.58-1,4,.86,6,2.48,8.11-2.17.83-6.64-.05-6.24,2.69a128.51,128.51,0,0,1,19.84-.91C223.89,189.2,223.2,186.67,227.89,184.1Z" transform="translate(231.68 -34.08)"/><path class="cls-2" d="M194.34,187.69c2.86-1,7.52-.6,9.94-1.81-1.3-3.75-.29-4,0-8.09h-6.16c-.08,4-2.81,1.14-5,2.7C193.32,183.08,192.48,186.35,194.34,187.69Z" transform="translate(231.68 -34.08)"/><path class="cls-3" d="M619.19,213.72c2.39.11.89,3,3.74,2.69,2.74-2.21,2.32-6.69,7.42-7.17-6.48-.67-10.55-3.13-17.32-3.6.9,4.27-1.39,6.17-1.25,9.9C615.18,217.95,614.85,213.22,619.19,213.72Z" transform="translate(231.68 -34.08)"/><path class="cls-3" d="M590.74,241.57c-.22,3.16,2.92,3.86,5,5.36.86-3.25,3.86-5,7.45-6.28a7.61,7.61,0,0,1,3.68.92c3.91-3.46,12.12-3.79,16.11-7.2-.21-6.4-2.74-11.21-2.45-18h-5c1.52,4.21-.64,6.26,1.28,10.77a1.45,1.45,0,0,0-1.28,1.84,36.9,36.9,0,0,0-11.14,5.36c-4.36,1.65-12.23.69-12.38,5.4-.56,2.48,6.75-.7,6.22,1.79Z" transform="translate(231.68 -34.08)"/><path class="cls-3" d="M288.52,234.37c.36,2.51,4.11.72,7.4,2.72.9-3.36-1.89-4-6.15-3.62C290,234.22,289.26,234.32,288.52,234.37Z" transform="translate(231.68 -34.08)"/><path class="cls-3" d="M564.69,264.93a8.1,8.1,0,0,1,3.72,5.38c5.16-.21,4.74-4.4,5-8.08C570.32,260.24,566,262.87,564.69,264.93Z" transform="translate(231.68 -34.08)"/><path class="cls-1" d="M-8.72,262.24v3.58h5C-3.92,263.56-5.56,262.33-8.72,262.24Z" transform="translate(231.68 -34.08)"/><path class="cls-1" d="M4.89,266.69a4.57,4.57,0,0,0-1.25-4.45H-.09C-.56,265.29.29,267.35,4.89,266.69Z" transform="translate(231.68 -34.08)"/><path class="cls-1" d="M6.11,265.81v4.5c2.6.36,3.31-.62,5-.92C10.92,267.12,9.28,265.91,6.11,265.81Z" transform="translate(231.68 -34.08)"/><path class="cls-1" d="M3.64,280.19c4.45-.53,6,1,8.72,1.81.09-2.59,5.12-1.64,8.61-1.81-1.78-6-8.61-5.14-16.08-5.39.91-2.45-2.53-1.82-2.53-3.59-2.68-1-6.8-1.06-7.39-3.59H-23.57c-.55,1.71-2.69,2.25-2.51,4.5,5,.35,5-3,11.16-1.81,5.21.74,5.79,4.8,11.15,5.38,2.95.56,9-1.13,9.87.9C1.58,276.69,3,277.89,3.64,280.19Z" transform="translate(231.68 -34.08)"/><path class="cls-1" d="M16,270.31c-.39-1.23-3.08-.76-4.94-.92C8.45,272.71,17.37,273.45,16,270.31Z" transform="translate(231.68 -34.08)"/><path class="cls-3" d="M569.68,280.19a22.27,22.27,0,0,0,7.43,5.39c1.55-2.79,5.76-3.59,5-8.09C578.72,274.24,569.51,275.71,569.68,280.19Z" transform="translate(231.68 -34.08)"/><path class="cls-3" d="M539.92,282.89c3.49-.52,3.49-3.5,5-5.4a9.16,9.16,0,0,0-5-.89C537.63,280.1,538.32,277.33,539.92,282.89Z" transform="translate(231.68 -34.08)"/><path class="cls-1" d="M-10,278.37V282c4.17-1,4.27.29,8.66-.9C-.5,277.49-6,278.52-10,278.37Z" transform="translate(231.68 -34.08)"/><path class="cls-1" d="M23.43,282c4.48.22,8.6.19,7.45-3.63H23.43Z" transform="translate(231.68 -34.08)"/><path class="cls-4" d="M153.49,282c0,1.76-3.36,1.14-2.43,3.58H156C156.35,283.51,155.64,282.19,153.49,282Z" transform="translate(231.68 -34.08)"/><path class="cls-3" d="M579.61,296.36c2.57,1.93,3.5-.46,7.4,0-.4,2.09-2.64,3.88,1.26,4.48,1.75-2.63,5.21-4,11.13-3.59,1.17-4.13-4-3.71-6.19-5.38.31-2.95-1.46-4.34-4.94-4.5-1.74,1.16-1.23,3.9-1.26,6.29C582.87,292.12,581.65,294.2,579.61,296.36Z" transform="translate(231.68 -34.08)"/><path class="cls-3" d="M456.95,299c1.77,5.32-4.71,6.41,0,9,3.91.44,3.3-2.41,6.22-2.69C462.14,302.48,459.57,300.74,456.95,299Z" transform="translate(231.68 -34.08)"/><path class="cls-3" d="M538.71,323.31c1.21,3.61,6.6,4.18,6.2,9,8-1.35,6.8,4,14.84,2.68-.35-2.06,3.56-1,3.74-2.68-.95-.21-2.45,0-2.46-.92,4.06-1.23,2-6.84,6.22-8-2.85-2.92,1-6-1.28-8.11,2.16-.8,4.27-1.65,3.71-4.46-3-1.72-5.41-3.86-11.15-3.62C557.38,316.5,540.91,314.69,538.71,323.31Z" transform="translate(231.68 -34.08)"/><path class="cls-3" d="M515.15,317c-1.87-2.09-5.78-3.54-4.9-6.25-3.39.62-2.51-1.81-5-1.81.16,4-3-.11-6.22.88,0,10.49,17.41,8.36,14.91,20.65,6.1.49,7.81,6.41,13.57,4.49,2.85-3.43-2.55-7.36-2.4-11.65C521.35,321.47,516.89,318.9,515.15,317Z" transform="translate(231.68 -34.08)"/><path class="cls-3" d="M584.59,324.19c-.26-4-7.83-2.73-10-5.39-6.35,3.7-10.76,13.69-1.21,17-.27-2.59.29-4.57,2.46-5.38,2.72,1.73,2.89,4.57,7.43,2.72-.63-3.76-4.78-5-4.94-9A6,6,0,0,0,584.59,324.19Z" transform="translate(231.68 -34.08)"/><path class="cls-5" d="M611.77,320.59c-4-1.83-13.92-1.48-13.59,2.72C602.42,325.22,611.46,324.33,611.77,320.59Z" transform="translate(231.68 -34.08)"/><path class="cls-5" d="M625.43,324.19h-8.66c-1.11,1.31-1.86,2.86-5,2.7-3.83.68-2.31-2.5-6.13-1.81.36,2.35-4.88.73-3.73,3.58.16,2,3.08-1.12,6.12,0,5.53,3.24,12.77,5.17,17.4,9V343c6.62-2.9,8.61,1.84,13.62,2.69,4.35-.13,3-4.43,8.66-3.59,2.9,1.23,6.19,6.84,11.14,3.59-2.58-.79-3.77-2.66-3.72-5.36-3.24-2.16-7.79-3.32-9.89-6.31v-2.72C635.69,331.11,633.1,325.83,625.43,324.19Z" transform="translate(231.68 -34.08)"/><path class="cls-3" d="M559.75,344.85c.69-3.18-4.32-2.22-3.69-5.4-10.1.19-17.29-1.87-24.79-3.61-1.09,1.6-3.46,2.31-2.44,5.39C540.64,341.35,546.26,346,559.75,344.85Z" transform="translate(231.68 -34.08)"/><path class="cls-5" d="M651.39,379.88c.5-4.24-2.16-6.18-1.23-10.79-2.42-.6-2.82-2.7-4.92-3.58-.44-6.88-8.87-8-7.44-16.17-2.31.2-2.71-1-4.94-.91-3.19,3.69,1.33,13-3.76,15.28-4.87,1.18-2.5-3-7.43-1.81-.19-2.51-5.85-1.09-4.91-4.47-.64-2.85,6.11-.34,4.91-3.57-4.3-3.49-17-.91-23.5-2.72-2.16.54.06,4.25-2.48,4.47a61,61,0,0,0-12.39,2.72c-1.55,2.71-.44,7.47-4.94,8.09-2.95-2.13-6.12.13-10,0-2.41.62.3,5-2.44,5.36-2.56-.5-2.41-2.7-4.94-.88-3.09,2.25-1.64,7.78-6.19,9-2.78,1.29-8.29.59-9.93,2.69,1.31,4,4.34,9,1.24,13.47,2.42.64,3.26,2.41,3.71,4.49.68,4.1-2.21,5.59-1.29,9.88,3.7-.24,3.88,2,7.49,1.81,5.17-1.64,8.21-4.81,17.35-3.61,4.36-4,13.05-4.9,23.53-4.48a16.9,16.9,0,0,1,7.39,8.09c4.85-1.68,3.34,2.07,8.69,0,0,2.36.44,5.1-1.25,6.28,7.92,3.34,12.61,3.53,24.8,3.61,3.12-1.62,5.43-3.88,9.91-4.55-.61-4.59,5.9-4,4.91-8.95,4.33-.21,3.24-4.28,7.46-4.48-1.42-3.19,2.13-5.09,2.47-8.09.68-5.48-2.4-11.09-3.71-16.16C654.51,378.69,652.49,382.52,651.39,379.88Z" transform="translate(231.68 -34.08)"/><path class="cls-4" d="M362.84,351.14a22.7,22.7,0,0,0-5,9c-5.37.9-8.1,3.63-11.11,6.29-1,3.1,1.79,3.47,1.22,6.28-1.12,1.88-2,4-3.76,5.39,2.7,4.05-.85,7.64,3.76,10.78,4,.17,5.23-1.6,9.89-.91,2.69-4,1.65-5.8,5-9.87v-4.5c.3-1,1.36-1.4,2.47-1.81-2.25-3.93,2.28-7.66,2.54-14.36C363.2,357.47,368,350.75,362.84,351.14Z" transform="translate(231.68 -34.08)"/><path class="cls-5" d="M719.54,412.22c.24-2.57.16-4.92-3.7-4.48v7.15c-1,2.64-5.89,2.35-5,6.33,8.32-.89,2.83,2.67,2.47,5.37,7.83-.27,8.11-6.13,11.17-9.88,1.85-1.35,5.17-1.61,6.15-3.62C727.69,410.31,725.42,412.55,719.54,412.22Z" transform="translate(231.68 -34.08)"/><path class="cls-5" d="M705.9,423c-1.05,1.89-3.71,2.66-3.67,5.37a9.3,9.3,0,0,0-5,.9c-2.09,1.8-2.88,4.51-6.16,5.37-5.11,1.41-6.62,5.38-8.72,9,4-1.45,6.73-.44,11.15,0,1.17-2.14,5-2.38,3.73-6.3h5c.34-5.12,9.73-3.68,9.86-9C711.66,425.39,708.43,424.5,705.9,423Z" transform="translate(231.68 -34.08)"/><path class="cls-5" d="M621.68,425.66c-1.38,1.38,4.14,5.43,5,8.11,6-.43,9.9-2.38,8.67-8.11C629.93,426.39,623.87,424.56,621.68,425.66Z" transform="translate(231.68 -34.08)"/><path class="cls-6" d="M60.59,453.5h5C66.41,450,60.4,450.58,60.59,453.5Z" transform="translate(231.68 -34.08)"/><path class="cls-4" d="M369,293.66c-5.3-.54-5,2.94-9.85,2.7H348c-.59-6.15-6.76-8.28-11.18-11.67,1.1-5.9-7.35-4.84-4.94-11.7-2.1-2-6-2.86-7.42-5.37,1.1-2.53-1.4-6.42-.29-7.09-.31-.64-.69-1.35-1.12-2.12-.35.23-.86.37-1,.24-.45-.33.15-.76.66-.91-2.25-4-5.42-8.95-6.65-10.86a2.34,2.34,0,0,1-.26,0c-9-2.39-20.24-3.23-32.21-3.57-3.57.68-3,4.43-6.17,5.41-5.69-4.27-17-4.51-22.25-9,.95-3.11-1.42-3.81-2.49-5.4,2.89-.25,2.83-2.41,1.2-3.59a57.24,57.24,0,0,0-18.59,2.69c-10-.43-18.75.13-23.55,3.62-1.05-1.89-3.58-2.77-7.4-2.72-1,3.17-5.48,3.8-8.65,5.4-3.37,4.22-2.1,9.72-4.93,13.46-1.86,2.37-8.51,4.8-11.19,7.2-.2,5.25-3.05,8.57-6.21,11.68v23.34c4.28,3.49,8,7.39,9.95,12.56,5.7,2.45,9.53,6.28,17.32,7.18a87.31,87.31,0,0,1,17.35-.89c2.56-1.46,2.39-4.84,7.48-4.5,2.21.15.7,3,2.5,3.58,5.7-.57,7.89,1.44,12.34,1.8,2.12-.79,3.15-2.5,7.44-1.8,1.24,6.94-2.64,10.12-2.5,16.2,3.53,4.6,9.58,8.09,7.45,14.36,3.27,3,3.5,8.23,5,12.57-3.06,4.08-2.36,10.82-5,15.26a28.19,28.19,0,0,1,11.2,14.38v8.09c5.48,4.66,5.35,13.42,11.11,18,11.91-.63,17.88-5.55,28.5-7.18,1.88-4.94,5.65-8.46,11.11-10.78-.62-3.48,2.23-4.39,1.21-8.09,2.23-.82,3.18-2.51,7.47-1.81.13-10.36,5.19-17.14,14.9-20.65a59,59,0,0,0,0-25.13,39.25,39.25,0,0,0,6.13-11.68c3-1.46,5.46-3.22,8.7-4.5,5.89-6.2,11.24-12.82,17.36-18.83C371.23,300.19,372.87,295.6,369,293.66Z" transform="translate(231.68 -34.08)"/><path class="cls-3" d="M713.35,142.77c-3.3-1.09-8.11-5.9-11.12-1.81a4.75,4.75,0,0,0-1.23-4.48c-6.75-1.76-10.33-5.75-21.07-4.5-1.43-1.67-4.79-1.91-6.2-3.6-8.11.78-9.83-3.07-18.61-1.81-1.71,2.64,3.41,4.6,0,5.41-3.59-.39-2.93-3.88-6.17-4.49-3.64,2.78-10.33.26-17.44,1.8-4.42-2.1-4.1-7.76-13.53-6.28-1.79.2-.42,2.67-2.51,2.67-5.16-1.62-10.2-3.39-14.84-5.35a3.41,3.41,0,0,1-2.46,1.77c1.55-3.53-3-2.68-6.22-2.68,3.05-2.13-1.34-2-2.43-3.62-6,1.58-5.54-.52-11.16-.88-.43,1.2-3.14.74-4.95.88-1.25,1.68,3.69,3,0,3.62-10.65-1.23-24.17,1.59-33.5,0-3.12-.57-4.32-3.32-7.38-2.69-5.74.95-9.56-.94-13.67-1.81-1.45-.36-3.41.2-4.9,0-3.11-.43-5.46-2.86-12.38-1.83.47-2.3,3.65-2.7,3.69-5.36-1.75-2.64-5.72-3.63-7.42-6.31-3.74,1.21-9.48.95-14.88.93-3.1-.76-2.6-4.07-7.43-3.6-2.91.9-4,3.1-3.71,6.29-6.14-1.45-3.94,3.15-8.67,2.69-2.38-.37-1-3.49-5-2.69-3.21,2.47-7.69,4-14.82,3.57-2.21,1.16-3.29,3-7.44,2.73-1.74,1.14-.57,4.38-3.78,4.48-2.55.57-8.56-1.46-7.34,1.79,0,3.3,7.2,1.32,6.15,5.41-4.56-1-5.78-4.2-12.42-3.58,0,2.34.69,5.27-2.48,5.38-1.43-1.07-1.43-3.21-1.24-5.38-4.83-.79-2,3.9-7.4,2.68-1.94-1.6-1.7-4.8-7.43-3.61-3.5,3.78-8.23,6.64-12.43,9.88-8,.43-7.42-1.68-16.07-1.81-2,4.44,6.41,1.37,4.94,5.41-5.17-.87-10.72.45-18.58,0-5.58,1.64-8.62,5.12-14.85,6.28v-5.39c-3.08.15-6,.16-7.42-.89.3,5,.05,9.6-7.44,9,.41,3.32-4.53,2.69-7.43,3.6-3.07,1.2,2.2,2.69-1.26,3.58-7.25,1.06-7.67-6.5-7.4-8.06,5.75,0,12.08-.4,16.09.88,3.31-5.63-7-8.53-14.89-9-1.93-2.18-5.27-3.35-9.86-3.6a18.91,18.91,0,0,0-6.23-5.37H286c-3.35,1.7-6.52,3.64-9.84,5.37-.57-1.31-1.62.38-3.78,0-4.42,3.4-10,5.93-14.82,9a19.28,19.28,0,0,1-7.43,9.84c-.24-1-2.28-.74-3.72-.88v3.57c-7.87.35-8.68,5.69-11.19,9.9,2.5,2.12,2.86,5.74,2.5,9.87,1.2,2.43,7.83,1,9.93,2.71-2.71,2.64-5,3.63-5,6.3,2.64-.43,2.33,1.25,2.46,2.69-4.41.06-7.18,1.39-11.12,1.76-1.14,1.62-3.51,2.31-2.52,5.41-7-1.52-2.76,5.17-8.66,4.48.19,1.07-.26,1.6-1.29,1.79-5.43-.39-6.52,2.44-9.91,3.62-3,.48-6.31.76-6.11,3.58,1.6,1.22,5.36.88,8.61.9-.59,4.05,5.74,3,5,7.19-1.28,1.19-1.24,3.34-3.76,3.58-5.76-2.14-10.89.81-18.54,0-1.25,3,2.76,9.78-2.53,9.9.92,2.64,3.77,3.88,2.53,8.07,5.75-.89,7.48,1.17,11.16,1.78,4.62-1.72,5.24-1.72,9.88,0,2.81-3.63,7.08-6.26,6.17-12.57,5.44-1.15,4.52-6.89,11.14-7.18,5.26,2.25,7.38-.63,12.44-.9-3.51,3.49-1.74,9.1,0,13.47,7.84-.51,3-5.09,3.69-9.89-1.25,0-1.55-1.58,0-1.79v1.79c2.56.27,2.46,2.41,3.75,3.61,6,.09,9.73,1.83,11.1,5.4-.2,1.94-3.09,1.9-6.22,1.77-.16,3.15,4.39,2.83,6.22,4.51-.59-4,3.33-4.77,6.19-6.28.69-2-2.34-1.29-2.49-2.73,2.29-2.81,4.2,3,6.27,0-3.4-4.75-18.8-5.55-14.86-12.55,3.68,4.11,10.67,6,14.86,9.88.69.68,1.75,2.79,2.42,3.6,1,1.12,3,2.15,2.51,3.56v5.38c1.6,1.23,5.39.89,8.68.91,2.07-3.09-2.23-7.51,1.2-10.78h3.71c-1.38,3.54-.21,3.35-1.19,7.16,2.77-.31,1.65,2.6,3.7,3.62,4.51,2.29,12.77,1.59,16.08,0,3.71,1.31-3.22,4.67,2.46,4.51,5.11.66.27-5.81,6.26-4.51v5.38c-3.08,1.34-1.79,5.83-4.39,7.48,2.16,4,7.31,13.41,8,14.88h0c2.57,2,4.9,5.71,3.73,7.3,5.2,3.76,8.64,8.7,13.65,12.58,3,3.74,2.49,9.35,8.7,12.56,8.63-2.09,14.69-6.08,24.74-7.21,1.74-.52.22-3.44,2.45-3.56,5.38-.63,7.63-3.49,12.41-4.52-.88-3.92,3.63-4,3.73-7.16-2.14-3.24-8.52-3.43-7.47-9-4.68-.45-7.88.25-9.88,1.75-1-3.39-5.59-4.3-5-9-4,.24-3.58-2.76-6.14-3.59,1.84-.48,3.11-1.3,4.94-1.8,6.84,3.1,4.79,12.67,17.35,11.69.5,1.73,3.51,1.65,2.45,4.49,6,.45,6.88-2.78,12.41-2.68,1.26.56,1.28,2,3.71,1.8,8.61-.93,10.76,3,16,4.46-2-.31-2.31.71-2.39,1.82,1.28,1.72,5.67,1.21,7.45,2.69-.66,2.83,2.21,3.16,1.15,6.29,3.77,3,5.37,7.51,7.46,11.68,2.62,1.72,5.17,3.44,6.26,6.27v5.42c1.54,1.24,5.35.86,8.62.88,1.65-5.73,6.08-9.37,4.94-17.07h5v-3.61c4.68,1.34,2.4-2.43,6.17-1.76-.35-4.13,4.53-4.53,6.21-7.2a28.59,28.59,0,0,1,11.14-3.59c2.81,2.47,2.83,6.95,7.47,8.11.43,2.11-2.29,1.91-1.32,4.44,1.39,2.94,9.85.68,12.46,2.69-1.67,1.91.62,2.67-1.28,5.42,3.24.93,5.52,2.57,6.19,5.38-.45,1.7-3.53,1.62-2.46,4.5.38,2.71,3.82,3.19,2.46,7.18,6,3.74,11.59,7.76,18.57,10.78.33-5.93-5.83-7.12-6.16-12.59-3.45-1.72-6.74-3.5-8.69-6.29.57-2.91-1.63-7.74,2.46-8.08,2.71,2.55,4.66,5.65,10,6.28a4,4,0,0,1,1.16,3.58c12-1.14,15-8.92,13.62-19.73-1.58-.91-4.55-.9-6.17-1.8,1.58-4-5.94-3.69-2.47-6.3,3.63-2.51,3.23,3,8.65,1.8.9-3.85,7.19-3.81,13.64-3.61,3.93-4.33,9.2-7.66,11.13-13.48,2,.26,2.13-.84,3.72-.86,2.08-3.65-.28-10.38,3.74-12.56-2.64-.83-3.74-2.67-3.74-5.44-2.09-1.12-4.82-1.84-4.92-4.47-.55-2.16,2.28-2,1.2-4.48,2.56.28,3.91-.18,3.72-1.84,3.55-1.14-5.58-5.36,2.51-5.36,1.41,2.87,5.69,3.62,7.45,6.29-1.21,4.74,2.33,6.1,6.22,7.19,7.42-3.91-.26-13.79,3.69-20.65,2.6-1.71,6.33-2.59,9.91-3.61,2.86-4.2,5.39-8.63,9.85-11.68,1.72-7.24-2.81-14.69,0-19.76-1.69,5.13,2.86,5.73,3.74,9,.24,5.57.62,10.95,6.22,12.56,2.31-1.59-1-2.27,0-5.36,3.38-.11,2.49,1.49,4.94,0,.22-2.86-3.29-3.05-2.45-6.32-4.48-.61-5.64-3.66-7.46-6.27-.46-3.23.44-7.51-3.68-8.09-2.59.23-.34,4-3.7,3.61-2.1-6.61-10.51,4.13-13.69-2.69.86-2.1,3.14-3.09,5-4.49,1.42-2.86.92-7.08,5-8.12,2.84,2.22,2.26-1.32,6.12-.89,5.84.6,11.24,2.36,18.64,1.81-.43,1.53,1,1.71,2.44,1.78,1.63-1.24,5.41-.86,8.7-.91.63-2.83-2.2-3.15-1.23-6.26,2.51-.26,2.41-2.42,4.95-2.7,2.54.28,2.44,2.44,5,2.7-.58-2,3.68-5,4.91-2.7-4,5.76-9.77,10.24-11.12,18,.81,2.43,3.54,3.43,5,5.4.54,3.44,1.46,6.73,4.92,8.07,3.09-2.26,4.92-5.42,8.69-7.2-1.13-4.44,4-3.78,1.3-7.16.32-1.82,3.27-1.78,3.67-3.59-1.82-1.07-5.55-.8-5-3.6,1.22-7.88,9.34-6.18,18.6-5.39,1.79-1.38,1.62-4.18,3.72-5.37,7.22-.39,12.66-2.85,17.29-2.71,0-3.84-6.13-3.28-6.13-7.18,2.9-.29,2.3-3.1,6.13-2.67,6.48.08,5.61,5.53,13.63,4.45C713.71,148.34,711,145.42,713.35,142.77ZM276.17,158q3.49,2.81,9.84,3.59v9c-2.78-.37.7-5.28-4.92-3.58-2.74,3.1-1,9.42-4.93,11.68-4.13.28-7.18-.43-10,0-3.44.51-4.17,2.6-7.43,2.69.39-1.1-3.54-3.1-3.67-.91-2.91-.26-2.91-2.45,0-2.7a11.5,11.5,0,0,1-5-9c6.18.38,3.8,12.65,14.85,9,2.78-3.65,4.7-8,7.41-11.69a17.4,17.4,0,0,0-2.49-5.4c.74-8.44,9.56-11,13.62-17,1.5-.12,2.26.2,2.49.91C285,150.73,275,150.33,276.17,158Zm13.6,6.28c-.08-2.71,4.37-2.21,7.42-2.68C297.29,164.41,293.47,164.31,289.77,164.31Zm9.91-35c-.65-.48.9-1.16,1.23-.91C301.53,128.87,300,129.55,299.68,129.3Zm23.52,17.94c-.65-.46.88-1.13,1.24-.88C325.05,146.83,323.53,147.5,323.2,147.24Zm91.64-14.37c-2.35-.37-5.32-.29-4.95-2.68-3.7-.18,1.17-3.74,0,0C410.78,131.63,415.94,130,414.84,132.87Zm76.75-16.13c-.6-.46.95-1.19,1.32-.92C493.57,116.3,492,117,491.59,116.74Zm3.76-.92c-.63-.46.91-1.13,1.23-.88C497.22,115.36,495.72,116.07,495.35,115.82Zm3.71-1.8c-.64-.45.9-1.16,1.26-.91C500.95,113.61,499.41,114.25,499.06,114Zm55.78,113.17c1.74-1.71,2.74-4,7.45-3.56.05,1.39-.6,3.41,1.2,3.56C561.62,229.88,558.07,226.44,554.84,227.18Z" transform="translate(231.68 -34.08)"/><path class="cls-2" d="M335.6,189s-8.33-.61-12.5-2.42a11,11,0,0,0-11.61-3c.6-4.44-2.38-8.69-8.92-8.69s-5.06-10.3-.6-12.93,3.57-3.84,0-6.46S296.91,143,296.91,143l6.65-14.57h-.14a18.91,18.91,0,0,0-6.23-5.37H286c-3.35,1.7-6.52,3.64-9.84,5.37-.57-1.31-1.62.38-3.78,0-4.42,3.4-10,5.93-14.82,9a19.28,19.28,0,0,1-7.43,9.84c-.24-1-2.28-.74-3.72-.88v3.57c-7.87.35-8.68,5.69-11.19,9.9,2.5,2.12,2.86,5.74,2.5,9.87,1.2,2.43,7.83,1,9.93,2.71-2.71,2.64-5,3.63-5,6.3,2.64-.43,2.33,1.25,2.46,2.69-4.41.06-7.18,1.39-11.12,1.76-1.14,1.62-3.51,2.31-2.52,5.41-7-1.52-2.76,5.17-8.66,4.48.19,1.07-.26,1.6-1.29,1.79-5.43-.39-6.52,2.44-9.91,3.62-3,.48-6.31.76-6.11,3.58,1.6,1.22,5.36.88,8.61.9-.59,4.05,5.74,3,5,7.19-1.28,1.19-1.24,3.34-3.76,3.58-5.76-2.14-10.89.81-18.54,0-1.25,3,2.76,9.78-2.53,9.9.92,2.64,3.77,3.88,2.53,8.07,5.75-.89,7.48,1.17,11.16,1.78,4.62-1.72,5.24-1.72,9.88,0,2.81-3.63,7.08-6.26,6.17-12.57,5.44-1.15,4.52-6.89,11.14-7.18,5.26,2.25,7.38-.63,12.44-.9-3.51,3.49-1.74,9.1,0,13.47,7.84-.51,3-5.09,3.69-9.89-1.25,0-1.55-1.58,0-1.79v1.79c2.56.27,2.46,2.41,3.75,3.61,6,.09,9.73,1.83,11.1,5.4-.2,1.94-3.09,1.9-6.22,1.77-.16,3.15,4.39,2.83,6.22,4.51-.59-4,3.33-4.77,6.19-6.28.69-2-2.34-1.29-2.49-2.73,2.29-2.81,4.2,3,6.27,0-3.4-4.75-18.8-5.55-14.86-12.55,3.68,4.11,10.67,6,14.86,9.88.69.68,1.75,2.79,2.42,3.6,1,1.12,3,2.15,2.51,3.56v5.38c1.6,1.23,5.39.89,8.68.91,2.07-3.09-2.23-7.51,1.2-10.78h3.71c-1.38,3.54-.21,3.35-1.19,7.16,2.77-.31,1.65,2.6,3.7,3.62a12.42,12.42,0,0,0,3.06,1L302,212s11.16-3.64,28.86-12.83C335.89,193.27,335.6,189,335.6,189Zm-34.69-60.64c.63.48-.88,1.16-1.23.91C299,128.82,300.57,128.15,300.91,128.39ZM276.17,158q3.49,2.81,9.84,3.59v9c-2.78-.37.7-5.28-4.92-3.58-2.74,3.1-1,9.42-4.93,11.68-4.13.28-7.18-.43-10,0-3.44.51-4.17,2.6-7.43,2.69.39-1.1-3.54-3.1-3.67-.91-2.91-.26-2.91-2.45,0-2.7a11.5,11.5,0,0,1-5-9c6.18.38,3.8,12.65,14.85,9,2.78-3.65,4.7-8,7.41-11.69a17.4,17.4,0,0,0-2.49-5.4c.74-8.44,9.56-11,13.62-17,1.5-.12,2.26.2,2.49.91C285,150.73,275,150.33,276.17,158Zm13.6,6.28c-.08-2.71,4.37-2.21,7.42-2.68C297.29,164.41,293.47,164.31,289.77,164.31Z" transform="translate(231.68 -34.08)"/><path class="cls-6" d="M117.57,341.25c.06-3.34-1.25-5.69-2.46-8.05-2.18-1.69-3.64.37-6.18.88-2-3.07-6.76-4.1-11.11-5.41H89.14c-2.22-2.6-10.52-.77-11.17-4.46-3.3,0-7.32.5-7.4-1.8,3.56-4.19-3.67-15.66-14.9-11.65-3.91-1.68-6.76-4.08-7.41-8.12-6.47-1.31-11.09-3.93-17.38-5.37-1.61.33-1.93,1.57-3.7,1.79-1.68-3.24-7.71-3.39-8.71-7.17-4-.8-2.56,2.3-4.93,2.7-2.88-.63-3.28-3-6.2-3.6-1.12,1.56-2.25,3.1-6.19,2.69-1.9,3.71-6.8,5.18-9.84,8.06a38.73,38.73,0,0,1-4,5c.83,1.66,1.92,3.14,2.66,4.83,0,1.81-3.36,1.19-2.45,3.61.57,4.63-4,5.53-5,9-2.4,6.26,5,9.69,0,12.57,2.16,1.72,6.11,2.13,8.68,3.62-1,1.29-4,1.27-6.19,1.77-.9,7.23,4.54,9.87,11.15,11.71.49,2.14-2.29,1.93-1.26,4.48,4.63,2.62,6.28,7.4,13.65,8.09,2.26,4,6.17,6.86,6.15,12.57-1.26,1.18-1.16,3.31-2.41,4.48a3.77,3.77,0,0,1,2.41,3.6c-3.32,4,1.49,8.76,0,14.37-6.69,2.9-3.61,13-6.15,18.86,1.82,2.49,5.06-1.56,6.15.92,1.13,4.4-4.23,4.11-6.15,6.26-1.58,2.92,3.94.71,2.44,3.62-2.36,2.17,1.36,4.35-1.26,7.16,1.21,6.11,5.38,9.25,2.56,14.39,3.65,2.1,3.26,7.16,7.4,9-.18,1.6,1.46,1.88,1.21,3.58,3.13.47,5.13,1.7,7.43,2.68,4.65-.54,12.77,1.48,13.59-1.8a12.08,12.08,0,0,1-7.4-3.6c.93-3-5-1.13-3.71-4.48-.43-3.93,3.58-4.61,3.71-8.09,3.21-.11,4.81-1.3,5-3.57.63-3.19-4.37-2.19-3.72-5.4,3.32-2.77,8.42-11.64,0-12.58,8.29,1.52,8-3.13,9.89-6.26,6.67.32,8.95-2.54,13.65-3.61.82-4.19-2-5.77-2.5-9h9.92c.07-.9,1.52-.72,2.49-.93.69-2.19,1.06-4.6,5-4.48-.44-5.09,4.67-6.17,7.4-9v-6.26c2.36-1.6,3.86-3.81,6.18-5.41,5.91-1.26,5.91-1.26,11.15-2.69.56-5.76,6.57-10.76,2.48-17.07,1.88-.75,2.69-2.26,2.48-4.5,2,.29,2.16-.83,3.74-.87.46-3,3.64-4,5-6.27,3.29-2.34-.18-4.34,3.66-5.4C115.47,343.9,117.57,343.36,117.57,341.25Z" transform="translate(231.68 -34.08)"/><path class="cls-1" d="M-17.41,307.12c1.26-1.19,1.18-3.33,3.69-3.57a9.19,9.19,0,0,0,.24,1.15A37,37,0,0,1-8.87,300c-.5-1.72-2.17-2.57-4.85-2.7-3.18.95-4.59,3.23-8.72,3.59-2.89-4.38,1.31-8.54,0-14.39-2.24-3.11-10.44-1.93-14.81-3.56,1.23-3.92,4.82-6.08,3.72-11.68a47.09,47.09,0,0,1-12.37,0c-2.28,1.93-1.19,6.31-5,7.16-16.57.65-6.21-15.4-9.91-22.44,4.38-.75,7-2.69,11.16-3.58,6.77-.42,8.36,2.88,14.83,2.67-.1-1.26-.26-2.51,1.26-2.67,6,.21,13.93-1.14,14.85,2.67-.54,5.2,2.73,7.64,8.66,8.11-1.48-4.63-.82-6,0-9-1.4-1.35-3.53-2.2-3.71-4.5,2.08-5.95,7.55-9.49,16.08-10.78,1.14-2.61,1.14-2.74,0-5.38a11,11,0,0,0,6.26-.91c-3.09-4.92,4-3.83,2.44-9.88,4.12-1.21,8-2.5,12.36-3.58.65-2.82-3.75-2-2.45-5.38,4.53-2.72,11.41-3.73,17.4-5.4.86,2.44-2.52,1.82-2.52,3.59,5-1.5,10.21-2.76,13.65-5.38-3.06-1.41-9.23-.56-8.7-4.5.69-2.49,4.75-2.5,7.45-3.58.5-2.18-2.28-1.95-1.27-4.51,6,3,13-4.35,17.34-2.69-2.86,4.81-8.76,7.4-11.14,12.56,4.59.65,5.33-1.53,9.87-.88.12,1.39-.54,3.42,1.27,3.59,1.23-2.22,4.74,1.23,8.67,0-.6-2.07-2.43-4.59,0-6.3-4.52-.31-5.67-3.07-7.44-5.4a53.52,53.52,0,0,0,0-11.69c-2.38-1.66-3.08-.06-6.17,0,.14-4.25-5.73-4.23-6.19-8.06a4.11,4.11,0,0,0,1.23-3.59c-4.77-2-3-8.62-9.94-9-.63,1.32,1.49,4.65-1.23,4.51-2.55-.53-8.14,1.12-8.67-.93v-9c-6.63,2.16-5.42-2.09-11.17-2.7-3.26,2.47-2.67-1-6.15-.88-3-.36-2.68,1.63-6.21.88,1.85,9-3.36,14-1.26,20.65-2.11.26-6.17-2.54-7.44,0,1.24,2.56,4.13.58,5,1.79-4.33,2-4.42,7-6.19,10.8-2.84-2.75-3.39-7.16-4.93-10.8-2.53-1.79-2.46.42-5,.9-1.07-2.6-1.85-1-5-.9a34.59,34.59,0,0,0-13.57-6.28c2-4.47-4.36-2.86-3.82-6.29,2.7.43,2.41-1.28,2.54-2.68,4.09-1.54,5.83-4.73,9.9-6.3,2.73-3.15,4.63-6.84,11.19-7.18.08-1.6-1.53-1.89-1.25-3.58,8.36-1.19,13-1.94,18.53-3.6-.27-3.48,0-6.63,1.26-9-1.46-1.31-4.69-1.4-6.17-2.68,4.91-.3,9.15,0,11.11,1.78,2.32-2.73,5.95,1,9.92,0-1.73,4.57,5.66,2.49,5,6.32-1.21,6.58-14.7,4.28-16.1,10.75,2.05,2.13,7.22,2,12.41,1.78,7.69,2.52,10.74,8.41,21.08,9-2.77-4.65,2.07-4.53,1.24-9.87-.55-2.34-3.75-2.71-3.76-5.4,4.72.2,6,2.85,9.93,3.59-.35-2.33-.45-4.47,3.72-3.59-.87-2.76,1.26-3.27,1.2-5.39-3.34.63-2.34-1.84-3.7-2.68-4.23-.51-7.45-1.75-11.15-2.71.35-1.83,3.38-1.73,3.76-3.57-1.6-2.15-5.46-2.67-5-6.28H33.38c.59-2.84-3.33-2.37-3.71-4.51-5.28-.52-8.19.65-12.4.93.74-5.57-9.79-3.8-11.17-.93.46-3.35-1-5.26-4.94-5.4-6.39,2.86-13.83,12-6.19,17.09,1.82.5,6.36-1,6.19.89-1.33,2.64-3.92,4.33-6.19,6.32-3.17-2.22,2.6-1.95,1.26-5.41-4.23-2-8.25-4.21-9.95-8.09-4.71.43-3.93-3.1-9.85-1.78.43,2.14-2.34,1.93-1.3,4.46,4.25,1.22,2.68,8.36,0,9.9a3.92,3.92,0,0,1-2.42-4.5c-6.24-.64-6.24,3.32-11.23,3.6-4.61-1.43-9.66-2.55-12.35-5.39,5.53-.68,7.46,1.2,12.35.89,2.73-1.86-.57-2.57,0-5.39,6.87-1,9.6-5,16.08-6.26-2.25-2.82-1.79-4.94-2.43-7.18H-43.4c-2.74,2.51-8.91,2.51-10,6.26-.63-1.33-1.81-2.22-2.46-3.57-3.28,0-7.72.83-6.17-2.68,9.17,1.38,20.1-3.27,28.47-5.42,0,4.14,10.6,3.1,12.39.91-.86-2.05-1.12-4.56-2.44-6.31-7.3.7-10.89,4.15-18.62,4.52v-5.38c-6.77-1.66-8,4.23-3.7,5.38-7.1.63-11.11-1-17.31-.9,1.84,4.65-5.72,2.49-6.2,5.39,3.09,1.14,3.81-.46,4.91.9-.79,1.19-2.66,1.67-4.91,1.76-2-5.13-11.82-4.63-21.09-4.49-.65,4.35-3.81,6.82-7.45,9-.22,2.82,3.24,3,2.51,6.28,6.12.27,9.17-1.7,13.55-2.69-2.53,4.87,6.81,1.08,7.48,3.61.89,2.43-5.83-.65-5,1.77,0,4.86,13.55-.22,11.19,6.29,4.62-2,6.06-1.42,11.11,0h1.26c-.39-1.08,3.57-3.08,3.72-.89-.22,1.06-2,1-3.72.89.33,2.27,5.31,5.11,0,6.31-1.46-.18-1-1.66-1.26-2.7-11-.71-16.56-5.34-29.71-4.5-3.79-.84-3.88-4.36-8.64-4.49-.59,2.55-3.87,3.17-7.46,3.58a4.71,4.71,0,0,0-1.2-4.5c-4.78.21-4.78,3.82-9.91,3.61-4.71.69-5.92-1.1-9.93-.89-1.38.22-.81,1.78-2.48,1.78-1.2,0-1-1.1-1.2-1.78-3,.29-4.7,1.41-8.73.89-9.87-4.48-28.94-2.34-39.58-6.3-9.26,2.94-21.28,3.77-27.26,4.5-2.83,3.49,2.24,3.55,3.67,6.31,4.73-.43,7.74.36,8.7,2.71-5-1.25-4.45,1.59-6.22,2.69-2.26-.79-3.36-2.33-6.16-2.69-4.71,3.46-16,2.17-19.85,6.25,6.83-.15,9.25,2.88,9.92,7.23,6.57-1.73,11.5.24,17.35-1-6.07,7.92-31.83,1.53-29.77,15.28,4.13,2.17,5.1,2.46,3.74,7.2,2.23.11,2.58-1.11,4.91-.9.11,1.43-.58,3.42,1.25,3.59,1.75-2.86.57,3.68,3.74,2.69,1.53-3.5,7-4.3,11.12-1.79-5.34,3-7.28,8.47-13.58,10.77-5.68,1.29-7.62,5.25-14.85,5.37,1,2.88-2,2.78-2.5,4.5,5.67.51,7.72-1.6,13.61-.89,1.39-2.59,5.27-3.34,9.94-3.61,4.66-6.17,12.71-9.91,19.82-14.36h2.5c1.29-.84.36-3.28,3.67-2.69.09-.54.22-1.06,1.22-.87-.07.53-.14,1.06-1.22.87.53,4-3.32,4.75-4.95,7.19,10.18.82,12.65-4,21.07-4.5.56-4-.65-6.75-1.24-9.89,5.69.85,6-2.23,11.09-1.8a31,31,0,0,1,8.72,6.31c7.87,1.81,14.61,4.41,13.61,12.57,6-.58.28-5,5-5.39.28,7.6-.4,15.8,3.65,20.66-3.73,2.33-1.27,3.33,0,6.3,0,1.77-3.37,1.11-2.41,3.6-.6,9.84-1.42,16.45,0,26,3.28,1.49,5.46,3.81,8.63,5.4,3.41,3.47,3.16,9.63,7.42,12.56-1.43.16-1,1.64-1.25,2.7,5.19,1.35,6.36,5.56,8.73,9,3.77-.68,3.57,1.57,7.34.87.18-3.82-2.39-3-2.42-8-.71,0-1.4-.76,0-.92v.92c2.62-.46,2.3,1.27,2.42,2.67a38.63,38.63,0,0,1,10,7.19c-.9,6.33,2.39,9.65,4.91,13.48,10.24,1.84,16.26,6.44,28.51,4.46a34.06,34.06,0,0,0,5,6.31c4.67-.7,5.94,1.09,9.86.9,1.17,2.16,3.63,3.36,6.2,4.48v2.7C-25.15,301.38-23.7,306-17.41,307.12Zm75.56-123c.61.46-.9,1.12-1.26.88C56.26,184.51,57.78,183.81,58.15,184.1ZM-37.24,114c3.81.88-1.36,2.42-1.27,3.6C-42.25,116.75-37.92,114.58-37.24,114Zm-4.95,4.49c3.92-.41,4.38,1.66,8.67.93,0,3.56-4.85,3.67-8.67,4.46Zm-38.36,1.84c-.67-.49.81-1.19,1.18-.91C-78.72,119.89-80.22,120.56-80.55,120.35Zm-26,129.29a.6.6,0,0,1,1.19,0C-105.58,250.68-106.58,250.15-106.58,249.63Zm1.19,1.8c2.95.3,2.81,2.79,5,3.59C-102,257.29-106.44,254.06-105.38,251.44Z" transform="translate(231.68 -34.08)"/><path class="cls-7" d="M535.11,298.74l-.33-1.92,92.5-19.71a14.08,14.08,0,0,0,.24,4.93,18.33,18.33,0,0,0,1.41,4.74Z" transform="translate(231.68 -34.08)"/><polygon class="cls-8" points="768.49 264.79 766.56 264.55 784.27 89.59 794.01 90.79 768.49 264.79"/><polyline class="cls-9" points="783.88 91.94 888.06 104.84 860.28 138.19 879.08 177.31 776.85 164.65"/><polygon class="cls-10" points="838.49 155.16 825.47 143.08 809.9 151.66 817.25 135.49 804.4 123.39 822.41 125.62 829.59 109.42 832.77 126.9 850.65 129.06 835.37 137.74 838.49 155.16"/><path class="cls-11" d="M262.57,217.89l-.33-1.92,92.5-19.71a14.08,14.08,0,0,0,.24,4.93,18.33,18.33,0,0,0,1.41,4.74Z" transform="translate(231.68 -34.08)"/><polygon class="cls-8" points="495.99 183.09 494.05 183.3 471.19 8.94 480.94 7.88 495.99 183.09"/><polygon class="cls-12" points="575.71 0 556.31 38.83 583.59 72.6 546.64 76.61 538.76 4.01 575.71 0"/><polygon class="cls-13" points="501.17 8.09 509.04 80.68 481.17 83.71 471.35 11.32 501.17 8.09"/><rect class="cls-14" x="273.32" y="39.92" width="37.82" height="73.03" transform="translate(225.14 -2.13) rotate(-6.19)"/><path class="cls-15" d="M507.72,284.4l-.33-1.92,92.5-19.71a14.08,14.08,0,0,0,.24,4.93,18.33,18.33,0,0,0,1.41,4.74Z" transform="translate(231.68 -34.08)"/><polygon class="cls-16" points="708.16 91.93 717.21 90.34 803.71 75.15 809.11 62.28 715.43 78.73 705.88 80.41 708.16 91.93"/><polygon class="cls-8" points="712.75 115.02 715.47 128.38 717.94 140.52 720.28 152.03 726.45 150.94 741.61 250.23 739.7 250.56 717.83 140.54 715.41 128.39 712.75 115.02"/><polygon class="cls-17" points="715.47 128.38 722.81 127.09 802.3 113.13 792.31 102.3 798.02 88.72 719.07 102.59 710.58 104.08 712.75 115.02 715.47 128.38"/><polygon class="cls-8" points="715.07 76.39 715.43 78.73 705.88 80.41 705.41 78.08 715.07 76.39"/><polygon class="cls-14" points="705.88 80.41 708.16 91.93 717.21 90.34 803.71 75.15 798.02 88.72 719.07 102.59 710.58 104.08 712.75 115.02 710.54 104.09 708.06 91.94 705.72 80.44 705.88 80.41"/><polygon class="cls-14" points="717.94 140.52 724.69 139.34 812.28 123.95 802.3 113.13 722.81 127.09 715.47 128.38 717.94 140.52"/><polygon class="cls-16" points="726.45 150.94 720.28 152.03 717.94 140.52 724.69 139.34 812.28 123.95 821.75 134.2 726.45 150.94"/><path class="cls-18" d="M300.39,221.8l-.33-1.92,92.5-19.71a14.08,14.08,0,0,0,.24,4.93,18.33,18.33,0,0,0,1.41,4.74Z" transform="translate(231.68 -34.08)"/><polygon class="cls-14" points="564.89 17.34 564.74 17.3 560.72 38.69 558.21 52.03 560.77 38.7 569.3 40.59 648.63 58.25 667.34 39.48 574.38 19.39 564.89 17.34"/><polygon class="cls-8" points="558.21 52.03 555.62 65.72 551.22 89.09 557.35 90.42 533.95 188.09 532.03 187.67 555.56 65.71 558.21 52.03"/><polygon class="cls-19" points="557.35 90.42 551.22 89.09 555.62 65.72 562.89 67.35 642.23 85 651.91 110.86 557.35 90.42"/><polygon class="cls-20" points="555.62 65.72 562.89 67.35 642.23 85 636.69 70.21 648.63 58.25 569.3 40.59 560.77 38.7 558.21 52.03 555.62 65.72"/><polygon class="cls-8" points="574.93 17.06 574.38 19.39 564.89 17.34 565.35 14.99 574.93 17.06"/></svg>