<svg id="Layer_1" data-name="Layer 1" xmlns="http://www.w3.org/2000/svg" viewBox="0 0 378.32 198.07"><defs><style>.cls-1{fill:#534741;}.cls-2{fill:#f2f2f2;}.cls-3{fill:#e6e6e6;}.cls-4{fill:#00a99d;}.cls-5{fill:#c1e2de;}.cls-6{fill:#998675;}.cls-7{fill:#fff;}.cls-8{fill:#cceef5;}.cls-9{fill:#4d4d4d;}.cls-10{fill:#bbb9aa;}.cls-11{fill:#dad8c6;}.cls-12{fill:#006837;}.cls-13{fill:#c69c6d;}.cls-14{fill:#7ac488;}.cls-15{fill:#dedac3;}.cls-16{fill:#d1ecfb;}.cls-17{fill:#f4da80;}.cls-18{fill:#3c2415;}.cls-19{fill:#6d6e71;}.cls-20{fill:#cf9e76;}.cls-21{fill:#dfb28b;}.cls-22{fill:#b9cadd;}.cls-23{fill:#cbb096;}.cls-24{fill:#d5dfeb;}.cls-25{fill:#754c29;}.cls-26,.cls-32,.cls-35,.cls-62{fill:none;}.cls-26,.cls-32{stroke:#231f20;}.cls-26,.cls-32,.cls-35{stroke-miterlimit:10;}.cls-26{stroke-width:0.48px;}.cls-27{fill:#231f20;}.cls-28{fill:#d2e5c8;}.cls-29{fill:#bfd6b3;}.cls-30{fill:#797250;}.cls-31{fill:#c1c1c1;}.cls-32{stroke-width:0.44px;}.cls-33{fill:#6d5b55;}.cls-34{fill:#75625c;}.cls-35{stroke:#e9d0a6;stroke-width:0.13px;}.cls-36{fill:#4b4f63;}.cls-37{fill:#63514b;}.cls-38{fill:#c9c9c9;}.cls-39{fill:#d4d4d4;}.cls-40{fill:#3d5554;}.cls-41{fill:#8b5e3c;}.cls-42{fill:#bcbec0;}.cls-43{fill:#d1d3d4;}.cls-44{fill:#ace3f7;}.cls-45{fill:#cdeefa;}.cls-46{fill:#badce8;}.cls-47{fill:#d6eaf1;}.cls-48{fill:#27aae1;}.cls-49{fill:#58595b;}.cls-50{fill:#e6e7e8;}.cls-51{fill:#f9ed32;}.cls-52{fill:#f7941e;}.cls-53{fill:#ed1c24;}.cls-54{fill:#662d91;}.cls-55{fill:#8dc63f;}.cls-56{fill:#f1f2f2;}.cls-57{fill:#f7ba1e;}.cls-58{fill:#553e02;}.cls-59{fill:#414042;}.cls-60{fill:#f0edda;}.cls-61{fill:#2eb28b;}.cls-63{fill:#476566;}.cls-64{fill:#5c8283;}.cls-65{fill:#d75b46;}.cls-66{fill:#ef6a54;}.cls-67{fill:#009fbf;}.cls-68{fill:#59b3c5;}.cls-69{fill:#999;}.cls-70{fill:#b3b3b3;}.cls-71{fill:#f3e8d7;}.cls-72{fill:#e2c59c;}.cls-73{fill:#bda786;}.cls-74{fill:#e9d6b8;}.cls-75{fill:#cfb48e;}.cls-76{fill:#e8d1b0;}.cls-77{fill:#15b0bf;}.cls-78{fill:#1695a4;}.cls-79{fill:#b1d9a8;}.cls-80{fill:#8fc4d7;}.cls-81{fill:#ffec5f;}.cls-82{fill:#f7931e;}</style></defs><title>networking</title><rect class="cls-1" x="284.44" y="38.91" width="3.48" height="9.27" rx="1.23" ry="1.23"/><rect class="cls-1" x="367.17" y="38.91" width="3.48" height="9.27" rx="1.23" ry="1.23"/><rect class="cls-2" x="276.77" y="37.18" width="101.55" height="4.63"/><rect class="cls-3" x="276.77" y="39.65" width="101.55" height="2.16"/><rect class="cls-4" x="285.97" y="3.57" width="6.73" height="33.42"/><rect class="cls-4" x="421.76" y="163.91" width="6.73" height="33.42" transform="translate(-155.83 -9.32) rotate(-19.33)"/><rect class="cls-5" x="418.18" y="169.62" width="6.73" height="1.63" transform="translate(-152.66 -11) rotate(-19.34)"/><rect class="cls-5" x="425.41" y="190.21" width="6.73" height="1.62" transform="translate(-159.07 -7.46) rotate(-19.34)"/><rect class="cls-6" x="294.09" y="9.33" width="3.25" height="27.66"/><path class="cls-7" d="M411.14,195.63h-3.6V174.28h3.6Zm-3.25-.35h2.9V174.63h-2.9Z" transform="translate(-120.01 -160.21)"/><path class="cls-7" d="M411.14,172.31h-3.6v-7h3.6Zm-3.25-.35h2.9v-6.27h-2.9Z" transform="translate(-120.01 -160.21)"/><rect class="cls-7" x="428.27" y="160.08" width="5.69" height="37.55" transform="translate(-154.99 -5.78) rotate(-19.53)"/><path class="cls-8" d="M425.4,167.11l-1.43-4,2.73-1,1.44,4Zm-.55-3.62,1,2.73,1.42-.5-1-2.73Z" transform="translate(-120.01 -160.21)"/><path class="cls-8" d="M435.52,195.62l-1.44-4,2.73-1,1.44,4ZM435,192l1,2.73,1.42-.5-1-2.73Z" transform="translate(-120.01 -160.21)"/><path class="cls-8" d="M433.83,190.88l-8.19-23.09,2.73-1,8.19,23.09Zm-7.3-22.66L434.26,190l1.42-.5L428,167.72Z" transform="translate(-120.01 -160.21)"/><rect class="cls-9" x="435.06" y="163.92" width="6.73" height="33.42" transform="translate(-155.17 -3.25) rotate(-19.53)"/><path class="cls-7" d="M432.91,171l-1.43-4,3.72-1.32,1.44,4Zm-.55-3.62,1,2.73,2.41-.85-1-2.73Z" transform="translate(-120.01 -160.21)"/><path class="cls-7" d="M441.65,195.62l-1.44-4,3.72-1.32,1.43,4ZM441.1,192l1,2.73,2.4-.85-1-2.73Z" transform="translate(-120.01 -160.21)"/><path class="cls-7" d="M440,190.88l-6.81-19.19,3.72-1.32,6.81,19.19ZM434,172.11,440.39,190l2.41-.85-6.34-17.88Z" transform="translate(-120.01 -160.21)"/><rect class="cls-10" x="328.61" y="31.31" width="37.55" height="5.69"/><path class="cls-11" d="M453,193v2.66h-1.57V193Zm1-1h-3.6v4.68h3.6V192Z" transform="translate(-120.01 -160.21)"/><path class="cls-11" d="M483.3,193v2.66h-1.57V193Zm1-1h-3.6v4.68h3.6V192Z" transform="translate(-120.01 -160.21)"/><path class="cls-11" d="M478.28,193v2.66H456.51V193Zm1-1h-23.8v4.68h23.8V192Z" transform="translate(-120.01 -160.21)"/><rect class="cls-12" x="327.39" y="18.43" width="37.55" height="5.69"/><rect class="cls-5" x="330.18" y="18.43" width="0.35" height="5.69"/><rect class="cls-5" x="362.37" y="18.45" width="0.35" height="5.64"/><path class="cls-5" d="M480.51,180V183H451.84V180Zm.35-.35H451.49v3.64h29.37v-3.64Z" transform="translate(-120.01 -160.21)"/><rect class="cls-4" x="333.79" y="24.29" width="33.42" height="6.73"/><rect class="cls-13" x="335.87" y="24.29" width="5.62" height="6.73"/><rect class="cls-13" x="360.94" y="23.6" width="1.04" height="6.73"/><path class="cls-14" d="M474.58,171.27h-.46a.29.29,0,0,1-.28-.29c0-1,0-2,0-3.07a.29.29,0,0,1,.28-.29h.46v-.58h-18.4a1.73,1.73,0,0,0-1.37.78,3.54,3.54,0,0,0,0,3.22,1.73,1.73,0,0,0,1.37.78h18.4Z" transform="translate(-120.01 -160.21)"/><path class="cls-7" d="M473.84,171c0-1,0-2,0-3.07a.29.29,0,0,1,.28-.29l-18.33-.06a.54.54,0,0,0-.43.27,3.62,3.62,0,0,0,0,3.22.54.54,0,0,0,.43.27l18.33-.06A.29.29,0,0,1,473.84,171Z" transform="translate(-120.01 -160.21)"/><path class="cls-10" d="M479.69,178.23h-.43a.27.27,0,0,1-.26-.29v-5.07a.27.27,0,0,1,.26-.29h.43V172H452.42a.82.82,0,0,0-.77.86v5.07a.82.82,0,0,0,.77.86h27.27Z" transform="translate(-120.01 -160.21)"/><path class="cls-15" d="M479.69,178.23h-.43a.27.27,0,0,1-.26-.29v-5.07a.27.27,0,0,1,.26-.29h.43V172H465.54v6.8h14.15Z" transform="translate(-120.01 -160.21)"/><path class="cls-16" d="M479,177.94v-5.07a.27.27,0,0,1,.26-.29H452.42a.27.27,0,0,0-.26.29v5.07a.27.27,0,0,0,.26.29h26.84A.27.27,0,0,1,479,177.94Z" transform="translate(-120.01 -160.21)"/><path class="cls-7" d="M479,177.94v-5.07a.27.27,0,0,1,.26-.29H465a.27.27,0,0,0-.26.29v5.07a.27.27,0,0,0,.26.29h14.24A.27.27,0,0,1,479,177.94Z" transform="translate(-120.01 -160.21)"/><rect class="cls-7" x="332.36" y="12.75" width="12.4" height="0.19"/><rect class="cls-7" x="332.36" y="17.59" width="12.4" height="0.19"/><rect class="cls-7" x="332.36" y="13.22" width="12.4" height="0.06"/><rect class="cls-7" x="332.36" y="14.53" width="12.4" height="0.06"/><rect class="cls-7" x="332.36" y="15.85" width="12.4" height="0.06"/><rect class="cls-7" x="332.36" y="16.45" width="12.4" height="0.06"/><rect class="cls-7" x="332.36" y="13.5" width="12.4" height="0.11"/><rect class="cls-7" x="332.36" y="14.07" width="12.4" height="0.19"/><rect class="cls-7" x="332.36" y="14.82" width="12.4" height="0.11"/><rect class="cls-7" x="332.36" y="17.06" width="12.4" height="0.11"/><rect class="cls-7" x="332.36" y="15.46" width="12.4" height="0.11"/><polygon class="cls-17" points="335.77 19.84 334.52 19.06 333.26 19.84 333.26 16.87 334.52 16.87 335.77 16.87 335.77 19.84"/><path class="cls-18" d="M313.74,339.49s1.3,8.08-3.26,10.21-8.12,1.77-7.28,4.26c0,0-.13,3.16,9.61,2,0,0,6.74-.53,8.37-1.85,1.23-1.14-.4-10.09-1.49-12.71,0,0-4.16-2.39-6-1.87" transform="translate(-120.01 -160.21)"/><path class="cls-19" d="M342.43,254.84s-5.51,12-4.78,20.38l1.49,1.54,2-2.17s-1.38-7.48,2.47-19.28Z" transform="translate(-120.01 -160.21)"/><path class="cls-19" d="M343.91,251.31s-1.78,3.75-1.48,3.95a7.39,7.39,0,0,0,1.78.29l1.08-3.46s-.9-1.78-1.39-.79" transform="translate(-120.01 -160.21)"/><path class="cls-20" d="M346,253.5s1.09,2.31,4.88,1.51a7,7,0,0,0,4.48-3l-2.82-17.84-9.35,1.47Z" transform="translate(-120.01 -160.21)"/><path class="cls-21" d="M362,220l.25,5.22c.46,10-5.31,18.4-12.9,18.85l-5.72.33c-7.58.46-14.1-7.26-14.58-17.21l-.65-14.13c10.91-1.61,22.87,4,33.6,6.94" transform="translate(-120.01 -160.21)"/><path class="cls-22" d="M353.49,248.83s10.48-3.4,8.7,19.74c-.92,11.94.89,31.7.89,31.7l-21,.15S331,248.54,353.49,248.83" transform="translate(-120.01 -160.21)"/><path class="cls-23" d="M343.4,314.54,341.56,299l21.72-.79s2,12.08-4.8,15-15.08,1.32-15.08,1.32" transform="translate(-120.01 -160.21)"/><polygon class="cls-18" points="243.17 135.38 243.96 139.33 221.25 140.51 221.15 137.16 243.17 135.38"/><rect class="cls-23" x="360.53" y="295.54" width="1.19" height="4.4" transform="translate(-144.7 -127.43) rotate(-5.03)"/><rect class="cls-23" x="356.13" y="295.8" width="1.18" height="4.39" transform="translate(-143.66 -129.36) rotate(-4.79)"/><rect class="cls-23" x="343.96" y="296.72" width="1.18" height="4.39" transform="translate(-143.67 -130.52) rotate(-4.77)"/><path class="cls-24" d="M358,248.74l-2-2.51c-4.66-.34-12.13,3.5-12.13,3.5l.3,4.14s2.86-5.33,13.83-5.13" transform="translate(-120.01 -160.21)"/><path class="cls-25" d="M330.06,210.88c6,.6,7.36-1.41,11-1.41.68.11,4.79-.49,5.45-.41.12,0,6.86.31,6.86.31s9.47,2.32,9.38,12.71c-.17,17.49-6.86,21.65-9.59,21.09-2.58-.52-2.28-8.38-2.28-8.38,4.31-.12,2.92-7.31,1.27-7.76a2.81,2.81,0,0,0-3.44,1.61s.09,2.55-.77,2.8c-1.54.47-3.31-7.07-7.93-8.45-4.34-1.31-11.15-1.33-11.15-1.33-2.86-5.6-.93-11,1.21-10.79" transform="translate(-120.01 -160.21)"/><path class="cls-23" d="M341.88,301.47s-24.57,6.91-25.33,9.33-4.77,36.85-4.77,36.85l10.46,1.51s5.16-27.3,4.94-30.48c3.18-1.82,19.71-4.24,20.39-4s7.74-11.83-5.69-13.2" transform="translate(-120.01 -160.21)"/><line class="cls-26" x1="220.13" y1="154.79" x2="217.51" y2="190.54"/><line class="cls-26" x1="243.94" y1="154.79" x2="246.56" y2="190.54"/><path class="cls-27" d="M334.23,322.52h35.61v-9.4s-22.68,0-30,0c-8.8,0-5.65,9.4-5.65,9.4" transform="translate(-120.01 -160.21)"/><path class="cls-27" d="M369.82,313.33V258.15s-7.23-1.35-7.58,11.84c-.24,9.1-.34,23.67,0,33.67.35,10.24,7.58,9.67,7.58,9.67" transform="translate(-120.01 -160.21)"/><line class="cls-26" x1="248.09" y1="162" x2="250.71" y2="197.75"/><line class="cls-26" x1="215.76" y1="162" x2="213.14" y2="197.75"/><path class="cls-27" d="M304.47,284a1.63,1.63,0,0,0,1.63,1.63h23.8a1.63,1.63,0,1,0,0-3.25H306.1a1.63,1.63,0,0,0-1.63,1.63" transform="translate(-120.01 -160.21)"/><path class="cls-27" d="M306.61,285.47a1.63,1.63,0,0,0,1.05-2l-7.26-22.67a1.63,1.63,0,0,0-3.1,1l7.26,22.67a1.64,1.64,0,0,0,2,1.05" transform="translate(-120.01 -160.21)"/><path class="cls-24" d="M350.23,250.62s5-3.42,7.8,1.4-4.11,24.27-7.49,26.74c-3.72,2.71-14.31,6.8-17.81,7.25,0,0-3.61-6-3.31-6.3.92-.86,14-8.86,14-8.86s4.22-17.7,6.81-20.21" transform="translate(-120.01 -160.21)"/><polygon class="cls-22" points="208.79 119.4 211.01 118.13 215.56 125.28 212.5 125.95 208.79 119.4"/><path class="cls-24" d="M332.7,284.86a.57.57,0,0,0,.65.47.56.56,0,0,0,.47-.65.57.57,0,0,0-.65-.47.56.56,0,0,0-.47.65" transform="translate(-120.01 -160.21)"/><path class="cls-21" d="M329.54,280.78s-9.79,3.72-10.28,4.55c-.29.48,2.71.21,5.84.27s5.18-.06,6.42-1.36Z" transform="translate(-120.01 -160.21)"/><path class="cls-25" d="M342.15,223.91a11.89,11.89,0,0,1,2.65,7.93l3.62-.39s.2-4.21.2-5.19-5.09-4.21-6.47-2.35" transform="translate(-120.01 -160.21)"/><polygon class="cls-28" points="38.45 102.8 42.72 107.58 29.17 117.92 26.04 108.48 38.45 102.8"/><path class="cls-27" d="M161.24,277.15a.71.71,0,1,1-.71-1.23L182.3,263.2a.71.71,0,1,1,.72,1.22Z" transform="translate(-120.01 -160.21)"/><path class="cls-18" d="M176.43,340s-1.28,8,3.21,10.07,8,1.75,7.17,4.21c0,0,.12,3.11-9.47,1.93,0,0-6.64-.53-8.25-1.83-1.21-1.13.39-10,1.47-12.53,0,0,4.1-2.36,5.88-1.85" transform="translate(-120.01 -160.21)"/><path class="cls-19" d="M148.14,256.53s5.43,11.88,4.71,20.1l-1.46,1.51-2-2.14s1.36-7.38-2.44-19Z" transform="translate(-120.01 -160.21)"/><path class="cls-19" d="M146.68,253s1.76,3.7,1.46,3.89a7.19,7.19,0,0,1-1.75.3l-1.07-3.41s.87-1.75,1.36-.78" transform="translate(-120.01 -160.21)"/><path class="cls-20" d="M145,255.31s-1.17,2.27-5.44,1.39a8.25,8.25,0,0,1-5.09-3.06l2.77-17.59,10.53,1.66Z" transform="translate(-120.01 -160.21)"/><path class="cls-29" d="M137.23,250.22s-10.33-3.34-8.58,19.47c.91,11.78-.87,31.26-.87,31.26l20.73.15s10.92-51.16-11.28-50.87" transform="translate(-120.01 -160.21)"/><path class="cls-19" d="M147.18,315.4,149,300.11l-21.42-.77s-2,11.91,4.72,14.75,14.88,1.31,14.88,1.31" transform="translate(-120.01 -160.21)"/><polygon class="cls-18" points="7.68 136.5 6.89 140.4 29.29 141.56 29.38 138.25 7.68 136.5"/><polygon class="cls-19" points="10.1 140.83 8.94 140.73 9.3 136.41 10.46 136.51 10.1 140.83"/><polygon class="cls-19" points="14.44 141.09 13.28 141 13.64 136.67 14.8 136.77 14.44 141.09"/><rect class="cls-19" x="143.88" y="299.41" width="4.34" height="1.17" transform="translate(-285.24 259.91) rotate(-85.14)"/><path class="cls-28" d="M132.76,250.51l2-2.48c4.6-.34,12,3.46,12,3.46l-.29,4.09s-2.82-5.25-13.63-5.07" transform="translate(-120.01 -160.21)"/><path class="cls-19" d="M148.68,302.51s24.23,6.81,25,9.2S178.37,348,178.37,348l-10.32,1.49s-5.08-26.92-4.86-30.06c-3.14-1.8-19.44-4.19-20.11-4s-7.63-11.67,5.61-13" transform="translate(-120.01 -160.21)"/><line class="cls-26" x1="30.39" y1="155.64" x2="32.97" y2="190.9"/><line class="cls-26" x1="6.92" y1="155.64" x2="4.33" y2="190.9"/><path class="cls-27" d="M156.23,323.27H121.1V314s22.38,0,29.56,0c8.67,0,5.57,9.27,5.57,9.27" transform="translate(-120.01 -160.21)"/><path class="cls-27" d="M121.13,314.21V259.79s7.13-1.32,7.48,11.69c.24,9,.34,23.33,0,33.19-.35,10.1-7.48,9.54-7.48,9.54" transform="translate(-120.01 -160.21)"/><line class="cls-26" x1="2.82" y1="162.76" x2="0.24" y2="198.01"/><path class="cls-21" d="M157.87,214.82c-3.8-1.14-7.64-2.12-11.67-1.53-5.1.74-9.21,2.93-13.85,4.71l-2.41,7.88c-2.65,8.67,1.36,17.57,9,19.89l5.74,1.74c7.61,2.32,15.92-2.84,18.58-11.5l3.84-12.55c.89-2.93-3.41-6.13-9.2-8.63" transform="translate(-120.01 -160.21)"/><path class="cls-30" d="M128.51,222.44c2.59-14.22,13.48-13,13.48-13a62.7,62.7,0,0,1,13.2,2.7c12.36,3.79,16.57,13.31,10.44,17.12-3.64,2-7.95.19-12.63.24-5,.06-6.88,7.51-9.78,5.23-.81-.64-.57-2.43-.57-2.43s0-2.08-1.38-2c-1.75.07-4.14,3.46-1.88,6.89,0,0-1.43,7-4.16,6.81-2.89-.2-9.55-5.92-6.71-21.57" transform="translate(-120.01 -160.21)"/><path class="cls-28" d="M142.32,252.47s-4.72-4.36-8.35.24,3,31.82,7.26,33,20.88-5.89,21-6.86-1.58-6.89-2.91-6.77-12.78,4.19-12.78,4.19-1.94-20.79-4.24-23.83" transform="translate(-120.01 -160.21)"/><polygon class="cls-29" points="38.47 112.1 40.65 111.31 43.25 118.8 41.31 119.78 38.47 112.1"/><path class="cls-28" d="M161.44,278.8a.32.32,0,0,0,.33.33.33.33,0,0,0,.33-.33.34.34,0,0,0-.33-.34.33.33,0,0,0-.33.34" transform="translate(-120.01 -160.21)"/><path class="cls-21" d="M161.2,273a13.16,13.16,0,0,1,7.07-3c1.58,0,1,.77,1,.77l-1.92,1.38s6-2.53,6.17-2.06.17,2.16-3.9,3.46,3.51-2.65,3.81-2.2-.38,3.48-5.48,4.27,4.73-2.8,4.89-2.44-1.42,3.37-6.61,4.43c-2.12,0-3.39-.83-3.76-.64Z" transform="translate(-120.01 -160.21)"/><line class="cls-26" x1="37.02" y1="159.15" x2="39.61" y2="194.4"/><path class="cls-21" d="M159.16,263.79s3.36-3.3,7.11-1.43,6.25,3.55,5.76,4.24-4.72-1.46-4.72-1.46-2.47,1.73-3,2a3.41,3.41,0,0,1-2.5-.26Z" transform="translate(-120.01 -160.21)"/><path class="cls-29" d="M156.83,263.45c.2,0,1.74-.82,1.74-.82L163.1,268l-1.69,1.16Z" transform="translate(-120.01 -160.21)"/><path class="cls-30" d="M137.28,210.13s5-3.09,10.1-1.93,8.68,2.7,10.62,1.93,2.06,1.22-1.74,1.74,3.16.32,5.09.71,2.77.26,3.47,2.7a5.49,5.49,0,0,0,3.54,3.67,6,6,0,0,1-2.7-.45c-.58-.52,5,2.89,5.73,5s-2.25,2.7-2.45,3.92a12.21,12.21,0,0,1-.71,2.45s0-1.22-2.31-.64a8.08,8.08,0,0,1-4.89-.26c-.38-.26-2.5-11-4.7-12.48s-17.25-.07-19-6.31" transform="translate(-120.01 -160.21)"/><rect class="cls-27" x="111.1" y="89.02" width="41.92" height="56.83"/><path class="cls-31" d="M271.63,255.6a20.18,20.18,0,0,0-15-6.89l-8.42,0a20.19,20.19,0,0,0-15.8,7.41,20.09,20.09,0,0,1,4.64,13l-.25,33.69,30.06.23-.25-33.92a20.17,20.17,0,0,1,5-13.48" transform="translate(-120.01 -160.21)"/><path class="cls-20" d="M257.61,249a5.78,5.78,0,0,1-4.77,2.06,6.91,6.91,0,0,1-5.11-2.06V232.52h9.88Z" transform="translate(-120.01 -160.21)"/><line class="cls-32" x1="147.47" y1="147.48" x2="149.94" y2="184.67"/><line class="cls-32" x1="116.64" y1="147.48" x2="114.18" y2="184.67"/><rect class="cls-27" x="111.1" y="145.43" width="41.92" height="8.83"/><path class="cls-33" d="M236.76,292.38l.07,6.72c0,5.61,5.63,10.13,12.45,10.09l5.16,0c6.83,0,12.33-4.63,12.28-10.24l-.06-6.54Z" transform="translate(-120.01 -160.21)"/><rect class="cls-33" x="116.84" y="142.1" width="12.95" height="44.17"/><rect class="cls-33" x="133.48" y="142.25" width="13.22" height="44.03"/><path class="cls-27" d="M238.31,348.31c0,1.92,0,3.51,1.56,3.51h7.08c1.59,0,1.62-1.59,1.62-3.51s-1.3-3.52-2.89-3.52h-4.48c-1.59,0-2.88,1.58-2.88,3.52" transform="translate(-120.01 -160.21)"/><path class="cls-27" d="M254.9,348.31c0,1.92,0,3.51,1.55,3.51h7.07c1.6,0,1.63-1.59,1.63-3.51s-1.28-3.52-2.88-3.52h-4.48c-1.59,0-2.88,1.58-2.88,3.52" transform="translate(-120.01 -160.21)"/><path class="cls-33" d="M244.92,248.28s5,28.52,2.93,54.82H235.62l.4-38-4.06-8.7s2.84-6.47,13-8.09" transform="translate(-120.01 -160.21)"/><path class="cls-33" d="M260,248.28s-4.85,28.32-2.83,54.61l11.13.31.6-38.13,4-8.7s-2.84-6.47-13-8.09" transform="translate(-120.01 -160.21)"/><path class="cls-34" d="M239.87,249.6s3.53,15.78,3.23,17.61l2-.1-2.23,1.31,5.33,15s-.47-23.34-3.1-35.87c0,0-3.54.44-5.25,2.05" transform="translate(-120.01 -160.21)"/><path class="cls-34" d="M265.08,249.6s-3.54,15.78-3.24,17.61l-2-.1,2.23,1.31-5.33,15s.47-23.34,3.1-35.87c0,0,3.54.44,5.26,2.05" transform="translate(-120.01 -160.21)"/><rect class="cls-27" x="128.15" y="132.19" width="8.54" height="3.22"/><rect class="cls-35" x="129.97" y="131.81" width="5.02" height="3.89"/><path class="cls-34" d="M237.25,285.3l8.29.3s1.11,12-4,12.64-4.25-12.95-4.25-12.95" transform="translate(-120.01 -160.21)"/><path class="cls-34" d="M267.89,285.3l-8.29.3s-1.11,12,4.05,12.64,4.24-12.95,4.24-12.95" transform="translate(-120.01 -160.21)"/><polygon class="cls-36" points="128.15 135.42 128.07 143.3 116.79 142.9 128.61 144 128.15 135.42"/><polygon class="cls-37" points="136.62 135.42 136.69 143.3 147.98 142.9 136.13 144 136.62 135.42"/><path class="cls-38" d="M251.78,250.71l-1.3,5.47s-4.57-5.06-4.71-6-.19-1.61-.19-1.61l.66-2.16Z" transform="translate(-120.01 -160.21)"/><path class="cls-38" d="M253.2,250.71l1.28,5.47s4.58-5.06,4.72-6,.21-1.61.21-1.61l-.68-2.16Z" transform="translate(-120.01 -160.21)"/><path class="cls-39" d="M251.78,250.71l0,2.79-.63-.08a23.55,23.55,0,0,1,.66-2.71" transform="translate(-120.01 -160.21)"/><path class="cls-39" d="M253.2,250.71l0,2.84.63,0a23.71,23.71,0,0,0-.66-2.8" transform="translate(-120.01 -160.21)"/><polygon class="cls-40" points="131.48 91.42 133.43 91.38 134.1 94.07 133.43 95.8 131.61 95.8 130.93 93.91 131.48 91.42"/><polygon class="cls-40" points="132.38 123.81 128.6 118.96 131.61 95.8 133.43 95.8 136.16 119.02 132.38 123.81"/><line class="cls-32" x1="112.74" y1="154.26" x2="110.27" y2="191.46"/><line class="cls-32" x1="151.58" y1="154.26" x2="154.04" y2="191.46"/><path class="cls-34" d="M255.19,308.2c-.4.24,2.77-3.54,5.7-3.09s5.09,2.31,4.94,19.88c0,0-1.69-10.48-4.17-11.71s-2.46-4.93-3.54-3.39-.77-.93-.77-.93a1.42,1.42,0,0,0-2.16-.77" transform="translate(-120.01 -160.21)"/><path class="cls-34" d="M247.77,308.2c.4.24-2.78-3.54-5.71-3.09S237,307.43,237.14,325c0,0,1.7-10.48,4.16-11.71s2.47-4.93,3.54-3.39.78-.93.78-.93a1.41,1.41,0,0,1,2.16-.77" transform="translate(-120.01 -160.21)"/><path class="cls-34" d="M231.83,256.37s-14,24.64-7.79,27.68,14.16-1.42,14.16-1.42l.5-6.27-6.37-.81,3.64-6.38s.71-16.88-4.15-12.81" transform="translate(-120.01 -160.21)"/><path class="cls-34" d="M272.79,256.37s9.2,21.61,4.35,26.77c-3.64,3.87-6.68-1-6.68-1l-2.52-17.2Z" transform="translate(-120.01 -160.21)"/><path class="cls-27" d="M270.46,282.88a1.87,1.87,0,0,1-1.87,1.87H245.36a1.87,1.87,0,0,1-1.87-1.87V269.13a1.87,1.87,0,0,1,1.87-1.88h23.23a1.87,1.87,0,0,1,1.87,1.88Z" transform="translate(-120.01 -160.21)"/><path class="cls-21" d="M238.61,277.61s3.34-2,5.86-1.52.25.11.25.11,4.4-.25,4.25.86-3.95.86-3.95.86,3.95-.46,4,.45-4.45,1.27-4.45,1.27,4.24-.76,4.35.4-4,.81-4,.81,1.66.25,1.51.86-3.09.66-4.14.71a30.72,30.72,0,0,1-4-.46Z" transform="translate(-120.01 -160.21)"/><path class="cls-21" d="M272.49,278.52a3.05,3.05,0,0,0-3.9-2.43c-2.53.51-.25.11-.25.11s-4.4-.25-4.24.86,3.94.86,3.94.86-3.94-.46-4,.45,4.45,1.27,4.45,1.27-4.25-.76-4.34.4,4,.81,4,.81-1.67.25-1.52.86,3.08.66,4.14.71a2.06,2.06,0,0,0,1.68-.86,9,9,0,0,0,0-3" transform="translate(-120.01 -160.21)"/><path class="cls-21" d="M236.3,213.3l.13,18.54a13.52,13.52,0,0,0,13.62,13.41l5.62,0a13.51,13.51,0,0,0,13.42-13.61l-.14-18.3Z" transform="translate(-120.01 -160.21)"/><path class="cls-21" d="M237,228.6s-3.37-1.82-3.1,2,2.5,4.86,3.58,2.63-.48-4.59-.48-4.59" transform="translate(-120.01 -160.21)"/><path class="cls-21" d="M268.75,228.6s3.37-1.82,3.1,2-2.5,4.86-3.57,2.63.47-4.59.47-4.59" transform="translate(-120.01 -160.21)"/><path class="cls-41" d="M242.22,223.18s8.29,7,11.13,6.88,2-1.32,2-1.32,6.57,3.74,12-3.94c1.82-2.56-.3,3.33,0,4.75l.3,1.42,1.38.63,1.65-3.36s2.23-9.81-.1-15.68c-1.27-3.2-10.11-7-18.91-6.67a21.29,21.29,0,0,0-9.7,2.73s-3,.71-4.55.91-.81,1.42-.81,1.42a10.89,10.89,0,0,0-1.92,1.82c-2,3.14.3,15.27.3,15.27l1.83,2.63h1.92Z" transform="translate(-120.01 -160.21)"/><rect class="cls-42" x="194.55" y="137.12" width="7.73" height="60.94"/><rect class="cls-43" x="195.84" y="137.12" width="1.94" height="60.94"/><rect class="cls-43" x="199.9" y="137.12" width="1.67" height="60.94"/><rect class="cls-42" x="51.29" y="137.12" width="7.73" height="60.94"/><rect class="cls-43" x="52.58" y="137.12" width="1.94" height="60.94"/><rect class="cls-43" x="56.64" y="137.12" width="1.67" height="60.94"/><rect class="cls-44" x="36.32" y="126.28" width="184.01" height="10.84"/><rect class="cls-45" x="36.32" y="126.27" width="184.01" height="5.05"/><path class="cls-46" d="M298.84,272.84a4.22,4.22,0,0,1-1.77-4h-1.69a4.21,4.21,0,0,1-1.78,4c-1.15.79-1.17,2.39-.56,2.75,0,0-.73,1.66.31,2.22s-.31,4.72-.37,6.25a2.46,2.46,0,0,0,2.39,2.34l.77,0v0h.15v0l.77,0c.91-.07,2.66-.8,2.61-2.34s-1.62-5.7-.59-6.25.31-2.22.31-2.22c.61-.36.59-2-.55-2.75" transform="translate(-120.01 -160.21)"/><path class="cls-47" d="M296,286.19c-.71,0-2.25-.64-2.2-2.12a15.86,15.86,0,0,1,.32-2c.38-2,.79-4-.07-4.45s-.22-1.92-.21-1.94l.07-.17-.15-.09a.85.85,0,0,1-.3-.72,2,2,0,0,1,.85-1.69,4.43,4.43,0,0,0,1.9-3.95h-.6a4.41,4.41,0,0,1-1.89,3.95,2,2,0,0,0-.86,1.69.87.87,0,0,0,.3.72l.16.09-.08.17s-.64,1.48.22,1.94.44,2.48.07,4.45a16.32,16.32,0,0,0-.33,2c-.06,1.47,1.48,2.07,2.2,2.12l.77.05h0l.31,0Z" transform="translate(-120.01 -160.21)"/><path class="cls-47" d="M296.41,286.19c.71,0,2.34-.64,2.28-2.12a9.76,9.76,0,0,0,0-2c-.38-2-1.21-4-.35-4.45s.66-1.92.65-1.94l-.07-.17.16-.09c.17-.1-.15-.38-.14-.72a1.71,1.71,0,0,0-.54-1.69,4.09,4.09,0,0,1-1.65-3.95h0a4.41,4.41,0,0,0,1.88,3.95,2,2,0,0,1,.87,1.69.89.89,0,0,1-.3.72l-.16.09.07.17s.65,1.48-.21,1.94-.45,2.48-.07,4.45a14.39,14.39,0,0,1,.33,2c.06,1.47-1.48,2.07-2.19,2.12l-.77.05h0l-.31,0Z" transform="translate(-120.01 -160.21)"/><path class="cls-48" d="M297.21,268.5c0,.22-.45.39-1,.39s-1-.17-1-.39.44-.38,1-.38,1,.17,1,.38" transform="translate(-120.01 -160.21)"/><path class="cls-48" d="M297.21,269.48c0,.22-.45.39-1,.39s-1-.17-1-.39.44-.39,1-.39,1,.18,1,.39" transform="translate(-120.01 -160.21)"/><rect class="cls-48" x="175.21" y="108.29" width="1.97" height="0.94"/><path class="cls-46" d="M219.49,272.84a4.22,4.22,0,0,1-1.77-4H216a4.21,4.21,0,0,1-1.78,4c-1.15.79-1.17,2.39-.56,2.75,0,0-.73,1.66.31,2.22s-.31,4.72-.37,6.25a2.46,2.46,0,0,0,2.39,2.34l.77,0v0h.15v0l.77,0c.91-.07,2.66-.8,2.61-2.34s-1.62-5.7-.59-6.25.31-2.22.31-2.22c.61-.36.59-2-.55-2.75" transform="translate(-120.01 -160.21)"/><path class="cls-47" d="M216.69,286.19c-.71,0-2.25-.64-2.2-2.12a15.86,15.86,0,0,1,.32-2c.38-2,.79-4-.07-4.45s-.22-1.92-.21-1.94l.07-.17-.15-.09a.85.85,0,0,1-.3-.72A2,2,0,0,1,215,273a4.43,4.43,0,0,0,1.9-3.95h-.6a4.41,4.41,0,0,1-1.89,3.95,2,2,0,0,0-.86,1.69.87.87,0,0,0,.3.72l.16.09-.08.17s-.64,1.48.22,1.94.44,2.48.07,4.45a16.31,16.31,0,0,0-.33,2c-.06,1.47,1.48,2.07,2.2,2.12l.77.05h0l.31,0Z" transform="translate(-120.01 -160.21)"/><path class="cls-47" d="M217.05,286.19c.71,0,2.34-.64,2.28-2.12a9.76,9.76,0,0,0,0-2c-.38-2-1.21-4-.35-4.45s.66-1.92.65-1.94l-.07-.17.16-.09c.17-.1-.15-.38-.14-.72a1.71,1.71,0,0,0-.54-1.69,4.09,4.09,0,0,1-1.65-3.95h0a4.41,4.41,0,0,0,1.88,3.95,2,2,0,0,1,.87,1.69.89.89,0,0,1-.3.72l-.16.09.07.17s.65,1.48-.21,1.94-.45,2.48-.07,4.45a14.4,14.4,0,0,1,.33,2c.06,1.47-1.48,2.07-2.19,2.12l-.77.05h0l-.31,0Z" transform="translate(-120.01 -160.21)"/><path class="cls-48" d="M217.86,268.5c0,.22-.45.39-1,.39s-1-.17-1-.39.44-.38,1-.38,1,.17,1,.38" transform="translate(-120.01 -160.21)"/><path class="cls-48" d="M217.86,269.48c0,.22-.45.39-1,.39s-1-.17-1-.39.44-.39,1-.39,1,.18,1,.39" transform="translate(-120.01 -160.21)"/><rect class="cls-48" x="95.86" y="108.29" width="1.97" height="0.94"/><path class="cls-46" d="M188.18,272.84a4.21,4.21,0,0,1-1.77-4h-1.69a4.23,4.23,0,0,1-1.77,4c-1.14.79-1.17,2.39-.56,2.75,0,0-.73,1.66.31,2.22s-.31,4.72-.37,6.25a2.46,2.46,0,0,0,2.39,2.34l.77,0v0h.15v0l.77,0c.91-.07,2.66-.8,2.6-2.34s-1.63-5.7-.58-6.25.3-2.22.3-2.22c.61-.36.6-2-.55-2.75" transform="translate(-120.01 -160.21)"/><path class="cls-47" d="M185.38,286.19c-.71,0-2.26-.64-2.2-2.12a15,15,0,0,1,.32-2c.38-2,.79-4-.07-4.45s-.22-1.92-.21-1.94l.07-.17-.14-.09a.88.88,0,0,1-.31-.72,2,2,0,0,1,.86-1.69,4.41,4.41,0,0,0,1.9-3.95H185A4.41,4.41,0,0,1,183.1,273a2,2,0,0,0-.86,1.69.87.87,0,0,0,.3.72l.16.09-.08.17s-.65,1.48.22,1.94.45,2.48.07,4.45a17.51,17.51,0,0,0-.34,2c-.06,1.47,1.49,2.07,2.21,2.12l.77.05h0l.31,0Z" transform="translate(-120.01 -160.21)"/><path class="cls-47" d="M185.74,286.19c.71,0,2.34-.64,2.28-2.12a9.68,9.68,0,0,0,0-2c-.38-2-1.2-4-.35-4.45s.66-1.92.65-1.94l-.07-.17.15-.09c.17-.1-.15-.38-.14-.72a1.7,1.7,0,0,0-.53-1.69,4.09,4.09,0,0,1-1.65-3.95h0A4.4,4.4,0,0,0,188,273a2,2,0,0,1,.87,1.69.91.91,0,0,1-.3.72l-.15.09.07.17s.65,1.48-.22,1.94-.45,2.48-.07,4.45a14.91,14.91,0,0,1,.33,2c.06,1.47-1.48,2.07-2.19,2.12l-.77.05h0l-.31,0Z" transform="translate(-120.01 -160.21)"/><path class="cls-48" d="M186.54,268.5c0,.22-.45.39-1,.39s-1-.17-1-.39.44-.38,1-.38,1,.17,1,.38" transform="translate(-120.01 -160.21)"/><path class="cls-48" d="M186.54,269.48c0,.22-.45.39-1,.39s-1-.17-1-.39.44-.39,1-.39,1,.18,1,.39" transform="translate(-120.01 -160.21)"/><rect class="cls-48" x="64.55" y="108.29" width="1.97" height="0.94"/><path class="cls-43" d="M445.94,226.66c4.72.46.85,24.15,2.85,32.31a6.13,6.13,0,0,0,5.8,4.72s-27.9,8-50.46,1.85-13.13-24-13.13-24Z" transform="translate(-120.01 -160.21)"/><polygon class="cls-49" points="300.94 84.4 296.02 84.4 260.73 195.39 265.64 195.39 300.94 84.4"/><polygon class="cls-49" points="288.83 84.4 293.76 84.4 329.04 195.39 324.13 195.39 288.83 84.4"/><rect class="cls-49" x="263.81" y="74.15" width="62.76" height="53.34"/><rect class="cls-50" x="266.58" y="75.99" width="57.22" height="48.62"/><rect class="cls-27" x="263.3" y="125.98" width="64" height="1.55"/><rect class="cls-27" x="274.11" y="84.71" width="0.41" height="28.62"/><rect class="cls-27" x="272.57" y="111.38" width="45.55" height="0.41"/><rect class="cls-51" x="284.78" y="95.89" width="2.77" height="15.49"/><rect class="cls-52" x="290.93" y="91.89" width="2.77" height="19.49"/><rect class="cls-48" x="297.46" y="91.89" width="2.77" height="19.49"/><rect class="cls-53" x="303.23" y="90.87" width="2.78" height="20.51"/><rect class="cls-54" x="309.39" y="87.48" width="2.77" height="23.9"/><rect class="cls-55" x="278.63" y="98.87" width="2.77" height="12.51"/><rect class="cls-27" x="276.76" y="112" width="0.41" height="1.07"/><rect class="cls-27" x="279.48" y="112" width="0.41" height="1.07"/><rect class="cls-27" x="282.2" y="112" width="0.42" height="1.07"/><rect class="cls-27" x="284.92" y="112" width="0.42" height="1.07"/><rect class="cls-27" x="287.64" y="112" width="0.41" height="1.07"/><rect class="cls-27" x="290.36" y="112" width="0.41" height="1.07"/><rect class="cls-27" x="293.07" y="112" width="0.42" height="1.07"/><rect class="cls-27" x="295.8" y="112" width="0.41" height="1.07"/><rect class="cls-27" x="298.52" y="112" width="0.41" height="1.07"/><rect class="cls-27" x="301.23" y="112" width="0.41" height="1.07"/><rect class="cls-27" x="303.95" y="112" width="0.41" height="1.07"/><rect class="cls-27" x="306.67" y="112" width="0.4" height="1.07"/><rect class="cls-27" x="309.38" y="112" width="0.41" height="1.07"/><rect class="cls-27" x="312.11" y="112" width="0.4" height="1.07"/><rect class="cls-27" x="314.82" y="112" width="0.42" height="1.07"/><rect class="cls-27" x="272.77" y="108.71" width="1.07" height="0.42"/><rect class="cls-27" x="272.77" y="105.99" width="1.07" height="0.42"/><rect class="cls-27" x="272.77" y="103.28" width="1.07" height="0.42"/><rect class="cls-27" x="272.77" y="100.56" width="1.07" height="0.41"/><rect class="cls-27" x="272.77" y="97.84" width="1.07" height="0.41"/><rect class="cls-27" x="272.77" y="95.12" width="1.07" height="0.42"/><rect class="cls-27" x="272.77" y="92.41" width="1.07" height="0.41"/><rect class="cls-27" x="272.77" y="89.69" width="1.07" height="0.41"/><rect class="cls-27" x="272.77" y="86.97" width="1.07" height="0.42"/><path class="cls-56" d="M443.81,236.2a7.32,7.32,0,0,0,2.37-9.7l-59.24,3.39s-4.15,2.92-.35,6.31Z" transform="translate(-120.01 -160.21)"/><path class="cls-57" d="M271.88,285.53c-.39.41-.42.09-.49.32h0c.07.24.1-.09.49.32s1.42.24,1.42.24v-.56h0v-.56s-1-.18-1.42.24" transform="translate(-120.01 -160.21)"/><rect class="cls-58" x="152.31" y="125.62" width="1.2" height="0.08"/><rect class="cls-49" x="153.29" y="125.09" width="7.91" height="1.14"/><path class="cls-49" d="M283.12,285.27h-2.91v1.2h2.91c.29,0,.52-.16.52-.33v-.54c0-.17-.23-.33-.52-.33" transform="translate(-120.01 -160.21)"/><path class="cls-59" d="M280.15,285.85a1.67,1.67,0,0,1,0-.57,2.88,2.88,0,0,1,0,1.15,1.67,1.67,0,0,1,0-.58" transform="translate(-120.01 -160.21)"/><rect class="cls-57" x="161.02" y="125" width="0.25" height="1.4"/><path class="cls-57" d="M282.6,286.6s-3.74,0-4.34,0-.77-.26-1,0,.23.15.27,0a16,16,0,0,0,1.77.18c2,0,3.77,0,3.3-.16" transform="translate(-120.01 -160.21)"/><path class="cls-60" d="M286.71,282a1.12,1.12,0,0,1-.52,0,1.11,1.11,0,0,1-.45-.26l3.64-11.86.84-1,.13,1.29Z" transform="translate(-120.01 -160.21)"/><path class="cls-61" d="M290.36,270.16l0,.06a1.11,1.11,0,0,1-.52,0,1.13,1.13,0,0,1-.45-.26l-3.63,11.8a1.11,1.11,0,0,0,.45.26,1.12,1.12,0,0,0,.52,0l3.64-11.86Z" transform="translate(-120.01 -160.21)"/><path class="cls-62" d="M290.29,270.2a1,1,0,0,1-.87-.27Z" transform="translate(-120.01 -160.21)"/><path class="cls-60" d="M290.31,269.6a.65.65,0,0,1-.56-.17Z" transform="translate(-120.01 -160.21)"/><path class="cls-61" d="M289.74,269.44a.81.81,0,0,0,.5.17h.06l-.08-.74Z" transform="translate(-120.01 -160.21)"/><path class="cls-63" d="M288.28,283l-.4-11.66a.33.33,0,0,0-.27.29L288,283Z" transform="translate(-120.01 -160.21)"/><path class="cls-64" d="M287.33,283.05l.67,0-.39-11.37h0a.34.34,0,0,0-.67,0h0Z" transform="translate(-120.01 -160.21)"/><path class="cls-63" d="M286.94,271.68a.33.33,0,0,0-.29-.28l.4,11.66h.28Z" transform="translate(-120.01 -160.21)"/><path class="cls-60" d="M286.65,271.41a.33.33,0,0,1,.29.28h0a.34.34,0,0,1,.67,0h0a.33.33,0,0,1,.27-.29l-.64-.75Z" transform="translate(-120.01 -160.21)"/><path class="cls-63" d="M287.56,271l-.32-.37L287,271a1.28,1.28,0,0,0,.31,0A1.32,1.32,0,0,0,287.56,271Z" transform="translate(-120.01 -160.21)"/><rect class="cls-65" x="288" y="283.03" width="0.28" height="0.36" transform="translate(-129.54 -150.17) rotate(-1.96)"/><rect class="cls-66" x="287.33" y="283.05" width="0.67" height="0.36" transform="translate(-129.45 -150.28) rotate(-1.95)"/><rect class="cls-65" x="287.05" y="283.06" width="0.28" height="0.36" transform="translate(-129.54 -150.21) rotate(-1.96)"/><path class="cls-67" d="M283.45,273.09l3.68,11.07a.33.33,0,0,0,.18-.36L283.71,273Z" transform="translate(-120.01 -160.21)"/><path class="cls-68" d="M284.35,272.79l-.64.21,3.59,10.8h0a.34.34,0,0,0,.63-.21h0Z" transform="translate(-120.01 -160.21)"/><path class="cls-67" d="M287.94,283.59a.33.33,0,0,0,.36.18l-3.68-11.07-.27.09Z" transform="translate(-120.01 -160.21)"/><path class="cls-60" d="M288.3,283.77a.33.33,0,0,1-.36-.18h0a.34.34,0,0,1-.63.21h0a.33.33,0,0,1-.18.36l.83.53Z" transform="translate(-120.01 -160.21)"/><path class="cls-63" d="M287.55,284.43l.41.26.17-.45a1.29,1.29,0,0,0-.3.06A1.26,1.26,0,0,0,287.55,284.43Z" transform="translate(-120.01 -160.21)"/><rect class="cls-69" x="283.38" y="272.69" width="0.28" height="0.36" transform="translate(-191.66 -56.73) rotate(-18.41)"/><rect class="cls-70" x="283.64" y="272.54" width="0.67" height="0.36" transform="translate(-191.53 -56.72) rotate(-18.38)"/><rect class="cls-69" x="284.28" y="272.39" width="0.28" height="0.36" transform="translate(-191.43 -56.65) rotate(-18.37)"/><path class="cls-71" d="M284.49,270c-.07-.49.33-.61.52-.14.31.83.52,1.34.84,2.16a2.34,2.34,0,0,1-1,.27C284.72,271.44,284.64,270.89,284.49,270Z" transform="translate(-120.01 -160.21)"/><path class="cls-72" d="M287.67,282c.38,1.28.95,1.13.63-.17-.53-2.19-1.94-7.59-2.45-9.78l-1,.27C285.52,274.47,287,279.85,287.67,282Z" transform="translate(-120.01 -160.21)"/><polygon class="cls-73" points="164.83 112.12 165.88 111.84 165.79 111.53 164.74 111.81 164.83 112.12"/><path class="cls-7" d="M284.81,270.06l.49,1.81.44-.12c-.23-.59-.64-1.64-.64-1.64Z" transform="translate(-120.01 -160.21)"/><path class="cls-74" d="M285.39,272.18l2.89,10.69c.13-.08.17-.43,0-1-.53-2.19-1.94-7.59-2.45-9.78Z" transform="translate(-120.01 -160.21)"/><polygon class="cls-75" points="165.38 111.97 165.85 111.85 165.88 111.84 165.79 111.53 165.74 111.54 165.3 111.66 165.38 111.97"/><path class="cls-72" d="M284.55,270.27l.54-.15a1.59,1.59,0,0,0,0-1,1.93,1.93,0,0,0-.22-.48c-.18-.27-.59-.5-.54-1A1.82,1.82,0,0,0,284,269a2.93,2.93,0,0,0,.12.58A1.48,1.48,0,0,0,284.55,270.27Z" transform="translate(-120.01 -160.21)"/><path class="cls-76" d="M284.92,270.18l.17,0v0a1.63,1.63,0,0,0,0-1,1.93,1.93,0,0,0-.22-.48c-.18-.27-.59-.5-.54-1,0,0-.27.31.25,1.2A2.36,2.36,0,0,1,284.92,270.18Z" transform="translate(-120.01 -160.21)"/><path class="cls-3" d="M289.22,282.47c-.31,0-.61.44-.74,1h-.07l.2-1.17a.12.12,0,0,0,.1-.09.11.11,0,0,0-.23,0,.12.12,0,0,0,.06.12l-.19,1.17h-.07a1.18,1.18,0,0,0-.39-1.16,3.86,3.86,0,0,0,.21-.58,4,4,0,0,0,.11-.6,3.44,3.44,0,0,0,.54.13,3.49,3.49,0,0,0,.55,0,4,4,0,0,0-.09.61A4.12,4.12,0,0,0,289.22,282.47Z" transform="translate(-120.01 -160.21)"/><path class="cls-70" d="M288.52,283.49l-.15,0h0l-.11,0v0a1.14,1.14,0,0,0-.36-1.12l0,0,0,0a4,4,0,0,0,.32-1.17V281l.05,0a3.6,3.6,0,0,0,1.08.18h.06v.05a4.12,4.12,0,0,0-.09.6,4,4,0,0,0,0,.61v0h0c-.29,0-.58.43-.7.94Zm.13-1.2-.16,1a1.16,1.16,0,0,1,.69-.84,4,4,0,0,1,0-.58,3.94,3.94,0,0,1,.07-.56,3.63,3.63,0,0,1-.51,0,3.54,3.54,0,0,1-.5-.12,4,4,0,0,1-.3,1.11,1.16,1.16,0,0,1,.39,1l.16-1a.16.16,0,0,1,.13-.28.16.16,0,0,1,.13.18A.16.16,0,0,1,288.65,282.29Zm-.06-.22a.07.07,0,0,0-.07.06.07.07,0,0,0,0,.07h0a.07.07,0,0,0,.06-.06.07.07,0,0,0-.06-.08Z" transform="translate(-120.01 -160.21)"/><path class="cls-66" d="M289.15,275.84c.17-1,1.11-.88.94.16l-.8,5.25-1.08-.18Z" transform="translate(-120.01 -160.21)"/><rect class="cls-65" x="288.66" y="280.67" width="0.17" height="1.13" transform="translate(-155.91 359.92) rotate(-80.59)"/><path class="cls-65" d="M288.73,277.1l.64-3.86a.53.53,0,0,1,.58-.46l.34.06a.53.53,0,0,1,.4.62l-.64,3.86Z" transform="translate(-120.01 -160.21)"/><path class="cls-66" d="M289.29,273.3l1.26.19a.45.45,0,0,1,.37.51l-.33,2.06,0,.23-.08.5a.33.33,0,0,1-.17-.36.16.16,0,0,1,.11-.14l.38-2.3a.24.24,0,0,0-.2-.28l-1.32-.22a.1.1,0,0,1,0-.2Z" transform="translate(-120.01 -160.21)"/><path class="cls-63" d="M285,278.2v7.94a.4.4,0,0,0,.4.4h4a.4.4,0,0,0,.4-.4V278.2Z" transform="translate(-120.01 -160.21)"/><path class="cls-77" d="M191,281.92h.26a.15.15,0,0,0,.15-.15v-1.64a.15.15,0,0,0-.15-.15H191v-.31h16.26a.46.46,0,0,1,.46.46v1.64a.46.46,0,0,1-.46.46H191Z" transform="translate(-120.01 -160.21)"/><path class="cls-78" d="M191,281.92h.26a.15.15,0,0,0,.15-.15v-1.64a.15.15,0,0,0-.15-.15H191v-.31h8.44v2.56H191Z" transform="translate(-120.01 -160.21)"/><path class="cls-7" d="M191.43,281.77v-1.64a.15.15,0,0,0-.15-.15h16a.15.15,0,0,1,.15.15v1.64a.15.15,0,0,1-.15.15h-16A.15.15,0,0,0,191.43,281.77Z" transform="translate(-120.01 -160.21)"/><path class="cls-14" d="M206.43,279.37h-.24a.15.15,0,0,1-.15-.15c0-.55,0-1.09,0-1.64a.16.16,0,0,1,.15-.15h.24v-.31h-9.82a.92.92,0,0,0-.73.42,1.88,1.88,0,0,0,0,1.72.92.92,0,0,0,.73.42h9.82Z" transform="translate(-120.01 -160.21)"/><path class="cls-7" d="M206,279.21c0-.55,0-1.09,0-1.64a.16.16,0,0,1,.15-.15l-9.79,0a.29.29,0,0,0-.23.15,1.93,1.93,0,0,0,0,1.72.29.29,0,0,0,.23.15l9.79,0A.15.15,0,0,1,206,279.21Z" transform="translate(-120.01 -160.21)"/><path class="cls-16" d="M191.43,281.77v-1.64a.15.15,0,0,0-.15-.15h8.49a.15.15,0,0,1,.15.15v1.64a.15.15,0,0,1-.15.15h-8.49A.15.15,0,0,0,191.43,281.77Z" transform="translate(-120.01 -160.21)"/><path class="cls-78" d="M209.16,276.76h-.23a.15.15,0,0,1-.14-.15V273.9a.15.15,0,0,1,.14-.15h.23v-.31H194.6a.44.44,0,0,0-.41.46v2.71a.44.44,0,0,0,.41.46h14.57Z" transform="translate(-120.01 -160.21)"/><path class="cls-77" d="M209.16,276.76h-.23a.15.15,0,0,1-.14-.15V273.9a.15.15,0,0,1,.14-.15h.23v-.31h-7.56v3.63h7.56Z" transform="translate(-120.01 -160.21)"/><path class="cls-16" d="M208.8,276.6V273.9a.15.15,0,0,1,.14-.15H194.6a.15.15,0,0,0-.14.15v2.71a.15.15,0,0,0,.14.15h14.34A.15.15,0,0,1,208.8,276.6Z" transform="translate(-120.01 -160.21)"/><path class="cls-7" d="M208.8,276.6V273.9a.15.15,0,0,1,.14-.15h-7.6a.15.15,0,0,0-.14.15v2.71a.15.15,0,0,0,.14.15h7.6A.15.15,0,0,1,208.8,276.6Z" transform="translate(-120.01 -160.21)"/><rect class="cls-7" x="74.56" y="113.74" width="6.62" height="0.1"/><rect class="cls-7" x="74.56" y="116.32" width="6.62" height="0.1"/><rect class="cls-7" x="74.56" y="113.99" width="6.62" height="0.03"/><rect class="cls-7" x="74.56" y="114.69" width="6.62" height="0.03"/><rect class="cls-7" x="74.56" y="115.39" width="6.62" height="0.03"/><rect class="cls-7" x="74.56" y="115.71" width="6.62" height="0.03"/><rect class="cls-7" x="74.56" y="114.14" width="6.62" height="0.06"/><rect class="cls-7" x="74.56" y="114.44" width="6.62" height="0.1"/><rect class="cls-7" x="74.56" y="114.84" width="6.62" height="0.06"/><rect class="cls-7" x="74.56" y="116.04" width="6.62" height="0.06"/><rect class="cls-7" x="74.56" y="115.18" width="6.62" height="0.06"/><polygon class="cls-17" points="76.39 117.52 75.72 117.1 75.05 117.52 75.05 115.94 75.72 115.94 76.39 115.94 76.39 117.52"/><rect class="cls-14" x="72.24" y="122.07" width="17.43" height="3.89"/><rect class="cls-79" x="72.24" y="122.07" width="17.43" height="1.89"/><rect class="cls-80" x="85.58" y="122.07" width="2.71" height="3.89"/><rect class="cls-16" x="85.58" y="122.07" width="2.71" height="1.89"/><path class="cls-81" d="M200.48,231.31V213.52a16.72,16.72,0,1,0,17.79,17.79Z" transform="translate(-120.01 -160.21)"/><path class="cls-82" d="M217.46,227.11A12.5,12.5,0,0,0,205,214.6v12.51Z" transform="translate(-120.01 -160.21)"/></svg>