<svg id="Layer_1" data-name="Layer 1" xmlns="http://www.w3.org/2000/svg" viewBox="0 0 1031.61 699.3"><defs><style>.cls-1{fill:#cc4867;}.cls-2{fill:#f36a86;}.cls-3{fill:#c6820a;}.cls-4{fill:#f9a500;}.cls-5{fill:#fff;}.cls-6{fill:#46b7e8;}.cls-7{fill:#3495b7;}</style></defs><title>notification-th</title><polygon class="cls-1" points="767.18 633.3 642.87 699.3 687.5 565.3 767.18 633.3"/><polygon class="cls-2" points="549.36 535.3 767.18 633.3 676.24 400.3 549.36 535.3"/><polygon class="cls-1" points="1031.61 428.51 549.36 535.3 506.99 390.6 1031.61 428.51"/><polygon class="cls-2" points="1031.61 80.16 0 80.16 16.87 409.81 1031.61 428.51 1031.61 80.16"/><polygon class="cls-1" points="168.77 80.16 130.8 161.05 885.73 161.05 885.73 80.16 168.77 80.16"/><polygon class="cls-3" points="872.24 0 947.23 80.16 872.24 80.16 872.24 0"/><polygon class="cls-4" points="872.24 0 181.96 0 117.32 137.69 872.24 137.69 872.24 0"/><polygon class="cls-1" points="299.87 324.2 270.29 333.89 258.76 304.99 232.36 321.47 214.25 296.16 192.56 318.48 168.92 298.25 153.2 325.11 125.41 311.12 116.58 340.96 86.24 334.03 84.8 365.12 53.69 365.65 55.13 372.93 332.54 378.04 335.18 352.71 304.14 355.03 299.87 324.2"/><polygon id="_Path_" data-name="&lt;Path&gt;" class="cls-5" points="166.9 658.08 140.5 674.56 128.97 645.65 99.4 655.34 95.12 624.51 64.08 626.84 67.31 595.88 36.62 590.72 47.16 561.43 18.6 549.07 35.84 523.16 11.06 504.32 34 483.29 14.46 459.07 41.77 444.14 28.59 415.95 58.67 407.98 52.62 377.46 83.74 376.93 85.17 345.84 115.51 352.77 124.34 322.93 152.14 336.92 167.85 310.05 191.5 330.29 213.18 307.97 231.29 333.28 257.69 316.8 269.23 345.7 298.8 336.01 303.08 366.84 334.11 364.52 330.89 395.47 361.58 400.64 351.04 429.92 379.6 442.28 362.36 468.19 387.13 487.03 364.19 508.06 383.74 532.28 356.43 547.21 369.61 575.4 339.53 583.37 345.58 613.89 314.46 614.43 313.03 645.51 282.69 638.58 273.86 668.43 246.06 654.44 230.35 681.3 206.7 661.06 185.01 683.38 166.9 658.08"/><polygon id="_Path_2" data-name="&lt;Path&gt;" class="cls-6" points="283.74 360.13 287.37 386.3 313.72 384.33 310.98 410.61 337.03 414.99 328.09 439.85 352.33 450.35 337.7 472.34 358.73 488.34 339.25 506.19 355.85 526.75 332.67 539.43 343.85 563.36 318.31 570.12 323.45 596.04 297.03 596.49 295.82 622.88 270.06 617 262.57 642.33 238.97 630.45 225.63 653.26 205.55 636.08 187.14 655.02 171.77 633.54 149.35 647.53 139.57 623 114.46 631.22 110.83 605.05 84.48 607.02 87.22 580.75 61.16 576.36 70.11 551.5 45.87 541 60.5 519.01 39.47 503.01 58.94 485.16 42.35 464.6 65.53 451.92 54.34 427.99 79.88 421.23 74.75 395.31 101.16 394.86 102.38 368.47 128.14 374.36 135.63 349.02 159.23 360.9 172.57 338.1 192.64 355.27 211.06 336.33 226.43 357.81 248.84 343.82 258.63 368.36 283.74 360.13"/><path class="cls-3" d="M320.57,357.52a14.59,14.59,0,0,1-5.29-11.7,20.21,20.21,0,0,1,.41-4.17l.71-3.46a16,16,0,0,1,2.8-6.31,80.25,80.25,0,0,1,5.65-6.72q2.54-2.75,3.77-4.28a7.18,7.18,0,0,0,1.53-3.05,5.45,5.45,0,0,0,.1-1.22,2,2,0,0,0-.82-1.78,5.05,5.05,0,0,0-2.75-.56H321l1.73-8.24H333.4a8.24,8.24,0,0,1,5.8,1.88,6.79,6.79,0,0,1,2,5.24,10.28,10.28,0,0,1-.2,2.34,15.12,15.12,0,0,1-2.34,5.6,64.73,64.73,0,0,1-5.09,6.31,63,63,0,0,0-4.58,5.55,12.52,12.52,0,0,0-2.14,4.83l-.82,3.77a18.7,18.7,0,0,0-.41,3.87,7.56,7.56,0,0,0,2.7,6.31q2.7,2.14,8.6,2.14,6.72,0,10.69-3.31a16.21,16.21,0,0,0,5.29-9.31L360.37,306h10.38l-7.13,33.49q-2.24,10.69-9.36,16.59t-19,5.9Q325.87,362,320.57,357.52Z" transform="translate(-86.03 -248.52)"/><path class="cls-3" d="M352,291.57a4.22,4.22,0,0,0,.1-1q0-1.22-1.73-1.22h-4.58l1.53-7.33H355a5.81,5.81,0,0,1,4,1.17,3.78,3.78,0,0,1,1.27,2.9,8.42,8.42,0,0,1-.2,1.43l-.81,3.56H380L378.59,298H350.7Z" transform="translate(-86.03 -248.52)"/><path class="cls-3" d="M380.47,360.52a27.78,27.78,0,0,1-9.21-4.12l5.8-27.07h22.6l-1.83,8.35H385.61l-3.05,13.94q4.17,2.24,11.4,2.24,9.77,0,16-5.19t8.45-15.37a36.46,36.46,0,0,0,.92-7.53q0-6.72-4.43-9.87t-14.5-3.16a53.38,53.38,0,0,0-10.59,1.07,35.12,35.12,0,0,0-9.67,3.41l2-8.85a41.81,41.81,0,0,1,9.77-2.85,67.17,67.17,0,0,1,11.81-1q12.42,0,19.24,5.6t6.82,15.78a33.29,33.29,0,0,1-.81,7.43Q422.86,362,392.23,362A45.58,45.58,0,0,1,380.47,360.52Z" transform="translate(-86.03 -248.52)"/><path class="cls-3" d="M438.44,358.54a7,7,0,0,1-2.14-5.5,20.53,20.53,0,0,1,.41-3.26L446,306h10.38l-8.65,40.92a7.3,7.3,0,0,0-.2,1.93,2.57,2.57,0,0,0,1,2.29,5.86,5.86,0,0,0,3.21.66h3.66l-1.83,8.65h-8.85Q440.57,360.47,438.44,358.54Z" transform="translate(-86.03 -248.52)"/><path class="cls-3" d="M470,358.49q-4.48-3.51-4.48-9.92a22.43,22.43,0,0,1,.51-4.28,20.25,20.25,0,0,1,8.6-13q6.87-4.73,17.25-4.73t17.3,3.77l.92-4.17a22.76,22.76,0,0,0,.61-4.89q0-4.48-3.26-6.51t-11-2a52.89,52.89,0,0,0-9.77.92A40.71,40.71,0,0,0,478,316.2l1.73-8.14a41.16,41.16,0,0,1,9.11-2.54,61.25,61.25,0,0,1,10.84-1q9.16,0,14.55,3.36l6.51-5.9h11.5l-12.72,11.6a17.26,17.26,0,0,1,1.53,7.23,32.43,32.43,0,0,1-.51,5.19l-7.33,34.5H502.86l4.58-21.88q-6.51-3.76-16.18-3.77-12.82,0-14.86,9.67a20.76,20.76,0,0,0-.41,3.05,5.26,5.26,0,0,0,2.39,4.78q2.39,1.53,7.89,1.53a19.63,19.63,0,0,0,6.62-1l-1.63,8A34.3,34.3,0,0,1,482,362Q474.46,362,470,358.49Z" transform="translate(-86.03 -248.52)"/><path class="cls-3" d="M536.15,357.78a14.44,14.44,0,0,1-4.58-11.15,26.21,26.21,0,0,1,.51-4.68L539.71,306h10.38l-7.53,35.52a22.11,22.11,0,0,0-.51,4.17q0,4.28,2.75,6.21t8.55,1.93q10.48,0,18.52-9.36L580,306h10.38l-11.5,54.45H568.82l1.53-7.33Q560.78,362,548.87,362,540.72,362,536.15,357.78Z" transform="translate(-86.03 -248.52)"/><path class="cls-3" d="M600.11,360.52a27.78,27.78,0,0,1-9.21-4.12l5.8-27.07h22.6l-1.83,8.35H605.25l-3.05,13.94q4.17,2.24,11.4,2.24,9.77,0,16-5.19T638,333.3a36.46,36.46,0,0,0,.92-7.53q0-6.72-4.43-9.87T620,312.74a53.38,53.38,0,0,0-10.59,1.07,35.12,35.12,0,0,0-9.67,3.41l2-8.85a41.81,41.81,0,0,1,9.77-2.85,67.17,67.17,0,0,1,11.81-1q12.42,0,19.24,5.6t6.82,15.78a33.29,33.29,0,0,1-.81,7.43Q642.51,362,611.87,362A45.58,45.58,0,0,1,600.11,360.52Z" transform="translate(-86.03 -248.52)"/><path class="cls-3" d="M662.56,306h10.38l1.43,39.9L694.62,306h7.94l3.26,39.9L724.23,306h10.38L708,360.47H699.5L696,319.56l-20.87,40.92h-9.06Z" transform="translate(-86.03 -248.52)"/><path class="cls-3" d="M691,291h43.87l-1.53,7H689.43Z" transform="translate(-86.03 -248.52)"/><path class="cls-3" d="M737.26,358.54a7,7,0,0,1-2.14-5.5,20.53,20.53,0,0,1,.41-3.26L744.8,306h10.38l-8.65,40.92a7.3,7.3,0,0,0-.2,1.93,2.57,2.57,0,0,0,1,2.29,5.86,5.86,0,0,0,3.21.66h3.66l-1.83,8.65h-8.85Q739.4,360.47,737.26,358.54Z" transform="translate(-86.03 -248.52)"/><path class="cls-3" d="M770.65,326.78q2.24-10.79,10.23-16.54t20.41-5.75A29.85,29.85,0,0,1,814.11,307l5.6-5.09h11.5L820.11,312a15.69,15.69,0,0,1,2.85,9.57,24.56,24.56,0,0,1-.51,5.19l-7.13,33.69H804.95l7.12-33.69a18.92,18.92,0,0,0,.51-4.58q0-4.78-3.16-7.12t-9.87-2.34q-7.43,0-12.21,3.41T781,326.78l-2.14,10.08a12.94,12.94,0,0,1,5-3.92,16.39,16.39,0,0,1,7-1.48H799L797.21,340h-9a11.71,11.71,0,0,0-7.79,3,12.34,12.34,0,0,0-4.33,6.87l-2.24,10.59H763.52Z" transform="translate(-86.03 -248.52)"/><path class="cls-3" d="M838.74,357.17a15.8,15.8,0,0,1-5.9-12.88,21.14,21.14,0,0,1,.51-4.89L840.47,306h10.38l-7,33.18a23.2,23.2,0,0,0-.61,5q0,5,3.21,7.33t10,2.34q15.67,0,18.83-14.66L876.6,333H863.67l1.83-8.55h12.93L882.3,306h10.38l-4,18.42h6L892.89,333h-6l-1.32,6.41Q880.67,362,854.72,362,844.64,362,838.74,357.17Z" transform="translate(-86.03 -248.52)"/><path class="cls-5" d="M315.92,352.89a14.59,14.59,0,0,1-5.29-11.7A20.21,20.21,0,0,1,311,337l.71-3.46a16,16,0,0,1,2.8-6.31,80.25,80.25,0,0,1,5.65-6.72q2.54-2.75,3.77-4.28a7.18,7.18,0,0,0,1.53-3.05,5.45,5.45,0,0,0,.1-1.22,2,2,0,0,0-.82-1.78,5.05,5.05,0,0,0-2.75-.56h-5.7l1.73-8.24h10.69a8.24,8.24,0,0,1,5.8,1.88,6.79,6.79,0,0,1,2,5.24,10.28,10.28,0,0,1-.2,2.34,15.12,15.12,0,0,1-2.34,5.6,64.73,64.73,0,0,1-5.09,6.31,63,63,0,0,0-4.58,5.55,12.52,12.52,0,0,0-2.14,4.83l-.82,3.77a18.7,18.7,0,0,0-.41,3.87,7.56,7.56,0,0,0,2.7,6.31q2.7,2.14,8.6,2.14,6.72,0,10.69-3.31a16.21,16.21,0,0,0,5.29-9.31l7.43-35.22H366.1L359,334.88q-2.24,10.69-9.36,16.59t-19,5.9Q321.21,357.37,315.92,352.89Z" transform="translate(-86.03 -248.52)"/><path class="cls-5" d="M347.37,286.94a4.22,4.22,0,0,0,.1-1q0-1.22-1.73-1.22h-4.58l1.53-7.33h7.63a5.81,5.81,0,0,1,4,1.17,3.78,3.78,0,0,1,1.27,2.9,8.42,8.42,0,0,1-.2,1.43l-.81,3.56h20.76l-1.43,6.92H346Z" transform="translate(-86.03 -248.52)"/><path class="cls-5" d="M375.82,355.89a27.78,27.78,0,0,1-9.21-4.12l5.8-27.07H395L393.17,333H381L377.9,347q4.17,2.24,11.4,2.24,9.77,0,16-5.19t8.45-15.37a36.46,36.46,0,0,0,.92-7.53q0-6.72-4.43-9.87t-14.5-3.16a53.38,53.38,0,0,0-10.59,1.07,35.12,35.12,0,0,0-9.67,3.41l2-8.85a41.81,41.81,0,0,1,9.77-2.85,67.17,67.17,0,0,1,11.81-1q12.42,0,19.24,5.6t6.82,15.78a33.29,33.29,0,0,1-.81,7.43q-6.11,28.7-36.74,28.7A45.58,45.58,0,0,1,375.82,355.89Z" transform="translate(-86.03 -248.52)"/><path class="cls-5" d="M433.78,353.91a7,7,0,0,1-2.14-5.5,20.53,20.53,0,0,1,.41-3.26l9.26-43.77h10.38L443,342.31a7.3,7.3,0,0,0-.2,1.93,2.57,2.57,0,0,0,1,2.29,5.86,5.86,0,0,0,3.21.66h3.66l-1.83,8.65H440Q435.92,355.84,433.78,353.91Z" transform="translate(-86.03 -248.52)"/><path class="cls-5" d="M465.33,353.86q-4.48-3.51-4.48-9.92a22.43,22.43,0,0,1,.51-4.28,20.25,20.25,0,0,1,8.6-13q6.87-4.73,17.25-4.73t17.3,3.77l.92-4.17a22.76,22.76,0,0,0,.61-4.89q0-4.48-3.26-6.51t-11-2A52.89,52.89,0,0,0,482,309a40.71,40.71,0,0,0-8.65,2.54l1.73-8.14a41.16,41.16,0,0,1,9.11-2.54,61.25,61.25,0,0,1,10.84-1q9.16,0,14.55,3.36l6.51-5.9h11.5l-12.72,11.6a17.26,17.26,0,0,1,1.53,7.23,32.43,32.43,0,0,1-.51,5.19l-7.33,34.5H498.21L502.79,334q-6.51-3.76-16.18-3.77-12.82,0-14.86,9.67a20.76,20.76,0,0,0-.41,3.05,5.26,5.26,0,0,0,2.39,4.78q2.39,1.53,7.89,1.53a19.63,19.63,0,0,0,6.62-1l-1.63,8a34.3,34.3,0,0,1-9.26,1.12Q469.81,357.37,465.33,353.86Z" transform="translate(-86.03 -248.52)"/><path class="cls-5" d="M531.49,353.15A14.44,14.44,0,0,1,526.91,342a26.21,26.21,0,0,1,.51-4.68l7.63-35.93h10.38l-7.53,35.52a22.11,22.11,0,0,0-.51,4.17q0,4.28,2.75,6.21t8.55,1.93q10.48,0,18.52-9.36l8.14-38.47h10.38l-11.5,54.45H564.16l1.53-7.33q-9.57,8.85-21.48,8.85Q536.07,357.37,531.49,353.15Z" transform="translate(-86.03 -248.52)"/><path class="cls-5" d="M595.46,355.89a27.78,27.78,0,0,1-9.21-4.12L592,324.7h22.6L612.81,333H600.6L597.54,347q4.17,2.24,11.4,2.24,9.77,0,16-5.19t8.45-15.37a36.46,36.46,0,0,0,.92-7.53q0-6.72-4.43-9.87t-14.5-3.16a53.38,53.38,0,0,0-10.59,1.07,35.12,35.12,0,0,0-9.67,3.41l2-8.85a41.81,41.81,0,0,1,9.77-2.85,67.17,67.17,0,0,1,11.81-1q12.42,0,19.24,5.6t6.82,15.78a33.29,33.29,0,0,1-.81,7.43q-6.11,28.7-36.74,28.7A45.58,45.58,0,0,1,595.46,355.89Z" transform="translate(-86.03 -248.52)"/><path class="cls-5" d="M657.9,301.39h10.38l1.43,39.9L690,301.39h7.94l3.26,39.9,18.42-39.9H730l-26.67,54.45h-8.45l-3.46-40.92-20.87,40.92h-9.06Z" transform="translate(-86.03 -248.52)"/><path class="cls-5" d="M686.3,286.33h43.87l-1.53,7H684.77Z" transform="translate(-86.03 -248.52)"/><path class="cls-5" d="M732.61,353.91a7,7,0,0,1-2.14-5.5,20.53,20.53,0,0,1,.41-3.26l9.26-43.77h10.38l-8.65,40.92a7.3,7.3,0,0,0-.2,1.93,2.57,2.57,0,0,0,1,2.29,5.86,5.86,0,0,0,3.21.66h3.66l-1.83,8.65h-8.85Q734.74,355.84,732.61,353.91Z" transform="translate(-86.03 -248.52)"/><path class="cls-5" d="M766,322.15q2.24-10.79,10.23-16.54t20.41-5.75a29.85,29.85,0,0,1,12.82,2.54l5.6-5.09h11.5l-11.09,10.08a15.69,15.69,0,0,1,2.85,9.57,24.56,24.56,0,0,1-.51,5.19l-7.13,33.69H800.29l7.12-33.69a18.92,18.92,0,0,0,.51-4.58q0-4.78-3.16-7.12t-9.87-2.34q-7.43,0-12.21,3.41t-6.31,10.64l-2.14,10.08a12.94,12.94,0,0,1,5-3.92,16.39,16.39,0,0,1,7-1.48h8.14l-1.83,8.55h-9a11.71,11.71,0,0,0-7.79,3,12.34,12.34,0,0,0-4.33,6.87l-2.24,10.59H758.87Z" transform="translate(-86.03 -248.52)"/><path class="cls-5" d="M834.08,352.53a15.8,15.8,0,0,1-5.9-12.88,21.14,21.14,0,0,1,.51-4.89l7.13-33.38h10.38l-7,33.18a23.2,23.2,0,0,0-.61,5q0,5,3.21,7.33t10,2.34q15.67,0,18.83-14.66l1.32-6.21H859l1.83-8.55h12.93l3.87-18.42H888l-4,18.42h6l-1.83,8.55h-6l-1.32,6.41q-4.89,22.6-30.84,22.6Q840,357.37,834.08,352.53Z" transform="translate(-86.03 -248.52)"/><path class="cls-1" d="M172.49,546.78a8.58,8.58,0,0,1-2.61-6.71,25,25,0,0,1,.5-4l11.3-53.42h12.67l-10.56,49.94a8.86,8.86,0,0,0-.25,2.36,3.14,3.14,0,0,0,1.18,2.79,7.15,7.15,0,0,0,3.91.81h4.47l-2.24,10.56H180.07Q175.1,549.14,172.49,546.78Z" transform="translate(-86.03 -248.52)"/><path class="cls-1" d="M218.58,482.68h12.67L225,512l38.39-29.32H278.2L256.59,499.2q14,3.85,14,16.89a33.24,33.24,0,0,1-.75,6.71l-5.59,26.34H251.62L257,523.55a40.81,40.81,0,0,0,.87-6.58,8.81,8.81,0,0,0-2.48-6.71q-2.49-2.36-8.32-3.48l-25,19-4.84,23.35H204.54Z" transform="translate(-86.03 -248.52)"/><path class="cls-1" d="M287.15,546.71q-5.47-4.29-5.47-12.11a27.35,27.35,0,0,1,.62-5.22,24.71,24.71,0,0,1,10.5-15.84q8.38-5.78,21.06-5.78t21.12,4.6l1.12-5.09a27.86,27.86,0,0,0,.75-6q0-5.47-4-8t-13.42-2.48A64.6,64.6,0,0,0,307.52,492,49.76,49.76,0,0,0,297,495.1l2.11-9.94a50.27,50.27,0,0,1,11.12-3.11,74.78,74.78,0,0,1,13.23-1.24q13.17,0,19.69,5.47a18,18,0,0,1,6.52,14.53,27.62,27.62,0,0,1-.75,6.21l-8.94,42.11H327.27l5.59-26.71q-8-4.59-19.75-4.6-15.65,0-18.14,11.8a25.26,25.26,0,0,0-.5,3.73,6.42,6.42,0,0,0,2.92,5.84q2.92,1.86,9.63,1.86a24,24,0,0,0,8.07-1.24l-2,9.81A41.87,41.87,0,0,1,301.8,551Q292.61,551,287.15,546.71Z" transform="translate(-86.03 -248.52)"/><path class="cls-1" d="M304.29,464.54h25L332.11,451h9.32l-2.86,13.54h9.94L351.37,451h9.19L356,472.86H302.55Z" transform="translate(-86.03 -248.52)"/><path class="cls-1" d="M365.84,549.2a33.92,33.92,0,0,1-11.24-5l7.08-33h27.58L387,521.31H372.11l-3.73,17q5.09,2.73,13.91,2.73,11.92,0,19.5-6.34T412.12,516a44.59,44.59,0,0,0,1.12-9.19q0-8.2-5.4-12t-17.7-3.85a65.11,65.11,0,0,0-12.92,1.3,42.84,42.84,0,0,0-11.8,4.16l2.48-10.81a51,51,0,0,1,11.93-3.48,82,82,0,0,1,14.41-1.24q15.15,0,23.48,6.83T426,506.9a40.6,40.6,0,0,1-1,9.07q-7.45,35-44.84,35A55.65,55.65,0,0,1,365.84,549.2Z" transform="translate(-86.03 -248.52)"/><path class="cls-1" d="M441.49,549.2a33.92,33.92,0,0,1-11.24-5l7.08-33h27.58l-2.24,10.19H447.77l-3.73,17q5.09,2.73,13.91,2.73,11.92,0,19.5-6.34T487.77,516a44.59,44.59,0,0,0,1.12-9.19q0-8.2-5.4-12t-17.7-3.85a65.11,65.11,0,0,0-12.92,1.3,42.84,42.84,0,0,0-11.8,4.16l2.48-10.81a51,51,0,0,1,11.93-3.48,82,82,0,0,1,14.41-1.24q15.15,0,23.48,6.83t8.32,19.25a40.6,40.6,0,0,1-1,9.07q-7.45,35-44.84,35A55.65,55.65,0,0,1,441.49,549.2Z" transform="translate(-86.03 -248.52)"/><path class="cls-1" d="M455.59,464.29H497.7L500.31,451h11.55l-4.6,21.86H453.73Z" transform="translate(-86.03 -248.52)"/><path class="cls-1" d="M519.82,507.77l-4.1-10.06a62.57,62.57,0,0,1,17.83-12.61,49.47,49.47,0,0,1,20.81-4.29q12.55,0,19.32,5.09t6.77,14.41a28.76,28.76,0,0,1-.74,6.21l-8.94,42.61H558.08l8.82-41.62a27.85,27.85,0,0,0,.74-6q0-5.59-3.6-8.14t-11.8-2.55a36.38,36.38,0,0,0-12.48,2A33.7,33.7,0,0,0,529,499.45l3.48,8.32-8.7,41.37H511.12Z" transform="translate(-86.03 -248.52)"/><path class="cls-1" d="M664.66,476,643,489.51l2.48-12,23.73-15.16h10.93L661.8,549.14H649.13Z" transform="translate(-86.03 -248.52)"/><path class="cls-1" d="M687,545.91q-7.21-5.09-7.21-14.66a34.15,34.15,0,0,1,.62-5.84,27.36,27.36,0,0,1,7.33-14,28.34,28.34,0,0,1,13.17-7.64,15.29,15.29,0,0,1-6.77-5.84,16.44,16.44,0,0,1-2.42-8.94,23.38,23.38,0,0,1,.5-4.84,27.54,27.54,0,0,1,11.49-17.33q9.13-6.4,22.3-6.4,11.05,0,17.64,5a16.35,16.35,0,0,1,6.58,13.73,24.12,24.12,0,0,1-.5,5,26.34,26.34,0,0,1-6,12,27.48,27.48,0,0,1-11.12,7.64,16.66,16.66,0,0,1,8.82,5.78,16.42,16.42,0,0,1,3.23,10.37,31.43,31.43,0,0,1-.62,5.47,29,29,0,0,1-12.61,18.94q-10,6.65-24.66,6.65Q694.22,551,687,545.91Zm36.77-8.7a20.75,20.75,0,0,0,7.83-12.67,30.07,30.07,0,0,0,.5-4.22q0-6-4.1-9.19T716,507.89a24.9,24.9,0,0,0-14.84,4.47,19.27,19.27,0,0,0-7.89,12.17,23.39,23.39,0,0,0-.62,4.84q0,6,4.1,9.19t12,3.23Q717.7,541.81,723.79,537.21Zm6.71-41.3a17.13,17.13,0,0,0,6.83-10.62,19.51,19.51,0,0,0,.5-4.47q0-10.68-13.79-10.68a21.88,21.88,0,0,0-10.25,2.42,17.95,17.95,0,0,0-9.88,16.34,10,10,0,0,0,3.48,8.14q3.48,2.92,10.31,2.92A21,21,0,0,0,730.5,495.91Z" transform="translate(-86.03 -248.52)"/><path class="cls-1" d="M803.54,546.78a8.58,8.58,0,0,1-2.61-6.71,25,25,0,0,1,.5-4l11.3-53.42H825.4l-10.56,49.94a8.86,8.86,0,0,0-.25,2.36,3.14,3.14,0,0,0,1.18,2.79,7.15,7.15,0,0,0,3.91.81h4.47l-2.24,10.56H811.12Q806.15,549.14,803.54,546.78Zm31.92,0q-2.61-2.36-2.61-6.83a25.14,25.14,0,0,1,.5-3.85l11.3-53.42h12.67l-10.56,49.94a8.27,8.27,0,0,0-.25,2.24,3.21,3.21,0,0,0,1.24,2.92,7.5,7.5,0,0,0,4,.81h4.47L854,549.14H843Q838.07,549.14,835.46,546.78Z" transform="translate(-86.03 -248.52)"/><path class="cls-1" d="M881.67,482.68h12.67L888.13,512l38.39-29.32H941.3L919.69,499.2q14,3.85,14,16.89a33.24,33.24,0,0,1-.75,6.71l-5.59,26.34H914.72l5.34-25.59a40.81,40.81,0,0,0,.87-6.58,8.81,8.81,0,0,0-2.48-6.71q-2.49-2.36-8.32-3.48l-25,19-4.84,23.35H867.64Z" transform="translate(-86.03 -248.52)"/><path class="cls-1" d="M936,452.12h12.42L944,472.86H931.61Z" transform="translate(-86.03 -248.52)"/><path class="cls-1" d="M953.6,491h12.67l5.59,48.2q11.68,0,19.38-6.46t10.19-18.26a53.83,53.83,0,0,0,1.24-10.06q0-6.83-3.42-10.19t-11.12-3.35a36.77,36.77,0,0,0-8.94,1.12l2.11-9.81a43.51,43.51,0,0,1,11.06-1.37q11.55,0,17.39,6t5.84,16.89a48.76,48.76,0,0,1-1.24,10.81,42.92,42.92,0,0,1-8.57,18.63A42.2,42.2,0,0,1,990.62,545a43.41,43.41,0,0,1-18.51,4.1H960.18Z" transform="translate(-86.03 -248.52)"/><path class="cls-1" d="M1020.8,549.38a5.54,5.54,0,0,1-1.62-4.1,8.49,8.49,0,0,1,2.73-6.27,8.66,8.66,0,0,1,6.21-2.67,6,6,0,0,1,4.41,1.68,5.65,5.65,0,0,1,1.68,4.16,8.14,8.14,0,0,1-2.86,6.21A9.19,9.19,0,0,1,1025,551,5.71,5.71,0,0,1,1020.8,549.38Zm17.14-87.08h12.17l-13.17,62h-12.17Z" transform="translate(-86.03 -248.52)"/><path class="cls-5" d="M167.18,542.67a8.58,8.58,0,0,1-2.61-6.71,25,25,0,0,1,.5-4l11.3-53.42H189l-10.56,49.94a8.86,8.86,0,0,0-.25,2.36,3.14,3.14,0,0,0,1.18,2.79,7.15,7.15,0,0,0,3.91.81h4.47L185.56,545H174.75Q169.78,545,167.18,542.67Z" transform="translate(-86.03 -248.52)"/><path class="cls-5" d="M213.26,478.57h12.67l-6.21,29.32,38.39-29.32h14.78l-21.62,16.52q14,3.85,14,16.89a33.24,33.24,0,0,1-.75,6.71L259,545H246.31l5.34-25.59a40.81,40.81,0,0,0,.87-6.58,8.81,8.81,0,0,0-2.48-6.71q-2.49-2.36-8.32-3.48l-25,19L211.9,545H199.23Z" transform="translate(-86.03 -248.52)"/><path class="cls-5" d="M281.83,542.61q-5.47-4.29-5.47-12.11a27.35,27.35,0,0,1,.62-5.22,24.71,24.71,0,0,1,10.5-15.84q8.38-5.78,21.06-5.78t21.12,4.6l1.12-5.09a27.86,27.86,0,0,0,.75-6q0-5.47-4-8t-13.42-2.48a64.6,64.6,0,0,0-11.93,1.12A49.76,49.76,0,0,0,291.65,491l2.11-9.94A50.27,50.27,0,0,1,304.88,478a74.78,74.78,0,0,1,13.23-1.24q13.17,0,19.69,5.47a18,18,0,0,1,6.52,14.53,27.62,27.62,0,0,1-.75,6.21L334.63,545H322l5.59-26.71q-8-4.59-19.75-4.6-15.65,0-18.14,11.8a25.26,25.26,0,0,0-.5,3.73,6.42,6.42,0,0,0,2.92,5.84Q295,537,301.71,537a24,24,0,0,0,8.07-1.24l-2,9.81a41.87,41.87,0,0,1-11.3,1.37Q287.3,546.89,281.83,542.61Z" transform="translate(-86.03 -248.52)"/><path class="cls-5" d="M299,460.43h25l2.86-13.54h9.32l-2.86,13.54h9.94l2.86-13.54h9.19l-4.6,21.86H297.24Z" transform="translate(-86.03 -248.52)"/><path class="cls-5" d="M360.53,545.09a33.92,33.92,0,0,1-11.24-5l7.08-33h27.58l-2.24,10.19H366.8l-3.73,17Q368.17,537,377,537q11.92,0,19.5-6.34t10.31-18.76a44.59,44.59,0,0,0,1.12-9.19q0-8.2-5.4-12t-17.7-3.85a65.11,65.11,0,0,0-12.92,1.3,42.84,42.84,0,0,0-11.8,4.16l2.48-10.81A51,51,0,0,1,374.5,478a82,82,0,0,1,14.41-1.24q15.15,0,23.48,6.83t8.32,19.25a40.6,40.6,0,0,1-1,9.07q-7.45,35-44.84,35A55.65,55.65,0,0,1,360.53,545.09Z" transform="translate(-86.03 -248.52)"/><path class="cls-5" d="M436.18,545.09a33.92,33.92,0,0,1-11.24-5L432,507H459.6l-2.24,10.19H442.45l-3.73,17q5.09,2.73,13.91,2.73,11.92,0,19.5-6.34t10.31-18.76a44.59,44.59,0,0,0,1.12-9.19q0-8.2-5.4-12t-17.7-3.85a65.11,65.11,0,0,0-12.92,1.3,42.84,42.84,0,0,0-11.8,4.16l2.48-10.81A51,51,0,0,1,450.15,478a82,82,0,0,1,14.41-1.24q15.15,0,23.48,6.83t8.32,19.25a40.6,40.6,0,0,1-1,9.07q-7.45,35-44.84,35A55.65,55.65,0,0,1,436.18,545.09Z" transform="translate(-86.03 -248.52)"/><path class="cls-5" d="M450.28,460.19h42.11L495,446.89h11.55L502,468.76H448.42Z" transform="translate(-86.03 -248.52)"/><path class="cls-5" d="M514.5,503.66l-4.1-10.06A62.57,62.57,0,0,1,528.23,481,49.47,49.47,0,0,1,549,476.71q12.55,0,19.32,5.09t6.77,14.41a28.76,28.76,0,0,1-.74,6.21L565.43,545H552.76l8.82-41.62a27.85,27.85,0,0,0,.74-6q0-5.59-3.6-8.14t-11.8-2.55a36.38,36.38,0,0,0-12.48,2,33.7,33.7,0,0,0-10.75,6.52l3.48,8.32L518.48,545H505.81Z" transform="translate(-86.03 -248.52)"/><path class="cls-5" d="M659.35,471.86,637.73,485.4l2.48-12,23.73-15.16h10.93L656.49,545H643.82Z" transform="translate(-86.03 -248.52)"/><path class="cls-5" d="M681.71,541.8q-7.21-5.09-7.21-14.66a34.15,34.15,0,0,1,.62-5.84,27.36,27.36,0,0,1,7.33-14,28.34,28.34,0,0,1,13.17-7.64,15.29,15.29,0,0,1-6.77-5.84,16.44,16.44,0,0,1-2.42-8.94,23.38,23.38,0,0,1,.5-4.84,27.54,27.54,0,0,1,11.49-17.33q9.13-6.4,22.3-6.4,11.05,0,17.64,5a16.35,16.35,0,0,1,6.58,13.73,24.12,24.12,0,0,1-.5,5,26.34,26.34,0,0,1-6,12,27.48,27.48,0,0,1-11.12,7.64,16.66,16.66,0,0,1,8.82,5.78,16.42,16.42,0,0,1,3.23,10.37,31.43,31.43,0,0,1-.62,5.47,29,29,0,0,1-12.61,18.94q-10,6.65-24.66,6.65Q688.91,546.89,681.71,541.8Zm36.77-8.7a20.75,20.75,0,0,0,7.83-12.67,30.07,30.07,0,0,0,.5-4.22q0-6-4.1-9.19t-12.05-3.23a24.9,24.9,0,0,0-14.84,4.47,19.27,19.27,0,0,0-7.89,12.17,23.39,23.39,0,0,0-.62,4.84q0,6,4.1,9.19t12,3.23Q712.39,537.7,718.48,533.11Zm6.71-41.3A17.13,17.13,0,0,0,732,481.18a19.51,19.51,0,0,0,.5-4.47q0-10.68-13.79-10.68a21.88,21.88,0,0,0-10.25,2.42,17.95,17.95,0,0,0-9.88,16.34,10,10,0,0,0,3.48,8.14q3.48,2.92,10.31,2.92A21,21,0,0,0,725.18,491.8Z" transform="translate(-86.03 -248.52)"/><path class="cls-5" d="M798.23,542.67a8.58,8.58,0,0,1-2.61-6.71,25,25,0,0,1,.5-4l11.3-53.42h12.67l-10.56,49.94a8.86,8.86,0,0,0-.25,2.36,3.14,3.14,0,0,0,1.18,2.79,7.15,7.15,0,0,0,3.91.81h4.47L816.61,545H805.8Q800.83,545,798.23,542.67Zm31.92,0q-2.61-2.36-2.61-6.83A25.14,25.14,0,0,1,828,532l11.3-53.42H852l-10.56,49.94a8.27,8.27,0,0,0-.25,2.24,3.21,3.21,0,0,0,1.24,2.92,7.5,7.5,0,0,0,4,.81h4.47L848.66,545H837.73Q832.76,545,830.15,542.67Z" transform="translate(-86.03 -248.52)"/><path class="cls-5" d="M876.36,478.57H889l-6.21,29.32,38.39-29.32H936l-21.62,16.52q14,3.85,14,16.89a33.24,33.24,0,0,1-.75,6.71L922.08,545H909.41l5.34-25.59a40.81,40.81,0,0,0,.87-6.58,8.81,8.81,0,0,0-2.48-6.71q-2.49-2.36-8.32-3.48l-25,19L875,545H862.32Z" transform="translate(-86.03 -248.52)"/><path class="cls-5" d="M930.65,448h12.42l-4.35,20.75H926.3Z" transform="translate(-86.03 -248.52)"/><path class="cls-5" d="M948.29,486.89H961l5.59,48.2q11.68,0,19.38-6.46t10.19-18.26a53.83,53.83,0,0,0,1.24-10.06q0-6.83-3.42-10.19t-11.12-3.35a36.77,36.77,0,0,0-8.94,1.12l2.11-9.81A43.51,43.51,0,0,1,987,476.71q11.55,0,17.39,6t5.84,16.89a48.76,48.76,0,0,1-1.24,10.81,42.92,42.92,0,0,1-8.57,18.63,42.2,42.2,0,0,1-15.15,11.93A43.41,43.41,0,0,1,966.8,545H954.87Z" transform="translate(-86.03 -248.52)"/><path class="cls-5" d="M1015.49,545.28a5.54,5.54,0,0,1-1.62-4.1,8.49,8.49,0,0,1,2.73-6.27,8.66,8.66,0,0,1,6.21-2.67,6,6,0,0,1,4.41,1.68,5.65,5.65,0,0,1,1.68,4.16,8.14,8.14,0,0,1-2.86,6.21,9.19,9.19,0,0,1-6.33,2.61A5.71,5.71,0,0,1,1015.49,545.28Zm17.14-87.08h12.17l-13.17,62h-12.17Z" transform="translate(-86.03 -248.52)"/><path class="cls-7" d="M225.18,735a11.34,11.34,0,0,1-5-2.26l1.05-5.07a17,17,0,0,0,5.32,2.44,22.29,22.29,0,0,0,5.94.84,14.79,14.79,0,0,0,6.09-1,4.46,4.46,0,0,0,2.51-3.31,7.37,7.37,0,0,0,.12-1.05,3,3,0,0,0-1.64-2.66,34.2,34.2,0,0,0-6.22-2.47,20.56,20.56,0,0,1-6.59-3.28,6,6,0,0,1-2.26-4.89,8.35,8.35,0,0,1,.25-2,10.26,10.26,0,0,1,5-7,19.42,19.42,0,0,1,10.18-2.44,24.32,24.32,0,0,1,6,.71,12.88,12.88,0,0,1,4.42,1.89l-1.05,5.2a14.86,14.86,0,0,0-4.42-2,19.41,19.41,0,0,0-5.41-.74,13.37,13.37,0,0,0-5.75,1,4.63,4.63,0,0,0-2.6,3.43,7.34,7.34,0,0,0-.12,1,2.69,2.69,0,0,0,.9,2.1,7.44,7.44,0,0,0,2.38,1.36q1.48.56,5,1.67a17.48,17.48,0,0,1,6.43,3.19,5.83,5.83,0,0,1,1.92,4.48,15.52,15.52,0,0,1-.31,2.66,10.21,10.21,0,0,1-4.61,6.56q-3.74,2.47-10.73,2.47A29.83,29.83,0,0,1,225.18,735Z" transform="translate(-86.03 -248.52)"/><path class="cls-7" d="M226.6,692.6h21l1.3-6.62h5.75l-2.29,10.89H225.67Z" transform="translate(-86.03 -248.52)"/><path class="cls-7" d="M258.34,732.81a9.69,9.69,0,0,1-3.59-7.86,16.15,16.15,0,0,1,.31-2.91l4.33-20.29h6.31l-4.27,20.17a14.1,14.1,0,0,0-.37,3,5.15,5.15,0,0,0,1.95,4.45q1.95,1.42,6.09,1.42,9.52,0,11.44-8.91l4.27-20.17h6.31L286.79,722q-3,13.73-18.74,13.73Q261.93,735.78,258.34,732.81Z" transform="translate(-86.03 -248.52)"/><path class="cls-7" d="M296.69,733.62a4.27,4.27,0,0,1-1.3-3.34,12.47,12.47,0,0,1,.25-2l5-23.45a19.89,19.89,0,0,1,2.6-6.81,13.36,13.36,0,0,1,4.89-4.39H296.88l1.11-5.32h19.49l-1.05,5.07a16.08,16.08,0,0,0-6.25,4.14A15.56,15.56,0,0,0,307,704.6l-4.64,21.9a6.18,6.18,0,0,0-.19,1.36,1.43,1.43,0,0,0,.49,1.27,3.37,3.37,0,0,0,1.79.34H307l-1.11,5.32h-5.38A5.44,5.44,0,0,1,296.69,733.62Z" transform="translate(-86.03 -248.52)"/><path class="cls-7" d="M318.53,732.81a9.69,9.69,0,0,1-3.59-7.86,16.15,16.15,0,0,1,.31-2.91l4.33-20.29h6.31l-4.27,20.17a14.1,14.1,0,0,0-.37,3,5.15,5.15,0,0,0,1.95,4.45q1.95,1.42,6.09,1.42,9.52,0,11.44-8.91l6.62-31.24h6.31L347,722q-3,13.73-18.74,13.73Q322.12,735.78,318.53,732.81Z" transform="translate(-86.03 -248.52)"/><path class="cls-7" d="M189.3,807.91a4.27,4.27,0,0,1-1.3-3.34,12.47,12.47,0,0,1,.25-2l5.63-26.6h6.31l-5.26,24.87a4.38,4.38,0,0,0-.12,1.18,1.56,1.56,0,0,0,.59,1.39,3.56,3.56,0,0,0,1.95.4h2.23l-1.11,5.26h-5.38A5.44,5.44,0,0,1,189.3,807.91Z" transform="translate(-86.03 -248.52)"/><path class="cls-7" d="M209.71,807.3a8.87,8.87,0,0,1-3.22-7.11,12.27,12.27,0,0,1,.25-2.54l.43-2.1a9.75,9.75,0,0,1,1.7-3.84,49,49,0,0,1,3.43-4.08q1.55-1.67,2.29-2.6a4.37,4.37,0,0,0,.93-1.86,3.38,3.38,0,0,0,.06-.74,1.22,1.22,0,0,0-.49-1.08,3.08,3.08,0,0,0-1.67-.34H210l1.05-5h6.5a5,5,0,0,1,3.53,1.14,4.13,4.13,0,0,1,1.24,3.19,6.21,6.21,0,0,1-.12,1.42,9.19,9.19,0,0,1-1.42,3.4,39.48,39.48,0,0,1-3.09,3.84,38.18,38.18,0,0,0-2.78,3.37,7.61,7.61,0,0,0-1.3,2.94l-.5,2.29a11.42,11.42,0,0,0-.25,2.35,4.6,4.6,0,0,0,1.64,3.84q1.64,1.3,5.23,1.3a9,9,0,0,0,9.71-7.67L233.9,776h6.31l-4.33,20.35a17.17,17.17,0,0,1-5.69,10.08Q225.86,810,218.62,810,212.93,810,209.71,807.3Z" transform="translate(-86.03 -248.52)"/><path class="cls-7" d="M228.83,767.21a2.62,2.62,0,0,0,.06-.62c0-.49-.35-.74-1.05-.74h-2.78l.93-4.45h4.64a3.53,3.53,0,0,1,2.44.71,2.3,2.3,0,0,1,.77,1.76,5.09,5.09,0,0,1-.12.87l-.49,2.17h12.62l-.87,4.21H228Z" transform="translate(-86.03 -248.52)"/><path class="cls-7" d="M257.41,787.69a16.12,16.12,0,0,0,.43-3.53,3.54,3.54,0,0,0-1.36-3.16q-1.36-.93-4.76-.93a19.07,19.07,0,0,0-7.79,1.73l1.05-4.95a14.39,14.39,0,0,1,4-1.3,25.67,25.67,0,0,1,5-.49q5,0,7.58,2.44a8.91,8.91,0,0,1,2.57,6.77,17.39,17.39,0,0,1-.43,3.84l-4.45,21h-6.31Z" transform="translate(-86.03 -248.52)"/><path class="cls-7" d="M271.64,809.24a11.34,11.34,0,0,1-5-2.26l1.05-5.07a17,17,0,0,0,5.32,2.44,22.29,22.29,0,0,0,5.94.84,14.79,14.79,0,0,0,6.09-1,4.46,4.46,0,0,0,2.51-3.31,7.37,7.37,0,0,0,.12-1.05,3,3,0,0,0-1.64-2.66,34.2,34.2,0,0,0-6.22-2.47,20.56,20.56,0,0,1-6.59-3.28,6,6,0,0,1-2.26-4.89,8.35,8.35,0,0,1,.25-2,10.26,10.26,0,0,1,5-7,19.42,19.42,0,0,1,10.18-2.44,24.32,24.32,0,0,1,6,.71,12.88,12.88,0,0,1,4.42,1.89l-1.05,5.2a14.86,14.86,0,0,0-4.42-2,19.41,19.41,0,0,0-5.41-.74,13.37,13.37,0,0,0-5.75,1,4.63,4.63,0,0,0-2.6,3.43,7.34,7.34,0,0,0-.12,1,2.69,2.69,0,0,0,.9,2.1,7.44,7.44,0,0,0,2.38,1.36q1.48.56,5,1.67a17.48,17.48,0,0,1,6.43,3.19,5.83,5.83,0,0,1,1.92,4.48,15.52,15.52,0,0,1-.31,2.66,10.21,10.21,0,0,1-4.61,6.56Q285.37,810,278.38,810A29.83,29.83,0,0,1,271.64,809.24Z" transform="translate(-86.03 -248.52)"/><path class="cls-7" d="M295,760.77h6.19L299,771.11h-6.19Z" transform="translate(-86.03 -248.52)"/><path class="cls-7" d="M298,807.23l1.05-5.07q3.59,2.91,10.21,2.91a16,16,0,0,0,10.11-3.16q4.05-3.15,5.35-9.34a22.29,22.29,0,0,0,.49-4.27q0-4.14-2.57-6.19t-8.07-2A21.52,21.52,0,0,0,303.25,783l1.11-5.13q4.82-2.78,12.5-2.78,6.93,0,10.89,3.37t4,9.5a21.79,21.79,0,0,1-.56,4.64q-1.8,8.48-7.24,13T309.43,810Q301.64,810,298,807.23Z" transform="translate(-86.03 -248.52)"/><path class="cls-7" d="M346.06,808.66a11.59,11.59,0,0,1-4.58-4l-.93,4.45h-6.06l7-33.1h6.31l-4.95,23.38q2.41,5.69,8.78,5.69,4.33,0,6.65-1.82a9.33,9.33,0,0,0,3.12-5.66L366,776h6.31l-4.64,21.84A14.72,14.72,0,0,1,352.24,810,13.91,13.91,0,0,1,346.06,808.66Z" transform="translate(-86.03 -248.52)"/><path class="cls-7" d="M373.4,809.21a2.77,2.77,0,0,1-.8-2A4.23,4.23,0,0,1,374,804a4.31,4.31,0,0,1,3.09-1.33,3,3,0,0,1,2.2.84,2.81,2.81,0,0,1,.83,2.07,4.05,4.05,0,0,1-1.42,3.09,4.58,4.58,0,0,1-3.16,1.3A2.85,2.85,0,0,1,373.4,809.21Zm8.54-43.37H388l-6.56,30.87h-6.06Z" transform="translate(-86.03 -248.52)"/><path class="cls-5" d="M222.3,731.21a11.34,11.34,0,0,1-5-2.26l1.05-5.07a17,17,0,0,0,5.32,2.44,22.29,22.29,0,0,0,5.94.84,14.79,14.79,0,0,0,6.09-1,4.46,4.46,0,0,0,2.51-3.31,7.37,7.37,0,0,0,.12-1.05,3,3,0,0,0-1.64-2.66,34.2,34.2,0,0,0-6.22-2.47,20.56,20.56,0,0,1-6.59-3.28,6,6,0,0,1-2.26-4.89,8.35,8.35,0,0,1,.25-2,10.26,10.26,0,0,1,5-7A19.42,19.42,0,0,1,237,697a24.32,24.32,0,0,1,6,.71,12.88,12.88,0,0,1,4.42,1.89l-1.05,5.2a14.86,14.86,0,0,0-4.42-2,19.41,19.41,0,0,0-5.41-.74,13.37,13.37,0,0,0-5.75,1,4.63,4.63,0,0,0-2.6,3.43,7.34,7.34,0,0,0-.12,1,2.69,2.69,0,0,0,.9,2.1,7.44,7.44,0,0,0,2.38,1.36q1.48.56,5,1.67a17.48,17.48,0,0,1,6.43,3.19,5.83,5.83,0,0,1,1.92,4.48,15.52,15.52,0,0,1-.31,2.66,10.21,10.21,0,0,1-4.61,6.56Q236,732,229,732A29.83,29.83,0,0,1,222.3,731.21Z" transform="translate(-86.03 -248.52)"/><path class="cls-5" d="M223.73,688.8h21l1.3-6.62h5.75l-2.29,10.89H222.8Z" transform="translate(-86.03 -248.52)"/><path class="cls-5" d="M255.46,729a9.69,9.69,0,0,1-3.59-7.86,16.15,16.15,0,0,1,.31-2.91L256.51,698h6.31l-4.27,20.17a14.1,14.1,0,0,0-.37,3,5.15,5.15,0,0,0,1.95,4.45q1.95,1.42,6.09,1.42,9.52,0,11.44-8.91L281.94,698h6.31l-4.33,20.29q-3,13.73-18.74,13.73Q259.05,732,255.46,729Z" transform="translate(-86.03 -248.52)"/><path class="cls-5" d="M293.82,729.81a4.27,4.27,0,0,1-1.3-3.34,12.47,12.47,0,0,1,.25-2l5-23.45a19.89,19.89,0,0,1,2.6-6.81,13.36,13.36,0,0,1,4.89-4.39H294l1.11-5.32H314.6l-1.05,5.07a16.08,16.08,0,0,0-6.25,4.14,15.56,15.56,0,0,0-3.22,7.05l-4.64,21.9a6.18,6.18,0,0,0-.19,1.36,1.43,1.43,0,0,0,.49,1.27,3.37,3.37,0,0,0,1.79.34h2.54L303,731h-5.38A5.44,5.44,0,0,1,293.82,729.81Z" transform="translate(-86.03 -248.52)"/><path class="cls-5" d="M315.65,729a9.69,9.69,0,0,1-3.59-7.86,16.15,16.15,0,0,1,.31-2.91L316.71,698H323l-4.27,20.17a14.1,14.1,0,0,0-.37,3,5.15,5.15,0,0,0,1.95,4.45q1.95,1.42,6.09,1.42,9.52,0,11.44-8.91l6.62-31.24h6.31l-6.68,31.36q-3,13.73-18.74,13.73Q319.24,732,315.65,729Z" transform="translate(-86.03 -248.52)"/><path class="cls-5" d="M186.43,804.11a4.27,4.27,0,0,1-1.3-3.34,12.47,12.47,0,0,1,.25-2l5.63-26.6h6.31l-5.26,24.87a4.38,4.38,0,0,0-.12,1.18,1.56,1.56,0,0,0,.59,1.39,3.56,3.56,0,0,0,1.95.4h2.23l-1.11,5.26H190.2A5.44,5.44,0,0,1,186.43,804.11Z" transform="translate(-86.03 -248.52)"/><path class="cls-5" d="M206.84,803.49a8.87,8.87,0,0,1-3.22-7.11,12.27,12.27,0,0,1,.25-2.54l.43-2.1a9.75,9.75,0,0,1,1.7-3.84,49,49,0,0,1,3.43-4.08q1.55-1.67,2.29-2.6a4.37,4.37,0,0,0,.93-1.86,3.38,3.38,0,0,0,.06-.74,1.22,1.22,0,0,0-.49-1.08,3.08,3.08,0,0,0-1.67-.34h-3.46l1.05-5h6.5a5,5,0,0,1,3.53,1.14,4.13,4.13,0,0,1,1.24,3.19,6.21,6.21,0,0,1-.12,1.42,9.19,9.19,0,0,1-1.42,3.4,39.48,39.48,0,0,1-3.09,3.84,38.18,38.18,0,0,0-2.78,3.37,7.61,7.61,0,0,0-1.3,2.94l-.5,2.29a11.42,11.42,0,0,0-.25,2.35,4.6,4.6,0,0,0,1.64,3.84q1.64,1.3,5.23,1.3a9,9,0,0,0,9.71-7.67l4.52-21.4h6.31L233,792.54a17.17,17.17,0,0,1-5.69,10.08q-4.33,3.59-11.57,3.59Q210.06,806.21,206.84,803.49Z" transform="translate(-86.03 -248.52)"/><path class="cls-5" d="M226,763.41a2.62,2.62,0,0,0,.06-.62c0-.49-.35-.74-1.05-.74h-2.78l.93-4.45h4.64a3.53,3.53,0,0,1,2.44.71,2.3,2.3,0,0,1,.77,1.76,5.09,5.09,0,0,1-.12.87l-.49,2.17H243l-.87,4.21h-17Z" transform="translate(-86.03 -248.52)"/><path class="cls-5" d="M254.53,783.88a16.12,16.12,0,0,0,.43-3.53,3.54,3.54,0,0,0-1.36-3.16q-1.36-.93-4.76-.93A19.07,19.07,0,0,0,241,778l1.05-4.95a14.39,14.39,0,0,1,4-1.3,25.67,25.67,0,0,1,5-.49q5,0,7.58,2.44a8.91,8.91,0,0,1,2.57,6.77,17.39,17.39,0,0,1-.43,3.84l-4.45,21H250Z" transform="translate(-86.03 -248.52)"/><path class="cls-5" d="M268.76,805.44a11.34,11.34,0,0,1-5-2.26l1.05-5.07a17,17,0,0,0,5.32,2.44,22.29,22.29,0,0,0,5.94.84,14.79,14.79,0,0,0,6.09-1,4.46,4.46,0,0,0,2.51-3.31,7.37,7.37,0,0,0,.12-1.05,3,3,0,0,0-1.64-2.66,34.2,34.2,0,0,0-6.22-2.47,20.56,20.56,0,0,1-6.59-3.28,6,6,0,0,1-2.26-4.89,8.35,8.35,0,0,1,.25-2,10.26,10.26,0,0,1,5-7,19.42,19.42,0,0,1,10.18-2.44,24.32,24.32,0,0,1,6,.71,12.88,12.88,0,0,1,4.42,1.89l-1.05,5.2a14.86,14.86,0,0,0-4.42-2,19.41,19.41,0,0,0-5.41-.74,13.37,13.37,0,0,0-5.75,1,4.63,4.63,0,0,0-2.6,3.43,7.34,7.34,0,0,0-.12,1,2.69,2.69,0,0,0,.9,2.1,7.44,7.44,0,0,0,2.38,1.36q1.48.56,5,1.67a17.48,17.48,0,0,1,6.43,3.19,5.83,5.83,0,0,1,1.92,4.48,15.52,15.52,0,0,1-.31,2.66,10.21,10.21,0,0,1-4.61,6.56q-3.74,2.47-10.73,2.47A29.83,29.83,0,0,1,268.76,805.44Z" transform="translate(-86.03 -248.52)"/><path class="cls-5" d="M292.08,757h6.19l-2.16,10.33h-6.19Z" transform="translate(-86.03 -248.52)"/><path class="cls-5" d="M295.12,803.43l1.05-5.07q3.59,2.91,10.21,2.91a16,16,0,0,0,10.11-3.16q4.05-3.15,5.35-9.34a22.29,22.29,0,0,0,.49-4.27q0-4.14-2.57-6.19t-8.07-2a21.52,21.52,0,0,0-11.32,2.91l1.11-5.13q4.82-2.78,12.5-2.78,6.93,0,10.89,3.37t4,9.5a21.79,21.79,0,0,1-.56,4.64q-1.8,8.48-7.24,13t-14.48,4.49Q298.77,806.21,295.12,803.43Z" transform="translate(-86.03 -248.52)"/><path class="cls-5" d="M343.18,804.85a11.59,11.59,0,0,1-4.58-4l-.93,4.45h-6.06l7-33.1h6.31L340,795.57q2.41,5.69,8.78,5.69,4.33,0,6.65-1.82a9.33,9.33,0,0,0,3.12-5.66l4.58-21.59h6.31L364.77,794a14.72,14.72,0,0,1-15.4,12.19A13.91,13.91,0,0,1,343.18,804.85Z" transform="translate(-86.03 -248.52)"/><path class="cls-5" d="M370.52,805.41a2.77,2.77,0,0,1-.8-2,4.23,4.23,0,0,1,1.36-3.12,4.31,4.31,0,0,1,3.09-1.33,3,3,0,0,1,2.2.84,2.81,2.81,0,0,1,.83,2.07,4.05,4.05,0,0,1-1.42,3.09,4.58,4.58,0,0,1-3.16,1.3A2.85,2.85,0,0,1,370.52,805.41ZM379.06,762h6.06l-6.56,30.87H372.5Z" transform="translate(-86.03 -248.52)"/></svg>