<svg id="Layer_1" data-name="Layer 1" xmlns="http://www.w3.org/2000/svg" viewBox="0 0 1031.61 699.3"><defs><style>.cls-1{fill:#cc4867;}.cls-2{fill:#f36a86;}.cls-3{fill:#c6820a;}.cls-4{fill:#f9a500;}.cls-5{fill:#fff;}.cls-6{fill:#46b7e8;}.cls-7{fill:#3495b7;}</style></defs><title>notification-en</title><polygon class="cls-1" points="767.18 633.3 642.87 699.3 687.5 565.3 767.18 633.3"/><polygon class="cls-2" points="549.36 535.3 767.18 633.3 676.24 400.3 549.36 535.3"/><polygon class="cls-1" points="1031.61 428.51 549.36 535.3 506.99 390.6 1031.61 428.51"/><polygon class="cls-2" points="1031.61 80.16 0 80.16 16.87 409.81 1031.61 428.51 1031.61 80.16"/><polygon class="cls-1" points="168.77 80.16 130.8 161.05 885.73 161.05 885.73 80.16 168.77 80.16"/><polygon class="cls-3" points="872.24 0 947.23 80.16 872.24 80.16 872.24 0"/><polygon class="cls-4" points="872.24 0 181.96 0 117.32 137.69 872.24 137.69 872.24 0"/><path class="cls-3" d="M355.89,298.3c.67-3.2,1.33-6.79.93-9.59s-1.47-4.53-3.73-4.53c-3.73.13-5.73,4-6.92,9.72a18.52,18.52,0,0,0,1.33,10.52c1.47,3.73,3.2,7.59,5.19,11.72a100.54,100.54,0,0,1,6.13,14.91,29.74,29.74,0,0,1,.93,15.31c-1.47,6.52-3.59,12.52-7.72,17.18S342.58,371,334.59,371c-9.19,0-13.72-3.46-15.45-8.79-2-5.33-.93-12.25.53-19.71l14.38-1.33c-.93,4.13-1.6,8.26-1.2,11.32s1.46,5.33,4.53,5.33c4.26,0,6.66-4.53,8.12-10.79.67-3.2,0-6.92-1.47-10.79-.4-.93-.8-2-1.2-2.93s-.8-2-1.2-2.93c-.93-2-2-4.13-3.06-6.39s-2.13-4.53-3.2-7.06a45.59,45.59,0,0,1-3.86-15.18,22.59,22.59,0,0,1,.53-7.86,31.83,31.83,0,0,1,7.59-15.45,21.72,21.72,0,0,1,16-7.46c8.92-.13,13,3.46,14.78,8.65s1.06,11.85-.13,17.31Z" transform="translate(-86.03 -248.52)"/><path class="cls-3" d="M383.32,272.07H397.7c6.26,0,12.12,1.47,16,6.13s5.59,12,3.06,23.17-7.19,18.37-12.92,23a29.08,29.08,0,0,1-18.64,6.39l-8.25,39.15H362.54Zm4.93,44.07c4.39,0,7.46-.8,9.45-3.06s3.2-5.73,4.39-11.19,1.6-9.19.53-11.72c-1.07-2.26-3.73-3.46-8.12-3.46Z" transform="translate(-86.03 -248.52)"/><path class="cls-3" d="M430.18,272.07h32.89l-3.2,14.78H441.36l-5.46,25.7h13.31l-3.33,15.71H432.57l-5.73,26.9h18.51l-3.06,14.78H409.41Z" transform="translate(-86.03 -248.52)"/><path class="cls-3" d="M494.75,336.38,492,349.83a37,37,0,0,1-4.66,10.65,29,29,0,0,1-7.32,7.19A19.63,19.63,0,0,1,468.25,371c-4.66,0-8.12-1.07-10.52-3.33a12.62,12.62,0,0,1-4-7.19,21.93,21.93,0,0,1-.13-10.65l12.25-57.65a32.27,32.27,0,0,1,4.53-10.52,28.84,28.84,0,0,1,7.19-7.32A21.48,21.48,0,0,1,489.42,271c4.79,0,8.12,1.33,10.39,3.33a13.18,13.18,0,0,1,4.13,7.32c.93,2.93.93,6.39.27,10.52l-2.93,13.45H487.83l2.93-13.45c.53-2.53.27-4.66-.93-6.12a3.84,3.84,0,0,0-3.06-1.07c-2.53,0-4.13,1.86-5.19,3.6a26.54,26.54,0,0,0-1.33,3.59L468,349.83c-.4,2.53-.13,4.66.93,6.13a3,3,0,0,0,2.53,1.07,6,6,0,0,0,5.73-3.6,17.46,17.46,0,0,0,1.33-3.6l2.8-13.45Z" transform="translate(-86.03 -248.52)"/><path class="cls-3" d="M517.11,272.07h14.38l-20.77,97.87H496.34Z" transform="translate(-86.03 -248.52)"/><path class="cls-3" d="M517.37,369.93l35.55-97.87H570.5l-6,97.87h-14L552,350H538.15l-6.79,20Zm38.35-66,.13-2.53h-.8l-.93,2.53-10.65,30.89h9.85Z" transform="translate(-86.03 -248.52)"/><path class="cls-3" d="M591.93,272.07h14.38l-18,84.55h19l-2.8,13.32H571.16Z" transform="translate(-86.03 -248.52)"/><path class="cls-3" d="M672.61,349.83A37,37,0,0,1,668,360.48a29,29,0,0,1-7.32,7.19A19.63,19.63,0,0,1,648.91,371c-4.66,0-8.12-1.07-10.52-3.33a12.63,12.63,0,0,1-4-7.19,21.93,21.93,0,0,1-.13-10.65l12.25-57.65A32.27,32.27,0,0,1,651,281.66a28.84,28.84,0,0,1,7.19-7.32A21.48,21.48,0,0,1,670.08,271c4.79,0,8.12,1.33,10.39,3.33a13.18,13.18,0,0,1,4.13,7.32c.93,2.93.93,6.39.27,10.52Zm-2.13-57.65c.53-2.66.27-4.66-.67-6.12a3.3,3.3,0,0,0-2.66-1.07c-2.53,0-4.13,1.86-5.06,3.6a14.29,14.29,0,0,0-1.2,3.59l-12.25,57.65c-.67,2.53-.4,4.66.67,6.13a3,3,0,0,0,2.53,1.07c2.53,0,4.13-1.6,5.06-3.6a17.22,17.22,0,0,0,1.33-3.6Z" transform="translate(-86.03 -248.52)"/><path class="cls-3" d="M729.86,286.85H710l-5.46,25.7h13.31l-3.06,14.78H701.5l-9.05,42.61H678.07l20.77-97.87h34.22Z" transform="translate(-86.03 -248.52)"/><path class="cls-3" d="M769.94,286.85H750.1l-5.46,25.7H758l-3.06,14.78H741.58l-9.05,42.61H718.14l20.77-97.87h34.22Z" transform="translate(-86.03 -248.52)"/><path class="cls-3" d="M779,272.07h32.89l-3.2,14.78H790.17l-5.46,25.7H798l-3.33,15.71H781.38l-5.73,26.9h18.51l-3.06,14.78H758.21Z" transform="translate(-86.03 -248.52)"/><path class="cls-3" d="M824.78,369.93l1.2-41.28h-3.86l-8.65,41.28H799.08l20.77-97.87h14.38c17.18,0,22.37,9.59,18.51,28.23-2.13,9.72-6.53,18.51-12.78,22.24l-.8,47.4Zm.27-54.59a10.85,10.85,0,0,0,7.19-2.13c2.53-2,5.06-5.46,6.52-12.38s.53-10.52-1.2-12.52-4.39-2-6.39-2Z" transform="translate(-86.03 -248.52)"/><path class="cls-5" d="M350.7,294.67c.67-3.2,1.33-6.79.93-9.59s-1.47-4.53-3.73-4.53c-3.73.13-5.73,4-6.92,9.72a18.52,18.52,0,0,0,1.33,10.52c1.47,3.73,3.2,7.59,5.19,11.72a100.54,100.54,0,0,1,6.13,14.91,29.74,29.74,0,0,1,.93,15.31c-1.47,6.52-3.59,12.52-7.72,17.18s-9.45,7.46-17.44,7.46c-9.19,0-13.72-3.46-15.45-8.79-2-5.33-.93-12.25.53-19.71l14.38-1.33c-.93,4.13-1.6,8.26-1.2,11.32s1.46,5.33,4.53,5.33c4.26,0,6.66-4.53,8.12-10.79.67-3.2,0-6.92-1.47-10.79-.4-.93-.8-2-1.2-2.93s-.8-2-1.2-2.93c-.93-2-2-4.13-3.06-6.39s-2.13-4.53-3.2-7.06a45.59,45.59,0,0,1-3.86-15.18,22.59,22.59,0,0,1,.53-7.86,31.83,31.83,0,0,1,7.59-15.45,21.72,21.72,0,0,1,16-7.46c8.92-.13,13,3.46,14.78,8.65s1.06,11.85-.13,17.31Z" transform="translate(-86.03 -248.52)"/><path class="cls-5" d="M378.12,268.44H392.5c6.26,0,12.12,1.47,16,6.13s5.59,12,3.06,23.17-7.19,18.37-12.92,23A29.08,29.08,0,0,1,380,327.16l-8.25,39.15H357.35ZM383,312.51c4.39,0,7.46-.8,9.45-3.06s3.2-5.73,4.39-11.19,1.6-9.19.53-11.72c-1.07-2.26-3.73-3.46-8.12-3.46Z" transform="translate(-86.03 -248.52)"/><path class="cls-5" d="M425,268.44h32.89l-3.2,14.78H436.17l-5.46,25.7H444l-3.33,15.71H427.38l-5.73,26.9h18.51L437.1,366.3H404.21Z" transform="translate(-86.03 -248.52)"/><path class="cls-5" d="M489.56,332.75l-2.8,13.45a37,37,0,0,1-4.66,10.65,29,29,0,0,1-7.32,7.19,19.63,19.63,0,0,1-11.72,3.33c-4.66,0-8.12-1.07-10.52-3.33a12.62,12.62,0,0,1-4-7.19,21.93,21.93,0,0,1-.13-10.65l12.25-57.65A32.27,32.27,0,0,1,465.19,278a28.84,28.84,0,0,1,7.19-7.32,21.48,21.48,0,0,1,11.85-3.33c4.79,0,8.12,1.33,10.39,3.33a13.18,13.18,0,0,1,4.13,7.32c.93,2.93.93,6.39.27,10.52L496.08,302H482.63l2.93-13.45c.53-2.53.27-4.66-.93-6.12a3.84,3.84,0,0,0-3.06-1.07c-2.53,0-4.13,1.86-5.19,3.6a26.54,26.54,0,0,0-1.33,3.59L462.79,346.2c-.4,2.53-.13,4.66.93,6.13a3,3,0,0,0,2.53,1.07,6,6,0,0,0,5.73-3.6,17.46,17.46,0,0,0,1.33-3.6l2.8-13.45Z" transform="translate(-86.03 -248.52)"/><path class="cls-5" d="M511.92,268.44H526.3L505.53,366.3H491.15Z" transform="translate(-86.03 -248.52)"/><path class="cls-5" d="M512.18,366.3l35.55-97.87h17.58l-6,97.87h-14l1.46-20H533l-6.79,20Zm38.35-66,.13-2.53h-.8l-.93,2.53-10.65,30.89h9.85Z" transform="translate(-86.03 -248.52)"/><path class="cls-5" d="M586.74,268.44h14.38l-18,84.55h19l-2.8,13.32H566Z" transform="translate(-86.03 -248.52)"/><path class="cls-5" d="M667.42,346.2a37,37,0,0,1-4.66,10.65,29,29,0,0,1-7.32,7.19,19.63,19.63,0,0,1-11.72,3.33c-4.66,0-8.12-1.07-10.52-3.33a12.63,12.63,0,0,1-4-7.19,21.93,21.93,0,0,1-.13-10.65l12.25-57.65A32.27,32.27,0,0,1,645.85,278,28.84,28.84,0,0,1,653,270.7a21.48,21.48,0,0,1,11.85-3.33c4.79,0,8.12,1.33,10.39,3.33A13.18,13.18,0,0,1,679.4,278c.93,2.93.93,6.39.27,10.52Zm-2.13-57.65c.53-2.66.27-4.66-.67-6.12a3.3,3.3,0,0,0-2.66-1.07c-2.53,0-4.13,1.86-5.06,3.6a14.29,14.29,0,0,0-1.2,3.59L643.45,346.2c-.67,2.53-.4,4.66.67,6.13a3,3,0,0,0,2.53,1.07c2.53,0,4.13-1.6,5.06-3.6a17.22,17.22,0,0,0,1.33-3.6Z" transform="translate(-86.03 -248.52)"/><path class="cls-5" d="M724.67,283.22H704.83l-5.46,25.7h13.31l-3.06,14.78H696.31l-9.05,42.61H672.87l20.77-97.87h34.22Z" transform="translate(-86.03 -248.52)"/><path class="cls-5" d="M764.74,283.22H744.9l-5.46,25.7h13.31l-3.06,14.78H736.38l-9.05,42.61H712.95l20.77-97.87h34.22Z" transform="translate(-86.03 -248.52)"/><path class="cls-5" d="M773.79,268.44h32.89l-3.2,14.78H785l-5.46,25.7h13.31l-3.33,15.71H776.19l-5.73,26.9H789l-3.06,14.78H753Z" transform="translate(-86.03 -248.52)"/><path class="cls-5" d="M819.59,366.3l1.2-41.28h-3.86l-8.65,41.28H793.89l20.77-97.87H829c17.18,0,22.37,9.59,18.51,28.23-2.13,9.72-6.53,18.51-12.78,22.24l-.8,47.4Zm.27-54.59a10.85,10.85,0,0,0,7.19-2.13c2.53-2,5.06-5.46,6.52-12.38s.53-10.52-1.2-12.52-4.39-2-6.39-2Z" transform="translate(-86.03 -248.52)"/><polygon class="cls-1" points="299.87 324.2 270.29 333.89 258.76 304.99 232.36 321.47 214.25 296.16 192.56 318.48 168.92 298.25 153.2 325.11 125.41 311.12 116.58 340.96 86.24 334.03 84.8 365.12 53.69 365.65 55.13 372.93 332.54 378.04 335.18 352.71 304.14 355.03 299.87 324.2"/><polygon id="_Path_" data-name="&lt;Path&gt;" class="cls-5" points="166.9 658.08 140.5 674.56 128.97 645.65 99.4 655.34 95.12 624.51 64.08 626.84 67.31 595.88 36.62 590.72 47.16 561.43 18.6 549.07 35.84 523.16 11.06 504.32 34 483.29 14.46 459.07 41.77 444.14 28.59 415.95 58.67 407.98 52.62 377.46 83.74 376.93 85.17 345.84 115.51 352.77 124.34 322.93 152.14 336.92 167.85 310.05 191.5 330.29 213.18 307.97 231.29 333.28 257.69 316.8 269.23 345.7 298.8 336.01 303.08 366.84 334.11 364.52 330.89 395.47 361.58 400.64 351.04 429.92 379.6 442.28 362.36 468.19 387.13 487.03 364.19 508.06 383.74 532.28 356.43 547.21 369.61 575.4 339.53 583.37 345.58 613.89 314.46 614.43 313.03 645.51 282.69 638.58 273.86 668.43 246.06 654.44 230.35 681.3 206.7 661.06 185.01 683.38 166.9 658.08"/><polygon id="_Path_2" data-name="&lt;Path&gt;" class="cls-6" points="283.74 360.13 287.37 386.3 313.72 384.33 310.98 410.61 337.03 414.99 328.09 439.85 352.33 450.35 337.7 472.34 358.73 488.34 339.25 506.19 355.85 526.75 332.67 539.43 343.85 563.36 318.31 570.12 323.45 596.04 297.03 596.49 295.82 622.88 270.06 617 262.57 642.33 238.97 630.45 225.63 653.26 205.55 636.08 187.14 655.02 171.77 633.54 149.35 647.53 139.57 623 114.46 631.22 110.83 605.05 84.48 607.02 87.22 580.75 61.16 576.36 70.11 551.5 45.87 541 60.5 519.01 39.47 503.01 58.94 485.16 42.35 464.6 65.53 451.92 54.34 427.99 79.88 421.23 74.75 395.31 101.16 394.86 102.38 368.47 128.14 374.36 135.63 349.02 159.23 360.9 172.57 338.1 192.64 355.27 211.06 336.33 226.43 357.81 248.84 343.82 258.63 368.36 283.74 360.13"/><path class="cls-7" d="M215.15,693.07H208l-5.78,27.19h-9.18l13.26-62.46h9.18L210,683.64h7.14l5.52-25.83h9.18l-13.25,62.46h-9.18Z" transform="translate(-86.03 -248.52)"/><path class="cls-7" d="M248.46,673.78H257l-9.86,46.48H238.6l.76-3.91a7.46,7.46,0,0,0-1.1.85,29.83,29.83,0,0,1-4.33,3.06,7.22,7.22,0,0,1-2.46.68,4.26,4.26,0,0,1-4.25-3.14,10.81,10.81,0,0,1-.25-5.95L235,673.78h8.58l-7.82,36.79c-.42,1.78.59,2,1.62,2a3.27,3.27,0,0,0,2.21-1.1,6.57,6.57,0,0,0,1-1.1Z" transform="translate(-86.03 -248.52)"/><path class="cls-7" d="M279.13,682.62a6.51,6.51,0,0,0-2.29-.34,7.14,7.14,0,0,0-4.67,1.44,6.37,6.37,0,0,0-2.8,4.25l-6.8,32.29H254l9.86-46.48h8.58l-1.1,5.18a10.25,10.25,0,0,1,2.72-3.4,11.1,11.1,0,0,1,7.05-2.46Z" transform="translate(-86.03 -248.52)"/><path class="cls-7" d="M300,682.62a6.51,6.51,0,0,0-2.29-.34,7.14,7.14,0,0,0-4.67,1.44,6.37,6.37,0,0,0-2.8,4.25l-6.8,32.29h-8.58l9.86-46.48h8.58l-1.1,5.18a10.25,10.25,0,0,1,2.72-3.4A11.1,11.1,0,0,1,302,673.1Z" transform="translate(-86.03 -248.52)"/><path class="cls-7" d="M291.87,729.1c.08.09.25.09.51.09a6.23,6.23,0,0,0,4-.77,10.22,10.22,0,0,0,3.74-4.25,8.2,8.2,0,0,0,.85-2.55l2.29-47.84h8.41L309,702.33l-.34,2.38H309l.68-2.38,9.52-28.55h8.41l-18.86,50a23.9,23.9,0,0,1-5.69,9c-2.63,2.46-5.61,4.16-9,4.16h-1c-.68,0-1.7-.08-2.72-.17Z" transform="translate(-86.03 -248.52)"/><path class="cls-7" d="M357.81,662.31l-2.38,11.47h5.86l-1.7,7.73h-5.86l-4.84,23.11a22.21,22.21,0,0,0-.76,4.84c.08,1.61.42,2.8,1.78,2.8a17.93,17.93,0,0,0,2.21-.17,1.09,1.09,0,0,1,.51-.08,1.08,1.08,0,0,0,.51-.08l-1.78,8.41a5.41,5.41,0,0,0-.59.17c-.25.08-.51.08-.76.17a17.5,17.5,0,0,1-3.32.25c-5.1,0-6.8-2.46-7.39-5.78s.25-7.14.85-9.86l5-23.79h-4.33l1.7-7.73h4.33l2.38-11.47Z" transform="translate(-86.03 -248.52)"/><path class="cls-7" d="M379.65,709c-1.28,4.5-3.14,7.65-6.8,10.11a11.28,11.28,0,0,1-6.8,1.87,8.45,8.45,0,0,1-5.95-2,7.19,7.19,0,0,1-2.38-4.16,16.41,16.41,0,0,1-.08-6.12l5-23.37c1.27-4.5,3.14-7.73,6.8-10.37a10.68,10.68,0,0,1,6.71-1.87,9.28,9.28,0,0,1,6,1.87,7.47,7.47,0,0,1,2.38,4.16,13.88,13.88,0,0,1,.08,5.95Zm-3.06-23.62a5.3,5.3,0,0,0-.25-4.08,2.11,2.11,0,0,0-1.7-.68,3.48,3.48,0,0,0-3.14,2.38,5.25,5.25,0,0,0-.76,2.38l-5,23.37a5.21,5.21,0,0,0,.25,4,2.11,2.11,0,0,0,1.7.68,3.4,3.4,0,0,0,3.14-2.29,5.25,5.25,0,0,0,.76-2.38Z" transform="translate(-86.03 -248.52)"/><path class="cls-7" d="M255.13,775.74,245,823.41c-.59,2.38-1.36,6.12-3.14,9.18a11,11,0,0,1-9.77,5.61,11.48,11.48,0,0,1-2.89-.25c-.17-.09-.34-.09-.42-.17a.51.51,0,0,1-.34-.08l1.7-7.9a.51.51,0,0,0,.34.08.51.51,0,0,1,.34.08,10.41,10.41,0,0,0,1.62.17c1.36,0,2.29-1.19,2.89-2.63.25-.68.42-1.44.68-2.21.08-.42.17-.76.25-1.1a3,3,0,0,1,.17-.85l10.11-47.59Zm-5.18-16h8.58l-1.87,8.58h-8.58Z" transform="translate(-86.03 -248.52)"/><path class="cls-7" d="M275.69,810.92c-1.28,4.5-3.14,7.65-6.8,10.11a11.28,11.28,0,0,1-6.8,1.87,8.45,8.45,0,0,1-5.95-2,7.19,7.19,0,0,1-2.38-4.16,16.42,16.42,0,0,1-.08-6.12l5-23.37c1.27-4.5,3.14-7.73,6.8-10.37a10.68,10.68,0,0,1,6.71-1.87,9.28,9.28,0,0,1,6,1.87,7.47,7.47,0,0,1,2.38,4.16,13.88,13.88,0,0,1,.08,5.95Zm-3.06-23.62a5.3,5.3,0,0,0-.25-4.08,2.11,2.11,0,0,0-1.7-.68,3.48,3.48,0,0,0-3.14,2.38,5.25,5.25,0,0,0-.76,2.38l-5,23.37a5.21,5.21,0,0,0,.25,4,2.11,2.11,0,0,0,1.7.68,3.4,3.4,0,0,0,3.14-2.29,5.25,5.25,0,0,0,.76-2.38Z" transform="translate(-86.03 -248.52)"/><path class="cls-7" d="M279.34,822.22l9.86-46.48h8.58l-9.86,46.48Zm13.26-62.46h8.58l-1.87,8.58h-8.58Z" transform="translate(-86.03 -248.52)"/><path class="cls-7" d="M303.31,822.22h-8.58l9.86-46.48h8.58l-.85,3.91a5,5,0,0,0,1.19-.93q.89-.64,2-1.53c1.44-1.1,3.23-2.12,4.67-2.12a4.47,4.47,0,0,1,4.33,3.06,12,12,0,0,1,.25,6l-8.07,38.07h-8.58L316,785.43c.34-1.78-.59-2-1.62-2a3.46,3.46,0,0,0-2.29,1.1l-.51.51a3.69,3.69,0,0,0-.51.59Z" transform="translate(-86.03 -248.52)"/><path class="cls-7" d="M325.48,812.79h8.92l-2,9.43h-8.92Zm10.79-53h9.94l-12,45.63h-5.35Z" transform="translate(-86.03 -248.52)"/><path class="cls-5" d="M211.28,689.26h-7.14l-5.78,27.19h-9.18L202.44,654h9.18l-5.52,25.83h7.14L218.76,654h9.18l-13.25,62.46H205.5Z" transform="translate(-86.03 -248.52)"/><path class="cls-5" d="M244.59,670h8.58l-9.86,46.48h-8.58l.76-3.91a7.46,7.46,0,0,0-1.1.85,29.83,29.83,0,0,1-4.33,3.06,7.22,7.22,0,0,1-2.46.68,4.26,4.26,0,0,1-4.25-3.14,10.81,10.81,0,0,1-.25-5.95L231.16,670h8.58l-7.82,36.79c-.42,1.78.59,2,1.62,2a3.27,3.27,0,0,0,2.21-1.1,6.57,6.57,0,0,0,1-1.1Z" transform="translate(-86.03 -248.52)"/><path class="cls-5" d="M275.26,678.81a6.51,6.51,0,0,0-2.29-.34,7.14,7.14,0,0,0-4.67,1.44,6.37,6.37,0,0,0-2.8,4.25l-6.8,32.29h-8.58L260,670h8.58l-1.1,5.18a10.25,10.25,0,0,1,2.72-3.4,11.1,11.1,0,0,1,7.05-2.46Z" transform="translate(-86.03 -248.52)"/><path class="cls-5" d="M296.16,678.81a6.51,6.51,0,0,0-2.29-.34,7.14,7.14,0,0,0-4.67,1.44,6.37,6.37,0,0,0-2.8,4.25l-6.8,32.29H271L280.86,670h8.58l-1.1,5.18a10.25,10.25,0,0,1,2.72-3.4,11.1,11.1,0,0,1,7.05-2.46Z" transform="translate(-86.03 -248.52)"/><path class="cls-5" d="M288,725.29c.08.09.25.09.51.09a6.23,6.23,0,0,0,4-.77,10.22,10.22,0,0,0,3.74-4.25,8.2,8.2,0,0,0,.85-2.55L299.39,670h8.41l-2.72,28.55-.34,2.38h.34l.68-2.38L315.28,670h8.41l-18.86,50a23.9,23.9,0,0,1-5.69,9c-2.63,2.46-5.61,4.16-9,4.16h-1c-.68,0-1.7-.08-2.72-.17Z" transform="translate(-86.03 -248.52)"/><path class="cls-5" d="M353.94,658.5,351.56,670h5.86l-1.7,7.73h-5.86L345,700.82a22.21,22.21,0,0,0-.76,4.84c.08,1.61.42,2.8,1.78,2.8a17.93,17.93,0,0,0,2.21-.17,1.09,1.09,0,0,1,.51-.08,1.08,1.08,0,0,0,.51-.08l-1.78,8.41a5.41,5.41,0,0,0-.59.17c-.25.08-.51.08-.76.17a17.5,17.5,0,0,1-3.32.25c-5.1,0-6.8-2.46-7.39-5.78s.25-7.14.85-9.86l5-23.79h-4.33l1.7-7.73H343l2.38-11.47Z" transform="translate(-86.03 -248.52)"/><path class="cls-5" d="M375.77,705.15c-1.28,4.5-3.14,7.65-6.8,10.11a11.28,11.28,0,0,1-6.8,1.87,8.45,8.45,0,0,1-5.95-2,7.19,7.19,0,0,1-2.38-4.16,16.41,16.41,0,0,1-.08-6.12l5-23.37c1.27-4.5,3.14-7.73,6.8-10.37a10.68,10.68,0,0,1,6.71-1.87,9.28,9.28,0,0,1,6,1.87,7.47,7.47,0,0,1,2.38,4.16,13.88,13.88,0,0,1,.08,5.95Zm-3.06-23.62a5.3,5.3,0,0,0-.25-4.08,2.11,2.11,0,0,0-1.7-.68,3.48,3.48,0,0,0-3.14,2.38,5.25,5.25,0,0,0-.76,2.38l-5,23.37a5.21,5.21,0,0,0,.25,4,2.11,2.11,0,0,0,1.7.68,3.4,3.4,0,0,0,3.14-2.29,5.25,5.25,0,0,0,.76-2.38Z" transform="translate(-86.03 -248.52)"/><path class="cls-5" d="M251.26,771.94l-10.11,47.67c-.59,2.38-1.36,6.12-3.14,9.18a11,11,0,0,1-9.77,5.61,11.48,11.48,0,0,1-2.89-.25c-.17-.09-.34-.09-.42-.17a.51.51,0,0,1-.34-.08l1.7-7.9a.51.51,0,0,0,.34.08.51.51,0,0,1,.34.08,10.41,10.41,0,0,0,1.62.17c1.36,0,2.29-1.19,2.89-2.63.25-.68.42-1.44.68-2.21.08-.42.17-.76.25-1.1a3,3,0,0,1,.17-.85l10.11-47.59Zm-5.18-16h8.58l-1.87,8.58H244.2Z" transform="translate(-86.03 -248.52)"/><path class="cls-5" d="M271.82,807.12c-1.28,4.5-3.14,7.65-6.8,10.11a11.28,11.28,0,0,1-6.8,1.87,8.45,8.45,0,0,1-5.95-2A7.19,7.19,0,0,1,249.9,813a16.42,16.42,0,0,1-.08-6.12l5-23.37c1.27-4.5,3.14-7.73,6.8-10.37a10.68,10.68,0,0,1,6.71-1.87,9.28,9.28,0,0,1,6,1.87,7.47,7.47,0,0,1,2.38,4.16,13.88,13.88,0,0,1,.08,5.95Zm-3.06-23.62a5.3,5.3,0,0,0-.25-4.08,2.11,2.11,0,0,0-1.7-.68,3.48,3.48,0,0,0-3.14,2.38,5.25,5.25,0,0,0-.76,2.38l-5,23.37a5.21,5.21,0,0,0,.25,4,2.11,2.11,0,0,0,1.7.68,3.4,3.4,0,0,0,3.14-2.29,5.25,5.25,0,0,0,.76-2.38Z" transform="translate(-86.03 -248.52)"/><path class="cls-5" d="M275.47,818.42l9.86-46.48h8.58l-9.86,46.48ZM288.73,756h8.58l-1.87,8.58h-8.58Z" transform="translate(-86.03 -248.52)"/><path class="cls-5" d="M299.43,818.42h-8.58l9.86-46.48h8.58l-.85,3.91a5,5,0,0,0,1.19-.93q.89-.64,2-1.53c1.44-1.1,3.23-2.12,4.67-2.12a4.47,4.47,0,0,1,4.33,3.06,12,12,0,0,1,.25,6l-8.07,38.07h-8.58l7.82-36.79c.34-1.78-.59-2-1.62-2a3.46,3.46,0,0,0-2.29,1.1l-.51.51a3.69,3.69,0,0,0-.51.59Z" transform="translate(-86.03 -248.52)"/><path class="cls-5" d="M321.61,809h8.92l-2,9.43h-8.92Zm10.79-53h9.94l-12,45.63H325Z" transform="translate(-86.03 -248.52)"/><path class="cls-1" d="M176.17,461.26l3.24-15H221.5l-3.24,15H204.5l-17.8,84.17H172.13l17.8-84.17Z" transform="translate(-86.03 -248.52)"/><path class="cls-1" d="M219.74,545.43H206.12l21-99.15h13.62L234,477.85a7.81,7.81,0,0,0,1.89-1.48q1.42-1,3.24-2.43c2.29-1.75,5.13-3.37,7.42-3.37a7.1,7.1,0,0,1,6.88,4.86,19.07,19.07,0,0,1,.4,9.58l-12.81,60.43H227.43L239.84,487c.54-2.83-.95-3.24-2.56-3.24a5.5,5.5,0,0,0-3.64,1.75l-.81.81a5.82,5.82,0,0,0-.81.94Z" transform="translate(-86.03 -248.52)"/><path class="cls-1" d="M291.24,519l-1.75,8.5c-2,7.15-5.13,12.14-10.93,16.05-2.83,2-6.34,3-10.79,3-8.77,0-12.27-4.86-13.35-9.71a26.09,26.09,0,0,1-.14-9.71l8-37.1c2-7.15,5.26-12.27,11.06-16.46,2.56-2,6.2-3,10.66-3s7.42,1.21,9.58,3a11.86,11.86,0,0,1,3.78,6.61,22,22,0,0,1,.13,9.44L293,511H270.46L267,527.09a9.55,9.55,0,0,0,.81,6.34,3.35,3.35,0,0,0,2.7,1.08c2.56,0,4-1.62,5-3.64a9.59,9.59,0,0,0,1.35-3.78l1.76-8.09Zm-18.61-18.62h9.85L284.76,490c.54-2.83.54-4.86-.54-6.47a3.35,3.35,0,0,0-2.7-1.08c-2.56,0-4,1.75-5.13,3.78a14.61,14.61,0,0,0-1.49,3.78Z" transform="translate(-86.03 -248.52)"/><path class="cls-1" d="M334.94,485.67a10.36,10.36,0,0,0-3.64-.54,11.33,11.33,0,0,0-7.42,2.29,10.11,10.11,0,0,0-4.45,6.74l-10.79,51.26H295l15.65-73.79h13.63l-1.76,8.23a16.33,16.33,0,0,1,4.32-5.4,17.63,17.63,0,0,1,11.2-3.91Z" transform="translate(-86.03 -248.52)"/><path class="cls-1" d="M367.85,519l-1.75,8.5c-2,7.15-5.13,12.14-10.93,16.05-2.83,2-6.34,3-10.79,3-8.77,0-12.27-4.86-13.35-9.71a26.09,26.09,0,0,1-.14-9.71l8-37.1c2-7.15,5.26-12.27,11.06-16.46,2.56-2,6.2-3,10.66-3s7.42,1.21,9.58,3a11.86,11.86,0,0,1,3.78,6.61,22,22,0,0,1,.13,9.44L369.6,511H347.08l-3.51,16.05a9.55,9.55,0,0,0,.81,6.34,3.35,3.35,0,0,0,2.7,1.08c2.56,0,4-1.62,5-3.64a9.59,9.59,0,0,0,1.35-3.78l1.76-8.09Zm-18.61-18.62h9.85L361.38,490c.54-2.83.54-4.86-.54-6.47a3.35,3.35,0,0,0-2.7-1.08c-2.56,0-4,1.75-5.13,3.78a14.61,14.61,0,0,0-1.49,3.78Z" transform="translate(-86.03 -248.52)"/><path class="cls-1" d="M424.91,489.18a11.93,11.93,0,0,0,.54-4.45,2.59,2.59,0,0,0-2.83-2.29c-2.29,0-3.51,1.75-4.45,3.91-.4,1.08-.67,2.29-1.08,3.51-.14.68-.27,1.21-.4,1.75s-.14,1.21-.27,1.75H402.78l.54-3.1a27.62,27.62,0,0,1,8.23-13.89,21.69,21.69,0,0,1,14.3-5.8,13.23,13.23,0,0,1,10.66,4.72c2.56,3.1,3.51,7.15,2.43,12l-9.58,45.32a60.83,60.83,0,0,0-1.75,12.82H414.25c-.94-1.48-.4-5,0-5.93h-.94a21.89,21.89,0,0,1-4.72,4.45,14.18,14.18,0,0,1-7.69,2.56,7,7,0,0,1-6.07-3.37c-1.75-2.56-2.7-7.15-1.08-14.84a35.48,35.48,0,0,1,9.58-18.21,43.57,43.57,0,0,1,12.41-8.36c3.78-1.75,6.48-3,7.42-4.45Zm-4.32,20.64c-7.42,2.83-11.47,9.44-13,16.46a9.92,9.92,0,0,0-.27,4c.4,1.62.94,2.83,2.56,2.83,3.1,0,6.07-1.89,6.61-4.45Z" transform="translate(-86.03 -248.52)"/><path class="cls-1" d="M477.24,485.67a10.36,10.36,0,0,0-3.64-.54,11.33,11.33,0,0,0-7.42,2.29,10.11,10.11,0,0,0-4.45,6.74l-10.79,51.26H437.32L453,471.65h13.63l-1.76,8.23a16.33,16.33,0,0,1,4.32-5.4,17.63,17.63,0,0,1,11.2-3.91Z" transform="translate(-86.03 -248.52)"/><path class="cls-1" d="M510.15,519l-1.75,8.5c-2,7.15-5.13,12.14-10.93,16.05-2.83,2-6.34,3-10.79,3-8.77,0-12.27-4.86-13.35-9.71a26.09,26.09,0,0,1-.14-9.71l8-37.1c2-7.15,5.26-12.27,11.06-16.46,2.56-2,6.2-3,10.66-3s7.42,1.21,9.58,3a11.86,11.86,0,0,1,3.78,6.61,22,22,0,0,1,.13,9.44L511.91,511H489.38l-3.51,16.05a9.55,9.55,0,0,0,.81,6.34,3.35,3.35,0,0,0,2.7,1.08c2.56,0,4-1.62,5-3.64a9.59,9.59,0,0,0,1.35-3.78l1.76-8.09Zm-18.61-18.62h9.85L503.68,490c.54-2.83.54-4.86-.54-6.47a3.35,3.35,0,0,0-2.7-1.08c-2.56,0-4,1.75-5.13,3.78a14.61,14.61,0,0,0-1.49,3.78Z" transform="translate(-86.03 -248.52)"/><path class="cls-1" d="M547.38,467.73l2-9.31c6.34-1.21,10.52-4.32,13.76-7a37.74,37.74,0,0,0,4.32-5.13h8.77l-21,99.15H540.64l16.46-77.7Z" transform="translate(-86.03 -248.52)"/><path class="cls-1" d="M607.41,524.26c-.13.4-.4,1.35-.67,2.56a34,34,0,0,1-4.45,9.44A24.05,24.05,0,0,1,591.63,545a23.1,23.1,0,0,1-8.36,1.48c-6.34,0-10.25-2.16-12.41-5.26a17.63,17.63,0,0,1-3-10.12,24,24,0,0,1,.67-6.88l2.43-11.6a34.59,34.59,0,0,1,11.74-19.56c-3.64-4.45-4.32-11.33-2.83-18.21l1.75-8.36c.14-.67.67-2.16,1.35-4.45,1.35-4.59,5-10,10.66-13.89,2.83-2,6.48-3,11.06-3,9.17,0,12.68,4.72,14.17,9.71a27.73,27.73,0,0,1,.67,7.15,26.23,26.23,0,0,1-.67,4.45l-1.76,8.36a33.11,33.11,0,0,1-10.66,18.21c4.18,4.72,5,12,3.37,19.56Zm-12.95-5.8c1.21-5.94,1.75-10.39,2.16-13.22,0-2.83-1.21-4.32-3.64-4.32-5.26,0-5.93,5.26-7.15,10a117.66,117.66,0,0,0-2.83,14c-.54,4.32-.81,8.23,3.1,8.23,5,0,5.8-4.86,6.88-8.5A53.1,53.1,0,0,0,594.46,518.45Zm9-46.81A76.77,76.77,0,0,0,605,461.39c0-2.29-.95-3.37-3-3.37-3.24,0-4.32,3.51-5.4,7.42a78.36,78.36,0,0,0-2.83,12.68c-.68,4.18-1.76,8.5,2.16,8.5s4.86-4.45,5.93-8.23C602.28,476.5,602.82,474.21,603.5,471.65Z" transform="translate(-86.03 -248.52)"/><path class="cls-1" d="M648.28,471.65H661.9l-1.08,4.86a32,32,0,0,1,8.09-5,8,8,0,0,1,3.91-.94,7.45,7.45,0,0,1,7.15,4.86,19.07,19.07,0,0,1,.4,9.58l-10,47.08a24.26,24.26,0,0,1-4.45,9.44c-2.56,2.83-5.4,5-9.17,5-2.56,0-5-1.48-6.74-3-.94-.94-1.89-1.89-2.83-3l-6.34,30.22H627.24Zm1.35,57.6c-.4,2.16,1.08,4.45,3.1,4.45s4-1.89,4.59-4.45l8.77-41.41c.54-2.56-.68-4.45-2.7-4.45a5.67,5.67,0,0,0-5,4.45Z" transform="translate(-86.03 -248.52)"/><path class="cls-1" d="M677.82,545.43l21-99.15h13.62l-21,99.15Z" transform="translate(-86.03 -248.52)"/><path class="cls-1" d="M734.74,489.18a11.93,11.93,0,0,0,.54-4.45,2.59,2.59,0,0,0-2.83-2.29c-2.29,0-3.51,1.75-4.45,3.91-.4,1.08-.67,2.29-1.08,3.51-.14.68-.27,1.21-.4,1.75s-.14,1.21-.27,1.75H712.62l.54-3.1a27.62,27.62,0,0,1,8.23-13.89,21.69,21.69,0,0,1,14.3-5.8,13.23,13.23,0,0,1,10.66,4.72c2.56,3.1,3.51,7.15,2.43,12l-9.58,45.32a60.83,60.83,0,0,0-1.75,12.82H724.09c-.94-1.48-.4-5,0-5.93h-.94a21.89,21.89,0,0,1-4.72,4.45,14.18,14.18,0,0,1-7.69,2.56,7,7,0,0,1-6.07-3.37c-1.75-2.56-2.7-7.15-1.08-14.84a35.48,35.48,0,0,1,9.58-18.21,43.57,43.57,0,0,1,12.41-8.36c3.78-1.75,6.48-3,7.42-4.45Zm-4.32,20.64c-7.42,2.83-11.47,9.44-13,16.46a9.92,9.92,0,0,0-.27,4c.4,1.62.94,2.83,2.56,2.83,3.1,0,6.07-1.89,6.61-4.45Z" transform="translate(-86.03 -248.52)"/><path class="cls-1" d="M763.2,528.44c-.54,2.7-1.08,5.93,2.56,5.93,3.1,0,4.18-1.48,5.13-5.93l2.16-10.25h13.62l-1.48,7.15c-1.75,8.23-4.32,13.49-8,16.73s-8.23,4.45-14,4.45c-4.86,0-8.9-1.35-11.47-4.72-2.29-3.37-3.1-8.9-1.35-17.13l6.88-32.24c1.75-8.23,4.86-13.76,8.63-17.13a19.56,19.56,0,0,1,13.35-4.72c5.8,0,10,1.21,12.14,4.45s2.7,8.5.94,16.73l-1.21,5.8H777.5l1.89-8.9c.94-4.45.4-5.94-2.7-5.94-3.64,0-4.45,3.24-5,5.94Z" transform="translate(-86.03 -248.52)"/><path class="cls-1" d="M829.3,519l-1.75,8.5c-2,7.15-5.13,12.14-10.93,16.05-2.83,2-6.34,3-10.79,3-8.77,0-12.27-4.86-13.35-9.71a26.09,26.09,0,0,1-.14-9.71l8-37.1c2-7.15,5.26-12.27,11.06-16.46,2.56-2,6.2-3,10.66-3s7.42,1.21,9.58,3a11.86,11.86,0,0,1,3.78,6.61,22,22,0,0,1,.13,9.44L831.05,511H808.53L805,527.09a9.55,9.55,0,0,0,.81,6.34,3.35,3.35,0,0,0,2.7,1.08c2.56,0,4-1.62,5-3.64a9.59,9.59,0,0,0,1.35-3.78l1.76-8.09Zm-18.61-18.62h9.85L822.82,490c.54-2.83.54-4.86-.54-6.47a3.35,3.35,0,0,0-2.7-1.08c-2.56,0-4,1.75-5.13,3.78A14.61,14.61,0,0,0,813,490Z" transform="translate(-86.03 -248.52)"/><path class="cls-1" d="M865.32,490.53a20.31,20.31,0,0,0,.67-5.67c-.4-1.62-1.08-3-3.24-3-1.76,0-3.1,1.35-4,3a17.85,17.85,0,0,0-2,5.67c-.54,2.29.27,4.72,1.48,6.88a39.56,39.56,0,0,0,4.59,6.34c2.29,2.83,5,6.07,6.47,9.71a22.34,22.34,0,0,1,1.35,12.82c-1.08,4.72-3.1,9.71-6.74,13.49a19.86,19.86,0,0,1-15,6.74c-8.23,0-12.28-3.64-14-8.36s-1.21-10.25-.27-14.16h12.68a20.31,20.31,0,0,0-.4,7c.54,2.29,1.62,4.18,4.45,4.18,3.91,0,5.67-4.59,6.61-8.9s-2.43-8.9-5.8-13.08c-2.56-3.1-5-5.94-6.74-9.58A20.52,20.52,0,0,1,844,490.53a30.39,30.39,0,0,1,6.2-13.22,19.44,19.44,0,0,1,14.57-6.74c8.1-.13,11.87,2.83,13.36,6.74s.81,9-.14,13.22Z" transform="translate(-86.03 -248.52)"/><path class="cls-1" d="M895.39,545.43l21-99.15h13.62l-21,99.15Z" transform="translate(-86.03 -248.52)"/><path class="cls-1" d="M959.47,519l-1.75,8.5c-2,7.15-5.13,12.14-10.93,16.05-2.83,2-6.34,3-10.79,3-8.77,0-12.27-4.86-13.35-9.71a26.09,26.09,0,0,1-.14-9.71l8-37.1c2-7.15,5.26-12.27,11.06-16.46,2.56-2,6.2-3,10.66-3s7.42,1.21,9.58,3a11.86,11.86,0,0,1,3.78,6.61,22,22,0,0,1,.13,9.44L961.22,511H938.69l-3.51,16.05a9.55,9.55,0,0,0,.81,6.34,3.35,3.35,0,0,0,2.7,1.08c2.56,0,4-1.62,5-3.64a9.59,9.59,0,0,0,1.35-3.78l1.76-8.09Zm-18.61-18.62h9.85L953,490c.54-2.83.54-4.86-.54-6.47a3.35,3.35,0,0,0-2.7-1.08c-2.56,0-4,1.75-5.13,3.78a14.61,14.61,0,0,0-1.49,3.78Z" transform="translate(-86.03 -248.52)"/><path class="cls-1" d="M966.08,545.43l13-61.51h-6.88l2.7-12.28h6.88l.4-2c.95-3.78,2-9.85,5.13-14.84s7.55-9,15.65-9a13.2,13.2,0,0,1,4.59.54l1.48.4-2.43,11.74a.8.8,0,0,0-.54-.14,1,1,0,0,1-.67-.13,20.21,20.21,0,0,0-2.83-.27c-2.29,0-3.78,2-4.86,4.59a22.93,22.93,0,0,0-1.21,4,16.82,16.82,0,0,1-.4,1.75c-.13.54-.13,1.08-.27,1.48l-.4,1.89h6.88l-2.7,12.28h-6.88L979.7,545.43Z" transform="translate(-86.03 -248.52)"/><path class="cls-1" d="M1030.42,453.43l-3.78,18.21H1036l-2.7,12.28h-9.31l-7.69,36.69a35.16,35.16,0,0,0-1.21,7.69c.14,2.56.67,4.45,2.83,4.45a28.51,28.51,0,0,0,3.51-.27,1.72,1.72,0,0,1,.81-.13,1.7,1.7,0,0,0,.81-.14l-2.83,13.35a8.8,8.8,0,0,0-.94.27c-.4.13-.81.13-1.21.27a27.69,27.69,0,0,1-5.26.4c-8.09,0-10.79-3.91-11.74-9.17s.4-11.33,1.35-15.65l8-37.77h-6.88l2.7-12.28H1013l3.78-18.21Z" transform="translate(-86.03 -248.52)"/><path class="cls-1" d="M1031,530.46h14.16l-3.1,15h-14.16Zm17.13-84.18h15.78l-19,72.44h-8.5Z" transform="translate(-86.03 -248.52)"/><path class="cls-5" d="M172.28,457.1l3.24-15h42.09l-3.24,15H200.61l-17.8,84.17H168.24L186,457.1Z" transform="translate(-86.03 -248.52)"/><path class="cls-5" d="M215.85,541.27H202.23l21-99.15h13.62l-6.74,31.57A7.81,7.81,0,0,0,232,472.2q1.42-1,3.24-2.43c2.29-1.75,5.13-3.37,7.42-3.37a7.1,7.1,0,0,1,6.88,4.86,19.07,19.07,0,0,1,.4,9.58l-12.81,60.43H223.54L236,482.86c.54-2.83-.95-3.24-2.56-3.24a5.5,5.5,0,0,0-3.64,1.75l-.81.81a5.82,5.82,0,0,0-.81.94Z" transform="translate(-86.03 -248.52)"/><path class="cls-5" d="M287.34,514.83l-1.75,8.5c-2,7.15-5.13,12.14-10.93,16.05-2.83,2-6.34,3-10.79,3-8.77,0-12.27-4.86-13.35-9.71a26.09,26.09,0,0,1-.14-9.71l8-37.1c2-7.15,5.26-12.27,11.06-16.46,2.56-2,6.2-3,10.66-3s7.42,1.21,9.58,3a11.86,11.86,0,0,1,3.78,6.61,22,22,0,0,1,.13,9.44l-4.45,21.45H266.57l-3.51,16.05a9.55,9.55,0,0,0,.81,6.34,3.35,3.35,0,0,0,2.7,1.08c2.56,0,4-1.62,5-3.64a9.59,9.59,0,0,0,1.35-3.78l1.76-8.09Zm-18.61-18.62h9.85l2.29-10.39c.54-2.83.54-4.86-.54-6.47a3.35,3.35,0,0,0-2.7-1.08c-2.56,0-4,1.75-5.13,3.78a14.61,14.61,0,0,0-1.49,3.78Z" transform="translate(-86.03 -248.52)"/><path class="cls-5" d="M331,481.51a10.36,10.36,0,0,0-3.64-.54,11.33,11.33,0,0,0-7.42,2.29,10.11,10.11,0,0,0-4.45,6.74l-10.79,51.26H291.12l15.65-73.79h13.63l-1.76,8.23a16.33,16.33,0,0,1,4.32-5.4,17.63,17.63,0,0,1,11.2-3.91Z" transform="translate(-86.03 -248.52)"/><path class="cls-5" d="M364,514.83l-1.75,8.5c-2,7.15-5.13,12.14-10.93,16.05-2.83,2-6.34,3-10.79,3-8.77,0-12.27-4.86-13.35-9.71a26.09,26.09,0,0,1-.14-9.71l8-37.1c2-7.15,5.26-12.27,11.06-16.46,2.56-2,6.2-3,10.66-3s7.42,1.21,9.58,3A11.86,11.86,0,0,1,370,476a22,22,0,0,1,.13,9.44l-4.45,21.45H343.18l-3.51,16.05a9.55,9.55,0,0,0,.81,6.34,3.35,3.35,0,0,0,2.7,1.08c2.56,0,4-1.62,5-3.64a9.59,9.59,0,0,0,1.35-3.78l1.76-8.09Zm-18.61-18.62h9.85l2.29-10.39c.54-2.83.54-4.86-.54-6.47a3.35,3.35,0,0,0-2.7-1.08c-2.56,0-4,1.75-5.13,3.78a14.61,14.61,0,0,0-1.49,3.78Z" transform="translate(-86.03 -248.52)"/><path class="cls-5" d="M421,485a11.93,11.93,0,0,0,.54-4.45,2.59,2.59,0,0,0-2.83-2.29c-2.29,0-3.51,1.75-4.45,3.91-.4,1.08-.67,2.29-1.08,3.51-.14.68-.27,1.21-.4,1.75s-.14,1.21-.27,1.75H398.89l.54-3.1a27.62,27.62,0,0,1,8.23-13.89,21.69,21.69,0,0,1,14.3-5.8,13.23,13.23,0,0,1,10.66,4.72c2.56,3.1,3.51,7.15,2.43,12l-9.58,45.32a60.83,60.83,0,0,0-1.75,12.82H410.36c-.94-1.48-.4-5,0-5.93h-.94a21.89,21.89,0,0,1-4.72,4.45,14.18,14.18,0,0,1-7.69,2.56,7,7,0,0,1-6.07-3.37c-1.75-2.56-2.7-7.15-1.08-14.84a35.48,35.48,0,0,1,9.58-18.21,43.57,43.57,0,0,1,12.41-8.36c3.78-1.75,6.48-3,7.42-4.45Zm-4.32,20.64c-7.42,2.83-11.47,9.44-13,16.46a9.92,9.92,0,0,0-.27,4c.4,1.62.94,2.83,2.56,2.83,3.1,0,6.07-1.89,6.61-4.45Z" transform="translate(-86.03 -248.52)"/><path class="cls-5" d="M473.35,481.51a10.36,10.36,0,0,0-3.64-.54,11.33,11.33,0,0,0-7.42,2.29,10.11,10.11,0,0,0-4.45,6.74L447,541.27H433.42l15.65-73.79H462.7l-1.76,8.23a16.33,16.33,0,0,1,4.32-5.4,17.63,17.63,0,0,1,11.2-3.91Z" transform="translate(-86.03 -248.52)"/><path class="cls-5" d="M506.26,514.83l-1.75,8.5c-2,7.15-5.13,12.14-10.93,16.05-2.83,2-6.34,3-10.79,3-8.77,0-12.27-4.86-13.35-9.71a26.09,26.09,0,0,1-.14-9.71l8-37.1c2-7.15,5.26-12.27,11.06-16.46,2.56-2,6.2-3,10.66-3s7.42,1.21,9.58,3a11.86,11.86,0,0,1,3.78,6.61,22,22,0,0,1,.13,9.44L508,506.87H485.49L482,522.92a9.55,9.55,0,0,0,.81,6.34,3.35,3.35,0,0,0,2.7,1.08c2.56,0,4-1.62,5-3.64a9.59,9.59,0,0,0,1.35-3.78l1.76-8.09Zm-18.61-18.62h9.85l2.29-10.39c.54-2.83.54-4.86-.54-6.47a3.35,3.35,0,0,0-2.7-1.08c-2.56,0-4,1.75-5.13,3.78a14.61,14.61,0,0,0-1.49,3.78Z" transform="translate(-86.03 -248.52)"/><path class="cls-5" d="M543.49,463.57l2-9.31c6.34-1.21,10.52-4.32,13.76-7a37.74,37.74,0,0,0,4.32-5.13h8.77l-21,99.15H536.75l16.46-77.7Z" transform="translate(-86.03 -248.52)"/><path class="cls-5" d="M603.52,520.09c-.13.4-.4,1.35-.67,2.56a34,34,0,0,1-4.45,9.44,24.05,24.05,0,0,1-10.66,8.77,23.1,23.1,0,0,1-8.36,1.48c-6.34,0-10.25-2.16-12.41-5.26A17.63,17.63,0,0,1,564,527a24,24,0,0,1,.67-6.88l2.43-11.6a34.59,34.59,0,0,1,11.74-19.56c-3.64-4.45-4.32-11.33-2.83-18.21l1.75-8.36c.14-.67.67-2.16,1.35-4.45,1.35-4.59,5-10,10.66-13.89,2.83-2,6.48-3,11.06-3,9.17,0,12.68,4.72,14.17,9.71a27.73,27.73,0,0,1,.67,7.15,26.23,26.23,0,0,1-.67,4.45l-1.76,8.36a33.11,33.11,0,0,1-10.66,18.21c4.18,4.72,5,12,3.37,19.56Zm-12.95-5.8c1.21-5.94,1.75-10.39,2.16-13.22,0-2.83-1.21-4.32-3.64-4.32-5.26,0-5.93,5.26-7.15,10a117.66,117.66,0,0,0-2.83,14c-.54,4.32-.81,8.23,3.1,8.23,5,0,5.8-4.86,6.88-8.5A53.1,53.1,0,0,0,590.57,514.29Zm9-46.81a76.77,76.77,0,0,0,1.48-10.25c0-2.29-.95-3.37-3-3.37-3.24,0-4.32,3.51-5.4,7.42A78.36,78.36,0,0,0,589.89,474c-.68,4.18-1.76,8.5,2.16,8.5s4.86-4.45,5.93-8.23C598.39,472.34,598.93,470,599.61,467.48Z" transform="translate(-86.03 -248.52)"/><path class="cls-5" d="M644.39,467.48H658l-1.08,4.86a32,32,0,0,1,8.09-5,8,8,0,0,1,3.91-.94,7.45,7.45,0,0,1,7.15,4.86,19.07,19.07,0,0,1,.4,9.58l-10,47.08a24.26,24.26,0,0,1-4.45,9.44c-2.56,2.83-5.4,5-9.17,5-2.56,0-5-1.48-6.74-3-.94-.94-1.89-1.89-2.83-3L637,566.63H623.34Zm1.35,57.6c-.4,2.16,1.08,4.45,3.1,4.45s4-1.89,4.59-4.45l8.77-41.41c.54-2.56-.68-4.45-2.7-4.45a5.67,5.67,0,0,0-5,4.45Z" transform="translate(-86.03 -248.52)"/><path class="cls-5" d="M673.93,541.27l21-99.15h13.62l-21,99.15Z" transform="translate(-86.03 -248.52)"/><path class="cls-5" d="M730.85,485a11.93,11.93,0,0,0,.54-4.45,2.59,2.59,0,0,0-2.83-2.29c-2.29,0-3.51,1.75-4.45,3.91-.4,1.08-.67,2.29-1.08,3.51-.14.68-.27,1.21-.4,1.75s-.14,1.21-.27,1.75H708.73l.54-3.1a27.62,27.62,0,0,1,8.23-13.89,21.69,21.69,0,0,1,14.3-5.8,13.23,13.23,0,0,1,10.66,4.72c2.56,3.1,3.51,7.15,2.43,12l-9.58,45.32a60.83,60.83,0,0,0-1.75,12.82H720.19c-.94-1.48-.4-5,0-5.93h-.94a21.89,21.89,0,0,1-4.72,4.45,14.18,14.18,0,0,1-7.69,2.56,7,7,0,0,1-6.07-3.37c-1.75-2.56-2.7-7.15-1.08-14.84a35.48,35.48,0,0,1,9.58-18.21,43.57,43.57,0,0,1,12.41-8.36c3.78-1.75,6.48-3,7.42-4.45Zm-4.32,20.64c-7.42,2.83-11.47,9.44-13,16.46a9.92,9.92,0,0,0-.27,4c.4,1.62.94,2.83,2.56,2.83,3.1,0,6.07-1.89,6.61-4.45Z" transform="translate(-86.03 -248.52)"/><path class="cls-5" d="M759.31,524.27c-.54,2.7-1.08,5.93,2.56,5.93,3.1,0,4.18-1.48,5.13-5.93L769.16,514h13.62l-1.48,7.15c-1.75,8.23-4.32,13.49-8,16.73s-8.23,4.45-14,4.45c-4.86,0-8.9-1.35-11.47-4.72-2.29-3.37-3.1-8.9-1.35-17.13l6.88-32.24c1.75-8.23,4.86-13.76,8.63-17.13a19.56,19.56,0,0,1,13.35-4.72c5.8,0,10,1.21,12.14,4.45s2.7,8.5.94,16.73l-1.21,5.8H773.61l1.89-8.9c.94-4.45.4-5.94-2.7-5.94-3.64,0-4.45,3.24-5,5.94Z" transform="translate(-86.03 -248.52)"/><path class="cls-5" d="M825.41,514.83l-1.75,8.5c-2,7.15-5.13,12.14-10.93,16.05-2.83,2-6.34,3-10.79,3-8.77,0-12.27-4.86-13.35-9.71a26.09,26.09,0,0,1-.14-9.71l8-37.1c2-7.15,5.26-12.27,11.06-16.46,2.56-2,6.2-3,10.66-3s7.42,1.21,9.58,3a11.86,11.86,0,0,1,3.78,6.61,22,22,0,0,1,.13,9.44l-4.45,21.45H804.63l-3.51,16.05a9.55,9.55,0,0,0,.81,6.34,3.35,3.35,0,0,0,2.7,1.08c2.56,0,4-1.62,5-3.64a9.59,9.59,0,0,0,1.35-3.78l1.76-8.09Zm-18.61-18.62h9.85l2.29-10.39c.54-2.83.54-4.86-.54-6.47a3.35,3.35,0,0,0-2.7-1.08c-2.56,0-4,1.75-5.13,3.78a14.61,14.61,0,0,0-1.49,3.78Z" transform="translate(-86.03 -248.52)"/><path class="cls-5" d="M861.42,486.37a20.31,20.31,0,0,0,.67-5.67c-.4-1.62-1.08-3-3.24-3-1.76,0-3.1,1.35-4,3a17.85,17.85,0,0,0-2,5.67c-.54,2.29.27,4.72,1.48,6.88a39.56,39.56,0,0,0,4.59,6.34c2.29,2.83,5,6.07,6.47,9.71a22.34,22.34,0,0,1,1.35,12.82c-1.08,4.72-3.1,9.71-6.74,13.49a19.86,19.86,0,0,1-15,6.74c-8.23,0-12.28-3.64-14-8.36s-1.21-10.25-.27-14.16h12.68a20.31,20.31,0,0,0-.4,7c.54,2.29,1.62,4.18,4.45,4.18,3.91,0,5.67-4.59,6.61-8.9s-2.43-8.9-5.8-13.08c-2.56-3.1-5-5.94-6.74-9.58a20.52,20.52,0,0,1-1.35-13.08,30.39,30.39,0,0,1,6.2-13.22,19.44,19.44,0,0,1,14.57-6.74c8.1-.13,11.87,2.83,13.36,6.74s.81,9-.14,13.22Z" transform="translate(-86.03 -248.52)"/><path class="cls-5" d="M891.5,541.27l21-99.15h13.62l-21,99.15Z" transform="translate(-86.03 -248.52)"/><path class="cls-5" d="M955.58,514.83l-1.75,8.5c-2,7.15-5.13,12.14-10.93,16.05-2.83,2-6.34,3-10.79,3-8.77,0-12.27-4.86-13.35-9.71a26.09,26.09,0,0,1-.14-9.71l8-37.1c2-7.15,5.26-12.27,11.06-16.46,2.56-2,6.2-3,10.66-3s7.42,1.21,9.58,3a11.86,11.86,0,0,1,3.78,6.61,22,22,0,0,1,.13,9.44l-4.45,21.45H934.8l-3.51,16.05a9.55,9.55,0,0,0,.81,6.34,3.35,3.35,0,0,0,2.7,1.08c2.56,0,4-1.62,5-3.64a9.59,9.59,0,0,0,1.35-3.78l1.76-8.09ZM937,496.21h9.85l2.29-10.39c.54-2.83.54-4.86-.54-6.47a3.35,3.35,0,0,0-2.7-1.08c-2.56,0-4,1.75-5.13,3.78a14.61,14.61,0,0,0-1.49,3.78Z" transform="translate(-86.03 -248.52)"/><path class="cls-5" d="M962.18,541.27l13-61.51h-6.88l2.7-12.28h6.88l.4-2c.95-3.78,2-9.85,5.13-14.84s7.55-9,15.65-9a13.2,13.2,0,0,1,4.59.54l1.48.4-2.43,11.74a.8.8,0,0,0-.54-.14,1,1,0,0,1-.67-.13,20.21,20.21,0,0,0-2.83-.27c-2.29,0-3.78,2-4.86,4.59a22.93,22.93,0,0,0-1.21,4,16.82,16.82,0,0,1-.4,1.75c-.13.54-.13,1.08-.27,1.48l-.4,1.89h6.88l-2.7,12.28h-6.88l-12.95,61.51Z" transform="translate(-86.03 -248.52)"/><path class="cls-5" d="M1026.53,449.27l-3.78,18.21h9.31l-2.7,12.28h-9.31l-7.69,36.69a35.16,35.16,0,0,0-1.21,7.69c.14,2.56.67,4.45,2.83,4.45a28.51,28.51,0,0,0,3.51-.27,1.72,1.72,0,0,1,.81-.13,1.7,1.7,0,0,0,.81-.14l-2.83,13.35a8.8,8.8,0,0,0-.94.27c-.4.13-.81.13-1.21.27a27.69,27.69,0,0,1-5.26.4c-8.09,0-10.79-3.91-11.74-9.17s.4-11.33,1.35-15.65l8-37.77h-6.88l2.7-12.28h6.88l3.78-18.21Z" transform="translate(-86.03 -248.52)"/><path class="cls-5" d="M1027.07,526.3h14.16l-3.1,15H1024Zm17.13-84.18H1060l-19,72.44h-8.5Z" transform="translate(-86.03 -248.52)"/></svg>