<svg xmlns="http://www.w3.org/2000/svg" viewBox="0 0 21.3 26.58"><defs><style>.cls-1{fill:#149698;}</style></defs><title>persent</title><g id="Layer_2" data-name="Layer 2"><g id="Layer_1-2" data-name="Layer 1"><path class="cls-1" d="M9.42,4.85v4.4a7.81,7.81,0,0,1-.32,2.58,3.09,3.09,0,0,1-1.39,1.5A5.45,5.45,0,0,1,4.89,14a6.28,6.28,0,0,1-3.08-.61A3.22,3.22,0,0,1,.37,11.9,6.36,6.36,0,0,1,0,9.45V4.85A7.62,7.62,0,0,1,.39,2,3,3,0,0,1,1.88.57,5.93,5.93,0,0,1,4.62,0,6,6,0,0,1,7.54.62,3.26,3.26,0,0,1,9,2.13,7.28,7.28,0,0,1,9.42,4.85Zm-4-1.12a4.35,4.35,0,0,0-.1-1.25q-.1-.24-.56-.24a.56.56,0,0,0-.55.25A3.55,3.55,0,0,0,4,3.73v6.45a4.31,4.31,0,0,0,.11,1.33c.07.15.27.22.59.22a.52.52,0,0,0,.53-.25,3.55,3.55,0,0,0,.12-1.19ZM16.87,0l-10,26.58H4.43L14.47,0ZM21.3,17.22v4.41A7.79,7.79,0,0,1,21,24.2a3.08,3.08,0,0,1-1.39,1.51,5.44,5.44,0,0,1-2.82.64,6.23,6.23,0,0,1-3.07-.62,3.25,3.25,0,0,1-1.44-1.47,6.3,6.3,0,0,1-.37-2.43V17.22a7.54,7.54,0,0,1,.39-2.79,3.07,3.07,0,0,1,1.5-1.49,5.86,5.86,0,0,1,2.73-.58,6,6,0,0,1,2.94.63,3.26,3.26,0,0,1,1.49,1.52A7.41,7.41,0,0,1,21.3,17.22Zm-4-1.11a4.43,4.43,0,0,0-.1-1.26c-.07-.16-.26-.24-.56-.24s-.47.08-.55.25a3.83,3.83,0,0,0-.12,1.25v6.45A4.25,4.25,0,0,0,16,23.87q.11.22.57.22t.54-.24a3.81,3.81,0,0,0,.11-1.19Z"/></g></g></svg>