<svg id="Layer_1" data-name="Layer 1" xmlns="http://www.w3.org/2000/svg" viewBox="0 0 490.49 305.03"><defs><style>.cls-1{fill:#fff5f5;}.cls-2{fill:#0c5054;}.cls-3{fill:#45f4b1;}.cls-4{fill:#ec6245;}.cls-5{fill:#149698;}.cls-6{fill:#b28560;}.cls-7{fill:#414042;}.cls-8{fill:#242527;}.cls-9{fill:#ccae87;}.cls-10{fill:#44312a;}.cls-11{fill:#fffaf7;}.cls-12{fill:#f4ecec;}</style></defs><title>progress</title><path class="cls-1" d="M320.44,269.38a3,3,0,0,1-3-3V223.05a3,3,0,0,1,3-3h0l55.18.1a3,3,0,0,1,.78-.1h0l52.56.2a3,3,0,0,1,0,6h0L323.43,226V266.4A3,3,0,0,1,320.44,269.38Z" transform="translate(-4.68 -140.97)"/><path class="cls-1" d="M97.47,445.78H7.66a3,3,0,1,1,0-6H93.81V398.89a3,3,0,0,1,3-3h56a3,3,0,0,1,0,6h-53v39a3,3,0,0,1-2.3,4.88Z" transform="translate(-4.68 -140.97)"/><path class="cls-1" d="M152.76,401.68a3,3,0,0,1-3-3V354.79a3,3,0,0,1,3-3h56a3,3,0,0,1,0,6h-53V398.7A3,3,0,0,1,152.76,401.68Z" transform="translate(-4.68 -140.97)"/><path class="cls-1" d="M208.74,357.39a3,3,0,0,1-3-3V310.5a3,3,0,0,1,3-3h56a3,3,0,0,1,0,6h-53v40.93A3,3,0,0,1,208.74,357.39Z" transform="translate(-4.68 -140.97)"/><path class="cls-1" d="M264.71,311.05a3,3,0,0,1-3-3V266.4a3,3,0,0,1,3-3h55.73a3,3,0,1,1,0,6H267.69v38.69A3,3,0,0,1,264.71,311.05Z" transform="translate(-4.68 -140.97)"/><path class="cls-1" d="M264.71,313.29a3,3,0,0,1-3-3v-2.24a3,3,0,1,1,6,0v2.24A3,3,0,0,1,264.71,313.29Z" transform="translate(-4.68 -140.97)"/><path class="cls-2" d="M356.43,191.23l-.15-.16.19-2.09.17-.13c4.78-3.77,4.71-4,4.54-4.54l-1.4-4.36a.87.87,0,0,0-.4-.47c-.16-.09-.66-.35-6-.68h-.21l-1.39-1.65,0-.21c.63-6,.43-6.15-.08-6.42l-4.09-2.17c-.5-.26-.72-.38-5.23,3.61l-.17.14-2.13-.22-.13-.16a30.48,30.48,0,0,0-4-4.5.87.87,0,0,0-.61-.07l-4.4,1.29c-.56.17-.79.24-1.07,6.27v.22l-1.63,1.33-.21,0c-6.13-.73-6.24-.54-6.51,0l-2.13,4c-.27.51-.39.73,3.75,5.26l.15.16-.19,2.08-.17.13c-4.78,3.77-4.72,4-4.54,4.54l1.39,4.36a.89.89,0,0,0,.4.47c.16.09.65.35,6,.68h.21l1.38,1.65,0,.21c-.63,6-.42,6.15.08,6.42l4.09,2.17c.51.27.73.39,5.24-3.61l.16-.15,2.13.22.13.16a30.21,30.21,0,0,0,4,4.5.88.88,0,0,0,.61.07l4.41-1.3c.56-.17.79-.24,1.06-6.26v-.22l1.62-1.32.21,0c6.15.73,6.25.54,6.52,0l2.12-4c.27-.51.39-.73-3.75-5.25Zm-20.07,3.61a7.35,7.35,0,1,1,10.07-3,7.43,7.43,0,0,1-10.07,3Zm0,0" transform="translate(-4.68 -140.97)"/><path class="cls-3" d="M407.55,189.67l-.16-.13-.11-1.94.14-.15c3.86-4.1,3.76-4.3,3.53-4.78l-1.87-3.79a.8.8,0,0,0-.43-.37c-.16-.06-.65-.23-5.54.19l-.19,0-1.5-1.32v-.2c-.25-5.61-.45-5.68-.95-5.86l-4-1.42c-.49-.17-.72-.25-4.29,4l-.13.15-2,.09-.14-.13a28.24,28.24,0,0,0-4.32-3.56.8.8,0,0,0-.57,0l-3.85,1.78c-.49.23-.69.33-.12,5.88l0,.21-1.31,1.44h-.2c-5.71.17-5.78.36-6,.86l-1.39,4c-.18.51-.25.72,4.15,4.3l.16.13.11,1.93-.13.15c-3.86,4.1-3.77,4.28-3.53,4.77l1.87,3.8a.83.83,0,0,0,.43.37c.16.06.65.23,5.54-.19l.2,0,1.49,1.32v.2c.25,5.61.46,5.68,1,5.86l4,1.42c.51.18.72.25,4.3-4l.13-.16,2-.09.14.13a27.94,27.94,0,0,0,4.31,3.56.82.82,0,0,0,.57,0l3.85-1.79c.49-.23.69-.33.11-5.87l0-.21,1.3-1.43h.19c5.72-.18,5.79-.37,6-.87l1.39-4c.18-.51.25-.72-4.15-4.29Zm-17.86,6.05a6.8,6.8,0,1,1,8.8-4.11,6.87,6.87,0,0,1-8.8,4.11Zm0,0" transform="translate(-4.68 -140.97)"/><path class="cls-4" d="M380,158.68l-.12-.12L380,157l.13-.11c3.52-3,3.46-3.21,3.31-3.62l-1.21-3.28a.66.66,0,0,0-.32-.34c-.13-.06-.51-.24-4.57-.32h-.16L376,148.07v-.16c.28-4.64.12-4.71-.27-4.9l-3.19-1.52c-.39-.18-.57-.27-3.87,2.94l-.12.12-1.63-.09-.11-.12a23.27,23.27,0,0,0-3.24-3.3.66.66,0,0,0-.47,0l-3.31,1.13c-.42.15-.6.21-.6,4.82v.17L358,148.2h-.16c-4.71-.35-4.78-.2-5,.2l-1.49,3.13c-.19.4-.27.57,3,3.89l.12.12-.07,1.6-.12.11c-3.52,3-3.47,3.19-3.32,3.62l1.21,3.28a.69.69,0,0,0,.32.34c.13.06.51.24,4.57.32h.16l1.11,1.21v.16c-.28,4.64-.11,4.71.28,4.9l3.19,1.52c.4.19.57.27,3.88-2.94l.12-.12,1.64.1.11.12a23.16,23.16,0,0,0,3.24,3.3.67.67,0,0,0,.47,0l3.32-1.14c.42-.15.59-.21.59-4.82v-.17l1.19-1.06h.16c4.72.35,4.79.2,5-.2l1.49-3.13c.19-.4.27-.57-3-3.89Zm-15.2,3.44a5.62,5.62,0,1,1,7.58-2.62,5.68,5.68,0,0,1-7.58,2.62Zm0,0" transform="translate(-4.68 -140.97)"/><path class="cls-1" d="M421.17,240.51a3,3,0,0,1-2.24-5l9.83-11.12-9.18-13.91a3,3,0,1,1,5-3.29L435,223a3,3,0,0,1-.25,3.62L423.41,239.5A3,3,0,0,1,421.17,240.51Z" transform="translate(-4.68 -140.97)"/><path class="cls-1" d="M492.19,445.85H11.5a3,3,0,1,1,0-6H492.19a3,3,0,0,1,0,6Z" transform="translate(-4.68 -140.97)"/><path class="cls-1" d="M263.22,446h-31a3,3,0,0,1-3-3V332.41a3,3,0,0,1,3-3h31a3,3,0,0,1,3,3V443A3,3,0,0,1,263.22,446Zm-28-6h25.07V335.4H235.17Z" transform="translate(-4.68 -140.97)"/><rect class="cls-3" x="227.51" y="229.63" width="31.03" height="72.41"/><path class="cls-3" d="M266.2,446h-37V367.62h37Zm-31-6h25.07V373.59H235.17Z" transform="translate(-4.68 -140.97)"/><path class="cls-1" d="M208.91,446h-31a3,3,0,0,1-3-3V373a3,3,0,0,1,3-3h31a3,3,0,0,1,3,3v70A3,3,0,0,1,208.91,446Zm-28-6h25.07V376H180.86Z" transform="translate(-4.68 -140.97)"/><rect class="cls-3" x="173.2" y="256.2" width="31.03" height="45.84"/><path class="cls-3" d="M211.9,446h-37V394.19h37Zm-31-6h25.07V400.16H180.86Z" transform="translate(-4.68 -140.97)"/><path class="cls-1" d="M320.51,446h-31a3,3,0,0,1-3-3V286.76a3,3,0,0,1,3-3h31a3,3,0,0,1,3,3V443A3,3,0,0,1,320.51,446Zm-28-6h25.07V289.74H292.46Z" transform="translate(-4.68 -140.97)"/><rect class="cls-3" x="284.8" y="199.75" width="31.03" height="102.3"/><path class="cls-3" d="M323.5,446h-37V337.73h37Zm-31-6h25.07V343.7H292.46Z" transform="translate(-4.68 -140.97)"/><path class="cls-1" d="M152.82,446h-31a3,3,0,0,1-3-3V417.16a3,3,0,0,1,3-3h31a3,3,0,0,1,3,3V443A3,3,0,0,1,152.82,446Zm-28-6h25.07V420.14H124.77Z" transform="translate(-4.68 -140.97)"/><rect class="cls-3" x="117.1" y="289.52" width="31.03" height="12.52"/><path class="cls-3" d="M155.8,446h-37V427.51h37Zm-31-6h25.07v-6.56H124.77Z" transform="translate(-4.68 -140.97)"/><path class="cls-1" d="M377.21,446h-31a3,3,0,0,1-3-3V239.61a3,3,0,0,1,3-3h31a3,3,0,0,1,3,3V443A3,3,0,0,1,377.21,446Zm-28-6h25.07V242.6H349.16Z" transform="translate(-4.68 -140.97)"/><rect class="cls-3" x="341.49" y="168.88" width="31.03" height="133.16"/><path class="cls-3" d="M380.19,446h-37V306.87h37Zm-31-6h25.07V312.84H349.16Z" transform="translate(-4.68 -140.97)"/><path class="cls-5" d="M419.87,371.2a20.29,20.29,0,1,0,20.29,20.29A20.31,20.31,0,0,0,419.87,371.2Zm16.82,20.23H419.58v-.08h0V374.68h.29A16.84,16.84,0,0,1,436.69,391.43Zm-14,16.63-3.13-16.61,13.23,10.76A16.83,16.83,0,0,1,422.72,408.07Z" transform="translate(-4.68 -140.97)"/><path class="cls-5" d="M419.87,254.83a20,20,0,1,0,20,20A20,20,0,0,0,419.87,254.83Zm12.68,30.65-12.86-10.88L430.36,262a16.54,16.54,0,0,1,2.19,23.48Z" transform="translate(-4.68 -140.97)"/><path class="cls-5" d="M419.87,315.1a20.29,20.29,0,1,0,20.29,20.29A20.31,20.31,0,0,0,419.87,315.1ZM422.72,352l-3.13-16.61,13.23,10.76A16.83,16.83,0,0,1,422.72,352Z" transform="translate(-4.68 -140.97)"/><path class="cls-6" d="M178.27,208.08c0-.38.47-8.37.47-8.37l14.86,1.88-.68,6.63Z" transform="translate(-4.68 -140.97)"/><path class="cls-2" d="M194.39,271.34l5.67-.29s12.55,1.71,13.45,1.87c2,.36,2.05,1.33,2.05,2,0,.9,0,18.07,0,18.07l13.29-.77s.74-27.24.74-28.14a3,3,0,0,0-2.1-2.66L204.62,255s-23.71-1.38-30-1.38c-3.93,16,2.24,21.33,2.24,21.33s2.38,20.56,2,24.11-5.54,29.34-5.54,29.34l10.85,12.65s8-37.43,8.39-41.24S194.39,271.34,194.39,271.34Z" transform="translate(-4.68 -140.97)"/><path class="cls-1" d="M174.37,254.47a257.09,257.09,0,0,1,.63-26.89l1.27-20.4s11.73.5,16.13.5c8.51,7.12,16.91,13.73,12.21,47.34C196.5,255,176.33,254.47,174.37,254.47Z" transform="translate(-4.68 -140.97)"/><path class="cls-7" d="M185.67,332.36c-4-2.17-8.13-4.81-10.37-5.84-1.44-.66-2.68-.35-3.32.66-1,1.65-3.06,5.06-4.14,7l22.26,12.4C191.92,343,193.38,336.58,185.67,332.36Z" transform="translate(-4.68 -140.97)"/><path class="cls-8" d="M189.89,346.91l.19-.37-22.26-12.4-.29.51c-.67,1.22-.12,2.63,1.42,3.49,4,2.23,13.18,7.17,17.45,9.47C187.81,348.36,189.25,348.09,189.89,346.91Z" transform="translate(-4.68 -140.97)"/><path class="cls-7" d="M228.29,290.9c-4.52,0-9.44-.31-11.9-.13-1.58.11-2.52,1-2.59,2.17-.12,1.95-.26,5.91-.28,8.1l25.48.17C238.88,297.22,237.08,290.9,228.29,290.9Z" transform="translate(-4.68 -140.97)"/><path class="cls-8" d="M239,301.63c0-.13,0-.27,0-.41L213.51,301c0,.2,0,.4,0,.58,0,1.39,1.16,2.37,2.93,2.38,4.61,0,15,0,19.85-.08C237.86,303.91,239,303,239,301.63Z" transform="translate(-4.68 -140.97)"/><path class="cls-9" d="M210.22,186c-3.07,20.21-8.59,19.69-26.62,17-5.14-.78-22.89-7.59-20.33-24.49s11.88-26.28,26.63-24S212.78,169.06,210.22,186Z" transform="translate(-4.68 -140.97)"/><path class="cls-10" d="M189.5,180a18.57,18.57,0,0,1,7.28-11.52s25.31,5.55,20-21.82c-.61-3.13-2.66-3-4.89-2.55-8.86,1.67-10.26,5.88-15.07,2.15-5.9-4.58-28.89-8.77-30.5,15.74-12.68,2.7-8.77,18.42-5.45,26.64,3.12,7.72,15.22,13.75,17.77,12.86,2.11-.74,3.5-6.61,3.59-8.71s-2.83-3.63-4.08-7.81,3.86-14.23,9.93-4.48C188.38,181,189.35,180.69,189.5,180Z" transform="translate(-4.68 -140.97)"/><path class="cls-8" d="M224.46,299.4a5.54,5.54,0,0,1-2.64,7.37L186.44,323.5a5.54,5.54,0,0,1-7.37-2.64l-9.63-20.35a5.54,5.54,0,0,1,2.64-7.37l35.37-16.73a5.54,5.54,0,0,1,7.37,2.64Z" transform="translate(-4.68 -140.97)"/><circle class="cls-11" cx="194.98" cy="294.01" r="2.16" transform="translate(-111.66 -29.39) rotate(-25.31)"/><rect class="cls-11" x="171.57" y="298.4" width="49.95" height="1.52" transform="translate(-113.7 -28.24) rotate(-25.31)"/><path class="cls-8" d="M185.17,274.59h0l-.1.05-.1,0h0c-2.36,1.26-7.9,4.63-6.44,7.73l3.91,8.26,2.75-1.3-3.82-8.08c.33-.85,2.49-2.59,5-3.93,2.63-1.09,5.34-1.65,6.21-1.36l3.82,8.08,2.75-1.3-3.91-8.26C193.77,271.43,187.64,273.57,185.17,274.59Z" transform="translate(-4.68 -140.97)"/><path class="cls-9" d="M182,265a51.16,51.16,0,0,1-7.27,2.25C169.17,287,190.18,286.68,193.07,279c.94-2.49-5.71-2.89-5.86-6.27-.12-2.58,4.44-.38,6,0s3.64-2.91,1.37-3.77S182.53,267.28,182,265Z" transform="translate(-4.68 -140.97)"/><path class="cls-12" d="M183.16,266.29,174,270.06c-9-20.34-5.61-35.15-1.31-43.48,4.76-9.23,7.5-10.82,10.28-12.71,4-2.89,8.16,5.94,4.64,7.86C185.77,222.74,169.11,234.49,183.16,266.29Z" transform="translate(-4.68 -140.97)"/><path class="cls-12" d="M176.49,205.1c-.44-.06-.6,4.82-.4,5s21.92,2.4,22,1.92c.26-1.1-3.57-4.79-3.74-4.84C193.7,207.07,192.25,207.18,176.49,205.1Z" transform="translate(-4.68 -140.97)"/></svg>