<svg id="Layer_1" data-name="Layer 1" xmlns="http://www.w3.org/2000/svg" viewBox="0 0 490.49 392"><defs><style>.cls-1{fill:#fff5f5;}.cls-2{fill:#0c5054;}.cls-3{fill:#45f4b1;}.cls-4{fill:#ec6245;}.cls-5{fill:#149698;}.cls-6{fill:#b28560;}.cls-7{fill:#414042;}.cls-8{fill:#242527;}.cls-9{fill:#ccae87;}.cls-10{fill:#44312a;}.cls-11{fill:#fffaf7;}.cls-12{fill:#f4ecec;}</style></defs><title>progress</title><path class="cls-1" d="M320.44,269.38a3,3,0,0,1-3-3V223.05a3,3,0,0,1,3-3h0l55.18.1a3,3,0,0,1,.78-.1h0l52.56.2a3,3,0,0,1,0,6h0L323.43,226V266.4A3,3,0,0,1,320.44,269.38Z" transform="translate(-4.68 -54)"/><path class="cls-1" d="M97.47,445.78H7.66a3,3,0,1,1,0-6H93.81V398.89a3,3,0,0,1,3-3h56a3,3,0,0,1,0,6h-53v39a3,3,0,0,1-2.3,4.88Z" transform="translate(-4.68 -54)"/><path class="cls-1" d="M152.76,401.68a3,3,0,0,1-3-3V354.79a3,3,0,0,1,3-3h56a3,3,0,0,1,0,6h-53V398.7A3,3,0,0,1,152.76,401.68Z" transform="translate(-4.68 -54)"/><path class="cls-1" d="M208.74,357.39a3,3,0,0,1-3-3V310.5a3,3,0,0,1,3-3h56a3,3,0,0,1,0,6h-53v40.93A3,3,0,0,1,208.74,357.39Z" transform="translate(-4.68 -54)"/><path class="cls-1" d="M264.71,311.05a3,3,0,0,1-3-3V266.4a3,3,0,0,1,3-3h55.73a3,3,0,1,1,0,6H267.69v38.69A3,3,0,0,1,264.71,311.05Z" transform="translate(-4.68 -54)"/><path class="cls-1" d="M264.71,313.29a3,3,0,0,1-3-3v-2.24a3,3,0,1,1,6,0v2.24A3,3,0,0,1,264.71,313.29Z" transform="translate(-4.68 -54)"/><path class="cls-2" d="M356.43,191.23l-.15-.16.19-2.09.17-.13c4.78-3.77,4.71-4,4.54-4.54l-1.4-4.36a.87.87,0,0,0-.4-.47c-.16-.09-.66-.35-6-.68h-.21l-1.39-1.65,0-.21c.63-6,.43-6.15-.08-6.42l-4.09-2.17c-.5-.26-.72-.38-5.23,3.61l-.17.14-2.13-.22-.13-.16a30.48,30.48,0,0,0-4-4.5.87.87,0,0,0-.61-.07l-4.4,1.29c-.56.17-.79.24-1.07,6.27v.22l-1.63,1.33-.21,0c-6.13-.73-6.24-.54-6.51,0l-2.13,4c-.27.51-.39.73,3.75,5.26l.15.16-.19,2.08-.17.13c-4.78,3.77-4.72,4-4.54,4.54l1.39,4.36a.89.89,0,0,0,.4.47c.16.09.65.35,6,.68h.21l1.38,1.65,0,.21c-.63,6-.42,6.15.08,6.42l4.09,2.17c.51.27.73.39,5.24-3.61l.16-.15,2.13.22.13.16a30.21,30.21,0,0,0,4,4.5.88.88,0,0,0,.61.07l4.41-1.3c.56-.17.79-.24,1.06-6.26v-.22l1.62-1.32.21,0c6.15.73,6.25.54,6.52,0l2.12-4c.27-.51.39-.73-3.75-5.25Zm-20.07,3.61a7.35,7.35,0,1,1,10.07-3,7.43,7.43,0,0,1-10.07,3Zm0,0" transform="translate(-4.68 -54)"/><path class="cls-3" d="M407.55,189.67l-.16-.13-.11-1.94.14-.15c3.86-4.1,3.76-4.3,3.53-4.78l-1.87-3.79a.8.8,0,0,0-.43-.37c-.16-.06-.65-.23-5.54.19l-.19,0-1.5-1.32v-.2c-.25-5.61-.45-5.68-.95-5.86l-4-1.42c-.49-.17-.72-.25-4.29,4l-.13.15-2,.09-.14-.13a28.24,28.24,0,0,0-4.32-3.56.8.8,0,0,0-.57,0l-3.85,1.78c-.49.23-.69.33-.12,5.88l0,.21-1.31,1.44h-.2c-5.71.17-5.78.36-6,.86l-1.39,4c-.18.51-.25.72,4.15,4.3l.16.13.11,1.93-.13.15c-3.86,4.1-3.77,4.28-3.53,4.77l1.87,3.8a.83.83,0,0,0,.43.37c.16.06.65.23,5.54-.19l.2,0,1.49,1.32v.2c.25,5.61.46,5.68,1,5.86l4,1.42c.51.18.72.25,4.3-4l.13-.16,2-.09.14.13a27.94,27.94,0,0,0,4.31,3.56.82.82,0,0,0,.57,0l3.85-1.79c.49-.23.69-.33.11-5.87l0-.21,1.3-1.43h.19c5.72-.18,5.79-.37,6-.87l1.39-4c.18-.51.25-.72-4.15-4.29Zm-17.86,6.05a6.8,6.8,0,1,1,8.8-4.11,6.87,6.87,0,0,1-8.8,4.11Zm0,0" transform="translate(-4.68 -54)"/><path class="cls-4" d="M380,158.68l-.12-.12L380,157l.13-.11c3.52-3,3.46-3.21,3.31-3.62l-1.21-3.28a.66.66,0,0,0-.32-.34c-.13-.06-.51-.24-4.57-.32h-.16L376,148.07v-.16c.28-4.64.12-4.71-.27-4.9l-3.19-1.52c-.39-.18-.57-.27-3.87,2.94l-.12.12-1.63-.09-.11-.12a23.27,23.27,0,0,0-3.24-3.3.66.66,0,0,0-.47,0l-3.31,1.13c-.42.15-.6.21-.6,4.82v.17L358,148.2h-.16c-4.71-.35-4.78-.2-5,.2l-1.49,3.13c-.19.4-.27.57,3,3.89l.12.12-.07,1.6-.12.11c-3.52,3-3.47,3.19-3.32,3.62l1.21,3.28a.69.69,0,0,0,.32.34c.13.06.51.24,4.57.32h.16l1.11,1.21v.16c-.28,4.64-.11,4.71.28,4.9l3.19,1.52c.4.19.57.27,3.88-2.94l.12-.12,1.64.1.11.12a23.16,23.16,0,0,0,3.24,3.3.67.67,0,0,0,.47,0l3.32-1.14c.42-.15.59-.21.59-4.82v-.17l1.19-1.06h.16c4.72.35,4.79.2,5-.2l1.49-3.13c.19-.4.27-.57-3-3.89Zm-15.2,3.44a5.62,5.62,0,1,1,7.58-2.62,5.68,5.68,0,0,1-7.58,2.62Zm0,0" transform="translate(-4.68 -54)"/><path class="cls-5" d="M446.72,160l-5.58-3,.5-.93a6.9,6.9,0,0,0,.86-2,.91.91,0,0,0-.58-.91,1,1,0,0,0-1,0,2.51,2.51,0,0,0-.9,1,2.92,2.92,0,0,0-.47,2.12,23.35,23.35,0,0,0,1.9,3.68,25.58,25.58,0,0,1,1.83,3.55,6.06,6.06,0,0,1,.25,2.64,9.1,9.1,0,0,1-1.16,3.41,8,8,0,0,1-4,3.9,7.49,7.49,0,0,1-5.45-.24l-1.14,2.1-2.57-1.4,1.18-2.17a7.62,7.62,0,0,1-3-3.84q-.86-2.41,1.17-6.14l.59-1.09,5.58,3-.74,1.37a14.68,14.68,0,0,0-1.35,2.89.88.88,0,0,0,.54,1,1.11,1.11,0,0,0,1,.08,2.17,2.17,0,0,0,.89-1,11,11,0,0,0,1.2-2.83,4.51,4.51,0,0,0-.84-2.74,44.34,44.34,0,0,1-2.2-4.24,7.1,7.1,0,0,1-.44-3,7.91,7.91,0,0,1,1-3.46,6.05,6.05,0,0,1,3.55-3.15,7.91,7.91,0,0,1,5.2.55l1-1.78,2.57,1.4-1,1.78a6.94,6.94,0,0,1,2.93,3.84,6.29,6.29,0,0,1-.82,4.57Q447.15,159.35,446.72,160Z" transform="translate(-4.68 -54)"/><path class="cls-5" d="M110.38,202.51l-5.92,2.32-.38-1a6.89,6.89,0,0,0-1-2,.91.91,0,0,0-1.07-.14,1,1,0,0,0-.65.74,2.51,2.51,0,0,0,.22,1.36,2.92,2.92,0,0,0,1.32,1.73,23.38,23.38,0,0,0,4,.92,25.62,25.62,0,0,1,3.89.88,6.05,6.05,0,0,1,2.19,1.51,9.1,9.1,0,0,1,1.86,3.08,8,8,0,0,1,.42,5.56,7.5,7.5,0,0,1-3.7,4l.87,2.23-2.72,1.07-.9-2.3a7.62,7.62,0,0,1-4.86-.2q-2.4-.9-3.94-4.85l-.45-1.16L105.5,214l.57,1.45a14.65,14.65,0,0,0,1.34,2.89.88.88,0,0,0,1.11.23,1.11,1.11,0,0,0,.74-.75,2.17,2.17,0,0,0-.17-1.31,11,11,0,0,0-1.39-2.74,4.51,4.51,0,0,0-2.63-1.12,44.07,44.07,0,0,1-4.66-1.06A7.09,7.09,0,0,1,97.83,210a7.9,7.9,0,0,1-2-3,6.05,6.05,0,0,1-.13-4.75,7.92,7.92,0,0,1,3.78-3.62l-.74-1.89,2.72-1.07.74,1.89a7,7,0,0,1,4.82.23,6.28,6.28,0,0,1,3,3.57Q110.14,201.74,110.38,202.51Z" transform="translate(-4.68 -54)"/><path class="cls-5" d="M246.31,134.87l2.11-.3.46,3.19-2.11.3.21,1.48,2.11-.3.46,3.18-2.11.3.48,3.37a13.51,13.51,0,0,0,.42,2.13,1.73,1.73,0,0,0,.69.89,1.62,1.62,0,0,0,1.17.24,1.8,1.8,0,0,0,1-.47,1.44,1.44,0,0,0,.46-1,16.72,16.72,0,0,0-.24-2.53l-.41-2.85,6.91-1,.17,1.17a18.23,18.23,0,0,1,.11,6.27,6.37,6.37,0,0,1-2.41,3.61,10.12,10.12,0,0,1-4.9,1.93,10.63,10.63,0,0,1-4.42-.23,7.05,7.05,0,0,1-3.25-1.83,7.47,7.47,0,0,1-1.76-2.88,31.51,31.51,0,0,1-1-5l-.11-.8-1.8.26-.46-3.18,1.8-.26-.21-1.48-1.8.26-.46-3.19,1.8-.26-.08-.54a33.77,33.77,0,0,1-.41-4.63,6.79,6.79,0,0,1,.93-3.36,7.61,7.61,0,0,1,2.73-2.74,11,11,0,0,1,4.24-1.46,10.72,10.72,0,0,1,4.49.24,6.52,6.52,0,0,1,3.45,2.37q1.37,1.78,2,6.11l.14,1-6.91,1-.35-2.43q-.33-1.9-.47-2.38a1.14,1.14,0,0,0-.51-.69,1.66,1.66,0,0,0-1.06-.11,2.06,2.06,0,0,0-1.24.57,1.53,1.53,0,0,0-.43,1.08,18.16,18.16,0,0,0,.23,2.26Z" transform="translate(-4.68 -54)"/><path class="cls-5" d="M88.93,71.85l1.69,1.29-2,2.56L87,74.4l-.91,1.19,1.69,1.29-2,2.56-1.69-1.29L82,80.85a13.53,13.53,0,0,0-1.23,1.79,1.73,1.73,0,0,0-.15,1.12,1.62,1.62,0,0,0,.65,1,1.8,1.8,0,0,0,1,.37,1.44,1.44,0,0,0,1.06-.39A16.7,16.7,0,0,0,85,82.8l1.75-2.29,5.55,4.24-.72.94a18.22,18.22,0,0,1-4.4,4.47,6.37,6.37,0,0,1-4.26.8,10.12,10.12,0,0,1-4.81-2.15A10.63,10.63,0,0,1,75.2,85.5a7,7,0,0,1-1-3.6,7.47,7.47,0,0,1,.83-3.27,31.56,31.56,0,0,1,2.84-4.21l.49-.64-1.44-1.1,2-2.56,1.44,1.1L81.25,70l-1.44-1.1,2-2.56,1.44,1.1.33-.43a33.75,33.75,0,0,1,3-3.53,6.79,6.79,0,0,1,3.05-1.69,7.61,7.61,0,0,1,3.87,0,11,11,0,0,1,4,2,10.72,10.72,0,0,1,3,3.37,6.52,6.52,0,0,1,.72,4.12q-.31,2.22-3,5.7l-.6.79L92.06,73.6l1.49-1.95q1.13-1.56,1.37-2a1.14,1.14,0,0,0,.14-.85,1.66,1.66,0,0,0-.67-.84,2.06,2.06,0,0,0-1.27-.49,1.53,1.53,0,0,0-1.07.45,18.18,18.18,0,0,0-1.45,1.75Z" transform="translate(-4.68 -54)"/><path class="cls-5" d="M321.28,61.9l-2.54,3.59A7.81,7.81,0,0,1,317,67.41a3.09,3.09,0,0,1-2,.42,5.46,5.46,0,0,1-2.67-1.11,6.29,6.29,0,0,1-2.16-2.28,3.22,3.22,0,0,1-.32-2,6.35,6.35,0,0,1,1.11-2.21l2.66-3.75a7.62,7.62,0,0,1,1.94-2.07A3,3,0,0,1,317.6,54a5.93,5.93,0,0,1,2.56,1.12,6,6,0,0,1,2,2.2,3.26,3.26,0,0,1,.35,2.1A7.28,7.28,0,0,1,321.28,61.9Zm-2.66-3.26a4.34,4.34,0,0,0,.64-1.08q.05-.25-.32-.52a.56.56,0,0,0-.6-.11,3.55,3.55,0,0,0-.82.93l-3.73,5.26a4.3,4.3,0,0,0-.68,1.15c0,.16.09.34.35.52a.52.52,0,0,0,.58.1,3.54,3.54,0,0,0,.78-.9Zm11.54,3.6L306.64,78.15l-2-1.41L328.2,60.85Zm-6.33,16.61-2.55,3.6a7.81,7.81,0,0,1-1.75,1.92,3.08,3.08,0,0,1-2,.43,5.45,5.45,0,0,1-2.67-1.11,6.23,6.23,0,0,1-2.15-2.28,3.25,3.25,0,0,1-.33-2,6.31,6.31,0,0,1,1.1-2.2l2.67-3.77a7.55,7.55,0,0,1,1.93-2.05,3.07,3.07,0,0,1,2.08-.35,5.86,5.86,0,0,1,2.56,1.11,6,6,0,0,1,2,2.22,3.25,3.25,0,0,1,.34,2.1A7.4,7.4,0,0,1,323.83,78.85Zm-2.66-3.24a4.44,4.44,0,0,0,.64-1.09c0-.17-.07-.35-.32-.52a.54.54,0,0,0-.59-.11,3.83,3.83,0,0,0-.82,1l-3.73,5.26a4.25,4.25,0,0,0-.67,1.14c0,.16.09.33.34.51s.42.2.58.11a3.83,3.83,0,0,0,.78-.91Z" transform="translate(-4.68 -54)"/><path class="cls-5" d="M52.33,369.71l.88,3.71a7.8,7.8,0,0,1,.2,2.6,3.09,3.09,0,0,1-1.06,1.75A5.45,5.45,0,0,1,49.72,379c-1.32.27-2.37.88-3.14.62a3.22,3.22,0,0,1-1.69-1.15,6.35,6.35,0,0,1-.86-2.33l-.92-4.51a7.62,7.62,0,0,1-.18-2.83A3,3,0,0,1,44.09,367a5.93,5.93,0,0,1,2.57-1.11,6,6,0,0,1,3,0,3.26,3.26,0,0,1,1.77,1.18A7.27,7.27,0,0,1,52.33,369.71Zm-4.19-.29a4.35,4.35,0,0,0-.35-1.2c-.1-.14-.3-.18-.6-.12s-.44.18-.49.36a3.54,3.54,0,0,0,.12,1.23L48.12,376a4.3,4.3,0,0,0,.38,1.28c.1.13.31-.43.62-.5s.42-.17.47-.35a3.54,3.54,0,0,0-.12-1.18Zm10.51-6-4.47,27.45-2.39.49,4.5-27.46Zm7.79,15.38.89,4.32a7.79,7.79,0,0,1,.2,2.59,3.08,3.08,0,0,1-1.06,1.76,5.44,5.44,0,0,1-2.64,1.19,6.23,6.23,0,0,1-3.13,0,3.25,3.25,0,0,1-1.7-1.15,6.3,6.3,0,0,1-.85-2.31l-.93-4.52a7.54,7.54,0,0,1-.18-2.81,3.07,3.07,0,0,1,1.17-1.76,5.86,5.86,0,0,1,2.56-1.11,6,6,0,0,1,3,0,3.26,3.26,0,0,1,1.77,1.19A7.41,7.41,0,0,1,66.45,378.84Zm-4.19-.27a4.42,4.42,0,0,0-.35-1.21c-.1-.15-.3-.19-.6-.13s-.44.18-.48.36a3.84,3.84,0,0,0,.13,1.25l1.3,6.32a4.27,4.27,0,0,0,.37,1.26q.15.19.6.1t.48-.35a3.81,3.81,0,0,0-.13-1.19Z" transform="translate(-4.68 -54)"/><path class="cls-5" d="M54.7,143.31v4.4a7.81,7.81,0,0,1-.32,2.58,3.09,3.09,0,0,1-1.39,1.5,5.45,5.45,0,0,1-2.82.64,6.28,6.28,0,0,1-3.08-.61,3.22,3.22,0,0,1-1.43-1.46,6.36,6.36,0,0,1-.37-2.45v-4.6a7.62,7.62,0,0,1,.39-2.81A3,3,0,0,1,47.16,139a7,7,0,0,1,5.66.06,3.26,3.26,0,0,1,1.5,1.51A7.28,7.28,0,0,1,54.7,143.31Zm-4-1.12a4.35,4.35,0,0,0-.1-1.25q-.1-.24-.56-.24a.56.56,0,0,0-.55.25,3.55,3.55,0,0,0-.13,1.23v6.45a4.31,4.31,0,0,0,.11,1.33c.07.15.27.22.59.22a.52.52,0,0,0,.53-.25,3.55,3.55,0,0,0,.12-1.19Zm11.49-3.73L52.14,165H49.7l10-26.58Zm4.43,17.22v4.41a7.79,7.79,0,0,1-.32,2.58,3.08,3.08,0,0,1-1.39,1.51,5.44,5.44,0,0,1-2.82.64,6.23,6.23,0,0,1-3.07-.62,3.25,3.25,0,0,1-1.44-1.47,6.3,6.3,0,0,1-.37-2.43v-4.62a7.54,7.54,0,0,1,.39-2.79,3.07,3.07,0,0,1,1.5-1.49,5.86,5.86,0,0,1,2.73-.58,6,6,0,0,1,2.94.63A3.26,3.26,0,0,1,66.2,153,7.41,7.41,0,0,1,66.57,155.67Zm-4-1.11a4.43,4.43,0,0,0-.1-1.26c-.07-.16-.26-.24-.56-.24s-.47.08-.55.25a3.83,3.83,0,0,0-.12,1.25V161a4.25,4.25,0,0,0,.11,1.31q.11.22.57.22t.54-.24a3.81,3.81,0,0,0,.11-1.19Z" transform="translate(-4.68 -54)"/><path class="cls-1" d="M421.17,240.51a3,3,0,0,1-2.24-5l9.83-11.12-9.18-13.91a3,3,0,1,1,5-3.29L435,223a3,3,0,0,1-.25,3.62L423.41,239.5A3,3,0,0,1,421.17,240.51Z" transform="translate(-4.68 -54)"/><path class="cls-5" d="M432.92,67.92a1.55,1.55,0,0,0,1.29-1.7v-3a1.34,1.34,0,1,0-2.58,0v3A1.54,1.54,0,0,0,432.92,67.92Z" transform="translate(-4.68 -54)"/><path class="cls-5" d="M426.32,69.69a1.54,1.54,0,0,0,.26-2.12l-1.52-2.63a1.34,1.34,0,1,0-2.23,1.29l1.52,2.63A1.54,1.54,0,0,0,426.32,69.69Z" transform="translate(-4.68 -54)"/><path class="cls-5" d="M420.65,72.55,418,71a1.34,1.34,0,1,0-1.29,2.23l2.63,1.52a1.34,1.34,0,1,0,1.29-2.23Z" transform="translate(-4.68 -54)"/><path class="cls-5" d="M449.11,89l-2.63-1.52a1.34,1.34,0,1,0-1.29,2.23l2.63,1.52A1.34,1.34,0,1,0,449.11,89Z" transform="translate(-4.68 -54)"/><path class="cls-5" d="M419.71,81.12a1.54,1.54,0,0,0-1.7-1.29h-3a1.34,1.34,0,1,0,0,2.58h3A1.54,1.54,0,0,0,419.71,81.12Z" transform="translate(-4.68 -54)"/><path class="cls-5" d="M450.86,79.83h-3c-.94,0-1.7.58-1.7,1.29a1.55,1.55,0,0,0,1.7,1.29h3a1.55,1.55,0,0,0,1.7-1.29C452.57,80.42,451.8,79.83,450.86,79.83Z" transform="translate(-4.68 -54)"/><path class="cls-5" d="M419.36,87.46,416.73,89A1.34,1.34,0,1,0,418,91.21l2.63-1.52a1.34,1.34,0,1,0-1.29-2.23Z" transform="translate(-4.68 -54)"/><path class="cls-5" d="M446.48,74.78l2.63-1.52A1.34,1.34,0,1,0,447.82,71l-2.63,1.52a1.34,1.34,0,1,0,1.29,2.23Z" transform="translate(-4.68 -54)"/><path class="cls-5" d="M442.74,64.11a1.54,1.54,0,0,0-2,.83l-1.52,2.63a1.34,1.34,0,1,0,2.23,1.29L443,66.23A1.54,1.54,0,0,0,442.74,64.11Z" transform="translate(-4.68 -54)"/><path class="cls-5" d="M433.38,71.64c-5.71,0-9.39,3.94-9.39,10,0,4.9,4.12,8.24,5.46,9.2v5.22c0,1.89,2.11,2.91,4.1,2.91h0a4.73,4.73,0,0,0,2.46-.62,2.62,2.62,0,0,0,1.31-2.29V90.9l.07-.06c1.4-1,5.4-4.32,5.4-9.15C442.77,75.59,439.08,71.64,433.38,71.64Zm1.7,25.27a3,3,0,0,1-1.54.36,2.75,2.75,0,0,1-2.27-.87,11.13,11.13,0,0,0,2.45.3,6.82,6.82,0,0,0,1.76-.22A1,1,0,0,1,435.08,96.91Zm.48-2.22a7.12,7.12,0,0,1-4.37,0V94a11.2,11.2,0,0,0,2.51.31,6.72,6.72,0,0,0,1.86-.25Zm0-2.41a7,7,0,0,1-4.37,0v-.71a11.77,11.77,0,0,0,2.68.34,7.32,7.32,0,0,0,1.69-.19Zm.41-2.58,0,0c-1.61.85-4.3.2-5.26-.14l-.06,0c-.89-.62-4.87-3.63-4.87-7.88,0-5.12,2.93-8.3,7.65-8.3s7.65,3.18,7.65,8.3C441,86.45,436,89.66,436,89.69Z" transform="translate(-4.68 -54)"/><path class="cls-5" d="M62.43,285.7a1.55,1.55,0,0,0,1.29-1.7v-3a1.34,1.34,0,1,0-2.58,0v3A1.54,1.54,0,0,0,62.43,285.7Z" transform="translate(-4.68 -54)"/><path class="cls-5" d="M55.82,287.47a1.54,1.54,0,0,0,.26-2.12l-1.52-2.63A1.34,1.34,0,1,0,52.34,284l1.52,2.63A1.54,1.54,0,0,0,55.82,287.47Z" transform="translate(-4.68 -54)"/><path class="cls-5" d="M50.16,290.33l-2.63-1.52A1.34,1.34,0,1,0,46.24,291l2.63,1.52a1.34,1.34,0,1,0,1.29-2.23Z" transform="translate(-4.68 -54)"/><path class="cls-5" d="M78.61,306.76,76,305.24a1.34,1.34,0,1,0-1.29,2.23L77.32,309a1.34,1.34,0,1,0,1.29-2.23Z" transform="translate(-4.68 -54)"/><path class="cls-5" d="M49.22,298.9a1.54,1.54,0,0,0-1.7-1.29h-3a1.34,1.34,0,1,0,0,2.58h3A1.54,1.54,0,0,0,49.22,298.9Z" transform="translate(-4.68 -54)"/><path class="cls-5" d="M80.37,297.61h-3c-.94,0-1.7.58-1.7,1.29a1.55,1.55,0,0,0,1.7,1.29h3a1.55,1.55,0,0,0,1.7-1.29C82.08,298.19,81.31,297.61,80.37,297.61Z" transform="translate(-4.68 -54)"/><path class="cls-5" d="M48.87,305.24l-2.63,1.52A1.34,1.34,0,1,0,47.53,309l2.63-1.52a1.34,1.34,0,1,0-1.29-2.23Z" transform="translate(-4.68 -54)"/><path class="cls-5" d="M76,292.56,78.61,291a1.34,1.34,0,1,0-1.29-2.23l-2.63,1.52A1.34,1.34,0,1,0,76,292.56Z" transform="translate(-4.68 -54)"/><path class="cls-5" d="M72.25,281.89a1.55,1.55,0,0,0-2,.83l-1.52,2.63A1.34,1.34,0,1,0,71,286.63L72.52,284A1.54,1.54,0,0,0,72.25,281.89Z" transform="translate(-4.68 -54)"/><path class="cls-5" d="M62.89,289.42c-5.71,0-9.39,3.94-9.39,10,0,4.9,4.12,8.24,5.46,9.2v5.22c0,1.89,2.11,2.91,4.1,2.91h0a4.73,4.73,0,0,0,2.46-.62,2.62,2.62,0,0,0,1.31-2.29v-5.2l.07-.06c1.4-1,5.4-4.32,5.4-9.15C72.28,293.37,68.59,289.42,62.89,289.42Zm1.7,25.27a3,3,0,0,1-1.54.36,2.75,2.75,0,0,1-2.27-.87,11.11,11.11,0,0,0,2.45.3,6.8,6.8,0,0,0,1.76-.22A1,1,0,0,1,64.59,314.69Zm.48-2.22a7.12,7.12,0,0,1-4.37,0v-.68a11.21,11.21,0,0,0,2.51.31,6.73,6.73,0,0,0,1.86-.25Zm0-2.41a7,7,0,0,1-4.37,0v-.71a11.79,11.79,0,0,0,2.68.34,7.33,7.33,0,0,0,1.69-.19Zm.41-2.58,0,0c-1.61.85-4.3.2-5.26-.14l-.06,0c-.89-.62-4.87-3.63-4.87-7.88,0-5.12,2.93-8.3,7.65-8.3s7.65,3.18,7.65,8.3C70.53,304.23,65.53,307.44,65.48,307.47Z" transform="translate(-4.68 -54)"/><path class="cls-5" d="M174.63,82.67a1.55,1.55,0,0,0,1.29-1.7v-3a1.34,1.34,0,1,0-2.58,0v3A1.54,1.54,0,0,0,174.63,82.67Z" transform="translate(-4.68 -54)"/><path class="cls-5" d="M168,84.44a1.54,1.54,0,0,0,.26-2.12l-1.52-2.63A1.34,1.34,0,1,0,164.54,81l1.52,2.63A1.54,1.54,0,0,0,168,84.44Z" transform="translate(-4.68 -54)"/><path class="cls-5" d="M162.36,87.3l-2.63-1.52A1.34,1.34,0,1,0,158.44,88l2.63,1.52a1.34,1.34,0,1,0,1.29-2.23Z" transform="translate(-4.68 -54)"/><path class="cls-5" d="M190.81,103.73l-2.63-1.52a1.34,1.34,0,1,0-1.29,2.23l2.63,1.52a1.34,1.34,0,1,0,1.29-2.23Z" transform="translate(-4.68 -54)"/><path class="cls-5" d="M161.42,95.87a1.54,1.54,0,0,0-1.7-1.29h-3a1.34,1.34,0,1,0,0,2.58h3A1.54,1.54,0,0,0,161.42,95.87Z" transform="translate(-4.68 -54)"/><path class="cls-5" d="M192.57,94.58h-3c-.94,0-1.7.58-1.7,1.29a1.55,1.55,0,0,0,1.7,1.29h3a1.55,1.55,0,0,0,1.7-1.29C194.28,95.17,193.51,94.58,192.57,94.58Z" transform="translate(-4.68 -54)"/><path class="cls-5" d="M161.07,102.21l-2.63,1.52a1.34,1.34,0,1,0,1.29,2.23l2.63-1.52a1.34,1.34,0,1,0-1.29-2.23Z" transform="translate(-4.68 -54)"/><path class="cls-5" d="M188.19,89.53,190.81,88a1.34,1.34,0,1,0-1.29-2.23L186.9,87.3a1.34,1.34,0,1,0,1.29,2.23Z" transform="translate(-4.68 -54)"/><path class="cls-5" d="M184.45,78.86a1.55,1.55,0,0,0-2,.83L181,82.32a1.34,1.34,0,1,0,2.23,1.29L184.72,81A1.54,1.54,0,0,0,184.45,78.86Z" transform="translate(-4.68 -54)"/><path class="cls-5" d="M175.09,86.39c-5.71,0-9.39,3.94-9.39,10,0,4.9,4.12,8.24,5.46,9.2v5.22c0,1.89,2.11,2.91,4.1,2.91h0a4.73,4.73,0,0,0,2.46-.62,2.62,2.62,0,0,0,1.31-2.29v-5.2l.07-.06c1.4-1,5.4-4.32,5.4-9.15C184.48,90.34,180.79,86.39,175.09,86.39Zm1.7,25.27a3,3,0,0,1-1.54.36,2.75,2.75,0,0,1-2.27-.87,11.11,11.11,0,0,0,2.45.3,6.8,6.8,0,0,0,1.76-.22A1,1,0,0,1,176.79,111.66Zm.48-2.22a7.12,7.12,0,0,1-4.37,0v-.68a11.21,11.21,0,0,0,2.51.31,6.73,6.73,0,0,0,1.86-.25Zm0-2.41a7,7,0,0,1-4.37,0v-.71a11.79,11.79,0,0,0,2.68.34,7.33,7.33,0,0,0,1.69-.19Zm.41-2.58,0,0c-1.61.85-4.3.2-5.26-.14l-.06,0c-.89-.62-4.87-3.63-4.87-7.88,0-5.12,2.93-8.3,7.65-8.3s7.65,3.18,7.65,8.3C182.73,101.2,177.73,104.41,177.68,104.44Z" transform="translate(-4.68 -54)"/><path class="cls-1" d="M492.19,445.85H11.5a3,3,0,1,1,0-6H492.19a3,3,0,0,1,0,6Z" transform="translate(-4.68 -54)"/><path class="cls-1" d="M263.22,446h-31a3,3,0,0,1-3-3V332.41a3,3,0,0,1,3-3h31a3,3,0,0,1,3,3V443A3,3,0,0,1,263.22,446Zm-28-6h25.07V335.4H235.17Z" transform="translate(-4.68 -54)"/><rect class="cls-3" x="227.51" y="316.61" width="31.03" height="72.41"/><path class="cls-3" d="M266.2,446h-37V367.62h37Zm-31-6h25.07V373.59H235.17Z" transform="translate(-4.68 -54)"/><path class="cls-1" d="M208.91,446h-31a3,3,0,0,1-3-3V373a3,3,0,0,1,3-3h31a3,3,0,0,1,3,3v70A3,3,0,0,1,208.91,446Zm-28-6h25.07V376H180.86Z" transform="translate(-4.68 -54)"/><rect class="cls-3" x="173.2" y="343.17" width="31.03" height="45.84"/><path class="cls-3" d="M211.9,446h-37V394.19h37Zm-31-6h25.07V400.16H180.86Z" transform="translate(-4.68 -54)"/><path class="cls-1" d="M320.51,446h-31a3,3,0,0,1-3-3V286.76a3,3,0,0,1,3-3h31a3,3,0,0,1,3,3V443A3,3,0,0,1,320.51,446Zm-28-6h25.07V289.74H292.46Z" transform="translate(-4.68 -54)"/><rect class="cls-3" x="284.8" y="286.72" width="31.03" height="102.3"/><path class="cls-3" d="M323.5,446h-37V337.73h37Zm-31-6h25.07V343.7H292.46Z" transform="translate(-4.68 -54)"/><path class="cls-1" d="M152.82,446h-31a3,3,0,0,1-3-3V417.16a3,3,0,0,1,3-3h31a3,3,0,0,1,3,3V443A3,3,0,0,1,152.82,446Zm-28-6h25.07V420.14H124.77Z" transform="translate(-4.68 -54)"/><rect class="cls-3" x="117.1" y="376.49" width="31.03" height="12.52"/><path class="cls-3" d="M155.8,446h-37V427.51h37Zm-31-6h25.07v-6.56H124.77Z" transform="translate(-4.68 -54)"/><path class="cls-1" d="M377.21,446h-31a3,3,0,0,1-3-3V239.61a3,3,0,0,1,3-3h31a3,3,0,0,1,3,3V443A3,3,0,0,1,377.21,446Zm-28-6h25.07V242.6H349.16Z" transform="translate(-4.68 -54)"/><rect class="cls-3" x="341.49" y="255.85" width="31.03" height="133.16"/><path class="cls-3" d="M380.19,446h-37V306.87h37Zm-31-6h25.07V312.84H349.16Z" transform="translate(-4.68 -54)"/><path class="cls-5" d="M419.87,371.2a20.29,20.29,0,1,0,20.29,20.29A20.31,20.31,0,0,0,419.87,371.2Zm16.82,20.23H419.58v-.08h0V374.68h.29A16.84,16.84,0,0,1,436.69,391.43Zm-14,16.63-3.13-16.61,13.23,10.76A16.83,16.83,0,0,1,422.72,408.07Z" transform="translate(-4.68 -54)"/><path class="cls-5" d="M419.87,254.83a20,20,0,1,0,20,20A20,20,0,0,0,419.87,254.83Zm12.68,30.65-12.86-10.88L430.36,262a16.54,16.54,0,0,1,2.19,23.48Z" transform="translate(-4.68 -54)"/><path class="cls-5" d="M419.87,315.1a20.29,20.29,0,1,0,20.29,20.29A20.31,20.31,0,0,0,419.87,315.1ZM422.72,352l-3.13-16.61,13.23,10.76A16.83,16.83,0,0,1,422.72,352Z" transform="translate(-4.68 -54)"/><path class="cls-6" d="M178.27,208.08c0-.38.47-8.37.47-8.37l14.86,1.88-.68,6.63Z" transform="translate(-4.68 -54)"/><path class="cls-2" d="M194.39,271.34l5.67-.29s12.55,1.71,13.45,1.87c2,.36,2.05,1.33,2.05,2,0,.9,0,18.07,0,18.07l13.29-.77s.74-27.24.74-28.14a3,3,0,0,0-2.1-2.66L204.62,255s-23.71-1.38-30-1.38c-3.93,16,2.24,21.33,2.24,21.33s2.38,20.56,2,24.11-5.54,29.34-5.54,29.34l10.85,12.65s8-37.43,8.39-41.24S194.39,271.34,194.39,271.34Z" transform="translate(-4.68 -54)"/><path class="cls-1" d="M174.37,254.47a257.09,257.09,0,0,1,.63-26.89l1.27-20.4s11.73.5,16.13.5c8.51,7.12,16.91,13.73,12.21,47.34C196.5,255,176.33,254.47,174.37,254.47Z" transform="translate(-4.68 -54)"/><path class="cls-7" d="M185.67,332.36c-4-2.17-8.13-4.81-10.37-5.84-1.44-.66-2.68-.35-3.32.66-1,1.65-3.06,5.06-4.14,7l22.26,12.4C191.92,343,193.38,336.58,185.67,332.36Z" transform="translate(-4.68 -54)"/><path class="cls-8" d="M189.89,346.91l.19-.37-22.26-12.4-.29.51c-.67,1.22-.12,2.63,1.42,3.49,4,2.23,13.18,7.17,17.45,9.47C187.81,348.36,189.25,348.09,189.89,346.91Z" transform="translate(-4.68 -54)"/><path class="cls-7" d="M228.29,290.9c-4.52,0-9.44-.31-11.9-.13-1.58.11-2.52,1-2.59,2.17-.12,1.95-.26,5.91-.28,8.1l25.48.17C238.88,297.22,237.08,290.9,228.29,290.9Z" transform="translate(-4.68 -54)"/><path class="cls-8" d="M239,301.63c0-.13,0-.27,0-.41L213.51,301c0,.2,0,.4,0,.58,0,1.39,1.16,2.37,2.93,2.38,4.61,0,15,0,19.85-.08C237.86,303.91,239,303,239,301.63Z" transform="translate(-4.68 -54)"/><path class="cls-9" d="M210.22,186c-3.07,20.21-8.59,19.69-26.62,17-5.14-.78-22.89-7.59-20.33-24.49s11.88-26.28,26.63-24S212.78,169.06,210.22,186Z" transform="translate(-4.68 -54)"/><path class="cls-10" d="M189.5,180a18.57,18.57,0,0,1,7.28-11.52s25.31,5.55,20-21.82c-.61-3.13-2.66-3-4.89-2.55-8.86,1.67-10.26,5.88-15.07,2.15-5.9-4.58-28.89-8.77-30.5,15.74-12.68,2.7-8.77,18.42-5.45,26.64,3.12,7.72,15.22,13.75,17.77,12.86,2.11-.74,3.5-6.61,3.59-8.71s-2.83-3.63-4.08-7.81,3.86-14.23,9.93-4.48C188.38,181,189.35,180.69,189.5,180Z" transform="translate(-4.68 -54)"/><path class="cls-8" d="M224.46,299.4a5.54,5.54,0,0,1-2.64,7.37L186.44,323.5a5.54,5.54,0,0,1-7.37-2.64l-9.63-20.35a5.54,5.54,0,0,1,2.64-7.37l35.37-16.73a5.54,5.54,0,0,1,7.37,2.64Z" transform="translate(-4.68 -54)"/><circle class="cls-11" cx="194.98" cy="294.01" r="2.16" transform="translate(-111.66 57.59) rotate(-25.31)"/><rect class="cls-11" x="171.57" y="298.4" width="49.95" height="1.52" transform="translate(-113.7 58.73) rotate(-25.31)"/><path class="cls-8" d="M185.17,274.59h0l-.1.05-.1,0h0c-2.36,1.26-7.9,4.63-6.44,7.73l3.91,8.26,2.75-1.3-3.82-8.08c.33-.85,2.49-2.59,5-3.93,2.63-1.09,5.34-1.65,6.21-1.36l3.82,8.08,2.75-1.3-3.91-8.26C193.77,271.43,187.64,273.57,185.17,274.59Z" transform="translate(-4.68 -54)"/><path class="cls-9" d="M182,265a51.16,51.16,0,0,1-7.27,2.25C169.17,287,190.18,286.68,193.07,279c.94-2.49-5.71-2.89-5.86-6.27-.12-2.58,4.44-.38,6,0s3.64-2.91,1.37-3.77S182.53,267.28,182,265Z" transform="translate(-4.68 -54)"/><path class="cls-12" d="M183.16,266.29,174,270.06c-9-20.34-5.61-35.15-1.31-43.48,4.76-9.23,7.5-10.82,10.28-12.71,4-2.89,8.16,5.94,4.64,7.86C185.77,222.74,169.11,234.49,183.16,266.29Z" transform="translate(-4.68 -54)"/><path class="cls-12" d="M176.49,205.1c-.44-.06-.6,4.82-.4,5s21.92,2.4,22,1.92c.26-1.1-3.57-4.79-3.74-4.84C193.7,207.07,192.25,207.18,176.49,205.1Z" transform="translate(-4.68 -54)"/></svg>