<svg xmlns="http://www.w3.org/2000/svg" viewBox="0 0 25.51 30.81"><defs><style>.cls-1{fill:#149698;}</style></defs><title>right-persent</title><g id="Layer_2" data-name="Layer 2"><g id="Layer_1-2" data-name="Layer 1"><path class="cls-1" d="M16.63,7.9l-2.54,3.59a7.81,7.81,0,0,1-1.76,1.92,3.09,3.09,0,0,1-2,.42,5.46,5.46,0,0,1-2.67-1.11,6.29,6.29,0,0,1-2.16-2.28,3.22,3.22,0,0,1-.32-2A6.35,6.35,0,0,1,6.28,6.21L8.94,2.45A7.62,7.62,0,0,1,10.88.39,3,3,0,0,1,12.95,0a5.93,5.93,0,0,1,2.56,1.12,6,6,0,0,1,2,2.2,3.26,3.26,0,0,1,.35,2.1A7.28,7.28,0,0,1,16.63,7.9ZM14,4.64a4.34,4.34,0,0,0,.64-1.08q.05-.25-.32-.52a.56.56,0,0,0-.6-.11,3.55,3.55,0,0,0-.82.93L9.15,9.13a4.3,4.3,0,0,0-.68,1.15c0,.16.09.34.35.52a.52.52,0,0,0,.58.1,3.54,3.54,0,0,0,.78-.9Zm11.54,3.6L2,24.15,0,22.74,23.55,6.85ZM19.18,24.85l-2.55,3.6a7.81,7.81,0,0,1-1.75,1.92,3.08,3.08,0,0,1-2,.43,5.45,5.45,0,0,1-2.67-1.11A6.23,6.23,0,0,1,8,27.41a3.25,3.25,0,0,1-.33-2,6.31,6.31,0,0,1,1.1-2.2l2.67-3.77a7.55,7.55,0,0,1,1.93-2.05A3.07,3.07,0,0,1,15.49,17a5.86,5.86,0,0,1,2.56,1.11,6,6,0,0,1,2,2.22,3.25,3.25,0,0,1,.34,2.1A7.4,7.4,0,0,1,19.18,24.85Zm-2.66-3.24a4.44,4.44,0,0,0,.64-1.09c0-.17-.07-.35-.32-.52a.54.54,0,0,0-.59-.11,3.83,3.83,0,0,0-.82,1L11.7,26.11A4.25,4.25,0,0,0,11,27.24c0,.16.09.33.34.51s.42.2.58.11a3.83,3.83,0,0,0,.78-.91Z" transform="translate(0 0)"/></g></g></svg>