<svg xmlns="http://www.w3.org/2000/svg" viewBox="0 0 21.12 27.89"><defs><style>.cls-1{fill:#149698;}</style></defs><title>right-doll</title><g id="Layer_2" data-name="Layer 2"><g id="Layer_1-2" data-name="Layer 1"><path class="cls-1" d="M19.53,12.61l-5.58-3,.5-.93a6.9,6.9,0,0,0,.86-2,.91.91,0,0,0-.58-.91,1,1,0,0,0-1,0,2.51,2.51,0,0,0-.9,1,2.92,2.92,0,0,0-.47,2.12,23.35,23.35,0,0,0,1.9,3.68,25.58,25.58,0,0,1,1.83,3.55,6.06,6.06,0,0,1,.25,2.64,9.1,9.1,0,0,1-1.16,3.41,8,8,0,0,1-4,3.9,7.49,7.49,0,0,1-5.45-.24l-1.14,2.1-2.57-1.4,1.18-2.17a7.62,7.62,0,0,1-3-3.84q-.86-2.41,1.17-6.14L2,13.24l5.58,3-.74,1.37a14.68,14.68,0,0,0-1.35,2.89.88.88,0,0,0,.54,1,1.11,1.11,0,0,0,1,.08,2.17,2.17,0,0,0,.89-1,11,11,0,0,0,1.2-2.83,4.51,4.51,0,0,0-.84-2.74,44.34,44.34,0,0,1-2.2-4.24,7.1,7.1,0,0,1-.44-3,7.91,7.91,0,0,1,1-3.46,6.05,6.05,0,0,1,3.55-3.15,7.91,7.91,0,0,1,5.2.55l1-1.78L19,1.4,18,3.18A6.94,6.94,0,0,1,21,7a6.29,6.29,0,0,1-.82,4.57Q20,11.93,19.53,12.61Z"/></g></g></svg>