<svg xmlns="http://www.w3.org/2000/svg" viewBox="0 0 27.02 29.45"><defs><style>.cls-1{fill:#149698;}</style></defs><title>right-eur</title><g id="Layer_2" data-name="Layer 2"><g id="Layer_1-2" data-name="Layer 1"><path class="cls-1" d="M14.7,10.27l1.69,1.29-2,2.56-1.69-1.29L11.84,14l1.69,1.29-2,2.56L9.88,16.57,7.82,19.27a13.53,13.53,0,0,0-1.23,1.79,1.73,1.73,0,0,0-.15,1.12,1.62,1.62,0,0,0,.65,1,1.8,1.8,0,0,0,1,.37,1.44,1.44,0,0,0,1.06-.39,16.7,16.7,0,0,0,1.63-1.94l1.75-2.29,5.55,4.24-.72.94A18.22,18.22,0,0,1,13,28.57a6.37,6.37,0,0,1-4.26.8A10.12,10.12,0,0,1,3.9,27.23,10.63,10.63,0,0,1,1,23.92a7,7,0,0,1-1-3.6A7.47,7.47,0,0,1,.83,17a31.56,31.56,0,0,1,2.84-4.21l.49-.64-1.44-1.1,2-2.56,1.44,1.1L7,8.45,5.58,7.35l2-2.56L9,5.89l.33-.43a33.75,33.75,0,0,1,3-3.53A6.79,6.79,0,0,1,15.38.23a7.61,7.61,0,0,1,3.87,0,11,11,0,0,1,4,2,10.72,10.72,0,0,1,3,3.37,6.52,6.52,0,0,1,.72,4.12q-.31,2.22-3,5.7l-.6.79L17.83,12l1.49-1.95q1.13-1.56,1.37-2a1.14,1.14,0,0,0,.14-.85,1.66,1.66,0,0,0-.67-.84,2.06,2.06,0,0,0-1.27-.49,1.53,1.53,0,0,0-1.07.45,18.18,18.18,0,0,0-1.45,1.75Z"/></g></g></svg>