<svg id="Layer_1" data-name="Layer 1" xmlns="http://www.w3.org/2000/svg" viewBox="0 0 563.24 283.09"><defs><style>.cls-1{opacity:0.6;}.cls-2{fill:#d17442;}.cls-3{fill:#d1d3d4;}.cls-4{fill:#58595b;}.cls-5{fill:#e6e7e8;}.cls-6{fill:#231f20;}.cls-7{fill:#f9ed32;}.cls-8{fill:#f7941e;}.cls-9{fill:#27aae1;}.cls-10{fill:#ed1c24;}.cls-11{fill:#662d91;}.cls-12{fill:#8dc63f;}.cls-13{fill:#f1f2f2;}.cls-14{fill:#c1c1c1;}.cls-15{fill:#e8d8bf;}.cls-16{fill:#cf9e76;}.cls-17{fill:#dfb28b;}.cls-18,.cls-21,.cls-36,.cls-45{fill:none;stroke-miterlimit:10;}.cls-18,.cls-36{stroke:#231f20;}.cls-18{stroke-width:0.44px;}.cls-19{fill:#7e8191;}.cls-20{fill:#9094a0;}.cls-21,.cls-45{stroke:#e9d0a6;}.cls-21{stroke-width:0.13px;}.cls-22{fill:#676b7a;}.cls-23{fill:#c9c9c9;}.cls-24{fill:#d4d4d4;}.cls-25{fill:#3d5554;}.cls-26{fill:#585a60;}.cls-27{fill:#5f6168;}.cls-28{fill:#4e5056;}.cls-29{fill:#f2e5d3;}.cls-30{fill:#ccb396;}.cls-31{fill:#3c2415;}.cls-32{fill:#6d6e71;}.cls-33{fill:#e2ecea;}.cls-34{fill:#eef4f2;}.cls-35{fill:#a97c50;}.cls-36{stroke-width:0.48px;}.cls-37{fill:#badce8;}.cls-38{fill:#d6eaf1;}.cls-39{fill:#bcbec0;}.cls-40{fill:#ace3f7;}.cls-41{fill:#cdeefa;}.cls-42{fill:#95a5a9;}.cls-43{fill:#55696d;}.cls-44{fill:#5c7075;}.cls-45{stroke-width:0.12px;}.cls-46{fill:#3d5155;}.cls-47{fill:#a4b1b4;}.cls-48{fill:#bcbdc0;}.cls-49{fill:#756d5c;}.cls-50{fill:#95a1a9;}.cls-51{fill:#6d6555;}.cls-52{fill:#554d3d;}.cls-53{fill:#a4aeb4;}.cls-54{fill:#3d4c55;}.cls-55{fill:#c49a6c;}</style></defs><title>success</title><g class="cls-1"><path class="cls-2" d="M146.37,145.05c1.15,0,.72-1.67,2.33-1.24,2.14.8,3.38,2.6,6.36,2.48,2-1.48-2.77-2.74-1.15-3.7.86.32,1.46.91,2.31,1.22.46-2.13-.65-2.61-1.16-3.71,4.78-.26,3.21-6.48,2.35-9.87a12,12,0,0,1,5.18-.61c-.15-2.72-3.11-2.44-4.62-3.71,1.8.3,1.3-1.88,3.45-1.24.42-1.87-1-1.8-.57-3.71,2.07.34,1.42-2.18,3.48-1.85,1.45-.51,5,1.22,4.64-1.23.53-2.25-2.52-.63-2.9-1.87-1.37-.18-1.09-2.13-2.9-1.84-2.51-.37-5.2,2.23-6.37,1.25.36-3.12,5.1-1.57,5.78-4.32-1.2-1.79-3.75-2.16-7-1.86-1.87-.71-4.17-1.63-5.2,0-.49-.91-1.85-.89-2.89-1.25-2.33,1.64-8-.29-10.4,1.25-2.68.06-5.89-.49-7,1.24-.05,1.34,1.58,4,.57,4.3-4.18-.7-6.54.43-10.39-.61-5.81.85-8.52,4.91-14.49,5.57-.55,2.23,2.6.49,2.3,2.48-1.67,1.49-4.77,1.45-6.34,3.08-1.43-.8-3.31-.68-4.06,1.84,1.85-.53,1.79,1,2.89,1.22,0-1.64,2.9-1.64,2.9,0,1.41-.36,3.94-2.74,4,.64-2.47.25-5.95-.6-7.53.61.53,2.31,2.72,2.84,4.65,3.69,1.79.45,1.09-1.69,2.88-1.22a8.43,8.43,0,0,0,7,1.86,7.44,7.44,0,0,0,1.16,5.55c-.19,1.44-.91,2.33-.58,4.32,2.31,1.21,2.67-2.84,4.07-.6.31,2.2-1.76,1.87-3.49,1.84.49,2.77,4.41,1.91,5.2,4.32-1.31,1.06-2.91,1.81-4.05,3.09,1.63.81-1.8,1.27-1.15,3.09,4.13,3,.93,10,4,14.2h4.07c1.68.08,1,2.62,2.89,2.46.58-1.24,1-2.64,2.33-3.1-.7-4.65,2.89-4.71,2.32-9.25,1.48-.05.81-2.41,2.3-2.47,2.21,1.25,2.21-1.47,4.65,0a21.86,21.86,0,0,1,2.9-2.45c2.79-.75,4-3.13,6.93-3.71.23-2.23,5.11-2.77,3.47-4.95C150.43,147.7,148,145.23,146.37,145.05Zm5.8-2.46c-1.55-1.1,0-4.08,1.74-3.69C153.62,140.42,152.36,140.94,152.18,142.59Zm4-29.64c0,1.83-1.31,2.29-2.31,3.08-1.78-1.19-4.39-1.47-7.54-1.24C148.34,112.26,153.76,113.34,156.22,113Z" transform="translate(34.74 -108)"/><path class="cls-2" d="M74.58,122.24v3.68c1.76-.43,2.1.64,3.45.62.27-2.81,3.76-5.44,5.8-4.3.88,2.58-3,.08-2.89,1.83,1.75.93-2,1.11-1.74,2.47,1.51-.38,2.06.25,1.74,1.84-1.36,0-1.71-1.07-3.48-.6.09,1.75-1.94,1.21-1.15,3.7,3.46-.48,6-.86,7.53,1.84-4.6,1.06-7.56-2.44-10.43-1.22-.46,3,3.51,1.21,3.49,3.72,4.37-.67,10.23,2.73,11.57-1.87,1.51.19,2.49-.23,2.32-1.86.43-1.68-2.7.46-2.32-1.23h4.07c0-3.29,3.53-2.83,2.89-6.79,3-.1,3.28-3.08,7-2.48a4,4,0,0,1,4-2.46c.74-1.53-1.28-3,0-3.09,2.43-1.18,6,.62,7-3.08,0-1-1.61-.33-1.72-1.23-9.49,1.37-22.41-1.79-32.46,2.47-.78,3.73,2.5,3.11,2.89,5.57-3.76.32-2.62-4.63-6.93-3.72-.19.85-.85,1.19-.59,2.49-.94,0-2-.1-1.75,1.24C72.33,121.73,74.34,121,74.58,122.24Zm12.15,11.08c.3.32-.43.82-.59.63S86.56,133.14,86.74,133.31Z" transform="translate(34.74 -108)"/><path class="cls-2" d="M217,121c.3-1.73,3-.89,2.33-3.69A107.2,107.2,0,0,0,204.29,116a3.75,3.75,0,0,0,.57,2.49C208.51,119.77,211.52,121.71,217,121Z" transform="translate(34.74 -108)"/><path class="cls-2" d="M194.46,124.07c-.07,1.53-1.09,1.91,0,3.09,2.38-.13,2.46-2.74,5.19-2.48-.14,2.75-2.84,2.75-2.88,5.56a4.24,4.24,0,0,0,4.06,1.24c-.28,1.93,1.22,2,2.89,1.84a62.62,62.62,0,0,1,1.74-6.78c1.53,1.64,2.41,4,6.37,3.09.52-4.7-3.06-5-4.63-7.39-.17,1.43-1.56-.73-2.35-.65a2.68,2.68,0,0,1-2.85-1.22c1.35-1.64-.49-3.62-2.91-3.09-1.7,1,.92,3.2-.59,3.69-1.23-2.93-6.76-5.82-7,0C191.82,122.77,194,122.43,194.46,124.07Z" transform="translate(34.74 -108)"/><path class="cls-2" d="M252.93,119.75c0-3.9-5.38-2.57-5.2.61C249.7,122.29,250.78,119.51,252.93,119.75Z" transform="translate(34.74 -108)"/><path class="cls-2" d="M285.39,123.45c4.55-.82,9.33,2.15,10.4-1.86-1.36-2.38-6.66-3.39-9.82-1.83C284.67,119.83,285.69,122.35,285.39,123.45Z" transform="translate(34.74 -108)"/><path class="cls-2" d="M402.36,160.49c1.36-.2,1.08-2.13,2.87-1.84,3,.06,2.62,3.8,6.37,3.06.76-1.09-.51-3.1.59-4.92-1.54-.75-3.79-4.06-5.2-1.24a4.33,4.33,0,0,0-.58-3.09c-3.15-1.2-4.83-4-9.85-3.09-.67-1.15-2.24-1.31-2.9-2.47-3.78.54-4.6-2.12-8.7-1.25-.8,1.81,1.6,3.16,0,3.72-1.67-.27-1.37-2.67-2.88-3.08-1.7,1.91-4.83.18-8.16,1.24-2.07-1.44-1.91-5.33-6.33-4.31-.84.14-.19,1.84-1.17,1.84a64.28,64.28,0,0,1-6.94-3.68c-.26.54-.51,1.08-1.15,1.22.72-2.43-1.39-1.84-2.91-1.84,1.42-1.47-.63-1.4-1.14-2.49-2.79,1.09-2.59-.35-5.22-.6-.2.82-1.47.5-2.32.6-.58,1.16,1.73,2.07,0,2.49-5-.84-11.3,1.09-15.66,0-1.46-.39-2-2.28-3.45-1.85-2.68.66-4.47-.64-6.39-1.24-.67-.25-1.59.14-2.29,0-1.45-.3-2.55-2-5.79-1.27.22-1.58,1.7-1.85,1.72-3.68-.81-1.81-2.67-2.49-3.47-4.33-1.75.83-4.43.65-7,.64-1.44-.52-1.21-2.8-3.48-2.48-1.36.62-1.84,2.13-1.74,4.32-2.87-1-1.85,2.16-4,1.85-1.11-.26-.47-2.4-2.32-1.85-1.5,1.7-3.59,2.77-6.93,2.45-1,.8-1.54,2.1-3.47,1.87-.82.78-.27,3-1.77,3.08-1.19.39-4-1-3.44,1.23,0,2.27,3.37.9,2.87,3.72-2.13-.67-2.7-2.89-5.8-2.46,0,1.61.33,3.62-1.16,3.7-.67-.73-.67-2.2-.58-3.7-2.26-.54-.94,2.68-3.46,1.84-.91-1.1-.79-3.3-3.47-2.48-1.64,2.6-3.85,4.57-5.81,6.8-3.75.29-3.47-1.16-7.52-1.25-.93,3,3,.94,2.31,3.72-2.42-.6-5,.31-8.69,0-2.61,1.13-4,3.52-6.94,4.32V150c-1.44.1-2.79.11-3.47-.61.14,3.46,0,6.6-3.48,6.18.19,2.28-2.12,1.85-3.48,2.47-1.43.83,1,1.85-.59,2.47-3.39.72-3.59-4.47-3.46-5.54,2.69,0,5.65-.28,7.53.6,1.54-3.87-3.26-5.87-7-6.18a5.49,5.49,0,0,0-4.61-2.47,10.86,10.86,0,0,0-2.91-3.69h-5.23c-1.57,1.17-3,2.5-4.6,3.69-.26-.91-.75.26-1.77,0-2.07,2.33-4.66,4.08-6.93,6.19a14,14,0,0,1-3.48,6.77c-.11-.72-1.07-.51-1.74-.61v2.45c-3.68.25-4.06,3.91-5.23,6.81,1.17,1.46,1.33,3.94,1.17,6.78.56,1.67,3.66.67,4.64,1.87-1.27,1.82-2.32,2.5-2.32,4.33,1.23-.29,1.09.86,1.15,1.85-2.06,0-3.36,1-5.2,1.21-.53,1.11-1.64,1.59-1.17,3.72-3.29-1-1.29,3.56-4.05,3.08.1.73-.12,1.1-.6,1.23-2.54-.27-3.05,1.67-4.63,2.49-1.39.33-3,.53-2.85,2.46.75.84,2.5.6,4,.62-.28,2.79,2.69,2.09,2.33,4.95-.6.82-.58,2.3-1.76,2.46-2.69-1.47-5.09.55-8.66,0-.59,2,1.29,6.72-1.19,6.8.43,1.81,1.77,2.66,1.19,5.55,2.69-.62,3.5.8,5.22,1.22,2.16-1.18,2.45-1.18,4.61,0,1.32-2.49,3.31-4.3,2.89-8.64,2.54-.78,2.11-4.74,5.21-4.93,2.46,1.54,3.44-.43,5.81-.61-1.64,2.4-.82,6.25,0,9.26,3.66-.35,1.38-3.5,1.72-6.8-.59,0-.73-1.08,0-1.23v1.23c1.2.19,1.15,1.65,1.76,2.48,2.81.06,4.55,1.26,5.19,3.71-.09,1.34-1.44,1.31-2.9,1.22-.07,2.16,2.05,1.94,2.9,3.1-.27-2.78,1.57-3.28,2.9-4.32.32-1.39-1.09-.88-1.16-1.87,1.07-1.93,2,2.09,2.93,0-1.59-3.26-8.79-3.81-7-8.62,1.72,2.82,5,4.15,7,6.79.32.47.82,1.92,1.13,2.47.45.77,1.41,1.48,1.17,2.45v3.7c.75.84,2.52.6,4.06.62,1-2.12-1-5.16.56-7.41h1.74c-.65,2.44-.1,2.3-.56,4.92,1.3-.21.77,1.79,1.73,2.49,2.11,1.58,6,1.1,7.52,0,1.74.89-1.51,3.21,1.15,3.1,2.39.46.12-4,2.92-3.1v3.7c-1.7,1.09-.53,5.23-2.92,5.55-4.21-1.64-9.47-2.22-15.06-2.45-1.67.47-1.38,3-2.89,3.72-2.66-2.93-7.93-3.1-10.4-6.18.44-2.14-.66-2.62-1.16-3.72,1.35-.17,1.32-1.65.56-2.46a19,19,0,0,0-8.69,1.85c-4.7-.29-8.77.09-11,2.49-.49-1.3-1.67-1.9-3.45-1.87-.49,2.18-2.57,2.62-4,3.72-1.58,2.9-1,6.68-2.3,9.25-.87,1.63-4,3.3-5.24,4.95a13.76,13.76,0,0,1-2.9,8v16a21.35,21.35,0,0,1,4.65,8.63c2.66,1.68,4.46,4.32,8.1,4.94a27.9,27.9,0,0,1,8.1-.61c1.2-1,1.12-3.32,3.5-3.09,1,.1.33,2.09,1.17,2.46,2.66-.39,3.69,1,5.77,1.24,1-.54,1.47-1.72,3.48-1.24.58,4.77-1.23,7-1.17,11.13,1.65,3.17,4.48,5.56,3.49,9.88,1.53,2.07,1.63,5.66,2.32,8.64-1.43,2.8-1.1,7.44-2.32,10.49A20.06,20.06,0,0,1,202,324.1v5.56c2.57,3.21,2.5,9.23,5.2,12.35,5.56-.43,8.36-3.82,13.32-4.94a11.81,11.81,0,0,1,5.2-7.42c-.29-2.39,1-3,.57-5.56,1-.55,1.49-1.72,3.49-1.24.06-7.12,2.43-11.78,7-14.19a59.21,59.21,0,0,0,0-17.28,32.59,32.59,0,0,0,2.86-8,50.11,50.11,0,0,1,4.07-3.09c2.76-4.26,5.25-8.82,8.12-12.95.44-2.32,1.21-5.47-.6-6.8-2.47-.37-2.33,2-4.6,1.86h-5.22c-.28-4.23-3.16-5.69-5.23-8,.51-4.06-3.43-3.33-2.31-8-1-1.41-2.79-2-3.47-3.69.54-1.86-.84-4.8,0-4.94,1.38,1.06,2.94,4.3,2.3,5.55,2.43,2.59,4,6,6.38,8.65,1.38,2.57,1.16,6.43,4.07,8.64,4-1.43,6.87-4.17,11.56-5,.81-.36.1-2.37,1.14-2.45,2.52-.43,3.57-2.39,5.81-3.1-.41-2.69,1.7-2.74,1.74-4.92-1-2.22-4-2.35-3.49-6.17-2.19-.3-3.69.17-4.62,1.21-.48-2.33-2.61-3-2.33-6.16-1.87.16-1.67-1.9-2.88-2.47.86-.32,1.45-.9,2.31-1.24,3.2,2.13,2.24,8.72,8.11,8,.24,1.19,1.65,1.14,1.15,3.09,2.8.31,3.22-1.91,5.8-1.85.59.39.6,1.4,1.74,1.24,4-.65,5,2,7.49,3.06-1-.21-1.08.49-1.13,1.24.6,1.18,2.66.84,3.48,1.85-.3,1.94,1,2.17.55,4.32,1.76,2.05,2.51,5.17,3.48,8a9.05,9.05,0,0,1,2.93,4.31v3.72c.72.85,2.51.6,4,.6.77-3.94,2.84-6.44,2.31-11.73h2.32v-2.48c2.19.91,1.13-1.67,2.89-1.22-.17-2.84,2.12-3.11,2.91-5a10.83,10.83,0,0,1,5.2-2.46c1.32,1.7,1.32,4.77,3.49,5.58.2,1.45-1.06,1.31-.62,3,.65,2,4.61.46,5.83,1.85-.78,1.31.29,1.84-.59,3.73a4.57,4.57,0,0,1,2.89,3.7c-.21,1.16-1.65,1.11-1.15,3.1.18,1.86,1.79,2.19,1.15,4.94,2.79,2.57,5.42,5.34,8.68,7.41.15-4.08-2.72-4.89-2.88-8.66a11.67,11.67,0,0,1-4.06-4.32c.27-2-.77-5.32,1.15-5.56,1.27,1.76,2.18,3.89,4.67,4.32a3.65,3.65,0,0,1,.54,2.47c5.63-.79,7-6.13,6.37-13.57-.74-.62-2.13-.61-2.89-1.24.74-2.72-2.78-2.53-1.16-4.33s1.51,2,4,1.24c.42-2.65,3.36-2.62,6.38-2.48,1.83-3,4.3-5.26,5.2-9.27.94.18,1-.58,1.74-.59,1-2.51-.13-7.14,1.75-8.63-1.23-.57-1.75-1.83-1.75-3.74-1-.77-2.25-1.27-2.3-3.08-.25-1.47,1.07-1.35.57-3.08,1.2.19,1.83-.13,1.74-1.27,1.66-.78-2.61-3.68,1.17-3.68.66,2,2.66,2.49,3.48,4.32-.57,3.26,1.09,4.19,2.91,4.94,3.46-2.69-.12-9.48,1.72-14.2a14.65,14.65,0,0,1,4.63-2.48c1.34-2.89,2.52-5.94,4.61-8,.8-5-1.31-10.1,0-13.58-.79,3.52,1.33,3.94,1.74,6.17.12,3.83.3,7.52,2.91,8.63,1.08-1.09-.47-1.56,0-3.68,1.58-.07,1.17,1,2.31,0,.11-2-1.53-2.09-1.14-4.34-2.09-.42-2.63-2.52-3.49-4.31-.22-2.22.21-5.16-1.72-5.56-1.2.15-.15,2.74-1.73,2.48-1-4.55-4.91,2.84-6.4-1.85.4-1.44,1.47-2.13,2.33-3.09.67-2,.43-4.86,2.32-5.58,1.33,1.53,1.06-.9,2.86-.61,2.73.41,5.25,1.62,8.71,1.25-.2,1.06.45,1.18,1.13,1.22.76-.85,2.54-.59,4.07-.62.29-1.95-1-2.17-.57-4.31,1.17-.17,1.13-1.66,2.31-1.85,1.19.19,1.15,1.68,2.32,1.85-.27-1.35,1.72-3.41,2.3-1.85-1.85,4-4.57,7-5.2,12.34.38,1.67,1.65,2.36,2.33,3.72.26,2.36.68,4.62,2.3,5.54,1.45-1.55,2.3-3.72,4.06-4.95-.53-3.05,1.86-2.6.61-4.92.14-1.25,1.53-1.22,1.71-2.47-.85-.74-2.59-.55-2.33-2.48.58-5.42,4.37-4.25,8.7-3.71.84-.95.75-2.87,1.74-3.69,3.38-.27,5.92-2,8.09-1.86C405.23,162.78,402.37,163.16,402.36,160.49Zm-194.57,6.8a7.53,7.53,0,0,0,4.6,2.47v6.17c-1.3-.25.33-3.63-2.3-2.46-1.28,2.13-.47,6.47-2.3,8-1.93.19-3.36-.29-4.66,0-1.61.34-1.95,1.79-3.47,1.85.19-.76-1.66-2.14-1.71-.63-1.36-.18-1.36-1.68,0-1.86a9.28,9.28,0,0,1-2.33-6.18c2.89.26,1.78,8.7,6.94,6.18,1.31-2.51,2.2-5.47,3.46-8a15.17,15.17,0,0,0-1.16-3.71c.34-5.8,4.47-7.58,6.37-11.71.7-.08,1.05.14,1.16.62C211.93,162.27,207.25,162,207.79,167.29Zm6.36,4.31c0-1.87,2-1.52,3.47-1.85C217.67,171.67,215.87,171.6,214.15,171.6Zm4.63-24.07c-.31-.33.42-.79.58-.62C219.65,147.24,218.94,147.7,218.78,147.53Zm10.43,88.91c-.3-.33.41-.81.57-.63C230.09,236.12,229.36,236.62,229.21,236.44Zm.57-76.57c-.3-.32.41-.78.58-.61S229.93,160,229.78,159.87ZM272.63,150c-1.1-.25-2.49-.2-2.31-1.85-1.74-.12.54-2.57,0,0C270.72,149.13,273.13,148,272.63,150Zm35.88-11.09c-.28-.32.45-.82.62-.63S308.68,139.06,308.51,138.9Zm1.76-.63c-.29-.32.42-.78.58-.6S310.44,138.44,310.27,138.26ZM312,137c-.3-.31.42-.8.59-.63C312.89,136.74,312.16,137.19,312,137Zm26.07,77.79c.82-1.17,1.29-2.73,3.49-2.45,0,1-.28,2.34.56,2.45C341.25,216.67,339.59,214.3,338.08,214.82Z" transform="translate(34.74 -108)"/><path class="cls-2" d="M132.48,287.68c-1-1.16-1.7.26-2.89.61-.91-2.11-3.16-2.81-5.2-3.72h-4.05c-1-1.79-4.92-.53-5.22-3.07-1.54,0-3.42.34-3.46-1.24,1.67-2.89-1.72-10.76-7-8a7.09,7.09,0,0,1-3.47-5.58c-3-.9-5.19-2.71-8.13-3.7-.75.23-.9,1.08-1.73,1.23-.78-2.22-3.6-2.33-4.07-4.93-1.85-.55-1.19,1.58-2.3,1.85-1.35-.44-1.54-2.06-2.9-2.47-.53,1.07-1.06,2.13-2.89,1.85-.89,2.56-3.2,3.56-4.62,5.56.13-2-.71-3-2.34-3.1-1.49.65-2.15,2.22-4.08,2.47-1.35-3,.61-5.87,0-9.89-1-2.14-4.89-1.32-6.93-2.45.57-2.69,2.26-4.17,1.74-8a15,15,0,0,1-5.78,0c-1.06,1.33-.56,4.34-2.32,4.92-7.75.45-2.9-10.58-4.63-15.43,2-.51,3.27-1.84,5.22-2.45,3.16-.3,3.9,2,6.92,1.83,0-.87-.12-1.73.59-1.83,2.79.14,6.51-.79,6.95,1.83-.25,3.58,1.28,5.25,4.05,5.57a11.78,11.78,0,0,1,0-6.19c-.66-.92-1.65-1.51-1.74-3.09a9.27,9.27,0,0,1,7.52-7.41,4.45,4.45,0,0,0,0-3.7,3.75,3.75,0,0,0,2.93-.62c-1.44-3.38,1.88-2.64,1.14-6.79,1.93-.83,3.76-1.72,5.78-2.47.31-1.94-1.75-1.4-1.15-3.7,2.12-1.87,5.33-2.56,8.14-3.71.4,1.68-1.18,1.25-1.18,2.47,2.32-1,4.78-1.9,6.38-3.7-1.43-1-4.31-.38-4.06-3.09.32-1.72,2.22-1.72,3.48-2.46.23-1.5-1.07-1.33-.59-3.09,2.82,2,6.08-3,8.1-1.86-1.33,3.31-4.09,5.09-5.2,8.63,2.14.45,2.49-1,4.62-.61.05,1-.25,2.36.59,2.47.58-1.53,2.22.85,4.06,0-.28-1.42-1.13-3.15,0-4.33-2.11-.22-2.65-2.11-3.48-3.71a55.07,55.07,0,0,0,0-8c-1.11-1.14-1.44,0-2.89,0,.07-2.92-2.67-2.91-2.89-5.54a3.65,3.65,0,0,0,.57-2.47c-2.23-1.35-1.42-5.93-4.64-6.18-.29.9.7,3.19-.57,3.1-1.2-.37-3.81.77-4.06-.64v-6.16c-3.1,1.49-2.53-1.43-5.22-1.85-1.52,1.7-1.25-.72-2.88-.61-1.41-.25-1.25,1.12-2.9.61.87,6.15-1.57,9.61-.59,14.2-1,.18-2.88-1.75-3.48,0,.59,1.76,1.94.4,2.33,1.23-2,1.35-2.07,4.79-2.89,7.43-1.33-1.89-1.58-4.92-2.3-7.43-1.18-1.23-1.15.29-2.32.62-.51-1.79-.87-.67-2.34-.62a14.65,14.65,0,0,0-6.34-4.31c.91-3.07-2-2-1.79-4.33,1.26.3,1.12-.88,1.18-1.85,1.92-1.05,2.73-3.25,4.63-4.33,1.28-2.16,2.17-4.7,5.24-4.93,0-1.1-.72-1.3-.59-2.47a40.27,40.27,0,0,0,8.66-2.47,16.46,16.46,0,0,1,.59-6.18c-.68-.9-2.19-1-2.89-1.85,2.3-.2,4.28,0,5.2,1.22,1.08-1.87,2.78.72,4.63,0-.81,3.15,2.64,1.72,2.32,4.34-.57,4.53-6.87,2.94-7.53,7.4,1,1.47,3.38,1.35,5.8,1.22,3.59,1.74,5,5.79,9.86,6.19-1.29-3.2,1-3.11.58-6.79-.25-1.61-1.75-1.87-1.76-3.71,2.21.14,2.82,2,4.65,2.47-.17-1.61-.21-3.08,1.73-2.47-.4-1.9.59-2.25.57-3.71-1.57.43-1.1-1.27-1.73-1.85A26.94,26.94,0,0,1,100,150c.17-1.26,1.58-1.19,1.76-2.46-.75-1.47-2.55-1.83-2.35-4.31h-5.2c.28-2-1.56-1.63-1.73-3.11-2.47-.35-3.83.45-5.79.64.34-3.83-4.58-2.61-5.22-.64.22-2.3-.46-3.61-2.31-3.71-3,2-6.47,8.28-2.89,11.75.85.35,3-.7,2.89.61-.62,1.81-1.83,3-2.89,4.34-1.48-1.52,1.22-1.34.59-3.72-2-1.38-3.86-2.9-4.65-5.56-2.2.29-1.84-2.13-4.61-1.22.21,1.47-1.09,1.33-.61,3.07,2,.84,1.25,5.75,0,6.8-.85-.53-1.24-1.54-1.12-3.09-2.92-.44-2.92,2.29-5.26,2.47-2.15-1-4.51-1.75-5.77-3.7,2.58-.47,3.48.82,5.77.61,1.28-1.28-.26-1.76,0-3.7,3.21-.7,4.49-3.46,7.52-4.3-1.05-1.94-.84-3.4-1.14-4.94H58.36c-1.28,1.72-4.16,1.72-4.65,4.29-.3-.91-.85-1.53-1.15-2.45-1.53,0-3.61.57-2.89-1.85,4.29.94,9.4-2.25,13.31-3.72,0,2.85,5,2.13,5.8.62a25.37,25.37,0,0,0-1.14-4.33c-3.41.48-5.09,2.85-8.7,3.1v-3.7c-3.17-1.14-3.74,2.91-1.73,3.7-3.32.43-5.19-.68-8.09-.62.86,3.2-2.67,1.71-2.9,3.71,1.44.79,1.78-.31,2.3.62a2.45,2.45,0,0,1-2.3,1.21c-.93-3.52-5.53-3.18-9.86-3.08a8.9,8.9,0,0,1-3.49,6.18c-.1,1.94,1.52,2.09,1.17,4.32,2.86.18,4.29-1.17,6.34-1.85-1.18,3.34,3.18.74,3.5,2.48s-2.73-.45-2.33,1.22c0,3.34,6.34-.15,5.23,4.33,2.17-1.37,2.83-1,5.2,0h.59c-.18-.74,1.66-2.12,1.74-.61-.1.73-.92.69-1.74.61.16,1.56,2.48,3.51,0,4.34-.68-.13-.47-1.14-.59-1.86-5.14-.49-7.74-3.67-13.89-3.09-1.77-.58-1.82-3-4-3.08-.27,1.75-1.81,2.18-3.48,2.46a4.34,4.34,0,0,0-.56-3.09c-2.24.14-2.24,2.62-4.63,2.48-2.21.47-2.77-.75-4.65-.61-.64.15-.38,1.22-1.16,1.22-.56,0-.47-.75-.56-1.22-1.39.21-2.2,1-4.08.61-4.62-3.08-13.53-1.61-18.5-4.33-4.33,2-9.95,2.59-12.74,3.09-1.32,2.39,1.05,2.44,1.71,4.33,2.22-.3,3.63.25,4.07,1.85-2.35-.86-2.08,1.09-2.91,1.85-1.06-.54-1.57-1.6-2.88-1.85-2.2,2.39-7.49,1.5-9.27,4.31,3.19-.11,4.32,2,4.63,5,3.07-1.19,5.38.17,8.11-.66-2.84,5.44-14.89,1.06-13.92,10.51,1.93,1.49,2.39,1.69,1.75,4.95,1,.08,1.21-.76,2.3-.62,0,1-.27,2.35.58,2.47.82-2,.27,2.53,1.75,1.85.71-2.41,3.29-3,5.2-1.23-2.5,2.08-3.41,5.82-6.35,7.41-2.66.89-3.57,3.61-6.95,3.69.47,2-.92,1.91-1.17,3.1,2.65.35,3.61-1.1,6.37-.62.65-1.78,2.46-2.29,4.65-2.48,2.17-4.24,5.94-6.81,9.26-9.87h1.17c.6-.58.17-2.26,1.72-1.85,0-.37.1-.73.57-.61,0,.37-.07.73-.57.61.25,2.76-1.55,3.27-2.31,4.95,4.76.56,5.91-2.72,9.85-3.09.26-2.77-.3-4.64-.58-6.8,2.66.58,2.81-1.54,5.18-1.24a16.45,16.45,0,0,1,4.08,4.34c3.68,1.24,6.83,3,6.36,8.64,2.8-.4.14-3.42,2.34-3.71.13,5.22-.19,10.86,1.71,14.21-1.75,1.6-.59,2.28,0,4.33,0,1.22-1.58.77-1.13,2.47-.28,6.77-.66,11.31,0,17.89,1.54,1,2.55,2.62,4,3.72,1.6,2.38,1.48,6.62,3.47,8.63-.67.11-.49,1.13-.58,1.86,2.42.93,3,3.82,4.08,6.18,1.76-.47,1.67,1.08,3.43.6.08-2.63-1.12-2.05-1.13-5.53-.33,0-.65-.52,0-.63v.63c1.23-.31,1.08.87,1.13,1.84a20.4,20.4,0,0,1,4.65,4.94c-.42,4.35,1.11,6.63,2.3,9.27,4.78,1.27,7.6,4.43,13.33,3.06A24.07,24.07,0,0,0,56,259.89c2.18-.48,2.77.76,4.61.62a6.4,6.4,0,0,0,2.9,3.08v1.86c3.35.37,4,3.55,7,4.32.59-.82.55-2.29,1.73-2.45.22,2.22,1.19,3.69,1.74,5.53,0,1.24-1.57.81-1.15,2.48.27,3.18-1.86,3.8-2.31,6.18-1.12,4.31,2.33,6.66,0,8.63,1,1.18,2.85,1.47,4.06,2.49-.48.89-1.87.87-2.9,1.22-.42,5,2.13,6.79,5.21,8.05.23,1.47-1.07,1.33-.59,3.07,2.17,1.8,2.94,5.09,6.39,5.56,1.05,2.76,2.88,4.72,2.87,8.63-.59.82-.54,2.28-1.13,3.08a2.8,2.8,0,0,1,1.13,2.48c-1.56,2.78.7,6,0,9.88-3.13,2-1.69,8.9-2.87,13,.85,1.71,2.37-1.07,2.87.63.53,3-2,2.83-2.87,4.3-.74,2,1.84.48,1.14,2.49-1.11,1.49.63,3-.59,4.92.57,4.2,2.52,6.35,1.2,9.89,1.71,1.45,1.52,4.92,3.46,6.17-.08,1.1.68,1.3.56,2.46a10.32,10.32,0,0,1,3.47,1.84c2.17-.38,6,1,6.36-1.24a5.3,5.3,0,0,1-3.46-2.47c.43-2.08-2.34-.78-1.74-3.08-.2-2.71,1.68-3.18,1.74-5.56a2.25,2.25,0,0,0,2.33-2.45c.29-2.19-2-1.51-1.74-3.72,1.56-1.9,3.94-8,0-8.64,3.88,1,3.74-2.15,4.63-4.31,3.12.22,4.19-1.74,6.38-2.48.38-2.88-.93-4-1.17-6.16h4.64c0-.62.71-.49,1.16-.63.32-1.5.5-3.17,2.32-3.08-.21-3.5,2.19-4.24,3.47-6.19V326c1.1-1.1,1.8-2.61,2.88-3.72a46.15,46.15,0,0,0,5.22-1.85c.27-4,3.07-7.39,1.16-11.73.88-.52,1.25-1.55,1.16-3.09.93.2,1-.57,1.75-.6.22-2,1.71-2.73,2.32-4.31,1.54-1.6-.08-3,1.71-3.71-.39-1.9.59-2.27.59-3.72A15,15,0,0,0,132.48,287.68ZM105.85,185.2c.28.32-.43.77-.59.6C105,185.49,105.68,185,105.85,185.2ZM61.24,137c1.78.6-.64,1.67-.59,2.47C58.9,138.9,60.93,137.41,61.24,137Zm-2.31,3.09c1.83-.28,2,1.14,4,.64,0,2.45-2.27,2.53-4,3.07ZM41,141.38c-.32-.34.38-.82.55-.62S41.15,141.53,41,141.38ZM28.83,230.25c.11-.7.56-.32.56,0C29.3,231,28.83,230.6,28.83,230.25Zm.56,1.24c1.38.21,1.31,1.92,2.33,2.47C31,235.51,28.89,233.3,29.38,231.49Z" transform="translate(34.74 -108)"/><path class="cls-2" d="M250.65,146.3c-.84-2.84-3.56-3.63-2.92-8,4.09-.37,5.62-3.48,8.68-4.95,3.66.4,5.51-1.1,5.83-4.3h-2.92c-.14.48,0,1.22-.6,1.22-4.34.51-7.58,2.22-11,3.71.29,3.17-2.8,2.79-2.32,6.16-.71,1.32-2.15,1.81-2.29,3.71a41.41,41.41,0,0,0,5.76,3.71A1.62,1.62,0,0,1,250.65,146.3Z" transform="translate(34.74 -108)"/><path class="cls-2" d="M347.34,135.19c1.39-1,2.07-2.73,3.49-3.71-2.2-.3-2.67-2.84-4.65-2.46-.25,0-.54,1.45-1.16,1.22h-3.45C340.79,134.74,345.69,133.22,347.34,135.19Z" transform="translate(34.74 -108)"/><path class="cls-2" d="M162.59,163c.07-1.57,2.16-1,2.9-1.84.61-3.13-1.33-3.54-1.16-6.17-2.51.82-3.41-.4-5.8.6-1.57-.38-1.45-2.58-3.48-2.46.71,3-2.3,2.07-2.3,4.31,1.62.51,1.5-.86,2.87-.61-.3,1.49-2.22,1.32-1.72,3.7,2.9-.81,2.27,2.13,4.06,2.46C158.46,161.68,162,162.32,162.59,163Z" transform="translate(34.74 -108)"/><path class="cls-2" d="M83.25,163c-2.3-.65-.78-1.56-2.3-3.08-1.75.45-1.71-1.06-3.48-.61-.82,1.18-.3,3.76-2.88,3.11,0,2.16,1.9,2.46,4,2.45C78.42,160,82.56,166.83,83.25,163Z" transform="translate(34.74 -108)"/><path class="cls-2" d="M185.21,185.2a10.25,10.25,0,0,1-2.35-1.85c.72-3.66-3.84-4.24-1.72-7.42a9.91,9.91,0,0,1-2.33-1.86c.84-.52,1.83-.91,1.74-2.46-2.12-.19-3.23.7-4.61,1.22.43,3.37-.92,4.8-.59,8a9.91,9.91,0,0,0,2.88,1.23c.24,2.19-2,3.39-2.88,2.46a7.53,7.53,0,0,0,1.16,5.57c-1,.57-3.11,0-2.92,1.86a40.61,40.61,0,0,1,9.27-.63C183.34,188.71,183,187,185.21,185.2Z" transform="translate(34.74 -108)"/><path class="cls-2" d="M169.52,187.67c1.33-.66,3.52-.41,4.65-1.24-.61-2.58-.14-2.73,0-5.56h-2.89c0,2.76-1.31.78-2.31,1.86C169,184.5,168.66,186.75,169.52,187.67Z" transform="translate(34.74 -108)"/><path class="cls-2" d="M368.17,205.56c1.12.08.42,2,1.74,1.85,1.28-1.52,1.09-4.6,3.47-4.93-3-.46-4.94-2.15-8.1-2.47.42,2.93-.65,4.24-.59,6.81C366.29,208.47,366.14,205.22,368.17,205.56Z" transform="translate(34.74 -108)"/><path class="cls-2" d="M354.87,224.71c-.1,2.17,1.37,2.65,2.31,3.68a6,6,0,0,1,3.49-4.32,2.7,2.7,0,0,1,1.72.64c1.83-2.38,5.67-2.61,7.53-5-.09-4.4-1.28-7.7-1.14-12.35h-2.34c.71,2.89-.29,4.31.6,7.41-.46.15-.66.53-.6,1.26a15.84,15.84,0,0,0-5.21,3.68c-2,1.14-5.72.48-5.79,3.72-.26,1.7,3.15-.48,2.91,1.24Z" transform="translate(34.74 -108)"/><path class="cls-2" d="M213.56,219.76c.16,1.73,1.91.5,3.46,1.87.42-2.31-.89-2.74-2.88-2.49C214.24,219.66,213.91,219.73,213.56,219.76Z" transform="translate(34.74 -108)"/><path class="cls-2" d="M342.69,240.77a6,6,0,0,1,1.74,3.69c2.41-.14,2.22-3,2.34-5.55C345.32,237.54,343.31,239.34,342.69,240.77Z" transform="translate(34.74 -108)"/><path class="cls-2" d="M74.58,238.91v2.46H76.9A2.25,2.25,0,0,0,74.58,238.91Z" transform="translate(34.74 -108)"/><path class="cls-2" d="M80.94,242a4.16,4.16,0,0,0-.58-3.06H78.62C78.4,241,78.79,242.43,80.94,242Z" transform="translate(34.74 -108)"/><path class="cls-2" d="M81.52,241.37v3.09c1.21.25,1.54-.42,2.32-.63A2.23,2.23,0,0,0,81.52,241.37Z" transform="translate(34.74 -108)"/><path class="cls-2" d="M80.36,251.25c2.08-.36,2.8.71,4.08,1.24,0-1.78,2.39-1.13,4-1.24-.83-4.09-4-3.53-7.52-3.71.44-1.68-1.18-1.24-1.18-2.46-1.25-.7-3.18-.72-3.46-2.47H67.64c-.26,1.17-1.26,1.55-1.17,3.09,2.36.24,2.35-2,5.22-1.24,2.44.51,2.71,3.31,5.21,3.7,1.38.39,4.2-.78,4.62.62C79.4,248.84,80.07,249.67,80.36,251.25Z" transform="translate(34.74 -108)"/><path class="cls-2" d="M86.15,244.46c-.18-.84-1.45-.52-2.31-.63C82.61,246.11,86.78,246.62,86.15,244.46Z" transform="translate(34.74 -108)"/><path class="cls-2" d="M345,251.25a11.8,11.8,0,0,0,3.48,3.7c.73-1.92,2.69-2.47,2.33-5.56C349.25,247.16,344.94,248.17,345,251.25Z" transform="translate(34.74 -108)"/><path class="cls-2" d="M331.11,253.11c1.63-.35,1.63-2.4,2.33-3.71a3.14,3.14,0,0,0-2.33-.61C330,251.19,330.36,249.29,331.11,253.11Z" transform="translate(34.74 -108)"/><path class="cls-2" d="M74,250v2.49c1.95-.66,2,.2,4-.62C78.42,249.4,75.84,250.11,74,250Z" transform="translate(34.74 -108)"/><path class="cls-2" d="M89.61,252.49c2.09.15,4,.13,3.48-2.49H89.61Z" transform="translate(34.74 -108)"/><path class="cls-2" d="M150.43,252.49c0,1.21-1.57.78-1.14,2.46h2.3C151.76,253.54,151.43,252.62,150.43,252.49Z" transform="translate(34.74 -108)"/><path class="cls-2" d="M349.67,262.37c1.2,1.33,1.63-.32,3.46,0-.19,1.44-1.24,2.67.59,3.08.82-1.81,2.44-2.75,5.2-2.47.54-2.84-1.85-2.56-2.9-3.7.15-2-.68-3-2.3-3.09-.81.8-.58,2.68-.59,4.33C351.19,259.45,350.62,260.88,349.67,262.37Z" transform="translate(34.74 -108)"/><path class="cls-2" d="M292.31,264.21c.83,3.66-2.2,4.41,0,6.17,1.83.3,1.54-1.65,2.91-1.85A8.79,8.79,0,0,0,292.31,264.21Z" transform="translate(34.74 -108)"/><path class="cls-2" d="M330.54,280.9c.57,2.48,3.09,2.87,2.89,6.16,3.75-.93,3.18,2.76,6.94,1.84-.16-1.42,1.66-.68,1.75-1.84-.44-.15-1.14,0-1.15-.64,1.9-.85.95-4.7,2.91-5.52-1.33-2,.48-4.11-.6-5.58,1-.55,2-1.14,1.73-3.07-1.4-1.18-2.53-2.66-5.21-2.5C339.27,276.21,331.57,275,330.54,280.9Z" transform="translate(34.74 -108)"/><path class="cls-2" d="M319.53,276.55c-.87-1.44-2.71-2.43-2.29-4.3-1.59.42-1.18-1.24-2.33-1.24.08,2.72-1.42-.08-2.9.61,0,7.21,8.14,5.74,7,14.2,2.85.34,3.65,4.4,6.34,3.08,1.33-2.36-1.19-5.06-1.12-8A19.9,19.9,0,0,1,319.53,276.55Z" transform="translate(34.74 -108)"/><path class="cls-2" d="M352,281.5c-.12-2.75-3.66-1.88-4.65-3.71-3,2.54-5,9.41-.57,11.72-.12-1.78.14-3.14,1.16-3.7,1.27,1.18,1.35,3.14,3.47,1.86-.29-2.58-2.24-3.41-2.31-6.18A2.07,2.07,0,0,0,352,281.5Z" transform="translate(34.74 -108)"/><path class="cls-2" d="M364.7,279c-1.88-1.26-6.51-1-6.35,1.87C360.32,282.21,364.56,281.6,364.7,279Z" transform="translate(34.74 -108)"/><path class="cls-2" d="M371.09,281.5H367c-.52.9-.87,2-2.33,1.85-1.79.47-1.08-1.72-2.86-1.25.17,1.62-2.28.5-1.75,2.46.07,1.39,1.44-.77,2.86,0,2.58,2.22,6,3.55,8.13,6.19v3.71c3.1-2,4,1.26,6.37,1.85,2-.08,1.4-3,4-2.47,1.36.85,2.89,4.7,5.21,2.47-1.21-.54-1.76-1.83-1.74-3.69-1.52-1.48-3.64-2.28-4.62-4.34v-1.87C375.89,286.26,374.67,282.62,371.09,281.5Z" transform="translate(34.74 -108)"/><path class="cls-2" d="M340.38,295.7c.32-2.19-2-1.52-1.72-3.71-4.72.13-8.09-1.28-11.59-2.48-.51,1.09-1.62,1.58-1.14,3.71C331.44,293.29,334.07,296.47,340.38,295.7Z" transform="translate(34.74 -108)"/><path class="cls-2" d="M383.23,319.78c.23-2.91-1-4.25-.57-7.41-1.14-.42-1.32-1.87-2.3-2.46-.2-4.73-4.14-5.47-3.48-11.12-1.08.13-1.27-.69-2.3-.62-1.49,2.54.62,8.92-1.77,10.5-2.27.81-1.17-2-3.47-1.25-.09-1.73-2.74-.74-2.3-3.08-.3-2,2.85-.23,2.3-2.45-2-2.4-7.95-.62-11-1.87-1,.38,0,2.92-1.17,3.08a21.2,21.2,0,0,0-5.79,1.86c-.72,1.87-.2,5.14-2.31,5.56-1.38-1.47-2.86.09-4.66,0-1.13.42.14,3.45-1.13,3.69-1.2-.34-1.13-1.85-2.32-.61-1.44,1.54-.76,5.35-2.9,6.17-1.29.89-3.87.41-4.64,1.85.61,2.75,2,6.17.58,9.26,1.13.44,1.52,1.66,1.74,3.09.32,2.82-1,3.84-.6,6.79,1.73-.16,1.81,1.4,3.5,1.25,2.41-1.12,3.84-3.3,8.11-2.48,2-2.76,6.11-3.37,11-3.08a11.2,11.2,0,0,1,3.45,5.56c2.26-1.15,1.57,1.43,4.06,0,0,1.62.21,3.51-.59,4.32,3.71,2.3,5.9,2.43,11.6,2.48,1.46-1.11,2.53-2.66,4.63-3.12-.28-3.16,2.76-2.78,2.3-6.15,2-.14,1.51-2.94,3.49-3.08-.66-2.19,1-3.5,1.16-5.56.32-3.77-1.12-7.62-1.73-11.11C384.69,319,383.74,321.59,383.23,319.78Z" transform="translate(34.74 -108)"/><path class="cls-2" d="M248.31,300A18.52,18.52,0,0,0,246,306.2c-2.51.62-3.79,2.5-5.2,4.33-.46,2.13.84,2.39.58,4.31a13.4,13.4,0,0,1-1.76,3.71c1.27,2.79-.4,5.25,1.76,7.41,1.88.12,2.44-1.1,4.62-.62,1.26-2.76.77-4,2.33-6.79v-3.09c.13-.69.64-1,1.15-1.24-1.05-2.7,1.07-5.26,1.19-9.87C248.48,304.37,250.7,299.75,248.31,300Z" transform="translate(34.74 -108)"/><path class="cls-2" d="M415.09,342c.11-1.77.08-3.38-1.73-3.08v4.91c-.47,1.82-2.76,1.62-2.32,4.35,3.9-.61,1.33,1.84,1.16,3.69,3.66-.19,3.8-4.22,5.23-6.79.86-.93,2.41-1.11,2.87-2.49C418.9,340.7,417.84,342.24,415.09,342Z" transform="translate(34.74 -108)"/><path class="cls-2" d="M408.72,349.42c-.5,1.3-1.74,1.83-1.72,3.69a3.2,3.2,0,0,0-2.33.62c-1,1.23-1.34,3.1-2.88,3.69-2.39,1-3.1,3.7-4.07,6.19,1.89-1,3.14-.31,5.2,0,.55-1.48,2.34-1.64,1.75-4.33H407c.16-3.52,4.55-2.53,4.61-6.17C411.41,351.06,409.9,350.45,408.72,349.42Z" transform="translate(34.74 -108)"/><path class="cls-2" d="M369.34,351.25c-.65.95,1.93,3.73,2.33,5.58,2.81-.3,4.63-1.64,4-5.58C373.19,351.75,370.35,350.49,369.34,351.25Z" transform="translate(34.74 -108)"/><path class="cls-2" d="M107,370.39h2.32C109.72,368,106.89,368.38,107,370.39Z" transform="translate(34.74 -108)"/></g><path class="cls-3" d="M464.77,215.35c6,.58,1.08,30.59,3.62,40.92a7.75,7.75,0,0,0,7.35,6s-35.4,10.14-64,2.34S395,234.18,395,234.18Z" transform="translate(34.74 -108)"/><polygon class="cls-4" points="467.79 130.08 461.55 130.08 416.77 270.65 423.01 270.65 467.79 130.08"/><polygon class="cls-4" points="452.43 130.08 458.68 130.08 503.44 270.65 497.2 270.65 452.43 130.08"/><rect class="cls-4" x="420.69" y="117.1" width="79.63" height="67.55"/><rect class="cls-5" x="424.2" y="119.43" width="72.59" height="61.59"/><rect class="cls-6" x="420.03" y="182.74" width="81.21" height="1.96"/><rect class="cls-6" x="433.74" y="130.47" width="0.53" height="36.24"/><rect class="cls-6" x="431.79" y="164.25" width="57.79" height="0.52"/><rect class="cls-7" x="447.29" y="144.64" width="3.51" height="19.62"/><rect class="cls-8" x="455.09" y="139.56" width="3.51" height="24.69"/><rect class="cls-9" x="463.38" y="139.56" width="3.53" height="24.69"/><rect class="cls-10" x="470.69" y="138.28" width="3.53" height="25.98"/><rect class="cls-11" x="478.51" y="133.99" width="3.51" height="30.26"/><rect class="cls-12" x="439.49" y="148.41" width="3.51" height="15.85"/><rect class="cls-6" x="437.13" y="165.02" width="0.51" height="1.37"/><rect class="cls-6" x="440.57" y="165.02" width="0.52" height="1.37"/><rect class="cls-6" x="444.03" y="165.02" width="0.52" height="1.37"/><rect class="cls-6" x="447.47" y="165.02" width="0.53" height="1.37"/><rect class="cls-6" x="450.92" y="165.02" width="0.52" height="1.37"/><rect class="cls-6" x="454.37" y="165.02" width="0.52" height="1.37"/><rect class="cls-6" x="457.81" y="165.02" width="0.53" height="1.37"/><rect class="cls-6" x="461.26" y="165.02" width="0.52" height="1.37"/><rect class="cls-6" x="464.72" y="165.02" width="0.51" height="1.37"/><rect class="cls-6" x="468.16" y="165.02" width="0.51" height="1.37"/><rect class="cls-6" x="471.6" y="165.02" width="0.53" height="1.37"/><rect class="cls-6" x="475.07" y="165.02" width="0.51" height="1.37"/><rect class="cls-6" x="478.5" y="165.02" width="0.52" height="1.37"/><rect class="cls-6" x="481.95" y="165.02" width="0.52" height="1.37"/><rect class="cls-6" x="485.39" y="165.02" width="0.53" height="1.37"/><rect class="cls-6" x="432.04" y="160.88" width="1.37" height="0.53"/><rect class="cls-6" x="432.04" y="157.43" width="1.37" height="0.52"/><rect class="cls-6" x="432.04" y="153.99" width="1.37" height="0.53"/><rect class="cls-6" x="432.04" y="150.54" width="1.37" height="0.52"/><rect class="cls-6" x="432.04" y="147.1" width="1.37" height="0.52"/><rect class="cls-6" x="432.04" y="143.67" width="1.37" height="0.52"/><rect class="cls-6" x="432.04" y="140.22" width="1.37" height="0.52"/><rect class="cls-6" x="432.04" y="136.78" width="1.37" height="0.51"/><rect class="cls-6" x="432.04" y="133.33" width="1.37" height="0.53"/><path class="cls-13" d="M462.06,227.43a9.26,9.26,0,0,0,3-12.29l-75.17,4.29s-5.26,3.7-.44,8Z" transform="translate(34.74 -108)"/><rect class="cls-6" x="121.87" y="159.02" width="44.99" height="60.88"/><path class="cls-14" d="M130.62,273.84a21.67,21.67,0,0,0-16.12-7.39l-9-.05a21.69,21.69,0,0,0-17,7.94,21.51,21.51,0,0,1,5,13.95l-.26,36.1,32.25.24-.27-36.34a21.62,21.62,0,0,1,5.42-14.44" transform="translate(34.74 -108)"/><rect class="cls-6" x="213.17" y="159.02" width="44.99" height="60.88"/><path class="cls-15" d="M221.94,273.84a21.69,21.69,0,0,0-16.13-7.39l-9-.05a21.66,21.66,0,0,0-17,7.94,21.57,21.57,0,0,1,5,13.95l-.26,36.1,32.25.24-.27-36.34a21.56,21.56,0,0,1,5.42-14.44" transform="translate(34.74 -108)"/><path class="cls-16" d="M206.32,267.89a6,6,0,0,1-5,2.2,7.16,7.16,0,0,1-5.33-2.2V250.2h10.32Z" transform="translate(34.74 -108)"/><path class="cls-17" d="M186.62,241.55a7,7,0,0,1-1.29,2.13l0,5.37c.05,7.63,5.82,13.76,12.89,13.71l5.32,0c7.07,0,12.76-6.28,12.72-13.91l-.1-13.88c-7.36-5.2-26.35-1.75-29.57,6.64" transform="translate(34.74 -108)"/><path class="cls-16" d="M115.58,267.74a6.19,6.19,0,0,1-5.12,2.21,7.41,7.41,0,0,1-5.48-2.21V250.06h10.6Z" transform="translate(34.74 -108)"/><path class="cls-17" d="M107.6,232.81c-2,0-13.54-.34-13.62,2.79,0,.14,0,.25,0,.38L94,248.53c.06,7.91,6,14.28,13.35,14.22l5.51,0c7.32,0,13.21-6.52,13.15-14.42l-.06-9.66c-5-5.27-11.44-5.91-18.38-5.82" transform="translate(34.74 -108)"/><line class="cls-18" x1="160.9" y1="221.65" x2="163.55" y2="261.5"/><line class="cls-18" x1="127.82" y1="221.65" x2="125.17" y2="261.5"/><rect class="cls-6" x="121.87" y="219.46" width="44.99" height="9.46"/><path class="cls-19" d="M93.2,313.25l.07,7.2c0,6,6,10.86,13.37,10.82l5.54,0c7.33,0,13.24-5,13.18-11l-.06-7Z" transform="translate(34.74 -108)"/><rect class="cls-19" x="128.03" y="215.89" width="13.89" height="47.33"/><rect class="cls-19" x="145.89" y="216.04" width="14.19" height="47.17"/><path class="cls-6" d="M94.86,373.17c0,2.06,0,3.76,1.67,3.76h7.6c1.71,0,1.74-1.7,1.74-3.76s-1.39-3.77-3.1-3.77H98c-1.71,0-3.1,1.7-3.1,3.77" transform="translate(34.74 -108)"/><path class="cls-6" d="M112.67,373.17c0,2.06,0,3.76,1.67,3.76h7.58c1.72,0,1.74-1.7,1.74-3.76s-1.37-3.77-3.08-3.77h-4.82c-1.71,0-3.09,1.7-3.09,3.77" transform="translate(34.74 -108)"/><path class="cls-19" d="M102,266s5.32,30.55,3.15,58.73H92L92.4,284l-4.35-9.32s3-6.93,13.9-8.67" transform="translate(34.74 -108)"/><path class="cls-19" d="M118.12,266s-5.22,30.34-3,58.51l11.95.33.65-40.85,4.33-9.32s-3-6.93-13.89-8.67" transform="translate(34.74 -108)"/><path class="cls-20" d="M96.53,267.41s3.8,16.91,3.47,18.86l2.18-.11-2.39,1.41,5.71,16.08s-.5-25-3.32-38.43c0,0-3.8.47-5.64,2.2" transform="translate(34.74 -108)"/><path class="cls-20" d="M123.59,267.41s-3.8,16.91-3.47,18.86l-2.18-.11,2.4,1.41-5.71,16.08s.5-25,3.31-38.43c0,0,3.8.47,5.65,2.2" transform="translate(34.74 -108)"/><rect class="cls-6" x="140.17" y="205.27" width="9.17" height="3.45"/><rect class="cls-21" x="142.13" y="204.86" width="5.38" height="4.16"/><path class="cls-20" d="M93.73,305.66l8.9.32s1.19,12.89-4.34,13.54-4.55-13.87-4.55-13.87" transform="translate(34.74 -108)"/><path class="cls-20" d="M126.61,305.66l-8.91.32s-1.18,12.89,4.35,13.54,4.55-13.87,4.55-13.87" transform="translate(34.74 -108)"/><polygon class="cls-22" points="140.17 208.73 140.08 217.17 127.98 216.74 140.66 217.93 140.17 208.73"/><polygon class="cls-22" points="149.25 208.73 149.35 217.17 161.45 216.74 148.74 217.93 149.25 208.73"/><path class="cls-23" d="M109.32,268.6l-1.38,5.86S103,269,102.87,268s-.2-1.73-.2-1.73l.71-2.31Z" transform="translate(34.74 -108)"/><path class="cls-23" d="M110.85,268.6l1.38,5.86s4.91-5.42,5.06-6.44.22-1.73.22-1.73l-.73-2.31Z" transform="translate(34.74 -108)"/><path class="cls-24" d="M109.32,268.6l0,3-.68-.09a26.18,26.18,0,0,1,.7-2.9" transform="translate(34.74 -108)"/><path class="cls-24" d="M110.85,268.6l0,3,.68,0a24.24,24.24,0,0,0-.7-3" transform="translate(34.74 -108)"/><polygon class="cls-25" points="143.74 161.59 145.83 161.54 146.55 164.43 145.83 166.28 143.88 166.28 143.15 164.25 143.74 161.59"/><polygon class="cls-25" points="144.71 196.29 140.66 191.09 143.88 166.28 145.83 166.28 148.77 191.16 144.71 196.29"/><line class="cls-18" x1="123.63" y1="228.92" x2="120.98" y2="268.77"/><line class="cls-18" x1="165.31" y1="228.92" x2="167.95" y2="268.77"/><path class="cls-20" d="M113,330.2c-.43.25,3-3.8,6.12-3.31s5.46,2.48,5.3,21.3c0,0-1.82-11.22-4.47-12.55s-2.65-5.28-3.8-3.63-.83-1-.83-1a1.52,1.52,0,0,0-2.31-.83" transform="translate(34.74 -108)"/><path class="cls-20" d="M105,330.2c.43.25-3-3.8-6.13-3.31s-5.45,2.48-5.29,21.3c0,0,1.82-11.22,4.47-12.55s2.65-5.28,3.8-3.63.84-1,.84-1a1.51,1.51,0,0,1,2.31-.83" transform="translate(34.74 -108)"/><line class="cls-18" x1="252.21" y1="221.65" x2="254.86" y2="261.5"/><line class="cls-18" x1="219.13" y1="221.65" x2="216.49" y2="261.5"/><rect class="cls-6" x="213.17" y="219.46" width="44.99" height="9.46"/><path class="cls-26" d="M184.5,313.25l.07,7.2c.06,6,6,10.86,13.37,10.82l5.54,0c7.33,0,13.24-5,13.18-11l-.05-7Z" transform="translate(34.74 -108)"/><rect class="cls-26" x="219.35" y="215.89" width="13.88" height="47.33"/><rect class="cls-26" x="237.2" y="216.04" width="14.19" height="47.17"/><path class="cls-6" d="M186.18,373.17c0,2.06,0,3.76,1.66,3.76h7.59c1.71,0,1.75-1.7,1.75-3.76s-1.4-3.77-3.1-3.77h-4.81c-1.7,0-3.09,1.7-3.09,3.77" transform="translate(34.74 -108)"/><path class="cls-6" d="M204,373.17c0,2.06,0,3.76,1.66,3.76h7.59c1.71,0,1.74-1.7,1.74-3.76s-1.38-3.77-3.09-3.77h-4.81c-1.71,0-3.09,1.7-3.09,3.77" transform="translate(34.74 -108)"/><path class="cls-26" d="M193.27,266s5.32,30.55,3.15,58.73H183.29l.42-40.74-4.34-9.32s3.05-6.93,13.9-8.67" transform="translate(34.74 -108)"/><path class="cls-26" d="M209.43,266s-5.21,30.34-3,58.51l11.95.33L219,284l4.34-9.32s-3-6.93-13.89-8.67" transform="translate(34.74 -108)"/><path class="cls-27" d="M187.85,267.41s3.8,16.91,3.46,18.86l2.18-.11-2.38,1.41,5.72,16.08s-.51-25-3.34-38.43c0,0-3.78.47-5.64,2.2" transform="translate(34.74 -108)"/><path class="cls-27" d="M214.9,267.41s-3.8,16.91-3.46,18.86l-2.18-.11,2.39,1.41-5.71,16.08s.5-25,3.32-38.43c0,0,3.8.47,5.64,2.2" transform="translate(34.74 -108)"/><rect class="cls-6" x="231.48" y="205.27" width="9.17" height="3.45"/><rect class="cls-21" x="233.44" y="204.86" width="5.38" height="4.16"/><path class="cls-27" d="M185,305.66l8.91.32s1.18,12.89-4.34,13.54S185,305.66,185,305.66" transform="translate(34.74 -108)"/><path class="cls-27" d="M217.92,305.66,209,306s-1.19,12.89,4.35,13.54,4.56-13.87,4.56-13.87" transform="translate(34.74 -108)"/><polygon class="cls-28" points="231.48 208.73 231.4 217.17 219.29 216.74 231.98 217.93 231.48 208.73"/><polygon class="cls-28" points="240.57 208.73 240.65 217.17 252.77 216.74 240.05 217.93 240.57 208.73"/><path class="cls-29" d="M200.64,268.6l-1.39,5.86s-4.92-5.42-5.06-6.44-.21-1.73-.21-1.73l.72-2.31Z" transform="translate(34.74 -108)"/><path class="cls-29" d="M202.16,268.6l1.37,5.86s4.92-5.42,5.06-6.44.23-1.73.23-1.73l-.73-2.31Z" transform="translate(34.74 -108)"/><path class="cls-30" d="M200.64,268.6l0,3-.69-.09a24.44,24.44,0,0,1,.71-2.9" transform="translate(34.74 -108)"/><path class="cls-30" d="M202.16,268.6v3l.69,0a24.87,24.87,0,0,0-.7-3" transform="translate(34.74 -108)"/><polygon class="cls-25" points="235.06 161.59 237.14 161.54 237.87 164.43 237.14 166.28 235.19 166.28 234.47 164.25 235.06 161.59"/><polygon class="cls-25" points="236.02 196.29 231.98 191.09 235.19 166.28 237.14 166.28 240.08 191.16 236.02 196.29"/><line class="cls-18" x1="214.95" y1="228.92" x2="212.29" y2="268.77"/><line class="cls-18" x1="256.63" y1="228.92" x2="259.27" y2="268.77"/><path class="cls-27" d="M204.3,330.2c-.43.25,3-3.8,6.12-3.31s5.46,2.48,5.29,21.3c0,0-1.82-11.22-4.46-12.55s-2.65-5.28-3.81-3.63-.83-1-.83-1a1.52,1.52,0,0,0-2.31-.83" transform="translate(34.74 -108)"/><path class="cls-27" d="M196.33,330.2c.42.25-3-3.8-6.13-3.31s-5.45,2.48-5.28,21.3c0,0,1.82-11.22,4.47-12.55s2.64-5.28,3.8-3.63.83-1,.83-1a1.52,1.52,0,0,1,2.32-.83" transform="translate(34.74 -108)"/><path class="cls-31" d="M28.68,364.77s-1.44,8.94,3.61,11.3,9,2,8.07,4.72c0,0,.14,3.5-10.65,2.16,0,0-7.47-.58-9.28-2-1.36-1.26.44-11.17,1.65-14.06,0,0,4.61-2.65,6.61-2.07" transform="translate(34.74 -108)"/><path class="cls-32" d="M-3.13,271.07S3,284.4,2.17,293.63L.52,295.32l-2.26-2.4s1.53-8.28-2.74-21.34Z" transform="translate(34.74 -108)"/><path class="cls-32" d="M-4.77,267.16s2,4.14,1.64,4.37a8.13,8.13,0,0,1-2,.33L-6.31,268s1-2,1.54-.87" transform="translate(34.74 -108)"/><path class="cls-16" d="M-6.63,269.7s-1.31,2.55-6.12,1.56a9.27,9.27,0,0,1-5.73-3.43l3.13-19.74,11.84,1.86Z" transform="translate(34.74 -108)"/><path class="cls-17" d="M1.73,222.48c-4.46-.17-8.92-.15-13.14,1.62-5.34,2.24-9.19,5.77-13.74,9l-.4,9.24c-.45,10.17,6.43,18.71,15.36,19.09l6.74.27c8.94.38,16.53-7.56,17-17.72l.64-14.72c.15-3.43-5.44-5.69-12.44-6.78" transform="translate(34.74 -108)"/><path class="cls-33" d="M-15.39,264S-27,260.23-25,285.84c1,13.21-1,35.09-1,35.09l23.32.16S9.57,263.66-15.39,264" transform="translate(34.74 -108)"/><path class="cls-32" d="M-4.21,337.16l2-17.16-24.09-.87s-2.24,13.38,5.32,16.57,16.72,1.47,16.72,1.47" transform="translate(34.74 -108)"/><polygon class="cls-31" points="8.61 208.17 7.73 212.54 32.91 213.85 33.02 210.13 8.61 208.17"/><polygon class="cls-32" points="11.33 213.03 10.03 212.92 10.43 208.07 11.74 208.18 11.33 213.03"/><rect class="cls-32" x="-21.41" y="318.19" width="4.87" height="1.31" transform="translate(-300.46 165.84) rotate(-85.31)"/><rect class="cls-32" x="-7.92" y="319.2" width="4.87" height="1.31" transform="translate(-288.99 179.33) rotate(-85.15)"/><path class="cls-34" d="M-20.43,264.31l2.21-2.78c5.17-.38,13.45,3.87,13.45,3.87L-5.1,270s-3.17-5.9-15.33-5.69" transform="translate(34.74 -108)"/><path class="cls-35" d="M-28.08,239c-1.18-16.18,11-17.89,11-17.89a70.91,70.91,0,0,1,15.13-.77c14.53.65,21.79,9.81,16.18,15.67-3.4,3.18-8.6,2.45-13.69,3.82-5.42,1.46-7.35,8.89-9.17,8.43-1-.26-1-2.56-1-2.56s-.54-2.39-2.37-1.72-3.55,4.92-.11,8c0,0,.42,8-2.61,8.57-3.2.59-12.07-3.74-13.37-21.55" transform="translate(34.74 -108)"/><path class="cls-32" d="M-2.52,322.68S24.72,330.32,25.57,333s5.29,40.8,5.29,40.8l-11.59,1.67s-5.73-30.21-5.48-33.74c-3.52-2-21.85-4.69-22.61-4.44s-8.58-13.09,6.3-14.61" transform="translate(34.74 -108)"/><line class="cls-36" x1="34.15" y1="229.65" x2="37.05" y2="269.23"/><line class="cls-36" x1="7.75" y1="229.65" x2="4.84" y2="269.23"/><path class="cls-6" d="M6,346H-33.53V335.57s25.16,0,33.22,0C9.45,335.52,6,346,6,346" transform="translate(34.74 -108)"/><path class="cls-6" d="M-33.51,335.81V274.73s8-1.49,8.41,13.11c.27,10.07.38,26.19,0,37.27-.39,11.32-8.41,10.7-8.41,10.7" transform="translate(34.74 -108)"/><line class="cls-36" x1="3.15" y1="237.64" x2="0.24" y2="277.21"/><line class="cls-36" x1="39" y1="237.64" x2="41.9" y2="277.21"/><path class="cls-6" d="M39,303.33a1.8,1.8,0,0,1-1.8,1.8H10.76a1.8,1.8,0,1,1,0-3.6h26.4a1.81,1.81,0,0,1,1.8,1.8" transform="translate(34.74 -108)"/><path class="cls-6" d="M36.58,305a1.8,1.8,0,0,1-1.16-2.27l8.05-25.09a1.8,1.8,0,0,1,3.44,1.1L38.85,303.8A1.82,1.82,0,0,1,36.58,305" transform="translate(34.74 -108)"/><path class="cls-34" d="M-16.58,267.1s-3.63,5.67,1.79,8.59,26.78-5.31,29.4-9.12c2.9-4.2,7.09-16,7.48-19.93,0,0-6.8-3.83-7.1-3.48C14.09,244.23,5.62,259,5.62,259s-19.49,5.21-22.19,8.15" transform="translate(34.74 -108)"/><polygon class="cls-34" points="49.63 134.49 48.28 136.97 56.35 141.78 57 138.38 49.63 134.49"/><path class="cls-37" d="M153.7,291.08a4.51,4.51,0,0,1-1.9-4.28H150a4.51,4.51,0,0,1-1.9,4.28c-1.23.84-1.25,2.56-.6,2.95,0,0-.79,1.78.33,2.37s-.33,5.05-.39,6.7,1.57,2.43,2.56,2.5l.82,0v0H151v0l.82,0c1-.07,2.86-.86,2.79-2.5s-1.74-6.11-.63-6.7.33-2.37.33-2.37c.66-.39.64-2.1-.59-2.95" transform="translate(34.74 -108)"/><path class="cls-38" d="M150.69,305.37c-.76-.05-2.42-.69-2.36-2.27a18,18,0,0,1,.34-2.14c.41-2.11.85-4.29-.07-4.77s-.23-2.05-.22-2.07l.08-.18-.16-.1a.93.93,0,0,1-.33-.77,2.19,2.19,0,0,1,.92-1.81,4.74,4.74,0,0,0,2-4.23h-.64a4.72,4.72,0,0,1-2,4.23,2.18,2.18,0,0,0-.93,1.81,1,1,0,0,0,.32.77l.18.1-.09.18s-.69,1.58.24,2.07.48,2.66.07,4.77a18.26,18.26,0,0,0-.35,2.14c-.06,1.58,1.59,2.22,2.36,2.27l.83.06h0l.34,0Z" transform="translate(34.74 -108)"/><path class="cls-38" d="M151.09,305.37c.76-.05,2.51-.69,2.45-2.27a10.84,10.84,0,0,0,0-2.14c-.41-2.11-1.29-4.29-.38-4.77s.7-2.05.7-2.07l-.08-.18.17-.1c.18-.11-.16-.41-.15-.77a1.85,1.85,0,0,0-.57-1.81,4.38,4.38,0,0,1-1.79-4.23h0a4.72,4.72,0,0,0,2,4.23,2.18,2.18,0,0,1,.93,1.81,1,1,0,0,1-.33.77l-.16.1.07.18s.7,1.58-.22,2.07-.49,2.66-.07,4.77a14.14,14.14,0,0,1,.34,2.14c.06,1.58-1.59,2.22-2.35,2.27l-.82.06h-.05l-.33,0Z" transform="translate(34.74 -108)"/><path class="cls-9" d="M152,286.42c0,.24-.49.41-1.08.41s-1.07-.18-1.07-.41.48-.41,1.07-.41,1.08.18,1.08.41" transform="translate(34.74 -108)"/><path class="cls-9" d="M152,287.47c0,.24-.49.41-1.08.41s-1.07-.18-1.07-.41.48-.41,1.07-.41,1.08.19,1.08.41" transform="translate(34.74 -108)"/><rect class="cls-9" x="184.56" y="178.42" width="2.11" height="1"/><path class="cls-37" d="M57.51,291.08a4.5,4.5,0,0,1-1.9-4.28H53.79a4.51,4.51,0,0,1-1.9,4.28c-1.23.84-1.25,2.56-.6,2.95,0,0-.79,1.78.33,2.37s-.33,5.05-.4,6.7a2.64,2.64,0,0,0,2.57,2.5l.82,0v0h.17v0l.83,0c1-.07,2.86-.86,2.79-2.5s-1.74-6.11-.63-6.7.33-2.37.33-2.37c.66-.39.64-2.1-.59-2.95" transform="translate(34.74 -108)"/><path class="cls-38" d="M54.5,305.37c-.77-.05-2.42-.69-2.36-2.27a16.79,16.79,0,0,1,.34-2.14c.41-2.11.86-4.29-.07-4.77s-.23-2.05-.23-2.07l.07-.18-.16-.1a1,1,0,0,1-.33-.77,2.22,2.22,0,0,1,.93-1.81,4.72,4.72,0,0,0,2-4.23h-.64a4.72,4.72,0,0,1-2,4.23,2.16,2.16,0,0,0-.93,1.81.94.94,0,0,0,.31.77l.18.1-.08.18s-.7,1.58.22,2.07.49,2.66.08,4.77a20.84,20.84,0,0,0-.36,2.14c0,1.58,1.6,2.22,2.37,2.27l.82.06h0l.34,0Z" transform="translate(34.74 -108)"/><path class="cls-38" d="M54.9,305.37c.76-.05,2.51-.69,2.45-2.27a10.51,10.51,0,0,0,0-2.14c-.41-2.11-1.29-4.29-.38-4.77s.7-2.05.7-2.07l-.08-.18.18-.1c.18-.11-.16-.41-.15-.77a1.83,1.83,0,0,0-.57-1.81A4.4,4.4,0,0,1,55.26,287h0a4.72,4.72,0,0,0,2,4.23,2.14,2.14,0,0,1,.92,1.81.94.94,0,0,1-.32.77l-.16.1.07.18s.7,1.58-.22,2.07-.49,2.66-.07,4.77a16.15,16.15,0,0,1,.35,2.14c.06,1.58-1.59,2.22-2.36,2.27l-.82.06h-.05l-.34,0Z" transform="translate(34.74 -108)"/><path class="cls-9" d="M55.76,286.42c0,.24-.48.41-1.08.41s-1.06-.18-1.06-.41.47-.41,1.06-.41,1.08.18,1.08.41" transform="translate(34.74 -108)"/><path class="cls-9" d="M55.76,287.47c0,.24-.48.41-1.08.41s-1.06-.18-1.06-.41.47-.41,1.06-.41,1.08.19,1.08.41" transform="translate(34.74 -108)"/><rect class="cls-9" x="88.36" y="178.42" width="2.11" height="1"/><path class="cls-37" d="M169.5,291.08a4.51,4.51,0,0,1-1.9-4.28h-1.81a4.53,4.53,0,0,1-1.9,4.28c-1.22.84-1.25,2.56-.59,2.95,0,0-.79,1.78.32,2.37s-.32,5.05-.39,6.7,1.58,2.43,2.57,2.5l.83,0v0h.16v0l.82,0c1-.07,2.87-.86,2.79-2.5s-1.74-6.11-.62-6.7.33-2.37.33-2.37c.66-.39.64-2.1-.59-2.95" transform="translate(34.74 -108)"/><path class="cls-38" d="M166.5,305.37c-.76-.05-2.41-.69-2.35-2.27a16.74,16.74,0,0,1,.34-2.14c.41-2.11.85-4.29-.06-4.77s-.24-2.05-.23-2.07l.07-.18-.16-.1a.94.94,0,0,1-.32-.77,2.17,2.17,0,0,1,.92-1.81,4.74,4.74,0,0,0,2-4.23h-.65a4.72,4.72,0,0,1-2,4.23,2.19,2.19,0,0,0-.94,1.81,1,1,0,0,0,.33.77l.17.1-.08.18s-.7,1.58.24,2.07.48,2.66.07,4.77a18.73,18.73,0,0,0-.36,2.14c-.06,1.58,1.6,2.22,2.37,2.27l.82.06h.05l.34,0Z" transform="translate(34.74 -108)"/><path class="cls-38" d="M166.89,305.37c.76-.05,2.52-.69,2.45-2.27a10.63,10.63,0,0,0,0-2.14c-.41-2.11-1.29-4.29-.38-4.77s.7-2.05.7-2.07l-.08-.18.17-.1c.18-.11-.16-.41-.15-.77a1.84,1.84,0,0,0-.57-1.81,4.4,4.4,0,0,1-1.79-4.23h0a4.75,4.75,0,0,0,2,4.23,2.17,2.17,0,0,1,.95,1.81,1,1,0,0,1-.33.77l-.17.1.08.18s.69,1.58-.23,2.07-.48,2.66-.08,4.77a16.58,16.58,0,0,1,.35,2.14c.05,1.58-1.6,2.22-2.37,2.27l-.82.06h-.05l-.34,0Z" transform="translate(34.74 -108)"/><path class="cls-9" d="M167.75,286.42c0,.24-.48.41-1.08.41s-1.06-.18-1.06-.41.48-.41,1.06-.41,1.08.18,1.08.41" transform="translate(34.74 -108)"/><path class="cls-9" d="M167.75,287.47c0,.24-.48.41-1.08.41s-1.06-.18-1.06-.41.48-.41,1.06-.41,1.08.19,1.08.41" transform="translate(34.74 -108)"/><rect class="cls-9" x="200.35" y="178.42" width="2.12" height="1"/><path class="cls-37" d="M250.9,291.74a4.49,4.49,0,0,1-1.9-4.28h-1.81a4.53,4.53,0,0,1-1.9,4.28c-1.23.85-1.25,2.56-.6,3,0,0-.79,1.78.33,2.37s-.33,5.06-.4,6.7,1.57,2.43,2.57,2.5l.82.05h.16l.83-.05c1-.06,2.86-.85,2.79-2.5s-1.74-6.11-.63-6.7.33-2.37.33-2.37c.66-.39.64-2.1-.59-3" transform="translate(34.74 -108)"/><path class="cls-38" d="M247.89,306c-.76-.05-2.41-.7-2.37-2.27a19.86,19.86,0,0,1,.35-2.14c.41-2.11.85-4.29-.07-4.78s-.24-2.05-.22-2.07l.07-.19-.16-.1a1,1,0,0,1-.33-.77,2.19,2.19,0,0,1,.92-1.81,4.75,4.75,0,0,0,2-4.23h-.64a4.73,4.73,0,0,1-2,4.23,2.15,2.15,0,0,0-.93,1.81.93.93,0,0,0,.33.77l.17.1-.08.19s-.7,1.58.23,2.07.48,2.67.06,4.78a18.18,18.18,0,0,0-.35,2.14c-.06,1.57,1.6,2.21,2.36,2.27l.83.05h.05l.34,0Z" transform="translate(34.74 -108)"/><path class="cls-38" d="M248.29,306c.76-.05,2.51-.7,2.45-2.27a10.51,10.51,0,0,0,0-2.14c-.42-2.11-1.29-4.29-.38-4.78s.7-2.05.69-2.07l-.08-.19.17-.1c.19-.11-.15-.41-.14-.77a1.81,1.81,0,0,0-.57-1.81,4.4,4.4,0,0,1-1.79-4.23h0a4.74,4.74,0,0,0,2,4.23,2.16,2.16,0,0,1,.95,1.81,1,1,0,0,1-.33.77l-.17.1.08.19s.69,1.58-.24,2.07-.48,2.67-.07,4.78a15,15,0,0,1,.35,2.14c.06,1.57-1.59,2.21-2.36,2.27l-.82.05H248l-.34,0Z" transform="translate(34.74 -108)"/><path class="cls-9" d="M249.14,287.1c0,.23-.48.41-1.06.41s-1.07-.18-1.07-.41.47-.41,1.07-.41,1.06.19,1.06.41" transform="translate(34.74 -108)"/><path class="cls-9" d="M249.14,288.14c0,.24-.48.41-1.06.41s-1.07-.18-1.07-.41.47-.41,1.07-.41,1.06.19,1.06.41" transform="translate(34.74 -108)"/><rect class="cls-9" x="281.75" y="179.1" width="2.12" height="1"/><rect class="cls-39" x="37.54" y="206.2" width="9.77" height="76.89"/><rect class="cls-3" x="39.17" y="206.2" width="2.46" height="76.89"/><rect class="cls-3" x="44.31" y="206.2" width="2.11" height="76.89"/><rect class="cls-39" x="325.36" y="206.2" width="9.77" height="76.89"/><rect class="cls-3" x="326.66" y="206.2" width="2.46" height="76.89"/><rect class="cls-3" x="331.8" y="206.2" width="2.1" height="76.89"/><rect class="cls-40" x="34.23" y="197.07" width="303.75" height="11.61"/><rect class="cls-41" x="34.23" y="197.06" width="303.75" height="5.41"/><path class="cls-17" d="M401.93,251.67c0-1.75-4.64.43-7.14,1.25a19.59,19.59,0,0,0-3.08-1.43c-1.51-.6-4,1.82-5.32,4.33a5.15,5.15,0,0,1-2.75,1.92l.31.94h0l.43,1.29.9,2.81,0,0,.2.63a15.61,15.61,0,0,1,3.47-1.23c.77.34,2.19.46,5.63-.55,1.48-.53,2.56-1.1,2.46-1.92-.07-.45,0-.89-.61-.93,1-.36,1.17-.83,1-1.6a.51.51,0,0,0-.45-.44c.66-.35.35-1.53-.4-2,3.5-1.34,5.32-2.46,5.33-3m-10.12,2.2.15.06-1,.38c.51-.67.85-.44.85-.44" transform="translate(34.74 -108)"/><path class="cls-42" d="M351.22,255.54c-3.51-4-6-3.22-11.71-3.27l-8.06-.06a19.35,19.35,0,0,0-15.12,7.08,19.13,19.13,0,0,1,4.44,12.43l-.23,32.2,28.76.21-.23-32.41c0-4.94-.88-12.76,2.15-16.19" transform="translate(34.74 -108)"/><path class="cls-43" d="M320.51,294l.06,6.41c0,5.37,5.38,9.69,11.92,9.65l4.93,0c6.54,0,11.81-4.42,11.76-9.79l-.05-6.25Z" transform="translate(34.74 -108)"/><path class="cls-16" d="M340.35,255.49a5.58,5.58,0,0,1-4.8,2.44,6.59,6.59,0,0,1-5.15-2.44V235.9h9.95Z" transform="translate(34.74 -108)"/><rect class="cls-43" x="355.34" y="195.48" width="12.39" height="70.41"/><rect class="cls-43" x="371.26" y="195.63" width="12.66" height="70.26"/><path class="cls-6" d="M322,375.63c0,1.85,0,3.35,1.49,3.35h6.77c1.52,0,1.55-1.51,1.55-3.35a3.09,3.09,0,0,0-2.76-3.35h-4.29a3.1,3.1,0,0,0-2.76,3.35" transform="translate(34.74 -108)"/><path class="cls-6" d="M337.88,375.63c0,1.85,0,3.35,1.49,3.35h6.77c1.53,0,1.55-1.51,1.55-3.35a3.09,3.09,0,0,0-2.76-3.35h-4.29a3.09,3.09,0,0,0-2.76,3.35" transform="translate(34.74 -108)"/><path class="cls-43" d="M328.32,251.86s4.75,27.25,2.82,52.38H319.42l.4-36.34-3.88-8.31s2.71-6.19,12.39-7.73" transform="translate(34.74 -108)"/><path class="cls-43" d="M342.74,251.86S338.09,278.92,340,304l10.66.3.57-36.44.73-14.3s.43-.2-9.25-1.74" transform="translate(34.74 -108)"/><path class="cls-44" d="M323.48,253.12s3.39,15.08,3.1,16.82l1.94-.1-2.14,1.25,5.1,14.34s-.44-22.29-3-34.27c0,0-3.4.42-5,2" transform="translate(34.74 -108)"/><path class="cls-44" d="M347.62,253.12s-3.4,15.08-3.11,16.82l-1.93-.1,2.14,1.25-5.1,14.34s.45-22.29,3-34.27c0,0,3.39.42,5,2" transform="translate(34.74 -108)"/><rect class="cls-6" x="366.16" y="186.03" width="8.18" height="3.08"/><rect class="cls-45" x="367.9" y="185.65" width="4.81" height="3.71"/><path class="cls-44" d="M321,287.23l7.94.29S330,299,325,299.61,321,287.23,321,287.23" transform="translate(34.74 -108)"/><path class="cls-44" d="M350.32,287.23l-7.94.29s-1.05,11.5,3.88,12.09,4.06-12.37,4.06-12.37" transform="translate(34.74 -108)"/><polygon class="cls-46" points="366.16 189.1 366.07 196.63 355.29 196.24 366.61 197.31 366.16 189.1"/><polygon class="cls-46" points="374.26 189.1 374.34 196.63 385.14 196.24 373.81 197.31 374.26 189.1"/><path class="cls-47" d="M334.9,254.18l-1.23,5.23s-4.38-4.84-4.52-5.74-.19-1.55-.19-1.55l.64-2.05Z" transform="translate(34.74 -108)"/><path class="cls-47" d="M336.25,254.18l1.22,5.23s4.39-4.84,4.52-5.74.19-1.55.19-1.55l-.64-2.05Z" transform="translate(34.74 -108)"/><path class="cls-48" d="M334.9,254.18l0,2.66-.6-.08a22,22,0,0,1,.63-2.59" transform="translate(34.74 -108)"/><path class="cls-48" d="M336.26,254.18l0,2.71.61,0a23.15,23.15,0,0,0-.63-2.67" transform="translate(34.74 -108)"/><polygon class="cls-46" points="369.34 147.06 371.21 147.02 371.86 149.6 371.21 151.24 369.47 151.24 368.82 149.44 369.34 147.06"/><polygon class="cls-46" points="370.21 178.01 366.59 173.37 369.47 151.24 371.21 151.24 373.83 173.44 370.21 178.01"/><path class="cls-44" d="M315.93,259.6s-13.54,21.64-7.54,24.55a33.32,33.32,0,0,0,10.45,3.29l4.26-6-6.78-4.06,3.69-8.69s0-11.79-4.08-9.09" transform="translate(34.74 -108)"/><path class="cls-44" d="M352.12,253.12a20.42,20.42,0,0,1,4.47,1.41,27.46,27.46,0,0,0,4.35,1.77s6.88,2.77,8.65,3a26.92,26.92,0,0,0,7.56-1,33.7,33.7,0,0,0,6.88-2.65l3.71,8.72s-13.64,6.15-19.33,6.09-17.45-3.09-17.45-3.09-.7-13.86,1.18-14.21" transform="translate(34.74 -108)"/><path class="cls-17" d="M322.58,281.89a2.33,2.33,0,0,0,1.73.32c.84-.25,1.71-1.68,3.49-1.25s2.31.63,2.31,1.15-1.78.52-1.78.52,3,.31,2.82,1.46l-.21,1.15a5.66,5.66,0,0,1-1,2.19,1.65,1.65,0,0,1-1.15,1.57s0,1.15-1.57,1.05-3.59-.48-4.28-2.2c-.2-.51-3.13-1.77-3.13-1.77Z" transform="translate(34.74 -108)"/><path class="cls-17" d="M332.52,216.24c-4,.23-12.93,2.51-12.76,5.49l.08,12.39c0,8.07,6.33,14.57,14,14.52l5.8-.05c7.7,0,13.9-6.65,13.83-14.72l-.1-14.23c-5.51-3.89-9.84-4-20.88-3.39" transform="translate(34.74 -108)"/><path class="cls-35" d="M-2,239.65a14.68,14.68,0,0,0-3.83,7.58l-3.55.29a8.37,8.37,0,0,1-.15-6.35C-8.11,238-2,239.65-2,239.65" transform="translate(34.74 -108)"/><path class="cls-35" d="M-15.87,221S-4,218.63-2.38,218.63s-2.64,1.22-2.34,1.22,4.66-.51,6.09-.51-.31.61,0,.71,5.26-.31,5.57-.2-1.83.91-1.52,1,3,.51,3.64.61-.51.41-.21.6A42.68,42.68,0,0,1,13.22,224c1.73,1,.11.81.41,1.12s2.73,2.43,3.44,3.34-2.9.81-2.9.81-27.82-1.22-29.44-.91S-28,227.13-15.87,221" transform="translate(34.74 -108)"/><path class="cls-32" d="M327.09,213.12s9.47-5,18.39-2.3,15.36,7.85,6.79,10-19.83,2.74-22.23,2.81-1.85,2.73-2.47,3.17-.7,4.32-.7,4.32l-.13,4.11h-2.33s.4-4.11-1.93-3.54-2.05,6.49.42,6.92c2.21.38,1.7,6.29,1.7,6.29s-6-.89-6.85-14.72,2.34-14.41,5.7-14.05a7.08,7.08,0,0,1,3.64-3" transform="translate(34.74 -108)"/><path class="cls-27" d="M227.67,239.59l.76,7.43s.94,8.16-1,10.33a47.36,47.36,0,0,1-12.51,10.06S218.44,284.14,219,284s14.95-10,19.14-27.15c1.05-4.32-1.37-11.71-2.53-17.41Z" transform="translate(34.74 -108)"/><path class="cls-27" d="M191,267.63s-4.41-1.33-6.43-1.91-3.76-7.37-5.2-9.39-1.88-9.1-1.88-9.1l2.31-14.88-8.82-1s-5.12,17.8-3.19,25.71c4.19,17.19,18.6,27,19.14,27.15S191,267.63,191,267.63" transform="translate(34.74 -108)"/><path class="cls-17" d="M229.17,239.63a17.72,17.72,0,0,0-1.64-2.37c-.65-.68-1.82-.94-2.41-1.88s-.93-3.09-.37-3.29c.82-.28,1,.3,1.42,1.68s-1.75-3-.5-3.55c1.43-.61,1.25.39,1.25.39a.63.63,0,0,1,.43-.89c1.21-.3,1.45.5,1.45.5s-.44-.55.56-.8a1.33,1.33,0,0,1,1.61.88s-.94-1.19.79-.91c1.56.24,2.87,5.7,2.38,6.85a6.29,6.29,0,0,0,.13,3.25Z" transform="translate(34.74 -108)"/><path class="cls-49" d="M477.36,226.86l-.77,7.43s-.85,8.09,1,10.33c7.91,9.48,12.68,9,12.68,9s-3.71,17.75-4.25,17.6-14.94-10-19.14-27.15c-1.05-4.31,1.37-11.7,2.53-17.41Z" transform="translate(34.74 -108)"/><path class="cls-17" d="M475.86,226.9a17.32,17.32,0,0,1,1.65-2.37c.65-.68,1.81-.94,2.41-1.88s.94-3.09.36-3.29c-.8-.28-1,.3-1.41,1.68s1.75-3,.5-3.55c-1.43-.61-1.26.39-1.26.39a.62.62,0,0,0-.43-.89c-1.21-.3-1.44.5-1.44.5s.44-.54-.56-.79a1.33,1.33,0,0,0-1.62.87s.94-1.19-.78-.92c-1.57.25-2.88,5.71-2.38,6.86a6.36,6.36,0,0,1-.13,3.25Z" transform="translate(34.74 -108)"/><path class="cls-17" d="M177.76,232.11a9.28,9.28,0,0,1,1.31-2.33c.67-.7,1.89-1,2.51-1.95s1-3.22.38-3.42c-.85-.29-1.09.31-1.47,1.75s1.82-3.14.52-3.7c-1.49-.63-1.32.4-1.32.4a.63.63,0,0,0-.44-.92c-1.25-.31-1.5.51-1.5.51s.47-.58-.58-.83a1.38,1.38,0,0,0-1.68.91s1-1.23-.8-1c-1.63.25-3,5.93-2.48,7.13a5.24,5.24,0,0,1,.17,2.74Z" transform="translate(34.74 -108)"/><path class="cls-20" d="M96.82,267.63s-4.41-1.33-6.43-1.91-3.77-7.37-5.21-9.39-1.88-9.1-1.88-9.1l2.31-14.88-8.83-1s-5.11,17.8-3.18,25.71c4.19,17.19,18.6,27,19.14,27.15s4.08-16.58,4.08-16.58" transform="translate(34.74 -108)"/><path class="cls-17" d="M83.7,232.1a9.73,9.73,0,0,1,1.42-2.5c.72-.76,2-1.05,2.71-2.1s1-3.47.4-3.69c-.9-.31-1.18.34-1.58,1.89s2-3.38.56-4c-1.6-.68-1.41.43-1.41.43a.69.69,0,0,0-.48-1c-1.35-.34-1.61.55-1.61.55s.5-.62-.62-.89a1.5,1.5,0,0,0-1.82,1s1.07-1.33-.86-1c-1.75.28-3.23,6.39-2.68,7.68a6.07,6.07,0,0,1,.19,3.06Z" transform="translate(34.74 -108)"/><path class="cls-17" d="M16,243.15a12,12,0,0,0,1.28-3.21c0-1-.62-2.12-.33-3.29s1.74-3,2.32-2.73c.83.43.54,1-.27,2.36s1.06-3.61,2.43-3c1.54.67.63,1.28.63,1.28a.66.66,0,0,1,1-.32c1.14.72.69,1.5.69,1.5s.11-.77,1-.16a1.43,1.43,0,0,1,.52,1.92s.22-1.62,1.3-.07-2.34,6.49-3.61,7a2.93,2.93,0,0,0-1.67,1.53Z" transform="translate(34.74 -108)"/><path class="cls-20" d="M122.8,267.63s4.41-1.33,6.44-1.91,3.76-7.37,5.2-9.39,1.89-9.1,1.89-9.1L134,232.35l8.82-1s5.11,17.8,3.19,25.71c-4.19,17.19-18.6,27-19.14,27.15s-4.08-16.58-4.08-16.58" transform="translate(34.74 -108)"/><path class="cls-17" d="M135.51,232.25a9.4,9.4,0,0,0-1.34-2.46c-.69-.71-1.92-1-2.56-2s-1-3.26-.38-3.47c.85-.3,1.1.32,1.49,1.77s-1.85-3.18-.52-3.75c1.51-.64,1.33.41,1.33.41a.65.65,0,0,1,.46-.93c1.27-.31,1.53.52,1.53.52s-.47-.58.59-.84a1.41,1.41,0,0,1,1.71.93s-1-1.26.82-1c1.65.26,3,6,2.52,7.25a5.85,5.85,0,0,0-.18,2.88Z" transform="translate(34.74 -108)"/><path class="cls-6" d="M131.27,302.64a3.25,3.25,0,0,1-3.25,3.24H87.73a3.25,3.25,0,0,1-3.25-3.24V278.81a3.25,3.25,0,0,1,3.25-3.24H128a3.25,3.25,0,0,1,3.25,3.24Z" transform="translate(34.74 -108)"/><path class="cls-6" d="M226.78,302.64a3.25,3.25,0,0,1-3.25,3.24H183.24a3.25,3.25,0,0,1-3.25-3.24V278.81a3.25,3.25,0,0,1,3.25-3.24h40.28a3.25,3.25,0,0,1,3.25,3.24Z" transform="translate(34.74 -108)"/><path class="cls-27" d="M191.29,227.76s4.46-3.44,9.52-3.93,1.71,2,1.92,2.41,6.19-1.31,6.82-1.45-3.06,3-3.06,3l4.22-.83s-2.37,1.59-.71,1.65,2.75-.34,2.75-.07-2.23.89.25.76a22.6,22.6,0,0,1,2.93-.06l.46,2.27s.77,1.93,1,2.69-1,1.65-3.19,1.3-.71,1-.71,1a84.39,84.39,0,0,1-10.15-.35c-3-.47-1.65,1-1.65,1s-2.06-.21-2.95-.28-.06,1.24-1,1.24-2.68-.07-3.51-.07-2.88,2.07-3.26,2.54,0,7.92,0,7.92l-2.23.35s-.91-4.61-2.69-2.49c-1.21,1.45,2.93,12.34,1.66,10.89,0,0-5.12-4.55-4.47-14.4.38-6,1-8.27,1.85-8.76s.19-.28.19-.28,4.6-6,6.26-7.72-.25,1.65-.25,1.65" transform="translate(34.74 -108)"/><path class="cls-27" d="M101.49,226.88s5.29-5.57,10.83-5.43,5.09,3.15,6.68,3.43,4.56,2.65,4.42,3.08,2.38,1.07,2.91,2.07a14.16,14.16,0,0,1,2.38,11.37c-.45,2.25-3.3,7.28-3.3,7.28l-2.92.15s.67-9.65-3.3-10.51-9.85.57-14.21-.86-6.86-.13-7.55,1.57c-1.32,3.29-.19,6.72-.26,9.08l-2.71-.35s-2.61-7.57-2.38-10.65c.33-4.29,4.5-10.51,9.4-10.23" transform="translate(34.74 -108)"/><path class="cls-17" d="M127,246.79s2.38-1.45,1.31,3.44-2.77,2.77-2.77,2.77-2.25-5.54,1.46-6.2" transform="translate(34.74 -108)"/><path class="cls-17" d="M93.41,246.14s-2.65-.79-1.59,4.09S94.59,253,94.59,253s2.52-6.2-1.18-6.86" transform="translate(34.74 -108)"/><path class="cls-17" d="M188.37,248.1s-.62-3.94-2.9-2.35,0,8,1.8,6.91,1.11-4.56,1.11-4.56" transform="translate(34.74 -108)"/><path class="cls-17" d="M324.42,234.46s-.65-4.11-3-2.46,0,8.31,1.88,7.22,1.16-4.76,1.16-4.76" transform="translate(34.74 -108)"/><path class="cls-50" d="M517.5,256.4c-3.51-4-6-3.22-11.72-3.26l-8.06-.06a19.33,19.33,0,0,0-15.11,7.09,19.23,19.23,0,0,1,4.44,12.43l-.24,32.2,28.76.21-.24-32.41c0-4.93-.87-12.76,2.16-16.19" transform="translate(34.74 -108)"/><path class="cls-51" d="M486.78,294.87l.06,6.42c0,5.35,5.39,9.68,11.93,9.64l4.93,0c6.55,0,11.81-4.42,11.76-9.79l-.06-6.24Z" transform="translate(34.74 -108)"/><path class="cls-16" d="M506.63,256.35a5.6,5.6,0,0,1-4.81,2.45,6.58,6.58,0,0,1-5.14-2.45V236.77h9.95Z" transform="translate(34.74 -108)"/><rect class="cls-51" x="521.61" y="196.35" width="12.39" height="70.41"/><rect class="cls-51" x="537.53" y="196.5" width="12.66" height="70.26"/><path class="cls-6" d="M488.27,376.49c0,1.85,0,3.35,1.49,3.35h6.77c1.52,0,1.56-1.5,1.56-3.35s-1.23-3.35-2.76-3.35H491a3.11,3.11,0,0,0-2.77,3.35" transform="translate(34.74 -108)"/><path class="cls-49" d="M494.6,252.73s4.75,27.25,2.81,52.38H485.69l.4-36.34-3.87-8.31s2.71-6.18,12.39-7.73" transform="translate(34.74 -108)"/><path class="cls-49" d="M489.76,254s3.38,15.08,3.1,16.81l1.93-.09L492.66,272l5.11,14.34s-.46-22.29-3-34.28c0,0-3.39.42-5,2" transform="translate(34.74 -108)"/><rect class="cls-6" x="532.44" y="186.89" width="8.18" height="3.08"/><rect class="cls-45" x="534.17" y="186.52" width="4.81" height="3.71"/><path class="cls-49" d="M487.26,288.1l7.94.29s1.05,11.5-3.88,12.09-4.06-12.38-4.06-12.38" transform="translate(34.74 -108)"/><polygon class="cls-52" points="532.44 189.97 532.35 197.49 521.57 197.11 532.88 198.17 532.44 189.97"/><path class="cls-53" d="M501.17,255l-1.22,5.22s-4.38-4.85-4.53-5.74-.19-1.55-.19-1.55l.65-2.05Z" transform="translate(34.74 -108)"/><path class="cls-53" d="M502.52,255l1.23,5.22s4.39-4.85,4.51-5.74.2-1.55.2-1.55l-.64-2.05Z" transform="translate(34.74 -108)"/><path class="cls-48" d="M501.17,255l0,2.66-.6-.08a21.19,21.19,0,0,1,.62-2.59" transform="translate(34.74 -108)"/><path class="cls-48" d="M502.54,255v2.71l.61,0a22.6,22.6,0,0,0-.62-2.67" transform="translate(34.74 -108)"/><polygon class="cls-54" points="535.62 147.92 537.49 147.89 538.14 150.47 537.49 152.11 535.74 152.11 535.1 150.3 535.62 147.92"/><polygon class="cls-46" points="536.49 178.88 532.86 174.24 535.74 152.11 537.49 152.11 540.1 174.3 536.49 178.88"/><path class="cls-17" d="M505.65,218.12c4,.22,12.93,2.51,12.76,5.48L518.33,236c0,8.07-6.33,14.58-14,14.52l-5.8-.05c-7.69,0-13.89-6.65-13.83-14.72l.11-14.23c5.51-3.89,9.84-4,20.88-3.38" transform="translate(34.74 -108)"/><path class="cls-51" d="M509.51,252.66s-4.68,27.21-2.73,52.47l10.72.29.56-36.63.74-14.38s.43-.2-9.3-1.75" transform="translate(34.74 -108)"/><path class="cls-49" d="M514.42,253.93s-3.41,15.16-3.13,16.91l-1.94-.09L511.5,272l-5.13,14.42s.45-22.42,3-34.47c0,0,3.4.42,5.07,2" transform="translate(34.74 -108)"/><path class="cls-49" d="M517.12,288.23l-8,.29s-1.07,11.56,3.9,12.15,4.08-12.44,4.08-12.44" transform="translate(34.74 -108)"/><path class="cls-49" d="M518.67,254.37s14.67,23.45,8.17,26.59a35.89,35.89,0,0,1-11.33,3.56L510.9,278l7.34-4.39-4-9.42s0-12.77,4.42-9.84" transform="translate(34.74 -108)"/><path class="cls-55" d="M511.09,215s-9.47-5-18.39-2.3-15.37,7.85-6.79,10a118.43,118.43,0,0,0,22.23,2.81c3.29,0,3.16,7.49,3.16,7.49l.13,4.11h2.33s-.4-4.11,1.93-3.54,2.05,6.49-.42,6.92c-2.21.38-1.7,6.29-1.7,6.29s6-.89,6.85-14.72-2.34-14.41-5.7-14a7.07,7.07,0,0,0-3.64-3" transform="translate(34.74 -108)"/><path class="cls-17" d="M511.68,279.16a2.56,2.56,0,0,1-1.87.34c-.9-.28-1.84-1.81-3.76-1.35s-2.49.67-2.49,1.24,1.93.56,1.93.56-3.28.34-3,1.57l.22,1.23a6.06,6.06,0,0,0,1.12,2.36,1.79,1.79,0,0,0,1.24,1.69s0,1.23,1.7,1.12,3.87-.51,4.6-2.36c.22-.56,3.38-1.91,3.38-1.91Z" transform="translate(34.74 -108)"/><path class="cls-55" d="M514.72,218s-3.15-4.83-5.39-5.62-1.3.58-1.3.58a8,8,0,0,0-2.82-1.88c-1.16-.21-.72.87-.72.87a22,22,0,0,0-3.12-.65c-1.37-.15-1.23.58-1.23.58a39.72,39.72,0,0,0-4.77-.36c-.58.14-.22,1.52-.22,1.52l-1.24.79s17.95,8,20.77,4.41" transform="translate(34.74 -108)"/><path class="cls-55" d="M507.08,225.41s-5.78,1.52-8.82.87-.21-1.09-.21-1.09-4.42,1.16-5.79.07,0-1.37,0-1.37-4.49.8-5.35,0-.51-1.3-.51-1.3-1.74.93-2.39.5.79-1.58,2.24-1.88,27.43,0,20.84,4.19" transform="translate(34.74 -108)"/></svg>