<svg id="Layer_1" data-name="Layer 1" xmlns="http://www.w3.org/2000/svg" xmlns:xlink="http://www.w3.org/1999/xlink" viewBox="0 0 127.8 188.28"><defs><style>.cls-1{fill:url(#linear-gradient);}.cls-2{fill:#ed1c24;}.cls-3{fill:#fff;}.cls-4{fill:#9a8479;}.cls-5{fill:#241d4f;}</style><linearGradient id="linear-gradient" x1="437.49" y1="314.75" x2="522.71" y2="272.14" gradientTransform="translate(184.51 -149.04) rotate(17.48)" gradientUnits="userSpaceOnUse"><stop offset="0" stop-color="#6d6e70"/><stop offset="0.03" stop-color="#757678" stop-opacity="0.94"/><stop offset="0.23" stop-color="#a2a2a4" stop-opacity="0.6"/><stop offset="0.43" stop-color="#c4c5c6" stop-opacity="0.34"/><stop offset="0.63" stop-color="#ddddde" stop-opacity="0.15"/><stop offset="0.82" stop-color="#ececed" stop-opacity="0.04"/><stop offset="1" stop-color="#f1f1f2" stop-opacity="0"/></linearGradient></defs><title>th-flag</title><path class="cls-1" d="M507.72,284.4l-.33-1.92,92.5-19.71a14.08,14.08,0,0,0,.24,4.93,18.33,18.33,0,0,0,1.41,4.74Z" transform="translate(-473.74 -96.36)"/><polygon class="cls-2" points="21.03 88.66 14.87 89.75 12.53 78.24 19.27 77.06 106.86 61.67 116.33 71.92 21.03 88.66"/><polygon class="cls-3" points="12.53 78.24 19.27 77.06 106.86 61.67 96.89 50.85 17.4 64.81 10.05 66.1 12.53 78.24"/><polygon class="cls-3" points="0.46 18.13 2.75 29.65 11.79 28.06 98.29 12.87 92.6 26.44 13.65 40.31 5.16 41.8 7.33 52.74 5.12 41.81 2.65 29.66 0.31 18.16 0.46 18.13"/><polygon class="cls-4" points="7.33 52.74 10.05 66.1 12.53 78.24 14.87 89.75 21.03 88.66 36.19 187.95 34.28 188.28 12.41 78.26 10 66.11 7.33 52.74"/><polygon class="cls-2" points="2.75 29.65 11.79 28.06 98.29 12.87 103.7 0 10.02 16.45 0.46 18.13 2.75 29.65"/><polygon class="cls-4" points="9.66 14.11 10.02 16.45 0.46 18.13 0 15.8 9.66 14.11"/><polygon class="cls-5" points="10.05 66.1 17.4 64.81 96.89 50.85 86.9 40.02 92.6 26.44 13.65 40.31 5.16 41.8 7.33 52.74 10.05 66.1"/></svg>