<svg id="Layer_1" data-name="Layer 1" xmlns="http://www.w3.org/2000/svg" viewBox="0 0 494.34 210.86"><defs><style>.cls-1{fill:#f7e4ba;}.cls-2{fill:#f8e0a9;}.cls-3{fill:#6a7172;}.cls-4{fill:#007298;}.cls-5{fill:#005e85;}.cls-6{fill:#c33a32;}.cls-7{fill:#333e48;}.cls-8{fill:#00556f;}.cls-9{fill:#73243d;}.cls-10{fill:#916928;}.cls-11{fill:#6d5d35;}.cls-12{fill:#ffa400;}.cls-13{fill:#9ecdd9;}.cls-14{fill:#83bbc8;}.cls-15{fill:#cd5245;}.cls-16{fill:#cb4d41;}.cls-17{fill:#2c7188;}.cls-18{fill:#828d97;}.cls-19{fill:#608085;}.cls-20{fill:#d76a5b;}.cls-21{fill:#7a232e;}.cls-22{fill:#f8f8f8;}.cls-23{fill:#9faab3;}.cls-24{fill:#24bc7c;}.cls-25,.cls-35{opacity:0.1;}.cls-26,.cls-35{fill:#0b0c0c;}.cls-27{fill:#980000;}.cls-28{fill:#b6bbbf;}.cls-29{fill:#e5e5e7;}.cls-30,.cls-31{fill:#a10808;}.cls-30{stroke:#980000;stroke-miterlimit:10;stroke-width:0.86px;}.cls-32{fill:#efeded;}.cls-33{fill:#7e8a8a;}.cls-34{fill:#b66b56;}</style></defs><title>town</title><rect class="cls-1" x="227.03" y="112.42" width="40.46" height="70.61"/><rect class="cls-2" x="260.96" y="112.42" width="6.22" height="70.61"/><rect class="cls-3" x="225.3" y="107.84" width="43.92" height="4.58"/><rect class="cls-4" x="252.1" y="117.91" width="7.05" height="11.76"/><polygon class="cls-5" points="252.1 129.66 259.15 129.66 252.1 117.91 252.1 129.66"/><rect class="cls-4" x="238.22" y="117.91" width="7.05" height="11.76"/><polygon class="cls-5" points="238.22 129.66 245.27 129.66 238.22 117.91 238.22 129.66"/><rect class="cls-4" x="252.1" y="154.45" width="7.05" height="11.75"/><polygon class="cls-5" points="252.1 166.2 259.15 166.2 252.1 154.45 252.1 166.2"/><rect class="cls-4" x="238.22" y="154.45" width="7.05" height="11.75"/><polygon class="cls-5" points="238.22 166.2 245.27 166.2 238.22 154.45 238.22 166.2"/><rect class="cls-4" x="252.1" y="135.58" width="7.05" height="11.75"/><polygon class="cls-5" points="252.1 147.34 259.15 147.34 252.1 135.58 252.1 147.34"/><rect class="cls-4" x="238.22" y="135.58" width="7.05" height="11.75"/><polygon class="cls-5" points="238.22 147.34 245.27 147.34 238.22 135.58 238.22 147.34"/><rect class="cls-6" x="240.59" y="87.08" width="13.19" height="8.67"/><rect class="cls-7" x="240.07" y="87.08" width="1.04" height="20.47"/><rect class="cls-8" x="89.78" y="132.89" width="52.12" height="23.58"/><rect class="cls-8" x="89.78" y="159.06" width="52.12" height="22.59"/><rect class="cls-9" x="88.86" y="155.85" width="53.96" height="3.65"/><rect class="cls-10" x="112.47" y="172.8" width="6.74" height="8.85"/><polygon class="cls-11" points="112.47 172.8 119.21 181.65 112.47 181.65 112.47 172.8"/><circle class="cls-12" cx="113.56" cy="177.23" r="0.39"/><rect class="cls-13" x="109.82" y="138.43" width="11.36" height="4.24"/><polygon class="cls-14" points="109.82 142.66 121.18 142.66 109.82 138.43 109.82 142.66"/><rect class="cls-13" x="93.47" y="138.43" width="11.36" height="4.24"/><polygon class="cls-14" points="93.47 142.66 104.83 142.66 93.47 138.43 93.47 142.66"/><rect class="cls-13" x="109.82" y="147.82" width="11.36" height="4.24"/><polygon class="cls-14" points="109.82 152.06 121.18 152.06 109.82 147.82 109.82 152.06"/><rect class="cls-13" x="93.47" y="147.82" width="11.36" height="4.24"/><polygon class="cls-14" points="93.47 152.06 104.83 152.06 93.47 147.82 93.47 152.06"/><rect class="cls-13" x="99.65" y="164.59" width="11.36" height="4.24"/><polygon class="cls-14" points="99.65 168.83 111.01 168.83 99.65 164.59 99.65 168.83"/><polygon class="cls-6" points="141.9 129.74 115.84 113.59 89.78 129.74 141.9 129.74"/><polygon class="cls-15" points="141.9 129.74 115.84 113.59 128.32 129.74 141.9 129.74"/><rect class="cls-9" x="88.86" y="129.24" width="53.96" height="3.66"/><circle class="cls-13" cx="115.84" cy="122.15" r="3.26"/><path class="cls-14" d="M116,263.84l4.61,4.61a3.26,3.26,0,0,1-4.61-4.61Z" transform="translate(-2.5 -144)"/><rect class="cls-1" x="406.68" y="113.31" width="71.09" height="69.11"/><rect class="cls-1" x="406.68" y="99.01" width="71.09" height="12.41"/><rect class="cls-1" x="406.68" y="84.72" width="71.09" height="12.41"/><rect class="cls-4" x="411.36" y="102.88" width="61.73" height="4.74"/><polygon class="cls-5" points="411.36 107.62 473.08 107.62 411.36 102.88 411.36 107.62"/><rect class="cls-4" x="411.36" y="88.59" width="61.73" height="4.74"/><polygon class="cls-5" points="411.36 93.32 473.08 93.32 411.36 88.59 411.36 93.32"/><rect class="cls-4" x="465.91" y="117.99" width="4.65" height="7.75"/><polygon class="cls-5" points="465.91 125.75 470.56 125.75 465.91 117.99 465.91 125.75"/><rect class="cls-4" x="457.24" y="117.99" width="4.65" height="7.75"/><polygon class="cls-5" points="457.24 125.75 461.89 125.75 457.24 117.99 457.24 125.75"/><rect class="cls-4" x="448.57" y="117.99" width="4.65" height="7.75"/><polygon class="cls-5" points="448.56 125.75 453.21 125.75 448.56 117.99 448.56 125.75"/><rect class="cls-4" x="439.89" y="117.99" width="4.65" height="7.75"/><polygon class="cls-5" points="439.89 125.75 444.54 125.75 439.89 117.99 439.89 125.75"/><rect class="cls-4" x="465.91" y="140.11" width="4.65" height="7.75"/><polygon class="cls-5" points="465.91 147.86 470.56 147.86 465.91 140.11 465.91 147.86"/><rect class="cls-4" x="457.24" y="140.11" width="4.65" height="7.75"/><polygon class="cls-5" points="457.24 147.86 461.89 147.86 457.24 140.11 457.24 147.86"/><rect class="cls-4" x="448.57" y="140.11" width="4.65" height="7.75"/><polygon class="cls-5" points="448.56 147.86 453.21 147.86 448.56 140.11 448.56 147.86"/><rect class="cls-4" x="439.89" y="140.11" width="4.65" height="7.75"/><polygon class="cls-5" points="439.89 147.86 444.54 147.86 439.89 140.11 439.89 147.86"/><rect class="cls-4" x="465.91" y="129.19" width="4.65" height="7.75"/><polygon class="cls-5" points="465.91 136.94 470.56 136.94 465.91 129.19 465.91 136.94"/><rect class="cls-4" x="457.24" y="129.19" width="4.65" height="7.75"/><polygon class="cls-5" points="457.24 136.94 461.89 136.94 457.24 129.19 457.24 136.94"/><rect class="cls-4" x="448.57" y="129.19" width="4.65" height="7.75"/><polygon class="cls-5" points="448.56 136.94 453.21 136.94 448.56 129.19 448.56 136.94"/><rect class="cls-4" x="439.89" y="129.19" width="4.65" height="7.75"/><polygon class="cls-5" points="439.89 136.94 444.54 136.94 439.89 129.19 439.89 136.94"/><rect class="cls-4" x="431.22" y="117.99" width="4.65" height="7.75"/><polygon class="cls-5" points="431.22 125.75 435.87 125.75 431.22 117.99 431.22 125.75"/><rect class="cls-4" x="431.22" y="140.11" width="4.65" height="7.75"/><polygon class="cls-5" points="431.22 147.86 435.87 147.86 431.22 140.11 431.22 147.86"/><rect class="cls-4" x="431.22" y="129.19" width="4.65" height="7.75"/><polygon class="cls-5" points="431.22 136.94 435.87 136.94 431.22 129.19 431.22 136.94"/><rect class="cls-4" x="422.55" y="117.99" width="4.65" height="7.75"/><polygon class="cls-5" points="422.55 125.75 427.2 125.75 422.55 117.99 422.55 125.75"/><rect class="cls-4" x="422.55" y="140.11" width="4.65" height="7.75"/><polygon class="cls-5" points="422.55 147.86 427.2 147.86 422.55 140.11 422.55 147.86"/><rect class="cls-4" x="422.55" y="129.19" width="4.65" height="7.75"/><polygon class="cls-5" points="422.55 136.94 427.2 136.94 422.55 129.19 422.55 136.94"/><rect class="cls-4" x="413.88" y="117.99" width="4.65" height="7.75"/><polygon class="cls-5" points="413.88 125.75 418.53 125.75 413.88 117.99 413.88 125.75"/><rect class="cls-4" x="413.88" y="140.11" width="4.65" height="7.75"/><polygon class="cls-5" points="413.88 147.86 418.53 147.86 413.88 140.11 413.88 147.86"/><rect class="cls-4" x="465.91" y="150.75" width="4.65" height="7.75"/><polygon class="cls-5" points="465.91 158.5 470.56 158.5 465.91 150.75 465.91 158.5"/><rect class="cls-4" x="457.24" y="150.75" width="4.65" height="7.75"/><polygon class="cls-5" points="457.24 158.5 461.89 158.5 457.24 150.75 457.24 158.5"/><rect class="cls-4" x="448.57" y="150.75" width="4.65" height="7.75"/><polygon class="cls-5" points="448.56 158.5 453.21 158.5 448.56 150.75 448.56 158.5"/><rect class="cls-4" x="439.89" y="150.75" width="4.65" height="7.75"/><polygon class="cls-5" points="439.89 158.5 444.54 158.5 439.89 150.75 439.89 158.5"/><rect class="cls-4" x="431.22" y="150.75" width="4.65" height="7.75"/><polygon class="cls-5" points="431.22 158.5 435.87 158.5 431.22 150.75 431.22 158.5"/><rect class="cls-4" x="422.55" y="150.75" width="4.65" height="7.75"/><polygon class="cls-5" points="422.55 158.5 427.2 158.5 422.55 150.75 422.55 158.5"/><rect class="cls-4" x="413.88" y="150.75" width="4.65" height="7.75"/><polygon class="cls-5" points="413.88 158.5 418.53 158.5 413.88 150.75 413.88 158.5"/><rect class="cls-4" x="413.88" y="129.19" width="4.65" height="7.75"/><polygon class="cls-5" points="413.88 136.94 418.53 136.94 413.88 129.19 413.88 136.94"/><rect class="cls-9" x="404.76" y="111.42" width="74.92" height="1.88"/><rect class="cls-9" x="404.76" y="97.13" width="74.92" height="1.88"/><rect class="cls-9" x="404.76" y="82.84" width="74.92" height="1.88"/><polygon class="cls-6" points="406.37 82.84 420.42 72.3 464.02 72.3 478.06 82.84 406.37 82.84"/><polygon class="cls-16" points="463.38 82.84 455.55 72.3 464.02 72.3 478.06 82.84 463.38 82.84"/><rect class="cls-8" x="265.33" y="88.52" width="49.21" height="94.36"/><rect class="cls-17" x="308.41" y="88.52" width="2.88" height="94.36"/><path class="cls-18" d="M290.58,222.63a1.14,1.14,0,0,0,1.2,1.06h0a1.14,1.14,0,0,0,1.2-1.06v-26.9a1.14,1.14,0,0,0-1.2-1.06h0a1.13,1.13,0,0,0-1.2,1.06Z" transform="translate(-2.5 -144)"/><circle class="cls-19" cx="289.34" cy="52.46" r="2.84"/><path class="cls-6" d="M267.83,230.1c2.88-7.25,11-16.92,24.6-16.92s21.72,9.68,24.6,16.92Z" transform="translate(-2.5 -144)"/><path class="cls-20" d="M291.12,213.21c.43,0,.87,0,1.32,0,13.59,0,21.72,9.68,24.6,16.92H314.4C311.62,223.09,303.91,213.81,291.12,213.21Z" transform="translate(-2.5 -144)"/><rect class="cls-21" x="262.88" y="83.69" width="54.11" height="4.83"/><rect class="cls-13" x="298.92" y="93.56" width="11.49" height="5.27"/><polygon class="cls-14" points="298.92 98.83 310.41 98.83 298.92 93.56 298.92 98.83"/><rect class="cls-13" x="284.19" y="93.56" width="11.49" height="5.27"/><polygon class="cls-14" points="284.19 98.83 295.68 98.83 284.19 93.56 284.19 98.83"/><rect class="cls-13" x="269.47" y="93.56" width="11.49" height="5.27"/><polygon class="cls-14" points="269.47 98.83 280.96 98.83 269.47 93.56 269.47 98.83"/><rect class="cls-13" x="298.92" y="103" width="11.49" height="5.27"/><polygon class="cls-14" points="298.92 108.27 310.41 108.27 298.92 103 298.92 108.27"/><rect class="cls-13" x="284.19" y="103" width="11.49" height="5.27"/><polygon class="cls-14" points="284.19 108.27 295.68 108.27 284.19 103 284.19 108.27"/><rect class="cls-13" x="269.47" y="103" width="11.49" height="5.27"/><polygon class="cls-14" points="269.47 108.27 280.96 108.27 269.47 103 269.47 108.27"/><rect class="cls-13" x="298.92" y="112.43" width="11.49" height="5.27"/><polygon class="cls-14" points="298.92 117.71 310.41 117.71 298.92 112.43 298.92 117.71"/><rect class="cls-13" x="284.19" y="112.43" width="11.49" height="5.27"/><polygon class="cls-14" points="284.19 117.71 295.68 117.71 284.19 112.43 284.19 117.71"/><rect class="cls-13" x="269.47" y="112.43" width="11.49" height="5.27"/><polygon class="cls-14" points="269.47 117.71 280.96 117.71 269.47 112.43 269.47 117.71"/><rect class="cls-13" x="298.92" y="121.87" width="11.49" height="5.27"/><polygon class="cls-14" points="298.92 127.14 310.41 127.14 298.92 121.87 298.92 127.14"/><rect class="cls-13" x="284.19" y="121.87" width="11.49" height="5.27"/><polygon class="cls-14" points="284.19 127.14 295.68 127.14 284.19 121.87 284.19 127.14"/><rect class="cls-13" x="269.47" y="121.87" width="11.49" height="5.27"/><polygon class="cls-14" points="269.47 127.14 280.96 127.14 269.47 121.87 269.47 127.14"/><rect class="cls-13" x="298.92" y="156.14" width="11.49" height="5.27"/><polygon class="cls-14" points="298.92 161.41 310.41 161.41 298.92 156.14 298.92 161.41"/><rect class="cls-13" x="284.19" y="156.14" width="11.49" height="5.27"/><polygon class="cls-14" points="284.19 161.41 295.68 161.41 284.19 156.14 284.19 161.41"/><rect class="cls-13" x="269.47" y="156.14" width="11.49" height="5.27"/><polygon class="cls-14" points="269.47 161.41 280.96 161.41 269.47 156.14 269.47 161.41"/><rect class="cls-13" x="298.92" y="165.58" width="11.49" height="5.27"/><polygon class="cls-14" points="298.92 170.85 310.41 170.85 298.92 165.58 298.92 170.85"/><rect class="cls-13" x="284.19" y="165.58" width="11.49" height="5.27"/><polygon class="cls-14" points="284.19 170.85 295.68 170.85 284.19 165.58 284.19 170.85"/><rect class="cls-13" x="269.47" y="165.58" width="11.49" height="5.27"/><polygon class="cls-14" points="269.47 170.85 280.96 170.85 269.47 165.58 269.47 170.85"/><rect class="cls-9" x="262.88" y="130.71" width="54.11" height="1.65"/><polygon class="cls-22" points="304.66 151.98 289.34 146.47 274.01 151.98 274.01 132.36 304.66 132.36 304.66 151.98"/><rect class="cls-23" x="122.16" y="57.28" width="70.64" height="122.8"/><rect class="cls-4" x="180.71" y="65.93" width="6.36" height="10.6"/><polygon class="cls-5" points="180.71 76.53 187.07 76.53 180.71 65.93 180.71 76.53"/><rect class="cls-4" x="163.1" y="65.93" width="6.36" height="10.6"/><polygon class="cls-5" points="163.1 76.53 169.46 76.53 163.1 65.93 163.1 76.53"/><rect class="cls-4" x="145.5" y="65.93" width="6.36" height="10.6"/><polygon class="cls-5" points="145.5 76.53 151.86 76.53 145.5 65.93 145.5 76.53"/><rect class="cls-4" x="127.89" y="65.93" width="6.36" height="10.6"/><polygon class="cls-5" points="127.89 76.53 134.25 76.53 127.89 65.93 127.89 76.53"/><rect class="cls-4" x="180.71" y="82.07" width="6.36" height="10.6"/><polygon class="cls-5" points="180.71 92.67 187.07 92.67 180.71 82.07 180.71 92.67"/><rect class="cls-4" x="163.1" y="82.07" width="6.36" height="10.6"/><polygon class="cls-5" points="163.1 92.67 169.46 92.67 163.1 82.07 163.1 92.67"/><rect class="cls-4" x="145.5" y="82.07" width="6.36" height="10.6"/><polygon class="cls-5" points="145.5 92.67 151.86 92.67 145.5 82.07 145.5 92.67"/><rect class="cls-4" x="127.89" y="82.07" width="6.36" height="10.6"/><polygon class="cls-5" points="127.89 92.67 134.25 92.67 127.89 82.07 127.89 92.67"/><rect class="cls-4" x="180.71" y="98.2" width="6.36" height="10.6"/><polygon class="cls-5" points="180.71 108.81 187.07 108.81 180.71 98.2 180.71 108.81"/><rect class="cls-4" x="163.1" y="98.2" width="6.36" height="10.6"/><polygon class="cls-5" points="163.1 108.81 169.46 108.81 163.1 98.2 163.1 108.81"/><rect class="cls-4" x="145.5" y="98.2" width="6.36" height="10.6"/><polygon class="cls-5" points="145.5 108.81 151.86 108.81 145.5 98.2 145.5 108.81"/><rect class="cls-4" x="127.89" y="98.2" width="6.36" height="10.6"/><polygon class="cls-5" points="127.89 108.81 134.25 108.81 127.89 98.2 127.89 108.81"/><rect class="cls-4" x="180.71" y="114.34" width="6.36" height="10.6"/><polygon class="cls-5" points="180.71 124.95 187.07 124.95 180.71 114.34 180.71 124.95"/><rect class="cls-4" x="163.1" y="114.34" width="6.36" height="10.6"/><polygon class="cls-5" points="163.1 124.95 169.46 124.95 163.1 114.34 163.1 124.95"/><rect class="cls-4" x="145.5" y="114.34" width="6.36" height="10.6"/><polygon class="cls-5" points="145.5 124.95 151.86 124.95 145.5 114.34 145.5 124.95"/><rect class="cls-4" x="127.89" y="114.34" width="6.36" height="10.6"/><polygon class="cls-5" points="127.89 124.95 134.25 124.95 127.89 114.34 127.89 124.95"/><rect class="cls-4" x="180.71" y="130.48" width="6.36" height="10.6"/><polygon class="cls-5" points="180.71 141.09 187.07 141.09 180.71 130.48 180.71 141.09"/><rect class="cls-4" x="163.1" y="130.48" width="6.36" height="10.6"/><polygon class="cls-5" points="163.1 141.09 169.46 141.09 163.1 130.48 163.1 141.09"/><rect class="cls-4" x="145.5" y="130.48" width="6.36" height="10.6"/><polygon class="cls-5" points="145.5 141.09 151.86 141.09 145.5 130.48 145.5 141.09"/><rect class="cls-4" x="127.89" y="130.48" width="6.36" height="10.6"/><polygon class="cls-5" points="127.89 141.09 134.25 141.09 127.89 130.48 127.89 141.09"/><rect class="cls-4" x="180.71" y="146.62" width="6.36" height="10.6"/><polygon class="cls-5" points="180.71 157.22 187.07 157.22 180.71 146.62 180.71 157.22"/><rect class="cls-4" x="163.1" y="146.62" width="6.36" height="10.6"/><polygon class="cls-5" points="163.1 157.22 169.46 157.22 163.1 146.62 163.1 157.22"/><rect class="cls-4" x="145.5" y="146.62" width="6.36" height="10.6"/><polygon class="cls-5" points="145.5 157.22 151.86 157.22 145.5 146.62 145.5 157.22"/><rect class="cls-4" x="127.89" y="146.62" width="6.36" height="10.6"/><polygon class="cls-5" points="127.89 157.22 134.25 157.22 127.89 146.62 127.89 157.22"/><rect class="cls-19" x="119.77" y="110.89" width="76.86" height="1.37"/><rect class="cls-19" x="119.77" y="53.24" width="76.86" height="4.04"/><path class="cls-23" d="M136.24,184.87a25.13,25.13,0,0,1,47.48,0H195.3v12.37H124.66V184.87Z" transform="translate(-2.5 -144)"/><path class="cls-19" d="M141.14,193.1a18.84,18.84,0,1,1,37.68,0" transform="translate(-2.5 -144)"/><rect class="cls-18" x="188.97" y="40.87" width="3.83" height="12.37"/><rect class="cls-18" x="188.97" y="57.28" width="3.83" height="53.61"/><rect class="cls-18" x="188.97" y="112.26" width="3.83" height="67.82"/><rect class="cls-18" x="318.21" y="32.83" width="66.51" height="16.9"/><rect class="cls-18" x="337.85" y="23.95" width="27.23" height="12.22"/><path class="cls-18" d="M352.71,173a1.13,1.13,0,0,0,1.2,1.06h0a1.14,1.14,0,0,0,1.2-1.06V146.1a1.14,1.14,0,0,0-1.2-1.06h0a1.14,1.14,0,0,0-1.2,1.06Z" transform="translate(-2.5 -144)"/><circle class="cls-19" cx="351.46" cy="2.84" r="2.84"/><rect class="cls-23" x="312.44" y="47.72" width="78.05" height="132.3"/><rect class="cls-4" x="369.59" y="38.79" width="9.08" height="4.62"/><polygon class="cls-5" points="369.59 43.41 378.67 43.41 369.59 38.79 369.59 43.41"/><rect class="cls-4" x="357.96" y="38.79" width="9.08" height="4.62"/><polygon class="cls-5" points="357.96 43.41 367.04 43.41 357.96 38.79 357.96 43.41"/><rect class="cls-4" x="346.32" y="38.79" width="9.08" height="4.62"/><polygon class="cls-5" points="346.32 43.41 355.4 43.41 346.32 38.79 346.32 43.41"/><rect class="cls-4" x="334.25" y="38.79" width="9.08" height="4.62"/><polygon class="cls-5" points="334.25 43.41 343.32 43.41 334.25 38.79 334.25 43.41"/><rect class="cls-4" x="322.61" y="38.79" width="9.08" height="4.62"/><polygon class="cls-5" points="322.61 43.41 331.69 43.41 322.61 38.79 322.61 43.41"/><rect class="cls-4" x="330.42" y="158.55" width="42.27" height="21.5"/><polygon class="cls-5" points="330.42 180.05 372.69 180.05 330.42 158.55 330.42 180.05"/><rect class="cls-4" x="353.21" y="63.55" width="9.08" height="4.62"/><polygon class="cls-5" points="353.21 68.17 362.28 68.17 353.21 63.55 353.21 68.17"/><rect class="cls-4" x="364.84" y="80.11" width="9.08" height="4.62"/><polygon class="cls-5" points="364.84 84.73 373.92 84.73 364.84 80.11 364.84 84.73"/><rect class="cls-4" x="341.13" y="63.55" width="9.08" height="4.62"/><polygon class="cls-5" points="341.13 68.17 350.21 68.17 341.13 63.55 341.13 68.17"/><rect class="cls-4" x="329.5" y="63.55" width="9.08" height="4.62"/><polygon class="cls-5" points="329.5 68.17 338.57 68.17 329.5 63.55 329.5 68.17"/><rect class="cls-4" x="317.86" y="63.55" width="9.08" height="4.62"/><polygon class="cls-5" points="317.86 68.17 326.94 68.17 317.86 63.55 317.86 68.17"/><rect class="cls-4" x="376.47" y="54.76" width="9.08" height="4.62"/><polygon class="cls-5" points="376.47 59.38 385.55 59.38 376.47 54.76 376.47 59.38"/><rect class="cls-4" x="364.84" y="54.76" width="9.08" height="4.62"/><polygon class="cls-5" points="364.84 59.38 373.92 59.38 364.84 54.76 364.84 59.38"/><rect class="cls-4" x="353.21" y="54.76" width="9.08" height="4.62"/><polygon class="cls-5" points="353.21 59.38 362.28 59.38 353.21 54.76 353.21 59.38"/><rect class="cls-4" x="376.47" y="63.03" width="9.08" height="4.62"/><polygon class="cls-5" points="376.47 67.65 385.55 67.65 376.47 63.03 376.47 67.65"/><rect class="cls-4" x="364.84" y="63.03" width="9.08" height="4.62"/><polygon class="cls-5" points="364.84 67.65 373.92 67.65 364.84 63.03 364.84 67.65"/><rect class="cls-4" x="376.47" y="71.3" width="9.08" height="4.62"/><polygon class="cls-5" points="376.47 75.92 385.55 75.92 376.47 71.3 376.47 75.92"/><rect class="cls-4" x="364.84" y="71.3" width="9.08" height="4.62"/><polygon class="cls-5" points="364.84 75.92 373.92 75.92 364.84 71.3 364.84 75.92"/><rect class="cls-4" x="353.21" y="71.3" width="9.08" height="4.62"/><polygon class="cls-5" points="353.21 75.92 362.28 75.92 353.21 71.3 353.21 75.92"/><rect class="cls-4" x="376.47" y="79.57" width="9.08" height="4.62"/><polygon class="cls-5" points="376.47 84.19 385.55 84.19 376.47 79.57 376.47 84.19"/><rect class="cls-4" x="353.21" y="79.57" width="9.08" height="4.62"/><polygon class="cls-5" points="353.21 84.19 362.28 84.19 353.21 79.57 353.21 84.19"/><rect class="cls-4" x="341.13" y="54.76" width="9.08" height="4.62"/><polygon class="cls-5" points="341.13 59.38 350.21 59.38 341.13 54.76 341.13 59.38"/><rect class="cls-4" x="329.5" y="54.76" width="9.08" height="4.62"/><polygon class="cls-5" points="329.5 59.38 338.57 59.38 329.5 54.76 329.5 59.38"/><rect class="cls-4" x="317.86" y="54.76" width="9.08" height="4.62"/><polygon class="cls-5" points="317.86 59.38 326.94 59.38 317.86 54.76 317.86 59.38"/><rect class="cls-4" x="341.13" y="71.3" width="9.08" height="4.62"/><polygon class="cls-5" points="341.13 75.92 350.21 75.92 341.13 71.3 341.13 75.92"/><rect class="cls-4" x="329.5" y="71.3" width="9.08" height="4.62"/><polygon class="cls-5" points="329.5 75.92 338.57 75.92 329.5 71.3 329.5 75.92"/><rect class="cls-4" x="317.86" y="71.3" width="9.08" height="4.62"/><polygon class="cls-5" points="317.86 75.92 326.94 75.92 317.86 71.3 317.86 75.92"/><rect class="cls-4" x="341.13" y="79.57" width="9.08" height="4.62"/><polygon class="cls-5" points="341.13 84.19 350.21 84.19 341.13 79.57 341.13 84.19"/><rect class="cls-4" x="329.5" y="79.57" width="9.08" height="4.62"/><polygon class="cls-5" points="329.5 84.19 338.57 84.19 329.5 79.57 329.5 84.19"/><rect class="cls-4" x="317.86" y="79.57" width="9.08" height="4.62"/><polygon class="cls-5" points="317.86 84.19 326.94 84.19 317.86 79.57 317.86 84.19"/><rect class="cls-4" x="376.47" y="88.96" width="9.08" height="4.62"/><polygon class="cls-5" points="376.47 93.58 385.55 93.58 376.47 88.96 376.47 93.58"/><rect class="cls-4" x="364.84" y="88.96" width="9.08" height="4.62"/><polygon class="cls-5" points="364.84 93.58 373.92 93.58 364.84 88.96 364.84 93.58"/><rect class="cls-4" x="353.21" y="88.96" width="9.08" height="4.62"/><polygon class="cls-5" points="353.21 93.58 362.28 93.58 353.21 88.96 353.21 93.58"/><rect class="cls-4" x="376.47" y="97.23" width="9.08" height="4.62"/><polygon class="cls-5" points="376.47 101.85 385.55 101.85 376.47 97.23 376.47 101.85"/><rect class="cls-4" x="364.84" y="97.23" width="9.08" height="4.62"/><polygon class="cls-5" points="364.84 101.85 373.92 101.85 364.84 97.23 364.84 101.85"/><rect class="cls-4" x="353.21" y="97.23" width="9.08" height="4.62"/><polygon class="cls-5" points="353.21 101.85 362.28 101.85 353.21 97.23 353.21 101.85"/><rect class="cls-4" x="376.47" y="105.5" width="9.08" height="4.62"/><polygon class="cls-5" points="376.47 110.12 385.55 110.12 376.47 105.5 376.47 110.12"/><rect class="cls-4" x="364.84" y="105.5" width="9.08" height="4.62"/><polygon class="cls-5" points="364.84 110.12 373.92 110.12 364.84 105.5 364.84 110.12"/><rect class="cls-4" x="353.21" y="105.5" width="9.08" height="4.62"/><polygon class="cls-5" points="353.21 110.12 362.28 110.12 353.21 105.5 353.21 110.12"/><rect class="cls-4" x="376.47" y="113.77" width="9.08" height="4.62"/><polygon class="cls-5" points="376.47 118.39 385.55 118.39 376.47 113.77 376.47 118.39"/><rect class="cls-4" x="364.84" y="113.77" width="9.08" height="4.62"/><polygon class="cls-5" points="364.84 118.39 373.92 118.39 364.84 113.77 364.84 118.39"/><rect class="cls-4" x="353.21" y="113.77" width="9.08" height="4.62"/><polygon class="cls-5" points="353.21 118.39 362.28 118.39 353.21 113.77 353.21 118.39"/><rect class="cls-4" x="341.13" y="88.96" width="9.08" height="4.62"/><polygon class="cls-5" points="341.13 93.58 350.21 93.58 341.13 88.96 341.13 93.58"/><rect class="cls-4" x="329.5" y="88.96" width="9.08" height="4.62"/><polygon class="cls-5" points="329.5 93.58 338.57 93.58 329.5 88.96 329.5 93.58"/><rect class="cls-4" x="317.86" y="88.96" width="9.08" height="4.62"/><polygon class="cls-5" points="317.86 93.58 326.94 93.58 317.86 88.96 317.86 93.58"/><rect class="cls-4" x="341.13" y="97.23" width="9.08" height="4.62"/><polygon class="cls-5" points="341.13 101.85 350.21 101.85 341.13 97.23 341.13 101.85"/><rect class="cls-4" x="329.5" y="97.23" width="9.08" height="4.62"/><polygon class="cls-5" points="329.5 101.85 338.57 101.85 329.5 97.23 329.5 101.85"/><rect class="cls-4" x="317.86" y="97.23" width="9.08" height="4.62"/><polygon class="cls-5" points="317.86 101.85 326.94 101.85 317.86 97.23 317.86 101.85"/><rect class="cls-4" x="341.13" y="105.5" width="9.08" height="4.62"/><polygon class="cls-5" points="341.13 110.12 350.21 110.12 341.13 105.5 341.13 110.12"/><rect class="cls-4" x="329.5" y="105.5" width="9.08" height="4.62"/><polygon class="cls-5" points="329.5 110.12 338.57 110.12 329.5 105.5 329.5 110.12"/><rect class="cls-4" x="317.86" y="105.5" width="9.08" height="4.62"/><polygon class="cls-5" points="317.86 110.12 326.94 110.12 317.86 105.5 317.86 110.12"/><rect class="cls-4" x="341.13" y="113.77" width="9.08" height="4.62"/><polygon class="cls-5" points="341.13 118.39 350.21 118.39 341.13 113.77 341.13 118.39"/><rect class="cls-4" x="329.5" y="113.77" width="9.08" height="4.62"/><polygon class="cls-5" points="329.5 118.39 338.57 118.39 329.5 113.77 329.5 118.39"/><rect class="cls-4" x="317.86" y="113.77" width="9.08" height="4.62"/><polygon class="cls-5" points="317.86 118.39 326.94 118.39 317.86 113.77 317.86 118.39"/><rect class="cls-4" x="376.47" y="123.16" width="9.08" height="4.62"/><polygon class="cls-5" points="376.47 127.78 385.55 127.78 376.47 123.16 376.47 127.78"/><rect class="cls-4" x="364.84" y="123.16" width="9.08" height="4.62"/><polygon class="cls-5" points="364.84 127.78 373.92 127.78 364.84 123.16 364.84 127.78"/><rect class="cls-4" x="353.21" y="123.16" width="9.08" height="4.62"/><polygon class="cls-5" points="353.21 127.78 362.28 127.78 353.21 123.16 353.21 127.78"/><rect class="cls-4" x="376.47" y="131.43" width="9.08" height="4.62"/><polygon class="cls-5" points="376.47 136.05 385.55 136.05 376.47 131.43 376.47 136.05"/><rect class="cls-4" x="364.84" y="131.43" width="9.08" height="4.62"/><polygon class="cls-5" points="364.84 136.05 373.92 136.05 364.84 131.43 364.84 136.05"/><rect class="cls-4" x="353.21" y="131.43" width="9.08" height="4.62"/><polygon class="cls-5" points="353.21 136.05 362.28 136.05 353.21 131.43 353.21 136.05"/><rect class="cls-4" x="376.47" y="139.7" width="9.08" height="4.62"/><polygon class="cls-5" points="376.47 144.32 385.55 144.32 376.47 139.7 376.47 144.32"/><rect class="cls-4" x="364.84" y="139.7" width="9.08" height="4.62"/><polygon class="cls-5" points="364.84 144.32 373.92 144.32 364.84 139.7 364.84 144.32"/><rect class="cls-4" x="353.21" y="139.7" width="9.08" height="4.62"/><polygon class="cls-5" points="353.21 144.32 362.28 144.32 353.21 139.7 353.21 144.32"/><rect class="cls-4" x="376.47" y="147.97" width="9.08" height="4.62"/><polygon class="cls-5" points="376.47 152.59 385.55 152.59 376.47 147.97 376.47 152.59"/><rect class="cls-4" x="364.84" y="147.97" width="9.08" height="4.62"/><polygon class="cls-5" points="364.84 152.59 373.92 152.59 364.84 147.97 364.84 152.59"/><rect class="cls-4" x="353.21" y="147.97" width="9.08" height="4.62"/><polygon class="cls-5" points="353.21 152.59 362.28 152.59 353.21 147.97 353.21 152.59"/><rect class="cls-4" x="341.13" y="123.16" width="9.08" height="4.62"/><polygon class="cls-5" points="341.13 127.78 350.21 127.78 341.13 123.16 341.13 127.78"/><rect class="cls-4" x="329.5" y="123.16" width="9.08" height="4.62"/><polygon class="cls-5" points="329.5 127.78 338.57 127.78 329.5 123.16 329.5 127.78"/><rect class="cls-4" x="317.86" y="123.16" width="9.08" height="4.62"/><polygon class="cls-5" points="317.86 127.78 326.94 127.78 317.86 123.16 317.86 127.78"/><rect class="cls-4" x="341.13" y="131.43" width="9.08" height="4.62"/><polygon class="cls-5" points="341.13 136.05 350.21 136.05 341.13 131.43 341.13 136.05"/><rect class="cls-4" x="329.5" y="131.43" width="9.08" height="4.62"/><polygon class="cls-5" points="329.5 136.05 338.57 136.05 329.5 131.43 329.5 136.05"/><rect class="cls-4" x="317.86" y="131.43" width="9.08" height="4.62"/><polygon class="cls-5" points="317.86 136.05 326.94 136.05 317.86 131.43 317.86 136.05"/><rect class="cls-4" x="341.13" y="139.7" width="9.08" height="4.62"/><polygon class="cls-5" points="341.13 144.32 350.21 144.32 341.13 139.7 341.13 144.32"/><rect class="cls-4" x="329.5" y="139.7" width="9.08" height="4.62"/><polygon class="cls-5" points="329.5 144.32 338.57 144.32 329.5 139.7 329.5 144.32"/><rect class="cls-4" x="317.86" y="139.7" width="9.08" height="4.62"/><polygon class="cls-5" points="317.86 144.32 326.94 144.32 317.86 139.7 317.86 144.32"/><rect class="cls-4" x="341.13" y="147.97" width="9.08" height="4.62"/><polygon class="cls-5" points="341.13 152.59 350.21 152.59 341.13 147.97 341.13 152.59"/><rect class="cls-4" x="329.5" y="147.97" width="9.08" height="4.62"/><polygon class="cls-5" points="329.5 152.59 338.57 152.59 329.5 147.97 329.5 152.59"/><rect class="cls-4" x="317.86" y="147.97" width="9.08" height="4.62"/><polygon class="cls-5" points="317.86 152.59 326.94 152.59 317.86 147.97 317.86 152.59"/><path class="cls-24" d="M378.5,324.08s-3-7.68,5.75-10.47C393,316.4,390,324.08,390,324.08" transform="translate(-2.5 -144)"/><g class="cls-25"><path class="cls-26" d="M390,324.08s3-7.68-5.75-10.47v10.47" transform="translate(-2.5 -144)"/></g><path class="cls-24" d="M317.28,324.08s-3-7.68,5.75-10.47c8.74,2.79,5.75,10.47,5.75,10.47" transform="translate(-2.5 -144)"/><g class="cls-25"><path class="cls-26" d="M328.79,324.08s3-7.68-5.75-10.47v10.47" transform="translate(-2.5 -144)"/></g><rect class="cls-6" x="5.11" y="136.37" width="54.98" height="40.84"/><path class="cls-27" d="M64.27,279.06v3.18a2.65,2.65,0,0,1-5.3,0v-3.18Z" transform="translate(-2.5 -144)"/><path class="cls-28" d="M59,279.06v3.18a2.65,2.65,0,0,1-5.3,0v-3.18Z" transform="translate(-2.5 -144)"/><path class="cls-27" d="M53.66,279.06v3.18a2.65,2.65,0,0,1-5.3,0v-3.18Z" transform="translate(-2.5 -144)"/><path class="cls-28" d="M48.36,279.06v3.18a2.65,2.65,0,0,1-5.3,0v-3.18Z" transform="translate(-2.5 -144)"/><path class="cls-27" d="M43.06,279.06v3.18a2.65,2.65,0,0,1-5.3,0v-3.18Z" transform="translate(-2.5 -144)"/><path class="cls-28" d="M37.75,279.06v3.18a2.65,2.65,0,0,1-5.3,0v-3.18Z" transform="translate(-2.5 -144)"/><path class="cls-27" d="M32.45,279.06v3.18a2.65,2.65,0,1,1-5.3,0v-3.18Z" transform="translate(-2.5 -144)"/><path class="cls-28" d="M27.15,279.06v3.18a2.65,2.65,0,0,1-5.31,0v-3.18Z" transform="translate(-2.5 -144)"/><path class="cls-27" d="M21.84,279.06v3.18a2.65,2.65,0,1,1-5.3,0v-3.18Z" transform="translate(-2.5 -144)"/><path class="cls-28" d="M16.54,279.06v3.18a2.65,2.65,0,0,1-5.31,0v-3.18Z" transform="translate(-2.5 -144)"/><path class="cls-27" d="M11.23,279.06v3.18a2.65,2.65,0,1,1-5.3,0v-3.18Z" transform="translate(-2.5 -144)"/><polygon class="cls-6" points="55.09 125.19 61.77 135.06 56.47 135.06 50.7 125.19 55.09 125.19"/><polygon class="cls-29" points="50.7 125.19 56.47 135.06 51.16 135.06 46.55 125.19 50.7 125.19"/><polygon class="cls-6" points="46.78 125.19 51.16 135.06 45.86 135.06 42.16 125.19 46.78 125.19"/><polygon class="cls-29" points="42.16 125.19 45.86 135.06 40.56 135.06 38.69 125.19 42.16 125.19"/><polygon class="cls-6" points="38.69 125.19 40.56 135.06 35.25 135.06 34.77 125.19 38.69 125.19"/><polygon class="cls-29" points="34.77 125.19 35.25 135.06 29.95 135.06 30.7 125.19 34.77 125.19"/><polygon class="cls-6" points="30.7 125.19 29.95 135.06 24.65 135.06 26.67 125.19 30.7 125.19"/><polygon class="cls-29" points="26.67 125.19 24.65 135.06 19.34 135.06 22.62 125.19 26.67 125.19"/><polygon class="cls-6" points="23.01 125.19 19.34 135.06 14.04 135.06 18.52 125.19 23.01 125.19"/><polygon class="cls-29" points="18.52 125.19 14.04 135.06 8.73 135.06 13.82 125.19 18.52 125.19"/><polygon class="cls-6" points="13.82 125.19 8.73 135.06 3.43 135.06 8.92 125.19 13.82 125.19"/><rect class="cls-30" x="8.59" y="154.08" width="14.62" height="23.12"/><rect class="cls-31" x="0.28" y="176.8" width="64.64" height="3.28"/><rect class="cls-31" x="23.62" y="173.36" width="36.47" height="1.64"/><path class="cls-14" d="M19.36,292.23V287.3c3.42.15,6.76,1.09,6.76,3v2Z" transform="translate(-2.5 -144)"/><path class="cls-14" d="M17.45,292.23H10.69v-2c0-1.89,3.34-2.83,6.76-3Z" transform="translate(-2.5 -144)"/><rect class="cls-14" x="8.19" y="148.98" width="6.76" height="3.36"/><rect class="cls-14" x="16.86" y="148.98" width="6.76" height="3.36"/><circle class="cls-28" cx="21.14" cy="165.34" r="0.75"/><rect class="cls-13" x="31.69" y="147.64" width="26.29" height="23.21"/><polygon class="cls-14" points="31.69 170.85 57.98 170.85 31.69 147.64 31.69 170.85"/><rect class="cls-32" y="180.08" width="494.34" height="12.63"/><polygon class="cls-33" points="494.34 190.09 494.34 200.48 494.34 210.86 0 210.86 0 200.48 0 190.09 494.34 190.09"/><rect class="cls-34" x="400.72" y="170.57" width="2.08" height="11.55"/><path class="cls-24" d="M396.07,296.18a8.19,8.19,0,1,1,16.39,0v12.24a8.19,8.19,0,1,1-16.39,0Z" transform="translate(-2.5 -144)"/><path class="cls-35" d="M412.45,296.18v12.24a8.19,8.19,0,0,1-8.19,8.2V288A8.19,8.19,0,0,1,412.45,296.18Z" transform="translate(-2.5 -144)"/><rect class="cls-34" x="207.71" y="171.77" width="2.08" height="11.55"/><path class="cls-24" d="M203,297.39a8.19,8.19,0,0,1,16.39,0v12.24a8.19,8.19,0,1,1-16.39,0Z" transform="translate(-2.5 -144)"/><path class="cls-35" d="M219.44,297.39v12.24a8.19,8.19,0,0,1-8.19,8.2V289.19A8.19,8.19,0,0,1,219.44,297.39Z" transform="translate(-2.5 -144)"/><rect class="cls-34" x="73.69" y="171.77" width="2.08" height="11.55"/><path class="cls-24" d="M69,297.39a8.19,8.19,0,1,1,16.38,0v12.24a8.19,8.19,0,1,1-16.38,0Z" transform="translate(-2.5 -144)"/><path class="cls-35" d="M85.42,297.39v12.24a8.19,8.19,0,0,1-8.19,8.2V289.19A8.19,8.19,0,0,1,85.42,297.39Z" transform="translate(-2.5 -144)"/></svg>