<svg id="Layer_1" data-name="Layer 1" xmlns="http://www.w3.org/2000/svg" xmlns:xlink="http://www.w3.org/1999/xlink" viewBox="0 0 121.6 175.2"><defs><style>.cls-1{fill:url(#linear-gradient);}.cls-2{fill:#9a8479;}.cls-3{fill:#da251d;}.cls-4{fill:#ff0;}</style><linearGradient id="linear-gradient" x1="467.92" y1="320.21" x2="553.14" y2="277.6" gradientTransform="translate(184.51 -149.04) rotate(17.48)" gradientUnits="userSpaceOnUse"><stop offset="0" stop-color="#6d6e70"/><stop offset="0.03" stop-color="#757678" stop-opacity="0.94"/><stop offset="0.23" stop-color="#a2a2a4" stop-opacity="0.6"/><stop offset="0.43" stop-color="#c4c5c6" stop-opacity="0.34"/><stop offset="0.63" stop-color="#ddddde" stop-opacity="0.15"/><stop offset="0.82" stop-color="#ececed" stop-opacity="0.04"/><stop offset="1" stop-color="#f1f1f2" stop-opacity="0"/></linearGradient></defs><title>vn-flag</title><path class="cls-1" d="M535.11,298.74l-.33-1.92,92.5-19.71a14.08,14.08,0,0,0,.24,4.93,18.33,18.33,0,0,0,1.41,4.74Z" transform="translate(-534.78 -123.67)"/><polygon class="cls-2" points="2.03 175.2 0.1 174.96 17.82 0 27.55 1.21 2.03 175.2"/><polyline class="cls-3" points="17.42 2.35 121.6 15.26 93.82 48.6 112.62 87.73 10.39 75.06"/><polygon class="cls-4" points="72.03 65.58 59.01 53.49 43.44 62.07 50.79 45.9 37.94 33.8 55.95 36.03 63.13 19.84 66.31 37.31 84.19 39.47 68.91 48.15 72.03 65.58"/></svg>